<svg xmlns="http://www.w3.org/2000/svg" width="150" zoomAndPan="magnify" viewBox="0 0 112.5 112.499997" height="150"
     preserveAspectRatio="xMidYMid meet" version="1.0"><defs><g/><clipPath id="cbf49c7f4c"><path d="M 1.042969 87 L 111.292969 87 L 111.292969 95.210938 L 1.042969 95.210938 Z M 1.042969 87 " clip-rule="nonzero"/></clipPath><clipPath id="124c000a27"><path d="M 81 2.210938 L 87 2.210938 L 87 7 L 81 7 Z M 81 2.210938 " clip-rule="nonzero"/></clipPath></defs><g fill="#179a6b" fill-opacity="1"><g transform="translate(39.100043, 111.694075)"><g><path d="M 11.109375 -2.953125 L 9.390625 -2.953125 L 9.390625 0 L 6.4375 0 L 6.4375 -2.953125 L 0.34375 -2.953125 L 0.34375 -5.0625 L 6.609375 -14.28125 L 9.390625 -14.28125 L 9.390625 -5.296875 L 11.109375 -5.296875 Z M 6.4375 -5.296875 L 6.4375 -7.71875 C 6.4375 -8.125 6.453125 -8.710938 6.484375 -9.484375 C 6.515625 -10.253906 6.539062 -10.703125 6.5625 -10.828125 L 6.484375 -10.828125 C 6.242188 -10.285156 5.953125 -9.765625 5.609375 -9.265625 L 3 -5.296875 Z M 6.4375 -5.296875 "/></g></g></g><g fill="#179a6b" fill-opacity="1"><g transform="translate(50.531122, 111.694075)"><g><path d="M 10.703125 -7.140625 C 10.703125 -4.648438 10.289062 -2.800781 9.46875 -1.59375 C 8.65625 -0.394531 7.398438 0.203125 5.703125 0.203125 C 4.054688 0.203125 2.8125 -0.414062 1.96875 -1.65625 C 1.132812 -2.894531 0.71875 -4.722656 0.71875 -7.140625 C 0.71875 -9.660156 1.125 -11.515625 1.9375 -12.703125 C 2.757812 -13.898438 4.015625 -14.5 5.703125 -14.5 C 7.347656 -14.5 8.59375 -13.875 9.4375 -12.625 C 10.28125 -11.375 10.703125 -9.546875 10.703125 -7.140625 Z M 3.71875 -7.140625 C 3.71875 -5.390625 3.867188 -4.132812 4.171875 -3.375 C 4.472656 -2.613281 4.984375 -2.234375 5.703125 -2.234375 C 6.410156 -2.234375 6.921875 -2.617188 7.234375 -3.390625 C 7.546875 -4.160156 7.703125 -5.410156 7.703125 -7.140625 C 7.703125 -8.890625 7.539062 -10.144531 7.21875 -10.90625 C 6.90625 -11.675781 6.398438 -12.0625 5.703125 -12.0625 C 4.992188 -12.0625 4.484375 -11.675781 4.171875 -10.90625 C 3.867188 -10.144531 3.71875 -8.890625 3.71875 -7.140625 Z M 3.71875 -7.140625 "/></g></g></g><g fill="#179a6b" fill-opacity="1"><g transform="translate(61.962201, 111.694075)"><g><path d="M 11.109375 -2.953125 L 9.390625 -2.953125 L 9.390625 0 L 6.4375 0 L 6.4375 -2.953125 L 0.34375 -2.953125 L 0.34375 -5.0625 L 6.609375 -14.28125 L 9.390625 -14.28125 L 9.390625 -5.296875 L 11.109375 -5.296875 Z M 6.4375 -5.296875 L 6.4375 -7.71875 C 6.4375 -8.125 6.453125 -8.710938 6.484375 -9.484375 C 6.515625 -10.253906 6.539062 -10.703125 6.5625 -10.828125 L 6.484375 -10.828125 C 6.242188 -10.285156 5.953125 -9.765625 5.609375 -9.265625 L 3 -5.296875 Z M 6.4375 -5.296875 "/></g></g></g><g clip-path="url(#cbf49c7f4c)"><path fill="#000000" d="M 111.269531 91.519531 C 111.269531 91.640625 111.183594 91.761719 111.003906 91.882812 C 110.828125 92.003906 110.5625 92.121094 110.210938 92.242188 C 109.859375 92.359375 109.421875 92.476562 108.898438 92.59375 C 108.375 92.707031 107.765625 92.820312 107.078125 92.933594 C 106.386719 93.046875 105.613281 93.15625 104.765625 93.261719 C 103.914062 93.367188 102.988281 93.472656 101.984375 93.570312 C 100.980469 93.671875 99.90625 93.769531 98.761719 93.863281 C 97.617188 93.957031 96.40625 94.046875 95.132812 94.132812 C 93.855469 94.214844 92.519531 94.296875 91.125 94.375 C 89.730469 94.449219 88.28125 94.523438 86.78125 94.589844 C 85.28125 94.65625 83.734375 94.71875 82.144531 94.777344 C 80.550781 94.832031 78.921875 94.886719 77.257812 94.929688 C 75.589844 94.976562 73.890625 95.019531 72.164062 95.054688 C 70.4375 95.089844 68.691406 95.117188 66.917969 95.140625 C 65.148438 95.164062 63.367188 95.183594 61.570312 95.195312 C 59.773438 95.207031 57.976562 95.210938 56.171875 95.210938 C 54.367188 95.210938 52.566406 95.207031 50.769531 95.195312 C 48.972656 95.183594 47.191406 95.164062 45.421875 95.140625 C 43.652344 95.117188 41.902344 95.089844 40.175781 95.054688 C 38.449219 95.019531 36.75 94.976562 35.082031 94.929688 C 33.417969 94.886719 31.789062 94.832031 30.195312 94.777344 C 28.605469 94.71875 27.058594 94.65625 25.558594 94.589844 C 24.058594 94.523438 22.609375 94.449219 21.214844 94.375 C 19.820312 94.296875 18.484375 94.214844 17.207031 94.132812 C 15.933594 94.046875 14.722656 93.957031 13.578125 93.863281 C 12.433594 93.769531 11.359375 93.671875 10.355469 93.570312 C 9.351562 93.472656 8.425781 93.367188 7.574219 93.261719 C 6.726562 93.15625 5.953125 93.046875 5.265625 92.933594 C 4.574219 92.820312 3.964844 92.707031 3.441406 92.59375 C 2.917969 92.476562 2.480469 92.359375 2.128906 92.242188 C 1.777344 92.121094 1.511719 92.003906 1.335938 91.882812 C 1.15625 91.761719 1.070312 91.640625 1.070312 91.519531 C 1.070312 91.398438 1.15625 91.28125 1.335938 91.160156 C 1.511719 91.039062 1.777344 90.917969 2.128906 90.800781 C 2.480469 90.683594 2.917969 90.566406 3.441406 90.449219 C 3.964844 90.335938 4.574219 90.21875 5.265625 90.109375 C 5.953125 89.996094 6.726562 89.886719 7.574219 89.78125 C 8.425781 89.675781 9.351562 89.570312 10.355469 89.46875 C 11.359375 89.371094 12.433594 89.273438 13.578125 89.179688 C 14.722656 89.085938 15.933594 88.996094 17.207031 88.910156 C 18.484375 88.824219 19.820312 88.746094 21.214844 88.667969 C 22.609375 88.589844 24.058594 88.519531 25.558594 88.453125 C 27.058594 88.386719 28.605469 88.324219 30.195312 88.265625 C 31.789062 88.210938 33.417969 88.15625 35.082031 88.109375 C 36.75 88.066406 38.449219 88.023438 40.175781 87.988281 C 41.902344 87.953125 43.652344 87.925781 45.421875 87.902344 C 47.191406 87.878906 48.972656 87.859375 50.769531 87.847656 C 52.566406 87.835938 54.367188 87.832031 56.171875 87.832031 C 57.976562 87.832031 59.773438 87.835938 61.570312 87.847656 C 63.367188 87.859375 65.148438 87.878906 66.917969 87.902344 C 68.691406 87.925781 70.4375 87.953125 72.164062 87.988281 C 73.890625 88.023438 75.589844 88.066406 77.257812 88.109375 C 78.921875 88.15625 80.550781 88.210938 82.144531 88.265625 C 83.734375 88.324219 85.28125 88.386719 86.78125 88.453125 C 88.28125 88.519531 89.730469 88.589844 91.125 88.667969 C 92.519531 88.746094 93.855469 88.824219 95.132812 88.910156 C 96.40625 88.996094 97.617188 89.085938 98.761719 89.179688 C 99.90625 89.273438 100.980469 89.371094 101.984375 89.46875 C 102.988281 89.570312 103.914062 89.675781 104.765625 89.78125 C 105.613281 89.886719 106.386719 89.996094 107.078125 90.109375 C 107.765625 90.21875 108.375 90.335938 108.898438 90.449219 C 109.421875 90.566406 109.859375 90.683594 110.210938 90.800781 C 110.5625 90.917969 110.828125 91.039062 111.003906 91.160156 C 111.183594 91.28125 111.269531 91.398438 111.269531 91.519531 Z M 111.269531 91.519531 " fill-opacity="0.149" fill-rule="nonzero"/></g><path fill="#00bb5f" d="M 53.007812 25.941406 C 53.214844 26.097656 53.421875 26.253906 53.621094 26.414062 C 55 27.519531 56.238281 28.761719 57.339844 30.148438 C 57.519531 30.375 57.695312 30.605469 57.867188 30.835938 C 58.890625 32.21875 59.773438 33.683594 60.511719 35.234375 C 60.644531 35.515625 60.773438 35.792969 60.898438 36.078125 C 61.683594 37.875 62.273438 39.734375 62.667969 41.65625 C 62.734375 41.976562 62.792969 42.296875 62.847656 42.617188 C 63.257812 45.042969 63.316406 47.476562 63.015625 49.921875 C 62.964844 50.347656 62.898438 50.777344 62.816406 51.199219 C 62.730469 51.6875 62.625 52.171875 62.5 52.652344 C 62.347656 53.257812 62.132812 54.25 61.671875 54.894531 C 61.535156 55.097656 61.359375 55.261719 61.144531 55.378906 C 61.097656 55.402344 61.054688 55.421875 61.007812 55.441406 C 59.734375 55.90625 57.78125 53.78125 56.96875 52.949219 C 56.679688 52.648438 56.394531 52.34375 56.125 52.03125 C 55.792969 51.65625 55.472656 51.269531 55.167969 50.875 C 54.222656 49.648438 53.378906 48.359375 52.636719 47 C 52.460938 46.683594 52.289062 46.359375 52.121094 46.03125 C 52.113281 46.019531 52.109375 46.007812 52.101562 45.996094 C 51.371094 44.558594 50.71875 43.085938 50.140625 41.578125 C 50.027344 41.292969 49.921875 41.011719 49.816406 40.730469 C 49.457031 39.777344 49.125 38.816406 48.804688 37.859375 C 48.691406 37.519531 48.578125 37.175781 48.46875 36.835938 C 48.382812 36.578125 48.300781 36.320312 48.214844 36.066406 C 47.734375 34.59375 47.257812 33.128906 46.71875 31.679688 C 46.625 31.425781 46.527344 31.171875 46.429688 30.917969 C 46.277344 30.523438 46.117188 30.128906 45.953125 29.738281 C 45.566406 28.820312 45.152344 27.910156 44.699219 27.019531 C 44.558594 26.753906 44.417969 26.484375 44.273438 26.222656 C 44.179688 26.050781 44.085938 25.878906 43.988281 25.707031 C 43.773438 25.335938 42.984375 23.789062 42.296875 22.828125 C 42.179688 22.664062 42.171875 22.496094 42.269531 22.320312 C 42.367188 22.148438 42.515625 22.066406 42.710938 22.085938 L 42.722656 22.085938 C 44.441406 22.203125 46.113281 22.550781 47.742188 23.125 C 47.984375 23.210938 48.222656 23.300781 48.457031 23.394531 C 50.082031 24.046875 51.601562 24.894531 53.007812 25.941406 Z M 53.007812 25.941406 " fill-opacity="1" fill-rule="nonzero"/><path fill="#00663e" d="M 51.742188 31.144531 C 52.164062 29.410156 52.585938 27.675781 53.007812 25.941406 C 53.214844 26.097656 53.421875 26.253906 53.625 26.414062 C 53.171875 28.269531 52.71875 30.128906 52.265625 31.988281 C 53.230469 33.605469 54.082031 35.277344 54.824219 37.007812 C 54.9375 36.746094 55.050781 36.484375 55.160156 36.222656 C 55.398438 35.65625 55.628906 35.085938 55.847656 34.519531 C 56.402344 33.082031 56.898438 31.625 57.339844 30.152344 C 57.519531 30.378906 57.695312 30.609375 57.867188 30.839844 C 57.761719 31.191406 57.652344 31.539062 57.539062 31.886719 C 57.125 33.148438 56.671875 34.398438 56.175781 35.632812 C 55.929688 36.238281 55.675781 36.839844 55.414062 37.441406 C 55.351562 37.597656 55.28125 37.753906 55.199219 37.90625 C 55.804688 39.386719 56.335938 40.894531 56.8125 42.414062 C 56.824219 42.457031 56.839844 42.5 56.851562 42.539062 C 58.117188 40.128906 59.339844 37.695312 60.515625 35.234375 C 60.648438 35.515625 60.777344 35.792969 60.902344 36.078125 C 59.695312 38.578125 58.441406 41.058594 57.140625 43.511719 C 57.566406 44.972656 57.953125 46.449219 58.410156 47.898438 C 59.753906 45.769531 61.175781 43.6875 62.667969 41.65625 C 62.734375 41.976562 62.792969 42.296875 62.847656 42.617188 C 61.390625 44.621094 60.007812 46.671875 58.691406 48.773438 C 59 49.707031 59.359375 50.621094 59.773438 51.511719 C 59.960938 51.917969 60.164062 52.320312 60.375 52.714844 C 60.574219 52.53125 60.761719 52.324219 60.953125 52.128906 C 61.660156 51.410156 62.347656 50.675781 63.015625 49.921875 C 62.960938 50.351562 62.894531 50.777344 62.816406 51.199219 C 62.246094 51.820312 61.664062 52.425781 61.066406 53.019531 C 60.949219 53.136719 60.839844 53.246094 60.722656 53.339844 C 61.023438 53.867188 61.339844 54.382812 61.671875 54.890625 C 61.535156 55.09375 61.359375 55.257812 61.144531 55.375 C 60.757812 54.789062 60.390625 54.1875 60.046875 53.578125 C 59.964844 53.570312 59.886719 53.550781 59.808594 53.523438 C 59.179688 53.304688 58.566406 53.019531 57.949219 52.769531 L 56.125 52.027344 C 55.792969 51.652344 55.472656 51.265625 55.167969 50.867188 C 56.089844 51.246094 57.015625 51.621094 57.941406 52 L 59.539062 52.648438 C 59.265625 52.121094 59.015625 51.582031 58.78125 51.03125 C 58.515625 50.40625 58.277344 49.769531 58.054688 49.125 L 52.632812 46.996094 C 52.457031 46.675781 52.285156 46.355469 52.117188 46.027344 C 54 46.765625 55.882812 47.503906 57.765625 48.246094 C 57.300781 46.773438 56.90625 45.277344 56.476562 43.792969 C 54.378906 43.015625 52.265625 42.277344 50.140625 41.578125 C 50.027344 41.292969 49.921875 41.011719 49.816406 40.730469 C 51.96875 41.425781 54.105469 42.164062 56.230469 42.949219 C 56.140625 42.640625 56.042969 42.339844 55.945312 42.039062 C 55.527344 40.75 55.070312 39.472656 54.558594 38.21875 C 54.472656 38.203125 54.390625 38.183594 54.308594 38.160156 C 52.382812 37.621094 50.4375 37.179688 48.464844 36.835938 C 48.382812 36.578125 48.296875 36.324219 48.214844 36.066406 C 49.078125 36.210938 49.9375 36.375 50.792969 36.554688 C 51.945312 36.800781 53.085938 37.082031 54.21875 37.402344 C 53.675781 36.128906 53.078125 34.878906 52.414062 33.664062 C 52.195312 33.265625 51.96875 32.871094 51.738281 32.484375 C 50.066406 32.191406 48.394531 31.921875 46.71875 31.679688 C 46.621094 31.425781 46.527344 31.171875 46.429688 30.917969 C 48.035156 31.144531 49.636719 31.398438 51.238281 31.671875 C 50.324219 30.234375 49.304688 28.875 48.175781 27.601562 C 48.128906 27.617188 48.082031 27.621094 48.03125 27.613281 C 46.921875 27.417969 45.808594 27.21875 44.695312 27.023438 C 44.558594 26.753906 44.417969 26.488281 44.273438 26.222656 L 47.40625 26.773438 C 45.855469 25.167969 44.121094 23.75 42.207031 22.605469 C 42.191406 22.460938 42.234375 22.332031 42.335938 22.226562 C 42.4375 22.121094 42.5625 22.070312 42.710938 22.082031 L 42.71875 22.082031 C 44.566406 23.214844 46.246094 24.5625 47.761719 26.113281 C 47.78125 25.117188 47.773438 24.121094 47.738281 23.121094 C 47.980469 23.207031 48.21875 23.296875 48.453125 23.390625 C 48.488281 24.539062 48.484375 25.691406 48.449219 26.839844 C 49.671875 28.179688 50.769531 29.613281 51.742188 31.144531 Z M 51.742188 31.144531 " fill-opacity="1" fill-rule="nonzero"/><path fill="#82ff44" d="M 63.558594 27.804688 C 63.65625 27.96875 63.75 28.136719 63.839844 28.304688 C 64.457031 29.460938 64.941406 30.671875 65.289062 31.933594 C 65.34375 32.140625 65.398438 32.347656 65.449219 32.558594 C 65.746094 33.796875 65.921875 35.054688 65.976562 36.328125 C 65.988281 36.554688 65.992188 36.785156 65.996094 37.011719 C 66.011719 38.464844 65.875 39.90625 65.585938 41.328125 C 65.535156 41.566406 65.484375 41.800781 65.425781 42.035156 C 65.007812 43.808594 64.339844 45.480469 63.429688 47.058594 C 63.265625 47.335938 63.101562 47.605469 62.921875 47.871094 C 62.722656 48.175781 62.507812 48.476562 62.285156 48.765625 C 62.003906 49.132812 61.570312 49.746094 61.074219 50.050781 C 60.917969 50.148438 60.753906 50.207031 60.570312 50.226562 C 60.535156 50.230469 60.496094 50.230469 60.460938 50.226562 C 59.460938 50.171875 58.746094 48.152344 58.433594 47.347656 C 58.320312 47.058594 58.21875 46.769531 58.121094 46.476562 C 58.007812 46.125 57.902344 45.765625 57.808594 45.410156 C 57.519531 44.300781 57.316406 43.175781 57.203125 42.03125 C 57.175781 41.761719 57.152344 41.492188 57.132812 41.222656 C 57.132812 41.210938 57.132812 41.203125 57.132812 41.195312 C 57.050781 40 57.03125 38.804688 57.074219 37.609375 C 57.078125 37.386719 57.085938 37.160156 57.097656 36.9375 C 57.132812 36.183594 57.179688 35.433594 57.242188 34.6875 C 57.261719 34.421875 57.285156 34.15625 57.308594 33.890625 C 57.324219 33.691406 57.34375 33.492188 57.359375 33.292969 C 57.457031 32.152344 57.558594 31.011719 57.609375 29.867188 C 57.621094 29.667969 57.628906 29.464844 57.632812 29.261719 C 57.644531 28.949219 57.648438 28.636719 57.652344 28.320312 C 57.652344 27.582031 57.636719 26.839844 57.582031 26.101562 C 57.570312 25.882812 57.550781 25.660156 57.527344 25.4375 C 57.511719 25.292969 57.5 25.144531 57.480469 25 C 57.445312 24.6875 57.351562 23.402344 57.164062 22.546875 C 57.148438 22.488281 57.152344 22.429688 57.167969 22.371094 C 57.199219 22.265625 57.265625 22.191406 57.367188 22.148438 C 57.464844 22.105469 57.566406 22.109375 57.660156 22.160156 L 57.667969 22.164062 C 58.804688 22.75 59.84375 23.476562 60.785156 24.347656 C 60.925781 24.476562 61.0625 24.609375 61.195312 24.742188 C 62.113281 25.660156 62.902344 26.679688 63.558594 27.804688 Z M 63.558594 27.804688 " fill-opacity="1" fill-rule="nonzero"/><path fill="#00663e" d="M 61.1875 30.980469 L 63.558594 27.808594 C 63.65625 27.972656 63.75 28.140625 63.839844 28.308594 C 62.996094 29.441406 62.148438 30.570312 61.300781 31.703125 C 61.492188 33.085938 61.585938 34.476562 61.589844 35.871094 C 61.742188 35.726562 61.898438 35.578125 62.046875 35.433594 C 62.375 35.117188 62.695312 34.796875 63.007812 34.472656 C 63.800781 33.65625 64.5625 32.8125 65.289062 31.933594 C 65.347656 32.140625 65.398438 32.351562 65.449219 32.558594 C 65.277344 32.765625 65.101562 32.972656 64.921875 33.175781 C 64.273438 33.914062 63.601562 34.632812 62.90625 35.328125 C 62.5625 35.671875 62.214844 36.007812 61.863281 36.335938 C 61.777344 36.425781 61.683594 36.511719 61.585938 36.589844 C 61.566406 37.777344 61.492188 38.960938 61.375 40.132812 C 61.375 40.164062 61.371094 40.199219 61.367188 40.230469 C 62.925781 38.957031 64.464844 37.65625 65.976562 36.328125 C 65.988281 36.558594 65.992188 36.785156 65.996094 37.011719 C 64.449219 38.363281 62.878906 39.683594 61.285156 40.976562 C 61.152344 42.09375 60.988281 43.214844 60.875 44.332031 C 62.410156 43.277344 63.976562 42.273438 65.582031 41.328125 C 65.535156 41.566406 65.484375 41.800781 65.425781 42.035156 C 63.855469 42.972656 62.316406 43.964844 60.8125 45.011719 C 60.753906 45.738281 60.730469 46.464844 60.753906 47.191406 C 60.765625 47.523438 60.785156 47.859375 60.816406 48.1875 C 61.007812 48.121094 61.191406 48.035156 61.378906 47.960938 C 62.066406 47.675781 62.75 47.375 63.425781 47.058594 C 63.261719 47.335938 63.09375 47.605469 62.917969 47.871094 C 62.351562 48.125 61.777344 48.367188 61.199219 48.597656 C 61.085938 48.644531 60.976562 48.6875 60.871094 48.71875 C 60.925781 49.160156 60.988281 49.605469 61.070312 50.050781 C 60.914062 50.148438 60.746094 50.207031 60.566406 50.226562 C 60.476562 49.714844 60.398438 49.195312 60.339844 48.683594 C 60.285156 48.652344 60.238281 48.617188 60.195312 48.578125 C 59.832031 48.242188 59.496094 47.871094 59.148438 47.519531 C 58.800781 47.167969 58.46875 46.828125 58.125 46.480469 C 58.007812 46.128906 57.902344 45.769531 57.808594 45.410156 L 59.375 46.992188 L 60.273438 47.902344 C 60.242188 47.464844 60.222656 47.023438 60.222656 46.582031 C 60.222656 46.078125 60.246094 45.574219 60.285156 45.070312 L 57.207031 42.035156 C 57.179688 41.765625 57.15625 41.496094 57.136719 41.226562 L 60.339844 44.386719 C 60.449219 43.25 60.617188 42.113281 60.753906 40.980469 C 59.550781 39.832031 58.324219 38.710938 57.074219 37.613281 C 57.082031 37.390625 57.089844 37.164062 57.101562 36.9375 C 58.367188 38.042969 59.609375 39.171875 60.828125 40.324219 C 60.855469 40.089844 60.878906 39.855469 60.898438 39.621094 C 60.988281 38.621094 61.042969 37.621094 61.058594 36.613281 C 61.007812 36.582031 60.957031 36.542969 60.90625 36.503906 C 59.753906 35.574219 58.554688 34.703125 57.3125 33.894531 C 57.328125 33.695312 57.347656 33.496094 57.363281 33.296875 C 57.910156 33.644531 58.449219 34.007812 58.976562 34.382812 C 59.691406 34.886719 60.386719 35.414062 61.066406 35.960938 C 61.066406 34.933594 61.019531 33.910156 60.917969 32.886719 C 60.886719 32.554688 60.84375 32.21875 60.796875 31.886719 C 59.746094 31.199219 58.683594 30.527344 57.613281 29.875 C 57.621094 29.671875 57.628906 29.472656 57.636719 29.265625 C 58.664062 29.890625 59.683594 30.53125 60.691406 31.1875 C 60.488281 29.941406 60.1875 28.71875 59.789062 27.519531 C 59.75 27.515625 59.71875 27.503906 59.6875 27.484375 L 57.585938 26.105469 C 57.570312 25.882812 57.550781 25.664062 57.53125 25.441406 L 59.503906 26.734375 C 58.917969 25.175781 58.140625 23.722656 57.171875 22.375 C 57.203125 22.269531 57.269531 22.195312 57.367188 22.152344 C 57.46875 22.109375 57.566406 22.113281 57.664062 22.164062 L 57.671875 22.167969 C 58.601562 23.480469 59.355469 24.886719 59.9375 26.386719 C 60.238281 25.714844 60.523438 25.035156 60.785156 24.347656 C 60.925781 24.476562 61.0625 24.609375 61.195312 24.742188 C 60.886719 25.53125 60.550781 26.316406 60.195312 27.085938 C 60.636719 28.355469 60.96875 29.652344 61.1875 30.980469 Z M 61.1875 30.980469 " fill-opacity="1" fill-rule="nonzero"/><path fill="#3fb268" d="M 13.664062 90.136719 C 13.664062 90.136719 14.9375 86.585938 18.613281 88.007812 C 18.613281 88.007812 19.324219 82.398438 24.335938 81.65625 C 29.347656 80.914062 31.480469 85.734375 31.480469 85.734375 C 31.480469 85.734375 32.894531 83.886719 35.15625 84.597656 C 37.417969 85.308594 37.398438 86.914062 37.398438 86.914062 C 37.398438 86.914062 38.425781 85.5 40.871094 86.203125 C 43.316406 86.910156 42.929688 88.859375 42.929688 88.859375 C 42.929688 88.859375 48.019531 87.152344 49.152344 90.136719 Z M 13.664062 90.136719 " fill-opacity="1" fill-rule="nonzero"/><path fill="#f18a00" d="M 53.035156 83.121094 C 54.609375 82.574219 56.09375 81.847656 57.488281 80.9375 L 61.628906 84.617188 C 61.769531 84.742188 61.925781 84.832031 62.097656 84.890625 C 62.269531 84.949219 62.449219 84.972656 62.632812 84.964844 C 62.816406 84.953125 62.988281 84.90625 63.152344 84.824219 C 63.320312 84.746094 63.460938 84.636719 63.585938 84.496094 L 69.199219 78.121094 C 69.320312 77.984375 69.410156 77.828125 69.46875 77.652344 C 69.527344 77.476562 69.550781 77.296875 69.539062 77.113281 C 69.527344 76.929688 69.484375 76.757812 69.402344 76.589844 C 69.324219 76.425781 69.214844 76.28125 69.078125 76.160156 L 64.933594 72.476562 C 65.660156 70.972656 66.199219 69.40625 66.546875 67.769531 L 72.066406 67.429688 C 72.25 67.417969 72.421875 67.371094 72.585938 67.292969 C 72.753906 67.210938 72.894531 67.101562 73.015625 66.964844 C 73.136719 66.824219 73.230469 66.667969 73.289062 66.496094 C 73.347656 66.320312 73.375 66.140625 73.363281 65.957031 L 72.84375 57.460938 C 72.832031 57.277344 72.785156 57.101562 72.703125 56.9375 C 72.625 56.773438 72.515625 56.628906 72.378906 56.507812 C 72.242188 56.382812 72.085938 56.292969 71.910156 56.234375 C 71.738281 56.171875 71.5625 56.148438 71.378906 56.160156 L 65.859375 56.5 C 65.316406 54.917969 64.589844 53.429688 63.6875 52.023438 L 67.351562 47.863281 C 67.472656 47.726562 67.5625 47.570312 67.621094 47.394531 C 67.679688 47.21875 67.703125 47.039062 67.691406 46.855469 C 67.683594 46.671875 67.636719 46.496094 67.554688 46.332031 C 67.476562 46.167969 67.367188 46.023438 67.230469 45.898438 L 60.882812 40.261719 C 60.746094 40.140625 60.589844 40.046875 60.417969 39.988281 C 60.242188 39.929688 60.066406 39.90625 59.882812 39.917969 C 59.699219 39.929688 59.523438 39.972656 59.359375 40.054688 C 59.195312 40.136719 59.050781 40.246094 58.929688 40.382812 L 55.265625 44.542969 C 53.769531 43.8125 52.207031 43.273438 50.582031 42.921875 L 50.246094 37.378906 C 50.230469 37.195312 50.1875 37.019531 50.105469 36.855469 C 50.023438 36.6875 49.914062 36.542969 49.777344 36.421875 C 49.640625 36.300781 49.484375 36.210938 49.3125 36.148438 C 49.140625 36.089844 48.960938 36.0625 48.777344 36.074219 L 40.324219 36.597656 C 40.140625 36.609375 39.964844 36.65625 39.800781 36.738281 C 39.636719 36.820312 39.492188 36.929688 39.371094 37.066406 C 39.25 37.203125 39.160156 37.359375 39.097656 37.535156 C 39.039062 37.707031 39.015625 37.886719 39.027344 38.070312 L 39.363281 43.617188 C 37.792969 44.164062 36.308594 44.890625 34.914062 45.800781 L 30.769531 42.117188 C 30.632812 41.996094 30.476562 41.90625 30.304688 41.847656 C 30.128906 41.785156 29.953125 41.761719 29.769531 41.773438 C 29.585938 41.785156 29.410156 41.832031 29.246094 41.910156 C 29.082031 41.992188 28.9375 42.101562 28.816406 42.238281 L 23.203125 48.613281 C 23.082031 48.753906 22.992188 48.910156 22.933594 49.082031 C 22.875 49.257812 22.851562 49.4375 22.859375 49.621094 C 22.871094 49.804688 22.917969 49.980469 23 50.144531 C 23.078125 50.3125 23.1875 50.457031 23.324219 50.578125 L 27.464844 54.257812 C 26.738281 55.761719 26.203125 57.332031 25.851562 58.964844 L 20.335938 59.304688 C 20.152344 59.316406 19.976562 59.363281 19.8125 59.445312 C 19.648438 59.527344 19.503906 59.636719 19.382812 59.773438 C 19.261719 59.910156 19.171875 60.066406 19.113281 60.242188 C 19.050781 60.417969 19.027344 60.59375 19.039062 60.777344 L 19.558594 69.273438 C 19.570312 69.460938 19.613281 69.632812 19.695312 69.800781 C 19.777344 69.964844 19.886719 70.109375 20.023438 70.230469 C 20.160156 70.351562 20.316406 70.445312 20.488281 70.503906 C 20.660156 70.5625 20.839844 70.589844 21.023438 70.578125 L 26.539062 70.238281 C 27.085938 71.816406 27.808594 73.308594 28.714844 74.710938 L 25.050781 78.871094 C 24.929688 79.007812 24.839844 79.164062 24.78125 79.339844 C 24.71875 79.511719 24.695312 79.691406 24.707031 79.875 C 24.71875 80.058594 24.765625 80.234375 24.84375 80.402344 C 24.925781 80.566406 25.035156 80.710938 25.171875 80.832031 L 31.515625 86.472656 C 31.65625 86.59375 31.808594 86.683594 31.984375 86.746094 C 32.15625 86.804688 32.335938 86.828125 32.519531 86.816406 C 32.703125 86.804688 32.875 86.761719 33.039062 86.679688 C 33.207031 86.597656 33.347656 86.488281 33.46875 86.351562 L 37.132812 82.1875 C 38.628906 82.917969 40.191406 83.460938 41.816406 83.8125 L 42.15625 89.355469 C 42.167969 89.539062 42.214844 89.714844 42.292969 89.878906 C 42.375 90.046875 42.484375 90.1875 42.621094 90.3125 C 42.757812 90.433594 42.914062 90.523438 43.085938 90.585938 C 43.261719 90.644531 43.4375 90.671875 43.621094 90.660156 L 52.074219 90.136719 C 52.257812 90.125 52.433594 90.082031 52.597656 90 C 52.761719 89.917969 52.90625 89.808594 53.027344 89.671875 C 53.148438 89.53125 53.238281 89.375 53.300781 89.203125 C 53.359375 89.027344 53.382812 88.847656 53.375 88.664062 Z M 46.863281 74.238281 C 46.152344 74.28125 45.445312 74.257812 44.738281 74.160156 C 44.035156 74.0625 43.34375 73.898438 42.671875 73.667969 C 42 73.433594 41.355469 73.136719 40.738281 72.777344 C 40.125 72.417969 39.550781 72 39.019531 71.527344 C 38.484375 71.050781 38.003906 70.53125 37.570312 69.960938 C 37.140625 69.390625 36.769531 68.785156 36.457031 68.144531 C 36.144531 67.5 35.898438 66.832031 35.71875 66.140625 C 35.535156 65.449219 35.421875 64.746094 35.378906 64.035156 C 35.335938 63.320312 35.363281 62.609375 35.457031 61.898438 C 35.554688 61.191406 35.71875 60.5 35.949219 59.820312 C 36.179688 59.144531 36.476562 58.5 36.835938 57.878906 C 37.191406 57.261719 37.609375 56.6875 38.078125 56.148438 C 38.550781 55.613281 39.070312 55.128906 39.636719 54.695312 C 40.203125 54.265625 40.808594 53.890625 41.445312 53.578125 C 42.085938 53.261719 42.75 53.015625 43.4375 52.832031 C 44.125 52.652344 44.828125 52.539062 45.535156 52.496094 C 46.246094 52.449219 46.957031 52.476562 47.660156 52.574219 C 48.367188 52.667969 49.054688 52.835938 49.726562 53.066406 C 50.402344 53.300781 51.046875 53.597656 51.660156 53.957031 C 52.273438 54.316406 52.847656 54.734375 53.382812 55.207031 C 53.914062 55.679688 54.398438 56.203125 54.828125 56.773438 C 55.257812 57.339844 55.632812 57.949219 55.941406 58.589844 C 56.253906 59.234375 56.5 59.902344 56.683594 60.59375 C 56.863281 61.285156 56.976562 61.988281 57.019531 62.699219 C 57.0625 63.414062 57.039062 64.125 56.941406 64.835938 C 56.847656 65.542969 56.683594 66.234375 56.449219 66.910156 C 56.21875 67.589844 55.925781 68.234375 55.566406 68.851562 C 55.207031 69.472656 54.792969 70.046875 54.320312 70.582031 C 53.847656 71.121094 53.328125 71.605469 52.761719 72.035156 C 52.195312 72.46875 51.59375 72.84375 50.953125 73.15625 C 50.3125 73.46875 49.648438 73.71875 48.960938 73.898438 C 48.273438 74.082031 47.574219 74.195312 46.863281 74.238281 Z M 46.863281 74.238281 " fill-opacity="1" fill-rule="evenodd"/><path fill="#ffda32" d="M 53.035156 83.121094 C 54.609375 82.574219 56.09375 81.847656 57.488281 80.9375 L 61.628906 84.617188 C 61.769531 84.742188 61.925781 84.832031 62.097656 84.890625 C 62.269531 84.949219 62.449219 84.972656 62.632812 84.964844 C 62.816406 84.953125 62.988281 84.90625 63.152344 84.824219 C 63.320312 84.746094 63.460938 84.636719 63.585938 84.496094 L 69.199219 78.121094 C 69.320312 77.984375 69.410156 77.828125 69.46875 77.652344 C 69.527344 77.476562 69.550781 77.296875 69.539062 77.113281 C 69.527344 76.929688 69.484375 76.757812 69.402344 76.589844 C 69.324219 76.425781 69.214844 76.28125 69.078125 76.160156 L 64.933594 72.476562 C 65.660156 70.972656 66.199219 69.40625 66.546875 67.769531 L 72.066406 67.429688 C 72.25 67.417969 72.421875 67.371094 72.585938 67.292969 C 72.753906 67.210938 72.894531 67.101562 73.015625 66.964844 C 73.136719 66.824219 73.230469 66.667969 73.289062 66.496094 C 73.347656 66.320312 73.375 66.140625 73.363281 65.957031 L 72.84375 57.460938 C 72.832031 57.277344 72.785156 57.101562 72.703125 56.9375 C 72.625 56.773438 72.515625 56.628906 72.378906 56.507812 C 72.242188 56.382812 72.085938 56.292969 71.910156 56.234375 C 71.738281 56.171875 71.5625 56.148438 71.378906 56.160156 L 65.859375 56.5 C 65.316406 54.917969 64.589844 53.429688 63.6875 52.023438 L 67.351562 47.863281 C 67.472656 47.726562 67.5625 47.570312 67.621094 47.394531 C 67.679688 47.21875 67.703125 47.039062 67.691406 46.855469 C 67.683594 46.671875 67.636719 46.496094 67.554688 46.332031 C 67.476562 46.167969 67.367188 46.023438 67.230469 45.898438 L 60.882812 40.261719 C 60.746094 40.140625 60.589844 40.046875 60.417969 39.988281 C 60.242188 39.929688 60.066406 39.90625 59.882812 39.917969 C 59.699219 39.929688 59.523438 39.972656 59.359375 40.054688 C 59.195312 40.136719 59.050781 40.246094 58.929688 40.382812 L 55.265625 44.542969 C 53.769531 43.8125 52.207031 43.273438 50.582031 42.921875 L 50.246094 37.378906 C 50.230469 37.195312 50.1875 37.019531 50.105469 36.855469 C 50.023438 36.6875 49.914062 36.542969 49.777344 36.421875 C 49.640625 36.300781 49.484375 36.210938 49.3125 36.148438 C 49.140625 36.089844 48.960938 36.0625 48.777344 36.074219 L 40.324219 36.597656 C 40.140625 36.609375 39.964844 36.65625 39.800781 36.738281 C 39.636719 36.820312 39.492188 36.929688 39.371094 37.066406 C 39.25 37.203125 39.160156 37.359375 39.097656 37.535156 C 39.039062 37.707031 39.015625 37.886719 39.027344 38.070312 L 39.363281 43.617188 C 37.792969 44.164062 36.308594 44.890625 34.914062 45.800781 L 30.769531 42.117188 C 30.632812 41.996094 30.476562 41.90625 30.304688 41.847656 C 30.128906 41.785156 29.953125 41.761719 29.769531 41.773438 C 29.585938 41.785156 29.410156 41.832031 29.246094 41.910156 C 29.082031 41.992188 28.9375 42.101562 28.816406 42.238281 L 23.203125 48.613281 C 23.082031 48.753906 22.992188 48.910156 22.933594 49.082031 C 22.875 49.257812 22.851562 49.4375 22.859375 49.621094 C 22.871094 49.804688 22.917969 49.980469 23 50.144531 C 23.078125 50.3125 23.1875 50.457031 23.324219 50.578125 L 27.464844 54.257812 C 26.738281 55.761719 26.203125 57.332031 25.851562 58.964844 L 20.335938 59.304688 C 20.152344 59.316406 19.976562 59.363281 19.8125 59.445312 C 19.648438 59.527344 19.503906 59.636719 19.382812 59.773438 C 19.261719 59.910156 19.171875 60.066406 19.113281 60.242188 C 19.050781 60.417969 19.027344 60.59375 19.039062 60.777344 L 19.558594 69.273438 C 19.570312 69.460938 19.613281 69.632812 19.695312 69.800781 C 19.777344 69.964844 19.886719 70.109375 20.023438 70.230469 C 20.160156 70.351562 20.316406 70.445312 20.488281 70.503906 C 20.660156 70.5625 20.839844 70.589844 21.023438 70.578125 L 26.539062 70.238281 C 27.085938 71.816406 27.808594 73.308594 28.714844 74.710938 L 25.050781 78.871094 C 24.929688 79.007812 24.839844 79.164062 24.78125 79.339844 C 24.71875 79.511719 24.695312 79.691406 24.707031 79.875 C 24.71875 80.058594 24.765625 80.234375 24.84375 80.402344 C 24.925781 80.566406 25.035156 80.710938 25.171875 80.832031 L 31.515625 86.472656 C 31.65625 86.59375 31.808594 86.683594 31.984375 86.746094 C 32.15625 86.804688 32.335938 86.828125 32.519531 86.816406 C 32.703125 86.804688 32.875 86.761719 33.039062 86.679688 C 33.207031 86.597656 33.347656 86.488281 33.46875 86.351562 L 37.132812 82.1875 C 38.628906 82.917969 40.191406 83.460938 41.816406 83.8125 L 42.15625 89.355469 C 42.167969 89.539062 42.214844 89.714844 42.292969 89.878906 C 42.375 90.046875 42.484375 90.1875 42.621094 90.3125 C 42.757812 90.433594 42.914062 90.523438 43.085938 90.585938 C 43.261719 90.644531 43.4375 90.671875 43.621094 90.660156 L 52.074219 90.136719 C 52.257812 90.125 52.433594 90.082031 52.597656 90 C 52.761719 89.917969 52.90625 89.808594 53.027344 89.671875 C 53.148438 89.53125 53.238281 89.375 53.300781 89.203125 C 53.359375 89.027344 53.382812 88.847656 53.375 88.664062 Z M 46.863281 74.238281 C 46.152344 74.28125 45.445312 74.257812 44.738281 74.160156 C 44.035156 74.0625 43.34375 73.898438 42.671875 73.667969 C 42 73.433594 41.355469 73.136719 40.738281 72.777344 C 40.125 72.417969 39.550781 72 39.019531 71.527344 C 38.484375 71.050781 38.003906 70.53125 37.570312 69.960938 C 37.140625 69.390625 36.769531 68.785156 36.457031 68.144531 C 36.144531 67.5 35.898438 66.832031 35.71875 66.140625 C 35.535156 65.449219 35.421875 64.746094 35.378906 64.035156 C 35.335938 63.320312 35.363281 62.609375 35.457031 61.898438 C 35.554688 61.191406 35.71875 60.5 35.949219 59.820312 C 36.179688 59.144531 36.476562 58.5 36.835938 57.878906 C 37.191406 57.261719 37.609375 56.6875 38.078125 56.148438 C 38.550781 55.613281 39.070312 55.128906 39.636719 54.695312 C 40.203125 54.265625 40.808594 53.890625 41.445312 53.578125 C 42.085938 53.261719 42.75 53.015625 43.4375 52.832031 C 44.125 52.652344 44.828125 52.539062 45.535156 52.496094 C 46.246094 52.449219 46.957031 52.476562 47.660156 52.574219 C 48.367188 52.667969 49.054688 52.835938 49.726562 53.066406 C 50.402344 53.300781 51.046875 53.597656 51.660156 53.957031 C 52.273438 54.316406 52.847656 54.734375 53.382812 55.207031 C 53.914062 55.679688 54.398438 56.203125 54.828125 56.773438 C 55.257812 57.339844 55.632812 57.949219 55.941406 58.589844 C 56.253906 59.234375 56.5 59.902344 56.683594 60.59375 C 56.863281 61.285156 56.976562 61.988281 57.019531 62.699219 C 57.0625 63.414062 57.039062 64.125 56.941406 64.835938 C 56.847656 65.542969 56.683594 66.234375 56.449219 66.910156 C 56.21875 67.589844 55.925781 68.234375 55.566406 68.851562 C 55.207031 69.472656 54.792969 70.046875 54.320312 70.582031 C 53.847656 71.121094 53.328125 71.605469 52.761719 72.035156 C 52.195312 72.46875 51.59375 72.84375 50.953125 73.15625 C 50.3125 73.46875 49.648438 73.71875 48.960938 73.898438 C 48.273438 74.082031 47.574219 74.195312 46.863281 74.238281 Z M 46.863281 74.238281 " fill-opacity="1" fill-rule="evenodd"/><path fill="#e59d00" d="M 46.957031 75.765625 C 47.429688 75.738281 47.898438 75.679688 48.363281 75.597656 C 48.828125 75.515625 49.285156 75.40625 49.738281 75.269531 C 50.191406 75.132812 50.636719 74.972656 51.070312 74.785156 C 51.503906 74.597656 51.925781 74.386719 52.335938 74.152344 C 52.746094 73.914062 53.140625 73.65625 53.523438 73.375 C 53.902344 73.09375 54.265625 72.792969 54.613281 72.46875 C 54.957031 72.144531 55.285156 71.804688 55.59375 71.441406 C 55.898438 71.082031 56.1875 70.703125 56.449219 70.3125 C 56.714844 69.917969 56.953125 69.511719 57.171875 69.089844 C 57.390625 68.667969 57.582031 68.234375 57.75 67.789062 C 57.917969 67.347656 58.0625 66.894531 58.179688 66.433594 C 58.296875 65.976562 58.386719 65.511719 58.449219 65.039062 C 58.511719 64.570312 58.550781 64.097656 58.558594 63.621094 C 58.570312 63.148438 58.550781 62.671875 58.507812 62.199219 C 58.460938 61.726562 58.390625 61.257812 58.292969 60.792969 C 58.195312 60.332031 58.070312 59.871094 57.921875 59.421875 C 57.773438 58.972656 57.597656 58.53125 57.394531 58.101562 C 57.195312 57.671875 56.972656 57.253906 56.722656 56.851562 C 56.476562 56.445312 56.207031 56.058594 55.914062 55.683594 C 55.621094 55.3125 55.308594 54.957031 54.976562 54.621094 C 54.644531 54.28125 54.292969 53.964844 53.925781 53.667969 C 53.554688 53.371094 53.171875 53.097656 52.769531 52.84375 C 52.371094 52.59375 51.957031 52.363281 51.53125 52.160156 C 51.105469 51.953125 50.667969 51.773438 50.21875 51.621094 C 49.773438 51.464844 49.320312 51.339844 48.859375 51.234375 C 48.398438 51.132812 47.929688 51.058594 47.460938 51.011719 C 46.992188 50.960938 46.519531 50.941406 46.046875 50.945312 C 45.574219 50.953125 45.105469 50.984375 44.636719 51.042969 C 44.167969 51.105469 43.703125 51.191406 43.242188 51.304688 C 42.785156 51.417969 42.335938 51.558594 41.890625 51.722656 C 41.449219 51.890625 41.015625 52.078125 40.59375 52.292969 C 40.175781 52.507812 39.765625 52.75 39.371094 53.011719 C 38.976562 53.273438 38.601562 53.554688 38.238281 53.863281 C 37.878906 54.167969 37.535156 54.492188 37.210938 54.839844 C 36.886719 55.183594 36.582031 55.546875 36.300781 55.925781 C 36.015625 56.308594 35.753906 56.703125 35.515625 57.113281 C 35.28125 57.523438 35.066406 57.945312 34.875 58.378906 C 34.6875 58.816406 34.523438 59.257812 34.382812 59.710938 C 34.242188 60.167969 34.132812 60.625 34.042969 61.09375 C 33.957031 61.558594 33.898438 62.03125 33.867188 62.503906 C 33.832031 62.976562 33.828125 63.453125 33.847656 63.925781 C 33.871094 64.398438 33.917969 64.871094 33.992188 65.339844 C 34.066406 65.808594 34.167969 66.273438 34.296875 66.730469 C 34.425781 67.1875 34.578125 67.632812 34.757812 68.074219 C 34.9375 68.511719 35.140625 68.941406 35.367188 69.355469 C 35.59375 69.773438 35.847656 70.175781 36.121094 70.5625 C 36.394531 70.949219 36.6875 71.320312 37.003906 71.671875 C 37.320312 72.023438 37.65625 72.359375 38.007812 72.671875 C 39.234375 73.765625 40.625 74.582031 42.175781 75.117188 C 43.726562 75.652344 45.320312 75.871094 46.957031 75.765625 Z M 56.003906 72.078125 C 55.671875 72.453125 55.320312 72.808594 54.949219 73.144531 C 54.578125 73.480469 54.1875 73.796875 53.777344 74.085938 C 53.371094 74.378906 52.949219 74.644531 52.507812 74.886719 C 52.070312 75.128906 51.621094 75.34375 51.15625 75.535156 C 50.695312 75.726562 50.222656 75.890625 49.742188 76.027344 C 49.257812 76.160156 48.773438 76.269531 48.277344 76.347656 C 47.785156 76.429688 47.285156 76.480469 46.789062 76.503906 C 46.289062 76.523438 45.789062 76.519531 45.289062 76.484375 C 44.789062 76.449219 44.292969 76.386719 43.804688 76.292969 C 43.3125 76.203125 42.824219 76.082031 42.347656 75.933594 C 41.871094 75.785156 41.402344 75.609375 40.945312 75.410156 C 40.484375 75.207031 40.039062 74.980469 39.609375 74.726562 C 39.175781 74.472656 38.761719 74.195312 38.359375 73.894531 C 37.957031 73.59375 37.578125 73.269531 37.214844 72.925781 C 36.847656 72.582031 36.507812 72.214844 36.183594 71.832031 C 35.863281 71.445312 35.5625 71.042969 35.285156 70.625 C 35.011719 70.207031 34.757812 69.773438 34.53125 69.324219 C 34.304688 68.878906 34.105469 68.417969 33.929688 67.945312 C 33.757812 67.476562 33.609375 66.996094 33.492188 66.507812 C 33.371094 66.019531 33.28125 65.527344 33.214844 65.027344 C 33.152344 64.527344 33.117188 64.027344 33.113281 63.527344 C 33.105469 63.023438 33.128906 62.523438 33.179688 62.023438 C 33.230469 61.523438 33.3125 61.027344 33.417969 60.535156 C 33.527344 60.042969 33.660156 59.5625 33.824219 59.085938 C 33.988281 58.609375 34.175781 58.148438 34.390625 57.691406 C 34.609375 57.238281 34.847656 56.800781 35.113281 56.375 C 35.378906 55.949219 35.667969 55.539062 35.980469 55.148438 C 36.292969 54.753906 36.628906 54.382812 36.984375 54.027344 C 37.339844 53.671875 37.714844 53.339844 38.105469 53.03125 C 38.5 52.71875 38.910156 52.433594 39.335938 52.167969 C 39.761719 51.90625 40.199219 51.667969 40.652344 51.453125 C 41.105469 51.242188 41.570312 51.054688 42.042969 50.894531 C 42.519531 50.734375 43 50.605469 43.488281 50.5 C 43.980469 50.394531 44.472656 50.320312 44.972656 50.273438 C 45.46875 50.226562 45.96875 50.207031 46.46875 50.21875 C 46.96875 50.226562 47.464844 50.265625 47.960938 50.335938 C 48.457031 50.402344 48.949219 50.5 49.433594 50.621094 C 49.917969 50.746094 50.394531 50.898438 50.859375 51.078125 C 51.328125 51.257812 51.785156 51.460938 52.226562 51.691406 C 52.671875 51.925781 53.101562 52.179688 53.515625 52.460938 C 53.929688 52.742188 54.328125 53.046875 54.707031 53.375 C 55.089844 53.699219 55.449219 54.046875 55.789062 54.417969 C 56.128906 54.785156 56.449219 55.171875 56.746094 55.574219 C 57.039062 55.980469 57.3125 56.402344 57.5625 56.839844 C 57.808594 57.273438 58.03125 57.722656 58.230469 58.183594 C 58.425781 58.648438 58.597656 59.121094 58.738281 59.601562 C 58.882812 60.082031 59 60.570312 59.085938 61.066406 C 59.171875 61.558594 59.230469 62.058594 59.261719 62.558594 C 59.371094 64.300781 59.144531 65.996094 58.578125 67.644531 C 58.011719 69.292969 57.15625 70.773438 56.003906 72.078125 Z M 56.003906 72.078125 " fill-opacity="1" fill-rule="evenodd"/><path fill="#e59d00" d="M 47.34375 82.117188 C 48.058594 82.074219 48.765625 81.988281 49.46875 81.863281 C 50.171875 81.738281 50.867188 81.574219 51.550781 81.367188 C 52.238281 81.160156 52.90625 80.917969 53.566406 80.636719 C 54.222656 80.351562 54.859375 80.03125 55.480469 79.675781 C 56.101562 79.320312 56.699219 78.929688 57.273438 78.503906 C 57.851562 78.078125 58.398438 77.621094 58.921875 77.132812 C 59.449219 76.644531 59.941406 76.128906 60.40625 75.582031 C 60.871094 75.035156 61.300781 74.464844 61.703125 73.871094 C 62.101562 73.273438 62.464844 72.660156 62.796875 72.019531 C 63.125 71.382812 63.417969 70.730469 63.671875 70.058594 C 63.925781 69.386719 64.140625 68.703125 64.316406 68.007812 C 64.492188 67.3125 64.628906 66.609375 64.726562 65.898438 C 64.824219 65.1875 64.878906 64.472656 64.894531 63.753906 C 64.90625 63.035156 64.882812 62.320312 64.816406 61.605469 C 64.746094 60.890625 64.640625 60.179688 64.492188 59.480469 C 64.34375 58.777344 64.15625 58.085938 63.929688 57.402344 C 63.703125 56.722656 63.4375 56.058594 63.136719 55.40625 C 62.832031 54.757812 62.492188 54.125 62.121094 53.515625 C 61.746094 52.902344 61.335938 52.316406 60.894531 51.75 C 60.453125 51.1875 59.980469 50.648438 59.476562 50.140625 C 58.972656 49.628906 58.441406 49.148438 57.886719 48.703125 C 57.328125 48.253906 56.746094 47.835938 56.140625 47.457031 C 55.535156 47.074219 54.910156 46.726562 54.265625 46.417969 C 53.621094 46.109375 52.960938 45.835938 52.285156 45.601562 C 51.609375 45.371094 50.921875 45.175781 50.226562 45.019531 C 49.527344 44.867188 48.824219 44.753906 48.113281 44.679688 C 47.402344 44.605469 46.6875 44.574219 45.972656 44.582031 C 45.257812 44.589844 44.546875 44.640625 43.839844 44.730469 C 43.128906 44.820312 42.429688 44.953125 41.734375 45.125 C 41.039062 45.296875 40.359375 45.507812 39.6875 45.757812 C 39.019531 46.007812 38.363281 46.292969 37.726562 46.621094 C 37.089844 46.945312 36.476562 47.304688 35.878906 47.703125 C 35.28125 48.097656 34.710938 48.527344 34.164062 48.992188 C 33.617188 49.453125 33.097656 49.945312 32.609375 50.46875 C 32.117188 50.988281 31.660156 51.539062 31.230469 52.113281 C 30.800781 52.6875 30.40625 53.285156 30.046875 53.90625 C 29.6875 54.523438 29.363281 55.164062 29.078125 55.820312 C 28.789062 56.480469 28.542969 57.152344 28.332031 57.835938 C 28.121094 58.523438 27.949219 59.21875 27.820312 59.925781 C 27.6875 60.632812 27.597656 61.34375 27.550781 62.058594 C 27.5 62.773438 27.492188 63.492188 27.523438 64.210938 C 27.554688 64.925781 27.628906 65.640625 27.742188 66.347656 C 27.855469 67.058594 28.007812 67.757812 28.199219 68.449219 C 28.394531 69.140625 28.625 69.816406 28.898438 70.484375 C 29.167969 71.148438 29.476562 71.792969 29.820312 72.421875 C 30.164062 73.050781 30.542969 73.660156 30.957031 74.246094 C 31.371094 74.832031 31.816406 75.390625 32.292969 75.925781 C 32.769531 76.457031 33.277344 76.964844 33.8125 77.4375 C 35.667969 79.09375 37.769531 80.324219 40.113281 81.136719 C 42.460938 81.945312 44.871094 82.273438 47.34375 82.117188 Z M 60.746094 76.296875 C 60.253906 76.855469 59.734375 77.382812 59.183594 77.882812 C 58.628906 78.378906 58.050781 78.84375 57.445312 79.277344 C 56.839844 79.710938 56.214844 80.105469 55.5625 80.464844 C 54.914062 80.824219 54.242188 81.144531 53.558594 81.425781 C 52.871094 81.710938 52.167969 81.953125 51.453125 82.152344 C 50.738281 82.355469 50.015625 82.515625 49.285156 82.632812 C 48.550781 82.75 47.8125 82.828125 47.074219 82.859375 C 46.332031 82.894531 45.589844 82.886719 44.847656 82.832031 C 44.109375 82.78125 43.375 82.6875 42.644531 82.550781 C 41.914062 82.414062 41.195312 82.234375 40.484375 82.015625 C 39.777344 81.796875 39.082031 81.539062 38.402344 81.238281 C 37.722656 80.9375 37.0625 80.601562 36.421875 80.226562 C 35.78125 79.847656 35.160156 79.4375 34.566406 78.992188 C 33.972656 78.542969 33.40625 78.066406 32.867188 77.550781 C 32.328125 77.039062 31.820312 76.5 31.339844 75.929688 C 30.863281 75.359375 30.417969 74.761719 30.011719 74.140625 C 29.601562 73.519531 29.226562 72.875 28.890625 72.210938 C 28.554688 71.542969 28.257812 70.863281 28 70.164062 C 27.738281 69.464844 27.523438 68.753906 27.34375 68.027344 C 27.167969 67.304688 27.03125 66.574219 26.9375 65.832031 C 26.84375 65.09375 26.792969 64.351562 26.785156 63.605469 C 26.777344 62.859375 26.808594 62.113281 26.882812 61.375 C 26.960938 60.632812 27.078125 59.894531 27.238281 59.167969 C 27.398438 58.441406 27.597656 57.722656 27.839844 57.019531 C 28.082031 56.3125 28.363281 55.625 28.683594 54.949219 C 29.003906 54.277344 29.359375 53.625 29.753906 52.992188 C 30.148438 52.363281 30.578125 51.753906 31.042969 51.171875 C 31.507812 50.589844 32.003906 50.039062 32.527344 49.511719 C 33.054688 48.988281 33.613281 48.496094 34.195312 48.03125 C 34.777344 47.570312 35.386719 47.144531 36.015625 46.753906 C 36.648438 46.363281 37.300781 46.011719 37.972656 45.695312 C 38.644531 45.378906 39.335938 45.101562 40.039062 44.863281 C 40.742188 44.628906 41.457031 44.433594 42.183594 44.277344 C 42.910156 44.125 43.640625 44.011719 44.378906 43.941406 C 45.121094 43.871094 45.859375 43.84375 46.601562 43.859375 C 47.34375 43.875 48.082031 43.933594 48.820312 44.035156 C 49.554688 44.132812 50.28125 44.277344 51 44.460938 C 51.71875 44.644531 52.425781 44.871094 53.121094 45.136719 C 53.8125 45.402344 54.488281 45.707031 55.148438 46.050781 C 55.808594 46.394531 56.445312 46.773438 57.058594 47.191406 C 57.675781 47.605469 58.265625 48.058594 58.828125 48.542969 C 59.390625 49.027344 59.925781 49.542969 60.429688 50.089844 C 60.9375 50.636719 61.410156 51.210938 61.847656 51.8125 C 62.289062 52.410156 62.691406 53.035156 63.0625 53.683594 C 63.429688 54.332031 63.757812 54.996094 64.050781 55.683594 C 64.34375 56.367188 64.597656 57.066406 64.808594 57.78125 C 65.019531 58.496094 65.191406 59.222656 65.324219 59.957031 C 65.453125 60.691406 65.539062 61.429688 65.585938 62.175781 C 65.664062 63.453125 65.617188 64.726562 65.449219 65.996094 C 65.277344 67.265625 64.984375 68.507812 64.570312 69.71875 C 64.152344 70.929688 63.625 72.089844 62.980469 73.195312 C 62.339844 74.304688 61.59375 75.335938 60.746094 76.296875 Z M 60.746094 76.296875 " fill-opacity="1" fill-rule="evenodd"/><path fill="#f18a00" d="M 88.847656 50.5 C 89.890625 50.132812 90.878906 49.652344 91.804688 49.046875 L 94.554688 51.492188 C 94.746094 51.660156 94.96875 51.738281 95.222656 51.722656 C 95.476562 51.707031 95.6875 51.601562 95.855469 51.414062 L 99.582031 47.179688 C 99.75 46.988281 99.824219 46.765625 99.808594 46.511719 C 99.792969 46.253906 99.691406 46.042969 99.503906 45.875 L 96.75 43.429688 C 97.234375 42.429688 97.589844 41.390625 97.820312 40.304688 L 101.484375 40.078125 C 101.738281 40.0625 101.949219 39.957031 102.117188 39.765625 C 102.285156 39.578125 102.363281 39.355469 102.347656 39.097656 L 102.003906 33.460938 C 101.988281 33.203125 101.886719 32.992188 101.695312 32.824219 C 101.503906 32.65625 101.285156 32.578125 101.03125 32.59375 L 97.367188 32.820312 C 97.003906 31.769531 96.523438 30.78125 95.921875 29.847656 L 98.355469 27.082031 C 98.523438 26.890625 98.597656 26.667969 98.582031 26.414062 C 98.566406 26.160156 98.464844 25.949219 98.277344 25.78125 L 94.0625 22.035156 C 93.871094 21.867188 93.648438 21.789062 93.394531 21.804688 C 93.144531 21.820312 92.933594 21.921875 92.765625 22.113281 L 90.332031 24.878906 C 89.335938 24.394531 88.300781 24.035156 87.21875 23.800781 L 86.996094 20.121094 C 86.976562 19.867188 86.875 19.652344 86.683594 19.484375 C 86.496094 19.316406 86.273438 19.238281 86.019531 19.253906 L 80.40625 19.597656 C 80.15625 19.617188 79.945312 19.71875 79.777344 19.910156 C 79.609375 20.101562 79.53125 20.324219 79.546875 20.578125 L 79.769531 24.261719 C 78.726562 24.625 77.742188 25.109375 76.8125 25.710938 L 74.0625 23.265625 C 73.871094 23.097656 73.648438 23.023438 73.394531 23.039062 C 73.144531 23.054688 72.933594 23.15625 72.765625 23.347656 L 69.035156 27.582031 C 68.871094 27.773438 68.792969 27.996094 68.808594 28.25 C 68.824219 28.503906 68.925781 28.714844 69.117188 28.882812 L 71.867188 31.328125 C 71.386719 32.328125 71.027344 33.367188 70.796875 34.453125 L 67.132812 34.679688 C 66.878906 34.695312 66.667969 34.800781 66.5 34.992188 C 66.332031 35.183594 66.257812 35.40625 66.269531 35.660156 L 66.617188 41.300781 C 66.632812 41.554688 66.734375 41.765625 66.925781 41.933594 C 67.113281 42.101562 67.335938 42.179688 67.589844 42.164062 L 71.253906 41.9375 C 71.617188 42.988281 72.097656 43.976562 72.699219 44.910156 L 70.265625 47.675781 C 70.097656 47.867188 70.019531 48.089844 70.035156 48.34375 C 70.050781 48.597656 70.152344 48.808594 70.34375 48.976562 L 74.558594 52.722656 C 74.75 52.890625 74.96875 52.96875 75.222656 52.953125 C 75.476562 52.9375 75.6875 52.832031 75.855469 52.644531 L 78.289062 49.878906 C 79.28125 50.363281 80.316406 50.722656 81.398438 50.957031 L 81.621094 54.640625 C 81.636719 54.894531 81.742188 55.105469 81.929688 55.273438 C 82.121094 55.441406 82.34375 55.519531 82.597656 55.503906 L 88.210938 55.160156 C 88.460938 55.144531 88.671875 55.039062 88.839844 54.847656 C 89.007812 54.65625 89.085938 54.433594 89.070312 54.179688 Z M 84.75 44.601562 C 84.277344 44.628906 83.808594 44.613281 83.339844 44.546875 C 82.871094 44.484375 82.414062 44.375 81.964844 44.21875 C 81.519531 44.066406 81.089844 43.867188 80.683594 43.628906 C 80.273438 43.390625 79.890625 43.113281 79.539062 42.796875 C 79.183594 42.484375 78.863281 42.136719 78.578125 41.757812 C 78.292969 41.382812 78.042969 40.980469 77.835938 40.550781 C 77.628906 40.125 77.464844 39.679688 77.347656 39.222656 C 77.226562 38.761719 77.152344 38.296875 77.121094 37.820312 C 77.09375 37.347656 77.109375 36.875 77.171875 36.40625 C 77.238281 35.933594 77.347656 35.472656 77.5 35.023438 C 77.652344 34.574219 77.851562 34.144531 78.085938 33.734375 C 78.324219 33.324219 78.601562 32.941406 78.914062 32.585938 C 79.226562 32.230469 79.574219 31.910156 79.949219 31.621094 C 80.324219 31.332031 80.726562 31.085938 81.152344 30.878906 C 81.574219 30.667969 82.015625 30.503906 82.472656 30.382812 C 82.929688 30.261719 83.394531 30.1875 83.867188 30.15625 C 84.339844 30.128906 84.808594 30.144531 85.277344 30.210938 C 85.746094 30.273438 86.203125 30.382812 86.652344 30.539062 C 87.097656 30.691406 87.527344 30.890625 87.933594 31.128906 C 88.34375 31.367188 88.722656 31.644531 89.078125 31.960938 C 89.433594 32.273438 89.753906 32.621094 90.039062 33 C 90.324219 33.375 90.570312 33.78125 90.777344 34.207031 C 90.984375 34.632812 91.148438 35.078125 91.269531 35.535156 C 91.390625 35.996094 91.464844 36.460938 91.496094 36.9375 C 91.523438 37.410156 91.507812 37.882812 91.441406 38.351562 C 91.378906 38.824219 91.269531 39.285156 91.117188 39.734375 C 90.960938 40.183594 90.765625 40.613281 90.527344 41.023438 C 90.289062 41.433594 90.015625 41.816406 89.703125 42.171875 C 89.386719 42.527344 89.042969 42.847656 88.667969 43.136719 C 88.289062 43.425781 87.890625 43.671875 87.464844 43.878906 C 87.039062 44.089844 86.601562 44.253906 86.140625 44.375 C 85.683594 44.496094 85.222656 44.570312 84.75 44.601562 Z M 84.75 44.601562 " fill-opacity="1" fill-rule="evenodd"/><path fill="#ffda32" d="M 88.847656 50.5 C 89.890625 50.132812 90.878906 49.652344 91.804688 49.046875 L 94.554688 51.492188 C 94.746094 51.660156 94.96875 51.738281 95.222656 51.722656 C 95.476562 51.707031 95.6875 51.601562 95.855469 51.414062 L 99.582031 47.179688 C 99.75 46.988281 99.824219 46.765625 99.808594 46.511719 C 99.792969 46.253906 99.691406 46.042969 99.503906 45.875 L 96.75 43.429688 C 97.234375 42.429688 97.589844 41.390625 97.820312 40.304688 L 101.484375 40.078125 C 101.738281 40.0625 101.949219 39.957031 102.117188 39.765625 C 102.285156 39.578125 102.363281 39.355469 102.347656 39.097656 L 102.003906 33.460938 C 101.988281 33.203125 101.886719 32.992188 101.695312 32.824219 C 101.503906 32.65625 101.285156 32.578125 101.03125 32.59375 L 97.367188 32.820312 C 97.003906 31.769531 96.523438 30.78125 95.921875 29.847656 L 98.355469 27.082031 C 98.523438 26.890625 98.597656 26.667969 98.582031 26.414062 C 98.566406 26.160156 98.464844 25.949219 98.277344 25.78125 L 94.0625 22.035156 C 93.871094 21.867188 93.648438 21.789062 93.394531 21.804688 C 93.144531 21.820312 92.933594 21.921875 92.765625 22.113281 L 90.332031 24.878906 C 89.335938 24.394531 88.300781 24.035156 87.21875 23.800781 L 86.996094 20.121094 C 86.976562 19.867188 86.875 19.652344 86.683594 19.484375 C 86.496094 19.316406 86.273438 19.238281 86.019531 19.253906 L 80.40625 19.597656 C 80.15625 19.617188 79.945312 19.71875 79.777344 19.910156 C 79.609375 20.101562 79.53125 20.324219 79.546875 20.578125 L 79.769531 24.261719 C 78.726562 24.625 77.742188 25.109375 76.8125 25.710938 L 74.0625 23.265625 C 73.871094 23.097656 73.648438 23.023438 73.394531 23.039062 C 73.144531 23.054688 72.933594 23.15625 72.765625 23.347656 L 69.035156 27.582031 C 68.871094 27.773438 68.792969 27.996094 68.808594 28.25 C 68.824219 28.503906 68.925781 28.714844 69.117188 28.882812 L 71.867188 31.328125 C 71.386719 32.328125 71.027344 33.367188 70.796875 34.453125 L 67.132812 34.679688 C 66.878906 34.695312 66.667969 34.800781 66.5 34.992188 C 66.332031 35.183594 66.257812 35.40625 66.269531 35.660156 L 66.617188 41.300781 C 66.632812 41.554688 66.734375 41.765625 66.925781 41.933594 C 67.113281 42.101562 67.335938 42.179688 67.589844 42.164062 L 71.253906 41.9375 C 71.617188 42.988281 72.097656 43.976562 72.699219 44.910156 L 70.265625 47.675781 C 70.097656 47.867188 70.019531 48.089844 70.035156 48.34375 C 70.050781 48.597656 70.152344 48.808594 70.34375 48.976562 L 74.558594 52.722656 C 74.75 52.890625 74.96875 52.96875 75.222656 52.953125 C 75.476562 52.9375 75.6875 52.832031 75.855469 52.644531 L 78.289062 49.878906 C 79.28125 50.363281 80.316406 50.722656 81.398438 50.957031 L 81.621094 54.640625 C 81.636719 54.894531 81.742188 55.105469 81.929688 55.273438 C 82.121094 55.441406 82.34375 55.519531 82.597656 55.503906 L 88.210938 55.160156 C 88.460938 55.144531 88.671875 55.039062 88.839844 54.847656 C 89.007812 54.65625 89.085938 54.433594 89.070312 54.179688 Z M 84.75 44.601562 C 84.277344 44.628906 83.808594 44.613281 83.339844 44.546875 C 82.871094 44.484375 82.414062 44.375 81.964844 44.21875 C 81.519531 44.066406 81.089844 43.867188 80.683594 43.628906 C 80.273438 43.390625 79.890625 43.113281 79.539062 42.796875 C 79.183594 42.484375 78.863281 42.136719 78.578125 41.757812 C 78.292969 41.382812 78.042969 40.980469 77.835938 40.550781 C 77.628906 40.125 77.464844 39.679688 77.347656 39.222656 C 77.226562 38.761719 77.152344 38.296875 77.121094 37.820312 C 77.09375 37.347656 77.109375 36.875 77.171875 36.40625 C 77.238281 35.933594 77.347656 35.472656 77.5 35.023438 C 77.652344 34.574219 77.851562 34.144531 78.085938 33.734375 C 78.324219 33.324219 78.601562 32.941406 78.914062 32.585938 C 79.226562 32.230469 79.574219 31.910156 79.949219 31.621094 C 80.324219 31.332031 80.726562 31.085938 81.152344 30.878906 C 81.574219 30.667969 82.015625 30.503906 82.472656 30.382812 C 82.929688 30.261719 83.394531 30.1875 83.867188 30.15625 C 84.339844 30.128906 84.808594 30.144531 85.277344 30.210938 C 85.746094 30.273438 86.203125 30.382812 86.652344 30.539062 C 87.097656 30.691406 87.527344 30.890625 87.933594 31.128906 C 88.34375 31.367188 88.722656 31.644531 89.078125 31.960938 C 89.433594 32.273438 89.753906 32.621094 90.039062 33 C 90.324219 33.375 90.570312 33.78125 90.777344 34.207031 C 90.984375 34.632812 91.148438 35.078125 91.269531 35.535156 C 91.390625 35.996094 91.464844 36.460938 91.496094 36.9375 C 91.523438 37.410156 91.507812 37.882812 91.441406 38.351562 C 91.378906 38.824219 91.269531 39.285156 91.117188 39.734375 C 90.960938 40.183594 90.765625 40.613281 90.527344 41.023438 C 90.289062 41.433594 90.015625 41.816406 89.703125 42.171875 C 89.386719 42.527344 89.042969 42.847656 88.667969 43.136719 C 88.289062 43.425781 87.890625 43.671875 87.464844 43.878906 C 87.039062 44.089844 86.601562 44.253906 86.140625 44.375 C 85.683594 44.496094 85.222656 44.570312 84.75 44.601562 Z M 84.75 44.601562 " fill-opacity="1" fill-rule="evenodd"/><path fill="#e59d00" d="M 84.8125 45.613281 C 85.125 45.59375 85.433594 45.558594 85.746094 45.503906 C 86.054688 45.445312 86.359375 45.375 86.660156 45.285156 C 86.960938 45.195312 87.253906 45.085938 87.542969 44.960938 C 87.832031 44.839844 88.109375 44.699219 88.382812 44.542969 C 88.65625 44.386719 88.917969 44.214844 89.171875 44.027344 C 89.421875 43.839844 89.664062 43.640625 89.894531 43.425781 C 90.125 43.210938 90.339844 42.984375 90.546875 42.742188 C 90.75 42.503906 90.9375 42.253906 91.113281 41.992188 C 91.289062 41.730469 91.449219 41.460938 91.59375 41.179688 C 91.738281 40.902344 91.867188 40.613281 91.980469 40.320312 C 92.089844 40.023438 92.183594 39.722656 92.261719 39.417969 C 92.339844 39.113281 92.398438 38.804688 92.441406 38.492188 C 92.484375 38.179688 92.507812 37.867188 92.515625 37.550781 C 92.523438 37.234375 92.511719 36.921875 92.480469 36.609375 C 92.453125 36.292969 92.402344 35.984375 92.339844 35.675781 C 92.273438 35.367188 92.191406 35.0625 92.09375 34.761719 C 91.992188 34.464844 91.875 34.171875 91.742188 33.886719 C 91.609375 33.601562 91.460938 33.324219 91.296875 33.054688 C 91.132812 32.785156 90.953125 32.527344 90.757812 32.28125 C 90.566406 32.035156 90.359375 31.796875 90.136719 31.574219 C 89.917969 31.351562 89.683594 31.140625 89.4375 30.941406 C 89.195312 30.746094 88.9375 30.5625 88.671875 30.394531 C 88.40625 30.226562 88.132812 30.078125 87.847656 29.941406 C 87.566406 29.804688 87.277344 29.683594 86.980469 29.582031 C 86.683594 29.480469 86.382812 29.394531 86.074219 29.328125 C 85.769531 29.257812 85.460938 29.207031 85.148438 29.175781 C 84.835938 29.144531 84.523438 29.128906 84.207031 29.132812 C 83.894531 29.136719 83.582031 29.160156 83.269531 29.199219 C 82.960938 29.238281 82.652344 29.296875 82.347656 29.371094 C 82.042969 29.449219 81.742188 29.539062 81.449219 29.648438 C 81.15625 29.757812 80.867188 29.886719 80.589844 30.027344 C 80.308594 30.171875 80.039062 30.332031 79.777344 30.503906 C 79.515625 30.679688 79.265625 30.867188 79.023438 31.070312 C 78.785156 31.273438 78.554688 31.488281 78.339844 31.71875 C 78.125 31.945312 77.925781 32.1875 77.734375 32.441406 C 77.546875 32.691406 77.375 32.953125 77.21875 33.226562 C 77.058594 33.5 76.917969 33.78125 76.792969 34.070312 C 76.664062 34.355469 76.554688 34.652344 76.464844 34.953125 C 76.371094 35.253906 76.296875 35.558594 76.238281 35.871094 C 76.179688 36.179688 76.140625 36.492188 76.121094 36.808594 C 76.097656 37.121094 76.09375 37.4375 76.109375 37.75 C 76.121094 38.066406 76.152344 38.378906 76.203125 38.691406 C 76.253906 39 76.320312 39.308594 76.40625 39.613281 C 76.492188 39.914062 76.59375 40.214844 76.710938 40.503906 C 76.832031 40.796875 76.964844 41.082031 77.117188 41.355469 C 77.269531 41.632812 77.433594 41.898438 77.617188 42.15625 C 77.796875 42.414062 77.992188 42.660156 78.203125 42.894531 C 78.414062 43.128906 78.632812 43.351562 78.871094 43.558594 C 79.683594 44.285156 80.605469 44.828125 81.636719 45.183594 C 82.667969 45.539062 83.726562 45.683594 84.8125 45.613281 Z M 90.820312 43.164062 C 90.601562 43.414062 90.367188 43.652344 90.121094 43.875 C 89.871094 44.097656 89.613281 44.304688 89.34375 44.5 C 89.070312 44.691406 88.789062 44.871094 88.5 45.03125 C 88.207031 45.191406 87.910156 45.335938 87.601562 45.460938 C 87.292969 45.589844 86.980469 45.695312 86.660156 45.785156 C 86.339844 45.875 86.019531 45.949219 85.691406 46 C 85.363281 46.054688 85.03125 46.089844 84.699219 46.101562 C 84.367188 46.117188 84.035156 46.113281 83.703125 46.089844 C 83.375 46.066406 83.042969 46.027344 82.71875 45.964844 C 82.390625 45.902344 82.070312 45.824219 81.753906 45.726562 C 81.433594 45.628906 81.125 45.511719 80.820312 45.375 C 80.515625 45.242188 80.21875 45.089844 79.933594 44.921875 C 79.644531 44.753906 79.371094 44.570312 79.101562 44.371094 C 78.835938 44.171875 78.582031 43.957031 78.34375 43.726562 C 78.101562 43.5 77.871094 43.257812 77.660156 43 C 77.445312 42.746094 77.246094 42.476562 77.0625 42.199219 C 76.878906 41.921875 76.714844 41.632812 76.5625 41.335938 C 76.410156 41.039062 76.277344 40.734375 76.164062 40.421875 C 76.046875 40.109375 75.949219 39.789062 75.871094 39.464844 C 75.792969 39.140625 75.730469 38.8125 75.6875 38.480469 C 75.648438 38.152344 75.625 37.820312 75.621094 37.484375 C 75.617188 37.152344 75.628906 36.816406 75.664062 36.484375 C 75.699219 36.152344 75.75 35.824219 75.824219 35.5 C 75.894531 35.171875 75.984375 34.851562 76.09375 34.535156 C 76.199219 34.222656 76.324219 33.914062 76.46875 33.613281 C 76.613281 33.3125 76.773438 33.019531 76.949219 32.734375 C 77.125 32.453125 77.316406 32.183594 77.523438 31.921875 C 77.734375 31.660156 77.953125 31.414062 78.191406 31.175781 C 78.425781 30.941406 78.675781 30.722656 78.9375 30.515625 C 79.195312 30.308594 79.46875 30.117188 79.75 29.945312 C 80.035156 29.769531 80.328125 29.609375 80.628906 29.46875 C 80.929688 29.328125 81.234375 29.203125 81.550781 29.097656 C 81.867188 28.992188 82.1875 28.902344 82.511719 28.835938 C 82.835938 28.765625 83.164062 28.714844 83.496094 28.683594 C 83.824219 28.652344 84.15625 28.640625 84.488281 28.648438 C 84.820312 28.65625 85.152344 28.679688 85.480469 28.726562 C 85.808594 28.769531 86.136719 28.835938 86.457031 28.917969 C 86.78125 29 87.09375 29.101562 87.40625 29.21875 C 87.714844 29.335938 88.019531 29.472656 88.3125 29.628906 C 88.609375 29.78125 88.894531 29.953125 89.167969 30.136719 C 89.445312 30.324219 89.707031 30.527344 89.960938 30.742188 C 90.214844 30.960938 90.453125 31.191406 90.679688 31.4375 C 90.90625 31.679688 91.117188 31.9375 91.3125 32.207031 C 91.507812 32.476562 91.691406 32.753906 91.855469 33.042969 C 92.019531 33.335938 92.167969 33.632812 92.300781 33.9375 C 92.429688 34.246094 92.542969 34.558594 92.636719 34.878906 C 92.734375 35.199219 92.808594 35.523438 92.867188 35.851562 C 92.925781 36.179688 92.964844 36.511719 92.984375 36.84375 C 93.058594 38 92.90625 39.125 92.53125 40.222656 C 92.15625 41.316406 91.585938 42.296875 90.820312 43.164062 Z M 90.820312 43.164062 " fill-opacity="1" fill-rule="evenodd"/><path fill="#e59d00" d="M 85.066406 49.832031 C 85.542969 49.804688 86.011719 49.746094 86.480469 49.664062 C 86.945312 49.578125 87.40625 49.46875 87.863281 49.332031 C 88.316406 49.195312 88.761719 49.035156 89.199219 48.847656 C 89.636719 48.660156 90.058594 48.445312 90.472656 48.210938 C 90.882812 47.972656 91.28125 47.714844 91.664062 47.429688 C 92.042969 47.148438 92.410156 46.84375 92.757812 46.519531 C 93.105469 46.195312 93.433594 45.851562 93.742188 45.488281 C 94.050781 45.125 94.335938 44.746094 94.601562 44.351562 C 94.867188 43.957031 95.109375 43.546875 95.328125 43.125 C 95.546875 42.703125 95.738281 42.265625 95.910156 41.820312 C 96.078125 41.375 96.222656 40.921875 96.339844 40.460938 C 96.457031 39.996094 96.546875 39.53125 96.609375 39.058594 C 96.671875 38.585938 96.710938 38.109375 96.71875 37.632812 C 96.730469 37.15625 96.710938 36.679688 96.667969 36.207031 C 96.621094 35.730469 96.550781 35.261719 96.453125 34.792969 C 96.355469 34.328125 96.230469 33.867188 96.078125 33.417969 C 95.929688 32.964844 95.753906 32.523438 95.550781 32.089844 C 95.351562 31.660156 95.125 31.238281 94.875 30.832031 C 94.625 30.429688 94.355469 30.039062 94.0625 29.664062 C 93.769531 29.289062 93.453125 28.933594 93.121094 28.59375 C 92.785156 28.253906 92.433594 27.9375 92.0625 27.636719 C 91.691406 27.339844 91.304688 27.066406 90.90625 26.8125 C 90.503906 26.558594 90.085938 26.328125 89.660156 26.121094 C 89.230469 25.917969 88.792969 25.738281 88.34375 25.582031 C 87.894531 25.425781 87.4375 25.296875 86.976562 25.195312 C 86.511719 25.09375 86.042969 25.015625 85.570312 24.96875 C 85.101562 24.921875 84.625 24.898438 84.152344 24.90625 C 83.675781 24.910156 83.203125 24.945312 82.734375 25.003906 C 82.261719 25.0625 81.796875 25.152344 81.335938 25.265625 C 80.875 25.378906 80.421875 25.519531 79.976562 25.6875 C 79.535156 25.851562 79.101562 26.042969 78.675781 26.257812 C 78.253906 26.476562 77.84375 26.714844 77.449219 26.980469 C 77.054688 27.242188 76.671875 27.527344 76.3125 27.835938 C 75.949219 28.140625 75.601562 28.46875 75.277344 28.816406 C 74.953125 29.160156 74.644531 29.527344 74.363281 29.90625 C 74.078125 30.289062 73.816406 30.6875 73.578125 31.097656 C 73.339844 31.511719 73.125 31.933594 72.933594 32.371094 C 72.742188 32.808594 72.578125 33.253906 72.4375 33.710938 C 72.296875 34.167969 72.183594 34.628906 72.097656 35.097656 C 72.011719 35.566406 71.953125 36.039062 71.917969 36.515625 C 71.886719 36.988281 71.878906 37.464844 71.902344 37.941406 C 71.921875 38.417969 71.972656 38.890625 72.046875 39.363281 C 72.121094 39.832031 72.222656 40.296875 72.351562 40.757812 C 72.480469 41.214844 72.636719 41.667969 72.816406 42.109375 C 72.996094 42.550781 73.199219 42.980469 73.429688 43.394531 C 73.65625 43.8125 73.910156 44.21875 74.183594 44.605469 C 74.457031 44.996094 74.753906 45.367188 75.070312 45.722656 C 75.390625 46.074219 75.726562 46.410156 76.082031 46.726562 C 77.3125 47.824219 78.707031 48.644531 80.265625 49.183594 C 81.824219 49.71875 83.425781 49.9375 85.066406 49.835938 Z M 93.96875 45.964844 C 93.644531 46.335938 93.296875 46.6875 92.929688 47.019531 C 92.5625 47.347656 92.179688 47.660156 91.777344 47.945312 C 91.375 48.230469 90.957031 48.496094 90.527344 48.734375 C 90.09375 48.972656 89.652344 49.183594 89.195312 49.371094 C 88.738281 49.5625 88.273438 49.722656 87.796875 49.855469 C 87.324219 49.988281 86.84375 50.09375 86.355469 50.175781 C 85.871094 50.253906 85.378906 50.304688 84.886719 50.324219 C 84.394531 50.347656 83.902344 50.339844 83.410156 50.308594 C 82.917969 50.273438 82.429688 50.210938 81.945312 50.117188 C 81.460938 50.027344 80.984375 49.910156 80.511719 49.765625 C 80.042969 49.617188 79.582031 49.445312 79.128906 49.246094 C 78.679688 49.046875 78.238281 48.824219 77.8125 48.574219 C 77.386719 48.324219 76.976562 48.050781 76.582031 47.753906 C 76.1875 47.457031 75.8125 47.140625 75.453125 46.800781 C 75.09375 46.460938 74.757812 46.101562 74.441406 45.722656 C 74.121094 45.34375 73.828125 44.945312 73.554688 44.53125 C 73.28125 44.121094 73.035156 43.691406 72.8125 43.25 C 72.589844 42.808594 72.390625 42.355469 72.21875 41.890625 C 72.046875 41.429688 71.902344 40.957031 71.785156 40.472656 C 71.667969 39.992188 71.578125 39.507812 71.515625 39.015625 C 71.453125 38.523438 71.417969 38.03125 71.414062 37.535156 C 71.40625 37.039062 71.429688 36.546875 71.480469 36.054688 C 71.53125 35.5625 71.609375 35.074219 71.714844 34.589844 C 71.820312 34.105469 71.953125 33.628906 72.113281 33.160156 C 72.273438 32.691406 72.460938 32.234375 72.675781 31.789062 C 72.886719 31.339844 73.125 30.90625 73.386719 30.488281 C 73.648438 30.070312 73.933594 29.667969 74.242188 29.28125 C 74.550781 28.894531 74.878906 28.523438 75.226562 28.175781 C 75.578125 27.828125 75.945312 27.5 76.335938 27.195312 C 76.722656 26.886719 77.125 26.605469 77.546875 26.34375 C 77.964844 26.085938 78.398438 25.851562 78.84375 25.640625 C 79.292969 25.429688 79.75 25.246094 80.214844 25.089844 C 80.683594 24.933594 81.15625 24.800781 81.640625 24.699219 C 82.121094 24.597656 82.609375 24.523438 83.101562 24.476562 C 83.589844 24.429688 84.082031 24.410156 84.574219 24.421875 C 85.066406 24.433594 85.558594 24.46875 86.046875 24.539062 C 86.535156 24.605469 87.019531 24.699219 87.496094 24.820312 C 87.972656 24.945312 88.445312 25.09375 88.902344 25.269531 C 89.363281 25.445312 89.8125 25.648438 90.25 25.875 C 90.6875 26.105469 91.113281 26.355469 91.519531 26.632812 C 91.929688 26.910156 92.320312 27.210938 92.695312 27.53125 C 93.070312 27.855469 93.425781 28.195312 93.761719 28.558594 C 94.097656 28.921875 94.410156 29.304688 94.703125 29.703125 C 94.992188 30.101562 95.261719 30.515625 95.507812 30.945312 C 95.75 31.375 95.972656 31.820312 96.164062 32.273438 C 96.359375 32.730469 96.527344 33.195312 96.667969 33.667969 C 96.808594 34.144531 96.921875 34.625 97.007812 35.113281 C 97.09375 35.601562 97.152344 36.089844 97.183594 36.585938 C 97.289062 38.300781 97.066406 39.972656 96.507812 41.597656 C 95.953125 43.222656 95.105469 44.679688 93.96875 45.964844 Z M 93.96875 45.964844 " fill-opacity="1" fill-rule="evenodd"/><path fill="#f18a00" d="M 93.25 86.40625 C 94.132812 86.101562 94.964844 85.691406 95.746094 85.183594 L 98.070312 87.246094 C 98.230469 87.386719 98.417969 87.453125 98.628906 87.4375 C 98.84375 87.425781 99.023438 87.339844 99.164062 87.175781 L 102.3125 83.597656 C 102.453125 83.4375 102.515625 83.25 102.503906 83.035156 C 102.492188 82.820312 102.402344 82.640625 102.246094 82.5 L 99.921875 80.4375 C 100.328125 79.59375 100.628906 78.714844 100.828125 77.796875 L 103.921875 77.609375 C 104.132812 77.59375 104.3125 77.503906 104.453125 77.34375 C 104.59375 77.183594 104.65625 76.996094 104.644531 76.78125 L 104.355469 72.015625 C 104.339844 71.804688 104.253906 71.625 104.09375 71.484375 C 103.933594 71.339844 103.746094 71.277344 103.53125 71.289062 L 100.4375 71.480469 C 100.132812 70.59375 99.726562 69.757812 99.21875 68.972656 L 101.273438 66.636719 C 101.414062 66.476562 101.476562 66.289062 101.464844 66.074219 C 101.453125 65.859375 101.363281 65.679688 101.203125 65.535156 L 97.652344 62.375 C 97.488281 62.230469 97.304688 62.167969 97.089844 62.179688 C 96.875 62.195312 96.699219 62.28125 96.554688 62.441406 L 94.503906 64.773438 C 93.664062 64.367188 92.789062 64.0625 91.878906 63.867188 L 91.6875 60.757812 C 91.671875 60.542969 91.585938 60.363281 91.425781 60.222656 C 91.265625 60.082031 91.078125 60.015625 90.863281 60.027344 L 86.125 60.320312 C 85.910156 60.335938 85.734375 60.421875 85.589844 60.582031 C 85.449219 60.746094 85.382812 60.933594 85.398438 61.148438 L 85.585938 64.253906 C 84.707031 64.5625 83.875 64.972656 83.089844 65.480469 L 80.769531 63.417969 C 80.605469 63.277344 80.421875 63.210938 80.207031 63.226562 C 79.992188 63.238281 79.816406 63.324219 79.671875 63.484375 L 76.527344 67.0625 C 76.382812 67.226562 76.320312 67.414062 76.332031 67.628906 C 76.347656 67.84375 76.433594 68.023438 76.59375 68.164062 L 78.914062 70.226562 C 78.507812 71.070312 78.207031 71.949219 78.007812 72.867188 L 74.917969 73.054688 C 74.703125 73.070312 74.527344 73.160156 74.386719 73.320312 C 74.242188 73.480469 74.179688 73.667969 74.191406 73.882812 L 74.484375 78.648438 C 74.496094 78.859375 74.585938 79.039062 74.746094 79.179688 C 74.90625 79.324219 75.089844 79.386719 75.304688 79.375 L 78.398438 79.183594 C 78.703125 80.070312 79.109375 80.90625 79.617188 81.691406 L 77.566406 84.027344 C 77.425781 84.1875 77.359375 84.375 77.375 84.589844 C 77.386719 84.804688 77.472656 84.984375 77.632812 85.128906 L 81.195312 88.289062 C 81.355469 88.429688 81.542969 88.496094 81.753906 88.484375 C 81.96875 88.46875 82.148438 88.382812 82.289062 88.222656 L 84.339844 85.886719 C 85.179688 86.296875 86.054688 86.601562 86.964844 86.796875 L 87.15625 89.90625 C 87.171875 90.121094 87.257812 90.296875 87.417969 90.441406 C 87.578125 90.582031 87.765625 90.648438 87.980469 90.632812 L 92.71875 90.34375 C 92.933594 90.328125 93.109375 90.242188 93.253906 90.078125 C 93.394531 89.917969 93.460938 89.730469 93.445312 89.515625 L 93.257812 86.40625 Z M 89.789062 81.425781 C 89.390625 81.453125 88.996094 81.4375 88.597656 81.382812 C 88.203125 81.328125 87.816406 81.238281 87.4375 81.105469 C 87.0625 80.976562 86.699219 80.808594 86.355469 80.609375 C 86.011719 80.40625 85.6875 80.171875 85.390625 79.90625 C 85.089844 79.640625 84.820312 79.347656 84.578125 79.03125 C 84.335938 78.710938 84.128906 78.371094 83.953125 78.011719 C 83.777344 77.648438 83.640625 77.277344 83.539062 76.886719 C 83.4375 76.5 83.375 76.105469 83.351562 75.707031 C 83.324219 75.304688 83.339844 74.90625 83.394531 74.507812 C 83.449219 74.113281 83.539062 73.722656 83.667969 73.34375 C 83.800781 72.964844 83.964844 72.601562 84.164062 72.253906 C 84.367188 71.910156 84.597656 71.585938 84.863281 71.285156 C 85.128906 70.984375 85.417969 70.714844 85.738281 70.46875 C 86.054688 70.226562 86.390625 70.019531 86.75 69.84375 C 87.109375 69.667969 87.480469 69.527344 87.867188 69.425781 C 88.253906 69.324219 88.644531 69.257812 89.042969 69.234375 C 89.441406 69.210938 89.839844 69.226562 90.234375 69.28125 C 90.632812 69.332031 91.015625 69.425781 91.394531 69.554688 C 91.773438 69.6875 92.132812 69.851562 92.476562 70.054688 C 92.824219 70.257812 93.144531 70.492188 93.445312 70.757812 C 93.742188 71.023438 94.011719 71.3125 94.253906 71.632812 C 94.496094 71.953125 94.703125 72.292969 94.878906 72.652344 C 95.054688 73.011719 95.191406 73.386719 95.296875 73.773438 C 95.398438 74.164062 95.460938 74.558594 95.484375 74.957031 C 95.507812 75.359375 95.492188 75.757812 95.441406 76.152344 C 95.386719 76.550781 95.292969 76.9375 95.164062 77.320312 C 95.035156 77.699219 94.871094 78.0625 94.667969 78.40625 C 94.46875 78.753906 94.234375 79.078125 93.96875 79.378906 C 93.707031 79.679688 93.414062 79.949219 93.097656 80.191406 C 92.78125 80.433594 92.441406 80.644531 92.082031 80.820312 C 91.722656 80.996094 91.351562 81.136719 90.964844 81.238281 C 90.578125 81.339844 90.1875 81.402344 89.789062 81.425781 Z M 89.789062 81.425781 " fill-opacity="1" fill-rule="evenodd"/><path fill="#ffda32" d="M 93.25 86.40625 C 94.132812 86.101562 94.964844 85.691406 95.746094 85.183594 L 98.070312 87.246094 C 98.230469 87.386719 98.417969 87.453125 98.628906 87.4375 C 98.84375 87.425781 99.023438 87.339844 99.164062 87.175781 L 102.3125 83.597656 C 102.453125 83.4375 102.515625 83.25 102.503906 83.035156 C 102.492188 82.820312 102.402344 82.640625 102.246094 82.5 L 99.921875 80.4375 C 100.328125 79.59375 100.628906 78.714844 100.828125 77.796875 L 103.921875 77.609375 C 104.132812 77.59375 104.3125 77.503906 104.453125 77.34375 C 104.59375 77.183594 104.65625 76.996094 104.644531 76.78125 L 104.355469 72.015625 C 104.339844 71.804688 104.253906 71.625 104.09375 71.484375 C 103.933594 71.339844 103.746094 71.277344 103.53125 71.289062 L 100.4375 71.480469 C 100.132812 70.59375 99.726562 69.757812 99.21875 68.972656 L 101.273438 66.636719 C 101.414062 66.476562 101.476562 66.289062 101.464844 66.074219 C 101.453125 65.859375 101.363281 65.679688 101.203125 65.535156 L 97.652344 62.375 C 97.488281 62.230469 97.304688 62.167969 97.089844 62.179688 C 96.875 62.195312 96.699219 62.28125 96.554688 62.441406 L 94.503906 64.773438 C 93.664062 64.367188 92.789062 64.0625 91.878906 63.867188 L 91.6875 60.757812 C 91.671875 60.542969 91.585938 60.363281 91.425781 60.222656 C 91.265625 60.082031 91.078125 60.015625 90.863281 60.027344 L 86.125 60.320312 C 85.910156 60.335938 85.734375 60.421875 85.589844 60.582031 C 85.449219 60.746094 85.382812 60.933594 85.398438 61.148438 L 85.585938 64.253906 C 84.707031 64.5625 83.875 64.972656 83.089844 65.480469 L 80.769531 63.417969 C 80.605469 63.277344 80.421875 63.210938 80.207031 63.226562 C 79.992188 63.238281 79.816406 63.324219 79.671875 63.484375 L 76.527344 67.0625 C 76.382812 67.226562 76.320312 67.414062 76.332031 67.628906 C 76.347656 67.84375 76.433594 68.023438 76.59375 68.164062 L 78.914062 70.226562 C 78.507812 71.070312 78.207031 71.949219 78.007812 72.867188 L 74.917969 73.054688 C 74.703125 73.070312 74.527344 73.160156 74.386719 73.320312 C 74.242188 73.480469 74.179688 73.667969 74.191406 73.882812 L 74.484375 78.648438 C 74.496094 78.859375 74.585938 79.039062 74.746094 79.179688 C 74.90625 79.324219 75.089844 79.386719 75.304688 79.375 L 78.398438 79.183594 C 78.703125 80.070312 79.109375 80.90625 79.617188 81.691406 L 77.566406 84.027344 C 77.425781 84.1875 77.359375 84.375 77.375 84.589844 C 77.386719 84.804688 77.472656 84.984375 77.632812 85.128906 L 81.195312 88.289062 C 81.355469 88.429688 81.542969 88.496094 81.753906 88.484375 C 81.96875 88.46875 82.148438 88.382812 82.289062 88.222656 L 84.339844 85.886719 C 85.179688 86.296875 86.054688 86.601562 86.964844 86.796875 L 87.15625 89.90625 C 87.171875 90.121094 87.257812 90.296875 87.417969 90.441406 C 87.578125 90.582031 87.765625 90.648438 87.980469 90.632812 L 92.71875 90.34375 C 92.933594 90.328125 93.109375 90.242188 93.253906 90.078125 C 93.394531 89.917969 93.460938 89.730469 93.445312 89.515625 L 93.257812 86.40625 Z M 89.789062 81.425781 C 89.390625 81.453125 88.996094 81.4375 88.597656 81.382812 C 88.203125 81.328125 87.816406 81.238281 87.4375 81.105469 C 87.0625 80.976562 86.699219 80.808594 86.355469 80.609375 C 86.011719 80.40625 85.6875 80.171875 85.390625 79.90625 C 85.089844 79.640625 84.820312 79.347656 84.578125 79.03125 C 84.335938 78.710938 84.128906 78.371094 83.953125 78.011719 C 83.777344 77.648438 83.640625 77.277344 83.539062 76.886719 C 83.4375 76.5 83.375 76.105469 83.351562 75.707031 C 83.324219 75.304688 83.339844 74.90625 83.394531 74.507812 C 83.449219 74.113281 83.539062 73.722656 83.667969 73.34375 C 83.800781 72.964844 83.964844 72.601562 84.164062 72.253906 C 84.367188 71.910156 84.597656 71.585938 84.863281 71.285156 C 85.128906 70.984375 85.417969 70.714844 85.738281 70.46875 C 86.054688 70.226562 86.390625 70.019531 86.75 69.84375 C 87.109375 69.667969 87.480469 69.527344 87.867188 69.425781 C 88.253906 69.324219 88.644531 69.257812 89.042969 69.234375 C 89.441406 69.210938 89.839844 69.226562 90.234375 69.28125 C 90.632812 69.332031 91.015625 69.425781 91.394531 69.554688 C 91.773438 69.6875 92.132812 69.851562 92.476562 70.054688 C 92.824219 70.257812 93.144531 70.492188 93.445312 70.757812 C 93.742188 71.023438 94.011719 71.3125 94.253906 71.632812 C 94.496094 71.953125 94.703125 72.292969 94.878906 72.652344 C 95.054688 73.011719 95.191406 73.386719 95.296875 73.773438 C 95.398438 74.164062 95.460938 74.558594 95.484375 74.957031 C 95.507812 75.359375 95.492188 75.757812 95.441406 76.152344 C 95.386719 76.550781 95.292969 76.9375 95.164062 77.320312 C 95.035156 77.699219 94.871094 78.0625 94.667969 78.40625 C 94.46875 78.753906 94.234375 79.078125 93.96875 79.378906 C 93.707031 79.679688 93.414062 79.949219 93.097656 80.191406 C 92.78125 80.433594 92.441406 80.644531 92.082031 80.820312 C 91.722656 80.996094 91.351562 81.136719 90.964844 81.238281 C 90.578125 81.339844 90.1875 81.402344 89.789062 81.425781 Z M 89.789062 81.425781 " fill-opacity="1" fill-rule="evenodd"/><path fill="#e59d00" d="M 89.839844 82.285156 C 90.371094 82.25 90.890625 82.15625 91.402344 82.003906 C 91.910156 81.851562 92.394531 81.644531 92.859375 81.378906 C 93.320312 81.113281 93.746094 80.796875 94.132812 80.433594 C 94.523438 80.070312 94.867188 79.667969 95.164062 79.226562 C 95.460938 78.78125 95.703125 78.3125 95.894531 77.8125 C 96.082031 77.3125 96.214844 76.796875 96.285156 76.269531 C 96.355469 75.738281 96.367188 75.210938 96.316406 74.675781 C 96.269531 74.144531 96.160156 73.625 95.988281 73.121094 C 95.820312 72.613281 95.597656 72.132812 95.320312 71.675781 C 95.039062 71.222656 94.714844 70.804688 94.339844 70.425781 C 93.964844 70.046875 93.550781 69.714844 93.101562 69.429688 C 92.652344 69.148438 92.175781 68.917969 91.671875 68.746094 C 91.167969 68.570312 90.652344 68.457031 90.125 68.402344 C 89.597656 68.347656 89.066406 68.355469 88.539062 68.421875 C 88.011719 68.488281 87.5 68.617188 87 68.800781 C 86.503906 68.988281 86.03125 69.230469 85.589844 69.523438 C 85.144531 69.820312 84.742188 70.160156 84.375 70.546875 C 84.011719 70.9375 83.695312 71.363281 83.429688 71.824219 C 83.160156 72.285156 82.949219 72.769531 82.792969 73.28125 C 82.636719 73.792969 82.539062 74.3125 82.5 74.847656 C 82.464844 75.378906 82.488281 75.910156 82.574219 76.4375 C 82.65625 76.964844 82.800781 77.476562 83 77.96875 C 83.203125 78.464844 83.457031 78.929688 83.765625 79.363281 C 84.074219 79.800781 84.425781 80.195312 84.824219 80.550781 C 85.511719 81.160156 86.292969 81.617188 87.160156 81.917969 C 88.03125 82.21875 88.921875 82.339844 89.839844 82.285156 Z M 94.910156 80.214844 C 94.539062 80.640625 94.121094 81.015625 93.664062 81.34375 C 93.203125 81.671875 92.714844 81.941406 92.195312 82.15625 C 91.671875 82.371094 91.136719 82.523438 90.578125 82.613281 C 90.023438 82.703125 89.464844 82.726562 88.902344 82.6875 C 88.34375 82.648438 87.792969 82.546875 87.253906 82.378906 C 86.714844 82.210938 86.203125 81.988281 85.71875 81.703125 C 85.230469 81.417969 84.785156 81.082031 84.375 80.691406 C 83.964844 80.304688 83.605469 79.875 83.296875 79.402344 C 82.984375 78.929688 82.730469 78.429688 82.535156 77.898438 C 82.339844 77.371094 82.207031 76.824219 82.132812 76.261719 C 82.0625 75.703125 82.054688 75.140625 82.113281 74.578125 C 82.171875 74.015625 82.292969 73.46875 82.472656 72.933594 C 82.65625 72.398438 82.898438 71.890625 83.199219 71.410156 C 83.496094 70.933594 83.847656 70.492188 84.246094 70.09375 C 84.644531 69.699219 85.085938 69.351562 85.566406 69.054688 C 86.042969 68.757812 86.550781 68.519531 87.082031 68.339844 C 87.617188 68.160156 88.164062 68.042969 88.726562 67.988281 C 89.285156 67.9375 89.84375 67.949219 90.402344 68.023438 C 90.960938 68.101562 91.5 68.238281 92.027344 68.441406 C 92.554688 68.640625 93.050781 68.902344 93.515625 69.21875 C 93.984375 69.535156 94.40625 69.898438 94.792969 70.3125 C 95.175781 70.726562 95.503906 71.179688 95.785156 71.671875 C 96.0625 72.160156 96.285156 72.679688 96.445312 73.21875 C 96.605469 73.761719 96.703125 74.316406 96.738281 74.878906 C 96.800781 75.855469 96.671875 76.804688 96.355469 77.730469 C 96.039062 78.65625 95.558594 79.484375 94.914062 80.214844 Z M 94.910156 80.214844 " fill-opacity="1" fill-rule="evenodd"/><path fill="#e59d00" d="M 90.058594 85.84375 C 90.457031 85.820312 90.855469 85.773438 91.25 85.703125 C 91.644531 85.632812 92.035156 85.539062 92.417969 85.421875 C 92.800781 85.308594 93.179688 85.171875 93.546875 85.011719 C 93.914062 84.855469 94.273438 84.675781 94.621094 84.472656 C 94.96875 84.273438 95.304688 84.054688 95.625 83.816406 C 95.949219 83.578125 96.257812 83.324219 96.550781 83.046875 C 96.84375 82.773438 97.121094 82.484375 97.382812 82.179688 C 97.644531 81.871094 97.886719 81.550781 98.109375 81.21875 C 98.332031 80.886719 98.539062 80.539062 98.722656 80.183594 C 98.90625 79.824219 99.070312 79.457031 99.214844 79.082031 C 99.355469 78.707031 99.476562 78.324219 99.578125 77.933594 C 99.675781 77.542969 99.75 77.148438 99.804688 76.75 C 99.859375 76.347656 99.890625 75.949219 99.898438 75.546875 C 99.90625 75.144531 99.894531 74.742188 99.855469 74.339844 C 99.816406 73.941406 99.757812 73.542969 99.675781 73.148438 C 99.589844 72.753906 99.484375 72.367188 99.359375 71.984375 C 99.230469 71.601562 99.082031 71.230469 98.914062 70.867188 C 98.742188 70.5 98.554688 70.148438 98.34375 69.804688 C 98.132812 69.460938 97.90625 69.132812 97.65625 68.816406 C 97.410156 68.5 97.144531 68.199219 96.863281 67.910156 C 96.578125 67.625 96.28125 67.355469 95.96875 67.105469 C 95.65625 66.855469 95.332031 66.621094 94.992188 66.40625 C 94.652344 66.191406 94.300781 66 93.941406 65.824219 C 93.578125 65.652344 93.207031 65.5 92.828125 65.367188 C 92.449219 65.238281 92.066406 65.128906 91.671875 65.042969 C 91.28125 64.957031 90.886719 64.890625 90.488281 64.851562 C 90.089844 64.808594 89.691406 64.789062 89.289062 64.796875 C 88.890625 64.800781 88.488281 64.828125 88.09375 64.878906 C 87.695312 64.929688 87.300781 65.003906 86.914062 65.101562 C 86.523438 65.195312 86.140625 65.316406 85.765625 65.453125 C 85.390625 65.59375 85.023438 65.757812 84.667969 65.9375 C 84.308594 66.121094 83.964844 66.324219 83.628906 66.546875 C 83.296875 66.769531 82.976562 67.007812 82.667969 67.269531 C 82.363281 67.527344 82.070312 67.804688 81.796875 68.097656 C 81.519531 68.390625 81.261719 68.695312 81.023438 69.019531 C 80.78125 69.339844 80.5625 69.675781 80.359375 70.023438 C 80.15625 70.371094 79.976562 70.730469 79.816406 71.097656 C 79.65625 71.46875 79.515625 71.84375 79.398438 72.230469 C 79.28125 72.613281 79.183594 73.003906 79.109375 73.398438 C 79.039062 73.796875 78.988281 74.195312 78.957031 74.597656 C 78.929688 74.996094 78.925781 75.398438 78.945312 75.800781 C 78.960938 76.203125 79.003906 76.605469 79.066406 77 C 79.128906 77.398438 79.214844 77.792969 79.324219 78.179688 C 79.433594 78.566406 79.5625 78.949219 79.714844 79.320312 C 79.867188 79.691406 80.039062 80.054688 80.230469 80.40625 C 80.425781 80.761719 80.636719 81.101562 80.871094 81.429688 C 81.101562 81.757812 81.351562 82.070312 81.621094 82.371094 C 81.886719 82.671875 82.171875 82.953125 82.472656 83.21875 C 83.511719 84.148438 84.691406 84.839844 86.003906 85.292969 C 87.320312 85.746094 88.671875 85.929688 90.058594 85.84375 Z M 97.574219 82.578125 C 97.296875 82.894531 97.007812 83.1875 96.695312 83.46875 C 96.386719 83.75 96.0625 84.007812 95.722656 84.25 C 95.382812 84.492188 95.03125 84.714844 94.667969 84.917969 C 94.300781 85.117188 93.925781 85.296875 93.542969 85.457031 C 93.15625 85.617188 92.765625 85.75 92.363281 85.863281 C 91.960938 85.976562 91.554688 86.066406 91.144531 86.132812 C 90.734375 86.199219 90.320312 86.242188 89.90625 86.261719 C 89.488281 86.28125 89.074219 86.273438 88.660156 86.246094 C 88.242188 86.214844 87.832031 86.164062 87.421875 86.085938 C 87.011719 86.011719 86.609375 85.910156 86.210938 85.789062 C 85.8125 85.664062 85.425781 85.519531 85.042969 85.351562 C 84.664062 85.183594 84.292969 84.992188 83.933594 84.785156 C 83.574219 84.574219 83.226562 84.34375 82.894531 84.089844 C 82.558594 83.839844 82.242188 83.570312 81.9375 83.285156 C 81.636719 82.996094 81.351562 82.695312 81.082031 82.375 C 80.816406 82.054688 80.566406 81.71875 80.335938 81.371094 C 80.105469 81.023438 79.898438 80.660156 79.710938 80.289062 C 79.519531 79.914062 79.355469 79.535156 79.207031 79.140625 C 79.0625 78.75 78.941406 78.351562 78.84375 77.945312 C 78.742188 77.539062 78.667969 77.128906 78.613281 76.710938 C 78.5625 76.296875 78.53125 75.882812 78.527344 75.460938 C 78.523438 75.042969 78.542969 74.628906 78.582031 74.210938 C 78.625 73.796875 78.691406 73.382812 78.78125 72.976562 C 78.871094 72.566406 78.984375 72.164062 79.121094 71.769531 C 79.253906 71.375 79.414062 70.988281 79.59375 70.609375 C 79.773438 70.234375 79.972656 69.867188 80.191406 69.511719 C 80.414062 69.15625 80.65625 68.816406 80.914062 68.492188 C 81.175781 68.164062 81.453125 67.855469 81.75 67.558594 C 82.042969 67.265625 82.355469 66.988281 82.683594 66.730469 C 83.011719 66.472656 83.351562 66.234375 83.707031 66.011719 C 84.058594 65.792969 84.425781 65.59375 84.800781 65.417969 C 85.179688 65.242188 85.566406 65.085938 85.960938 64.953125 C 86.355469 64.820312 86.753906 64.710938 87.164062 64.625 C 87.570312 64.539062 87.980469 64.476562 88.394531 64.4375 C 88.808594 64.394531 89.226562 64.382812 89.640625 64.390625 C 90.058594 64.398438 90.472656 64.429688 90.882812 64.488281 C 91.296875 64.542969 91.703125 64.625 92.109375 64.726562 C 92.511719 64.828125 92.90625 64.957031 93.296875 65.105469 C 93.683594 65.253906 94.0625 65.425781 94.433594 65.617188 C 94.804688 65.808594 95.160156 66.023438 95.503906 66.257812 C 95.851562 66.492188 96.179688 66.742188 96.496094 67.015625 C 96.8125 67.289062 97.113281 67.578125 97.398438 67.882812 C 97.679688 68.191406 97.945312 68.511719 98.191406 68.847656 C 98.4375 69.183594 98.664062 69.535156 98.871094 69.898438 C 99.078125 70.261719 99.261719 70.636719 99.425781 71.019531 C 99.589844 71.402344 99.730469 71.796875 99.851562 72.199219 C 99.96875 72.597656 100.066406 73.003906 100.140625 73.417969 C 100.210938 73.828125 100.261719 74.242188 100.285156 74.660156 C 100.378906 76.109375 100.1875 77.519531 99.71875 78.890625 C 99.246094 80.265625 98.53125 81.496094 97.574219 82.582031 Z M 97.574219 82.578125 " fill-opacity="1" fill-rule="evenodd"/><path fill="#333333" d="M 76.457031 26.496094 L 77.542969 26.285156 C 77.847656 23.839844 77.988281 21.390625 77.957031 18.929688 L 79.65625 19.003906 L 82.863281 15.839844 C 82.863281 15.839844 79.222656 15.398438 76.699219 16.5 C 76.476562 16.597656 76.277344 16.730469 76.097656 16.894531 C 75.921875 17.0625 75.777344 17.257812 75.664062 17.476562 C 75.550781 17.691406 75.480469 17.921875 75.449219 18.167969 C 75.417969 18.410156 75.425781 18.648438 75.476562 18.890625 C 75.777344 20.308594 75.828125 21.792969 76.457031 26.496094 Z M 76.457031 26.496094 " fill-opacity="1" fill-rule="nonzero"/><path fill="#eda27c" d="M 83.441406 8.542969 L 83.460938 7.019531 L 84.785156 6.128906 L 84.785156 8.738281 Z M 83.441406 8.542969 " fill-opacity="1" fill-rule="nonzero"/><path fill="#1a1a1a" d="M 80.613281 27.800781 L 80.796875 28.394531 C 80.832031 28.5 80.8125 28.601562 80.75 28.691406 C 80.683594 28.78125 80.59375 28.824219 80.484375 28.824219 L 77.742188 28.824219 C 77.742188 28.824219 77.683594 28.3125 78.316406 28.183594 C 78.734375 28.09375 79.136719 27.96875 79.527344 27.800781 Z M 80.613281 27.800781 " fill-opacity="1" fill-rule="nonzero"/><path fill="#1a1a1a" d="M 77.519531 26.222656 L 77.820312 26.769531 C 77.875 26.867188 77.878906 26.964844 77.835938 27.066406 C 77.789062 27.167969 77.710938 27.230469 77.605469 27.253906 L 74.925781 27.828125 C 74.925781 27.828125 74.757812 27.34375 75.351562 27.082031 C 75.742188 26.90625 76.109375 26.699219 76.457031 26.453125 Z M 77.519531 26.222656 " fill-opacity="1" fill-rule="nonzero"/><path fill="#f7c4a3" d="M 84.878906 5.992188 C 84.878906 5.992188 84.730469 7.226562 83.824219 7.226562 C 82.917969 7.226562 82.46875 7.308594 82.46875 6.324219 C 82.46875 5.335938 82.242188 4.351562 82.84375 4.019531 C 83.445312 3.6875 84.957031 3.609375 84.878906 5.003906 C 84.878906 5.003906 85.257812 4.675781 85.257812 5.167969 C 85.257812 5.664062 85.257812 6.160156 84.878906 5.992188 Z M 84.878906 5.992188 " fill-opacity="1" fill-rule="nonzero"/><g clip-path="url(#124c000a27)"><path fill="#333333" d="M 84.878906 6.242188 C 84.878906 6.242188 87.21875 4.351562 85.632812 3.035156 C 84.050781 1.71875 83.597656 3.28125 82.164062 2.210938 C 82.164062 2.210938 80.808594 3.445312 82.542969 4.265625 C 82.542969 4.265625 84.691406 3.980469 84.539062 5.296875 C 84.539062 5.296875 84.765625 4.96875 85.144531 5.050781 C 85.523438 5.132812 84.992188 5.953125 84.878906 6.242188 Z M 84.878906 6.242188 " fill-opacity="1" fill-rule="nonzero"/></g><path fill="#648eff" d="M 78.152344 12.042969 L 79.417969 9.464844 C 79.65625 8.984375 79.988281 8.582031 80.417969 8.261719 C 80.847656 7.941406 81.328125 7.738281 81.855469 7.652344 C 83.109375 7.449219 84.792969 7.28125 85.980469 7.570312 C 88.109375 8.078125 87.878906 9.144531 87.851562 9.558594 C 87.824219 9.976562 87.558594 13.152344 87.558594 13.152344 L 85.769531 13.152344 L 85.898438 16.113281 L 81.839844 16.300781 L 80.910156 10.792969 L 80.1875 11.925781 Z M 78.152344 12.042969 " fill-opacity="1" fill-rule="nonzero"/><path fill="#005db7" d="M 81.839844 16.300781 L 85.699219 15.371094 L 85.699219 10.683594 L 85.21875 14.941406 L 81.78125 15.949219 Z M 81.839844 16.300781 " fill-opacity="1" fill-rule="nonzero"/><path fill="#4d4d4d" d="M 86.9375 16.398438 C 86.9375 16.398438 87.578125 18.304688 86.289062 19.007812 C 85 19.707031 81.351562 19.210938 81.351562 19.210938 C 81.351562 19.210938 81.789062 22.429688 80.609375 27.796875 L 79.496094 27.796875 L 79.132812 18.664062 C 79.117188 18.273438 79.21875 17.917969 79.433594 17.59375 C 79.648438 17.269531 79.9375 17.039062 80.300781 16.902344 L 81.652344 16.402344 Z M 86.9375 16.398438 " fill-opacity="1" fill-rule="nonzero"/><path fill="#e6e6e6" d="M 74.09375 16.570312 L 72.449219 11.660156 L 80.128906 11.660156 L 81.671875 16.578125 Z M 74.09375 16.570312 " fill-opacity="1" fill-rule="nonzero"/><path fill="#f7c4a3" d="M 87.5625 13.152344 L 86.9375 16.398438 C 86.9375 16.398438 83.847656 17.074219 82.164062 16.871094 C 82.164062 16.871094 80.585938 17.109375 80.066406 16.667969 C 79.542969 16.226562 81.035156 16.636719 81.378906 16.414062 C 81.722656 16.191406 85.699219 15.371094 85.699219 15.371094 L 85.769531 13.152344 Z M 87.5625 13.152344 " fill-opacity="1" fill-rule="nonzero"/><path fill="#3fb268" d="M 55.511719 92.246094 C 55.511719 92.246094 56.472656 89.566406 59.242188 90.640625 C 59.242188 90.640625 59.78125 86.410156 63.558594 85.847656 C 67.339844 85.285156 68.945312 88.921875 68.945312 88.921875 C 68.945312 88.921875 70.011719 87.527344 71.71875 88.066406 C 73.425781 88.601562 73.410156 89.8125 73.410156 89.8125 C 73.410156 89.8125 74.179688 88.746094 76.027344 89.277344 C 77.875 89.8125 77.582031 91.28125 77.582031 91.28125 C 77.582031 91.28125 81.417969 89.992188 82.273438 92.242188 Z M 55.511719 92.246094 " fill-opacity="1" fill-rule="nonzero"/><path fill="#eda27c" d="M 12.003906 64.589844 L 11.984375 63.082031 L 10.554688 62.191406 L 10.554688 64.785156 Z M 12.003906 64.589844 " fill-opacity="1" fill-rule="nonzero"/><path fill="#f7c4a3" d="M 10.453125 62.058594 C 10.453125 62.058594 10.617188 63.285156 11.59375 63.285156 C 12.566406 63.285156 13.054688 63.367188 13.054688 62.386719 C 13.054688 61.40625 13.296875 60.425781 12.648438 60.097656 C 12 59.773438 10.371094 59.691406 10.453125 61.078125 C 10.453125 61.078125 10.046875 60.753906 10.046875 61.242188 C 10.046875 61.734375 10.046875 62.222656 10.453125 62.058594 Z M 10.453125 62.058594 " fill-opacity="1" fill-rule="nonzero"/><path fill="#333333" d="M 10.453125 62.304688 C 10.453125 62.304688 7.933594 60.425781 9.640625 59.117188 C 11.347656 57.8125 11.835938 59.363281 13.382812 58.300781 C 13.382812 58.300781 14.847656 59.527344 12.976562 60.34375 C 12.976562 60.34375 10.660156 60.058594 10.820312 61.363281 C 10.820312 61.363281 10.582031 61.039062 10.171875 61.121094 C 9.761719 61.207031 10.332031 62.019531 10.453125 62.304688 Z M 10.453125 62.304688 " fill-opacity="1" fill-rule="nonzero"/><path fill="#333333" d="M 14.496094 91.148438 L 13.511719 91.148438 L 11.15625 80.296875 L 12.957031 74.542969 L 14.070312 74.609375 Z M 14.496094 91.148438 " fill-opacity="1" fill-rule="nonzero"/><path fill="#1a1a1a" d="M 13.519531 91.113281 L 13.332031 91.726562 C 13.296875 91.835938 13.3125 91.9375 13.382812 92.03125 C 13.449219 92.121094 13.539062 92.167969 13.65625 92.167969 L 16.476562 92.167969 C 16.476562 92.167969 16.542969 91.640625 15.886719 91.507812 C 15.457031 91.417969 15.039062 91.285156 14.636719 91.113281 Z M 13.519531 91.113281 " fill-opacity="1" fill-rule="nonzero"/><path fill="#1a1a1a" d="M 8.21875 91.113281 L 8.03125 91.726562 C 7.996094 91.835938 8.011719 91.9375 8.082031 92.03125 C 8.148438 92.121094 8.238281 92.167969 8.351562 92.167969 L 11.175781 92.167969 C 11.175781 92.167969 11.242188 91.640625 10.585938 91.507812 C 10.15625 91.417969 9.738281 91.285156 9.335938 91.113281 Z M 8.21875 91.113281 " fill-opacity="1" fill-rule="nonzero"/><path fill="#4d4d4d" d="M 13.085938 73.886719 L 8.636719 73.097656 L 8.246094 91.113281 L 9.355469 91.113281 Z M 13.085938 73.886719 " fill-opacity="1" fill-rule="nonzero"/><path fill="#ee4266" d="M 20.875 70.53125 L 16.359375 69.347656 L 14.453125 64.859375 C 14.191406 64.25 13.738281 63.886719 13.09375 63.765625 C 12.507812 63.65625 11.726562 63.730469 11.253906 63.695312 C 10.78125 63.664062 9.941406 63.679688 9.1875 63.894531 C 8.796875 64.003906 8.46875 64.210938 8.195312 64.511719 C 7.925781 64.816406 7.757812 65.167969 7.691406 65.570312 C 7.433594 67.125 7.066406 69.695312 7.199219 70.929688 C 7.394531 72.769531 8.113281 75.664062 8.113281 75.664062 L 9.160156 75.664062 L 8.964844 74.480469 L 14.59375 74.679688 L 14.035156 69.582031 L 15.105469 70.742188 C 15.4375 71.109375 15.851562 71.308594 16.347656 71.34375 L 20.90625 71.683594 Z M 20.875 70.53125 " fill-opacity="1" fill-rule="nonzero"/><path fill="#f7c4a3" d="M 20.902344 71.496094 C 20.902344 71.496094 21.695312 71.878906 22.28125 71.816406 C 22.871094 71.75 23.851562 71.222656 23.722656 70.894531 C 23.59375 70.566406 22.414062 70.960938 22.347656 70.699219 C 22.28125 70.433594 22.804688 70.5 22.804688 70.300781 C 22.804688 70.105469 22.347656 70.171875 22.085938 70.300781 C 21.824219 70.433594 20.90625 70.566406 20.90625 70.566406 Z M 20.902344 71.496094 " fill-opacity="1" fill-rule="nonzero"/><path fill="#f7c4a3" d="M 9.160156 75.660156 C 9.160156 75.660156 9.355469 76.320312 9.355469 76.515625 C 9.355469 76.714844 9.292969 76.910156 9.160156 76.714844 C 9.03125 76.515625 9.09375 77.175781 9.160156 77.503906 C 9.226562 77.832031 8.636719 78.027344 8.179688 77.503906 C 7.722656 76.976562 8.179688 75.660156 8.179688 75.660156 Z M 9.160156 75.660156 " fill-opacity="1" fill-rule="nonzero"/><path fill="#c42a4e" d="M 14.070312 69.546875 L 14.070312 66.917969 L 14.585938 70.179688 Z M 14.070312 69.546875 " fill-opacity="1" fill-rule="nonzero"/><path fill="#c42a4e" d="M 8.964844 74.542969 C 8.964844 74.542969 8.703125 72.179688 8.769531 71.058594 C 8.832031 69.9375 9.226562 68.296875 9.226562 68.296875 L 9.488281 74.542969 Z M 8.964844 74.542969 " fill-opacity="1" fill-rule="nonzero"/></svg>
