<svg width="16" height="16" viewBox="0 0 16 16" fill="none" xmlns="http://www.w3.org/2000/svg">
<g clip-path="url(#clip0_1_807)">
<path d="M15.0958 5.46442L12.973 3.53813C11.9509 2.59464 10.9287 1.65115 9.86732 0.746973C8.8059 -0.235828 7.27273 -0.235828 6.2113 0.707661C4.40295 2.28014 2.63391 3.89194 0.825553 5.54304C0.275184 6.0541 0 6.7224 0 7.50864C0 9.39562 0 11.3219 0 13.2089C0 14.7814 1.21867 16 2.79115 16H6.44717H9.08108C10.457 16 11.8329 16 13.2088 16C13.3661 16 13.484 16 13.6413 15.9607C15.0172 15.7249 16 14.5848 16 13.1696C16 12.0295 16 10.9288 16 9.78874C16 9.04181 16 8.29488 16 7.54796C16.0393 6.7224 15.7248 6.01479 15.0958 5.46442ZM14.0737 13.2089C14.0737 13.8772 13.7199 14.231 13.0516 14.231C11.8329 14.231 10.6536 14.231 9.43489 14.231H7.98034H6.48649C5.30713 14.231 4.12776 14.231 2.9484 14.231C2.20147 14.231 1.88698 13.9165 1.88698 13.1696V11.4792C1.88698 10.2605 1.88698 9.0025 1.88698 7.78383C1.88698 7.3514 2.00491 7.0369 2.35872 6.7224C3.65602 5.58235 4.95332 4.40299 6.2113 3.22363L7.23341 2.28014C7.74447 1.8084 8.1769 1.8084 8.68796 2.28014C10.3391 3.774 11.9902 5.26786 13.602 6.76172C13.9165 7.0369 14.0344 7.3514 14.0344 7.74452C14.0344 9.0025 14.0344 10.2605 14.0344 11.5185L14.0737 13.2089Z" fill="#179A6B"/>
<path d="M11.5577 10.575H4.48157C3.97052 10.575 3.53809 11.0074 3.53809 11.5184C3.53809 12.0295 3.97052 12.4619 4.48157 12.4619H11.5577C12.0688 12.4619 12.5012 12.0295 12.5012 11.5184C12.5012 11.0074 12.0688 10.575 11.5577 10.575Z" fill="#179A6B"/>
</g>
<defs>
<clipPath id="clip0_1_807">
<rect width="16" height="16" fill="white"/>
</clipPath>
</defs>
</svg>
