<svg width="16" height="17" viewBox="0 0 16 17" fill="none" xmlns="http://www.w3.org/2000/svg">
<path d="M15.0762 12.2744H13.8777V6.83039C13.8777 3.58932 11.2406 0.953125 8.00043 0.953125C4.75936 0.953125 2.12317 3.58932 2.12317 6.83039V12.2744H0.92466C0.414234 12.2744 0 12.6895 0 13.199C0 13.7086 0.414234 14.1237 0.92466 14.1237H4.96127C5.07306 15.7035 6.39376 16.954 8.00043 16.954C9.60711 16.954 10.9287 15.7035 11.0396 14.1237H15.0762C15.5858 14.1237 16.0009 13.7094 16.0009 13.199C16.0009 12.6886 15.5858 12.2744 15.0762 12.2744ZM9.17901 14.1228C9.07675 14.6809 8.58712 15.1047 8.00043 15.1047C7.41375 15.1047 6.92412 14.6809 6.82186 14.1228H9.17901ZM12.0292 6.83039V12.2744H3.97162V6.83039C3.97162 4.6093 5.77934 2.80158 8.00043 2.80158C10.2215 2.80158 12.0292 4.6093 12.0292 6.83039Z" fill="#179A6B"/>
</svg>
