<svg width="30" height="30" viewBox="0 0 30 30" fill="none" xmlns="http://www.w3.org/2000/svg">
<circle cx="15" cy="15" r="15" fill="#F0F5FF"/>
<path d="M14.5277 8.35869C14.6834 7.91091 15.3166 7.91091 15.4723 8.35869L16.7667 12.0825C16.8353 12.28 17.0197 12.414 17.2288 12.4182L21.1703 12.4986C21.6443 12.5082 21.84 13.1105 21.4622 13.3969L18.3206 15.7787C18.154 15.905 18.0836 16.1217 18.1441 16.3219L19.2857 20.0953C19.423 20.5491 18.9107 20.9213 18.5216 20.6505L15.2856 18.3987C15.1139 18.2793 14.8861 18.2793 14.7144 18.3987L11.4784 20.6505C11.0893 20.9213 10.577 20.5491 10.7143 20.0953L11.8559 16.3219C11.9164 16.1217 11.846 15.905 11.6794 15.7787L8.5378 13.3969C8.16003 13.1105 8.35572 12.5082 8.82969 12.4986L12.7712 12.4182C12.9803 12.414 13.1647 12.28 13.2333 12.0825L14.5277 8.35869Z" fill="#4D6FDD"/>
</svg>
