<svg id="Layer_1" data-name="Layer 1" xmlns="http://www.w3.org/2000/svg" viewBox="0 0 100 100"><defs><style>.cls-1{fill:#191936;}.cls-2{fill:#da173e;}.cls-3{fill:#fff;}</style></defs><title>Logo tRadar_Icon</title><g id="_Group_" data-name="&lt;Group&gt;"><g id="_Group_2" data-name="&lt;Group&gt;"><g id="_Group_3" data-name="&lt;Group&gt;"><path class="cls-1" d="M50.57,20.89c-.15-5.38-8.65-5.15-12.31-5.22s-7,.07-10.54-.06c-3.13-.12-6.13-1.09-8-3.72a9.85,9.85,0,0,1-1.41-2.84c-.1-.31-.18-.63-.25-.95,0-.12-.09-.54-.06-.3-.08-.7-1.13-1-1.33-.18-1,4.13-1.15,9.69,1.82,13.06,2.49,2.83,6.63,2.74,10.1,2.76a115,115,0,0,0,13.58-.84c2.65-.3,5.29-.63,7.92-1.06a.54.54,0,0,0,.49-.52A.74.74,0,0,0,50.57,20.89Z"/></g><g id="_Group_4" data-name="&lt;Group&gt;"><path class="cls-1" d="M47.06,26.16c-.15-5.38-8.65-5.15-12.31-5.22s-7,.07-10.54-.06c-3.13-.12-6.13-1.09-8-3.72a9.85,9.85,0,0,1-1.41-2.84c-.1-.31-.18-.63-.25-.95,0-.12-.09-.54-.06-.3-.08-.7-1.13-1-1.33-.18C12.15,17,12,22.58,15,26c2.49,2.83,6.63,2.74,10.1,2.76a115,115,0,0,0,13.58-.84c2.65-.3,5.29-.63,7.92-1.06a.54.54,0,0,0,.49-.52A.73.73,0,0,0,47.06,26.16Z"/></g></g><g id="_Group_5" data-name="&lt;Group&gt;"><g id="_Group_6" data-name="&lt;Group&gt;"><path class="cls-1" d="M49.43,20.89c.15-5.38,8.65-5.15,12.31-5.22s7,.07,10.54-.06c3.13-.12,6.13-1.09,8-3.72a9.85,9.85,0,0,0,1.41-2.84c.1-.31.18-.63.25-.95,0-.12.09-.54.06-.3.08-.7,1.13-1,1.33-.18,1,4.13,1.15,9.69-1.82,13.06-2.49,2.83-6.63,2.74-10.1,2.76a115,115,0,0,1-13.58-.84c-2.65-.3-5.29-.63-7.92-1.06a.54.54,0,0,1-.49-.52A.73.73,0,0,1,49.43,20.89Z"/></g><g id="_Group_7" data-name="&lt;Group&gt;"><path class="cls-1" d="M52.94,26.16c.15-5.38,8.65-5.15,12.31-5.22s7,.07,10.54-.06c3.13-.12,6.13-1.09,8-3.72a9.85,9.85,0,0,0,1.41-2.84c.1-.31.18-.63.25-.95,0-.12.09-.54.06-.3.08-.7,1.13-1,1.33-.18C87.85,17,88,22.58,85,26c-2.49,2.83-6.63,2.74-10.1,2.76a115,115,0,0,1-13.58-.84c-2.65-.3-5.29-.63-7.92-1.06a.54.54,0,0,1-.49-.52A.73.73,0,0,1,52.94,26.16Z"/></g></g></g><g id="_Group_8" data-name="&lt;Group&gt;"><path class="cls-2" d="M97.62,53.94c-.15-13.65-7.43-25.2-17.32-29.2h0c-5.49-3.18-32.71-11.47-60.58,0h0c-9.89,4-17.17,15.55-17.32,29.2-.2,17.4,11,31.59,24.92,31.59a20.33,20.33,0,0,0,7-1.23,45.59,45.59,0,0,1,31.45,0,20.33,20.33,0,0,0,7,1.23C86.58,85.52,97.81,71.34,97.62,53.94Z"/></g><g id="_Group_9" data-name="&lt;Group&gt;"><g id="_Group_10" data-name="&lt;Group&gt;"><circle class="cls-3" cx="30.95" cy="56.96" r="21.43"/></g></g><g id="_Group_11" data-name="&lt;Group&gt;"><g id="_Group_12" data-name="&lt;Group&gt;"><circle class="cls-3" cx="69.05" cy="56.96" r="21.43"/></g></g><g id="_Group_13" data-name="&lt;Group&gt;"><path class="cls-2" d="M58.61,78.31c0,5.11-8.61,14.55-8.61,14.55s-8.61-9.43-8.61-14.55S45.25,69,50,69,58.61,73.19,58.61,78.31Z"/></g><circle class="cls-3" cx="26.01" cy="73.77" r="18.06"/><circle class="cls-3" cx="74.22" cy="73.74" r="18.06"/><path class="cls-1" d="M55.68,77.85c-3.06,3.78-8.08,4-11.14.32a57.76,57.76,0,0,1-3.33,6.62,18.52,18.52,0,0,1-20.08,7.44A18.72,18.72,0,0,1,7.22,75.82,18.46,18.46,0,0,1,11.9,61.58c2.17-2.49,4.35-5,6.54-7.43a16.35,16.35,0,0,1,8.31-5.08,3.56,3.56,0,0,0,1.56-1c.75-.79,1.36-1.7,2.06-2.53a8,8,0,0,1,14.07,6.92,6.11,6.11,0,0,1-.2.85,3.64,3.64,0,0,0,.89,4.23,5.54,5.54,0,0,1,4.76-2.91,5.44,5.44,0,0,1,5,3c.73-1.11,1.54-2,1.07-3.51a9.53,9.53,0,0,1-.36-5.36,7.74,7.74,0,0,1,5.57-5.84,7.58,7.58,0,0,1,7.83,2c1,1,1.83,2.25,2.8,3.32a2.8,2.8,0,0,0,1.3.83,16.58,16.58,0,0,1,8.73,5.4C84,57,86.39,59.54,88.58,62.2A18.75,18.75,0,1,1,56,79ZM74.09,59a15.06,15.06,0,1,0,15,15.11A15.08,15.08,0,0,0,74.09,59ZM25.91,59a15.06,15.06,0,1,0,15,15.13A15.12,15.12,0,0,0,25.91,59ZM50,78.07a4,4,0,0,0,4-4,4,4,0,1,0-8,0A4,4,0,0,0,50,78.07Z"/><path class="cls-1" d="M26,73.85l3.64-6.56a8.46,8.46,0,1,0,4.2,4.42Z"/><path class="cls-1" d="M74.22,73.85l-3.64-6.56a8.46,8.46,0,1,1-4.2,4.42Z"/></svg>