<svg width="30" height="30" viewBox="0 0 30 30" fill="none" xmlns="http://www.w3.org/2000/svg">
<rect width="30" height="30" rx="12" fill="#F0F5FF"/>
<g clip-path="url(#clip0)">
<path d="M22.8665 21.5121C22.5977 19.8742 21.8289 18.3645 20.6325 17.1672C19.8419 16.3766 18.9239 15.7745 17.8994 15.3731C19.0164 14.483 19.6743 13.133 19.6743 11.6975C19.6743 9.10744 17.5669 7 14.976 7C12.3851 7 10.2785 9.10744 10.2785 11.6983C10.2785 13.133 10.9365 14.4838 12.0535 15.3739C11.029 15.7745 10.111 16.3766 9.32037 17.1681C8.1231 18.3636 7.3543 19.8742 7.08552 21.5121C7.04538 21.7539 7.01745 21.9991 7 22.246V22.9974V23H22.9651V22.9974V22.4249C22.9503 22.1169 22.9162 21.8123 22.8665 21.5121ZM11.8502 11.6983C11.8502 9.97486 13.2525 8.57164 14.9769 8.57164C16.7012 8.57164 18.1036 9.97398 18.1036 11.6983C18.1036 13.4227 16.7004 14.8242 14.976 14.8242C13.2516 14.8242 11.8502 13.4218 11.8502 11.6983ZM8.68334 21.5121C9.2907 18.5949 11.8807 16.3958 14.976 16.3958C18.0704 16.3958 20.6613 18.5949 21.2687 21.5121H8.68334Z" fill="#00199F"/>
</g>
<defs>
<clipPath id="clip0">
<rect width="15.9651" height="16" fill="white" transform="translate(7 7)"/>
</clipPath>
</defs>
</svg>
