<svg width="18" height="16" viewBox="0 0 18 16" fill="none" xmlns="http://www.w3.org/2000/svg">
<g clip-path="url(#clip0_1072_650)">
<path d="M9.55099 10.9796L9.71426 5.10204H8.24487L8.40814 10.9796H9.55099Z" fill="#FF811E"/>
<path d="M8.9797 11.551C8.48991 11.551 8.12256 11.9184 8.12256 12.449C8.12256 12.9796 8.48991 13.3469 8.9797 13.3469C9.4695 13.3469 9.83684 12.9796 9.83684 12.449C9.83684 11.9184 9.4695 11.551 8.9797 11.551Z" fill="#FF811E"/>
<path d="M17.7143 13.4286L10.4898 0.857143C10.1633 0.326531 9.59184 0 8.97959 0C8.36735 0 7.79592 0.326531 7.46939 0.857143L0.244898 13.4286C-0.0816326 13.9592 -0.0816326 14.6122 0.244898 15.1429C0.571429 15.6735 1.10204 16 1.7551 16H16.2449C16.8571 16 17.4286 15.6735 17.7551 15.1429C18.0408 14.6122 18.0408 13.9592 17.7143 13.4286ZM16.3265 14.3265C16.2857 14.3673 16.2449 14.3673 16.2449 14.3673H1.71429C1.71429 14.3673 1.67347 14.3673 1.63265 14.3265C1.63265 14.2857 1.63265 14.2449 1.63265 14.2449L8.89796 1.67347C8.89796 1.67347 8.93878 1.63265 8.97959 1.63265C9.02041 1.63265 9.06122 1.67347 9.06122 1.67347L16.3265 14.2449C16.3265 14.2449 16.3265 14.2857 16.3265 14.3265Z" fill="#FF811E"/>
</g>
<defs>
<clipPath id="clip0_1072_650">
<rect width="17.9592" height="16" fill="white"/>
</clipPath>
</defs>
</svg>
