<svg width="15" height="16" viewBox="0 0 15 16" fill="none" xmlns="http://www.w3.org/2000/svg">
<g clip-path="url(#clip0)">
<path d="M13.7234 0H2.4625C2.20344 0 1.99344 0.21 1.99344 0.469063V2.85687L0.139375 4.68844C0.0503125 4.77656 0 4.89688 0 5.02219V15.5309C0 15.79 0.21 16 0.469063 16H11.73C11.9891 16 12.1991 15.79 12.1991 15.5309V14.0238H13.7234C13.9825 14.0238 14.1925 13.8138 14.1925 13.5547V0.469063C14.1925 0.21 13.9825 0 13.7234 0ZM2.60844 3.5675V4.55312H1.61094L2.60844 3.5675ZM11.2609 15.0622H0.937813V5.49125H3.07719C3.33625 5.49125 3.54625 5.28125 3.54625 5.02219V2.91406H11.2609V15.0622ZM13.2544 13.0859H12.1988V2.445C12.1988 2.18594 11.9888 1.97594 11.7297 1.97594H3.0775C3.0275 1.97594 2.97813 1.98438 2.93156 1.99969V0.937813H13.2547V13.0859H13.2544Z" fill="white"/>
<path d="M9.28125 13.0225H2.88313C2.62406 13.0225 2.41406 13.2325 2.41406 13.4915C2.41406 13.7506 2.62406 13.9606 2.88313 13.9606H9.28125C9.54031 13.9606 9.75031 13.7506 9.75031 13.4915C9.75 13.2325 9.54 13.0225 9.28125 13.0225Z" fill="white"/>
<path d="M9.27861 9.54297H2.88611C2.62674 9.54297 2.41455 9.75516 2.41455 10.0145V10.0333C2.41455 10.2927 2.62674 10.5048 2.88611 10.5048H9.27861C9.53799 10.5048 9.75018 10.2927 9.75018 10.0333V10.0145C9.75018 9.75547 9.53799 9.54297 9.27861 9.54297Z" fill="white"/>
<path d="M2.43164 6.37488V6.39363C2.43164 6.65301 2.64383 6.86519 2.9032 6.86519H9.2957C9.55508 6.86519 9.76727 6.65301 9.76727 6.39363V6.37488C9.76727 6.11551 9.55508 5.90332 9.2957 5.90332H2.9032C2.64383 5.90332 2.43164 6.11551 2.43164 6.37488Z" fill="white"/>
</g>
<defs>
<clipPath id="clip0">
<rect width="14.1925" height="16" fill="white"/>
</clipPath>
</defs>
</svg>
