<svg width="16" height="16" viewBox="0 0 16 16" fill="none" xmlns="http://www.w3.org/2000/svg">
  <g>
    <path d="M12.9162 0H2.31765C2.07382 0 1.87618 0.197647 1.87618 0.441471V2.68882L0.131176 4.41265C0.0473529 4.49559 0 4.60882 0 4.72677V14.6174C0 14.8612 0.197647 15.0588 0.441471 15.0588H11.04C11.2838 15.0588 11.4815 14.8612 11.4815 14.6174V13.1988H12.9162C13.16 13.1988 13.3576 13.0012 13.3576 12.7574V0.441471C13.3576 0.197647 13.16 0 12.9162 0ZM2.455 3.35765V4.28529H1.51618L2.455 3.35765ZM10.5985 14.1762H0.882647V5.16824H2.89618C3.14 5.16824 3.33765 4.97059 3.33765 4.72677V2.74265H10.5985V14.1762ZM12.4747 12.3162H11.4812V2.30118C11.4812 2.05735 11.2835 1.85971 11.0397 1.85971H2.89647C2.84941 1.85971 2.80294 1.86765 2.75912 1.88206V0.882647H12.475V12.3162H12.4747Z"
          fill="#FF9C09"/>
    <path d="M8.7353 12.2559H2.71353C2.46971 12.2559 2.27206 12.4535 2.27206 12.6973C2.27206 12.9412 2.46971 13.1388 2.71353 13.1388H8.7353C8.97912 13.1388 9.17677 12.9412 9.17677 12.6973C9.17648 12.4535 8.97883 12.2559 8.7353 12.2559Z"
          fill="#FF9C09"/>
    <path d="M8.73263 8.98145H2.71616C2.47204 8.98145 2.27234 9.18115 2.27234 9.42527V9.44292C2.27234 9.68703 2.47204 9.88674 2.71616 9.88674H8.73263C8.97675 9.88674 9.17646 9.68703 9.17646 9.44292V9.42527C9.17646 9.18145 8.97675 8.98145 8.73263 8.98145Z"
          fill="#FF9C09"/>
    <path d="M2.28851 5.99949V6.01713C2.28851 6.26125 2.48822 6.46096 2.73234 6.46096H8.74881C8.99292 6.46096 9.19263 6.26125 9.19263 6.01713V5.99949C9.19263 5.75537 8.99292 5.55566 8.74881 5.55566H2.73234C2.48822 5.55566 2.28851 5.75537 2.28851 5.99949Z"
          fill="#FF9C09"/>
  </g>
  <rect width="13.3576" height="15.0588" stroke="#FF9C09"/>
  <circle cx="11.2941" cy="11.2938" r="4.70588" fill="#FF9C09"/>
  <path d="M13.0328 9.55605C12.8409 9.36413 12.5298 9.36413 12.3374 9.55605L11.2941 10.5993L10.2676 9.57229C10.0756 9.38037 9.76413 9.38037 9.57221 9.57229C9.38028 9.76422 9.38028 10.0757 9.57221 10.2677L10.5988 11.2942L9.55547 12.3375C9.36355 12.5294 9.36355 12.8409 9.55547 13.0329C9.65144 13.1288 9.77742 13.1771 9.90291 13.1771C10.0284 13.1771 10.1544 13.1288 10.2503 13.0329L11.2936 11.9896L12.3202 13.0161C12.4162 13.1121 12.5421 13.1603 12.6676 13.1603C12.7936 13.1603 12.9191 13.1121 13.0151 13.0161C13.207 12.8242 13.207 12.5127 13.0151 12.3208L11.9895 11.2942L13.0328 10.2509C13.2247 10.059 13.2247 9.74798 13.0328 9.55605Z"
        fill="white"/>
</svg>
