<svg width="30" height="30" viewBox="0 0 30 30" fill="none" xmlns="http://www.w3.org/2000/svg">
<rect width="30" height="30" rx="12" fill="#F0F5FF"/>
<path d="M19.9048 14.3339L21.9858 12.2665L16.6844 7L9.66703 13.9712L10.0322 14.3339H7V18.1414V22.9554V23H23V22.9554V18.1414V14.3339H19.9048ZM16.6844 8.99131L19.9813 12.2665L15.4698 16.7481H14.4672L11.6715 13.9712L16.6844 8.99131ZM8.41759 20.5708H21.5827V21.5921H8.41759V20.5708ZM21.5827 19.1626H8.41759V18.1414V15.7418H11.4498L12.4627 16.7481H10.6458V18.1563H19.3546V16.7481H17.4743L18.4872 15.7418H21.5827V18.1414V19.1626Z" fill="#00199F"/>
<path d="M16.4881 11.6992L14.365 13.8445L13.487 13.0012L12.502 14.0137L14.3904 15.8274L17.4991 12.6861L16.4881 11.6992Z" fill="#00199F"/>
</svg>
