<svg width="30" height="30" viewBox="0 0 30 30" fill="none" xmlns="http://www.w3.org/2000/svg">
<rect width="30" height="30" rx="12" fill="#F0F5FF"/>
<path d="M19.0625 14.1875C19.4077 14.1875 19.6875 13.9077 19.6875 13.5625C19.6875 13.2173 19.4077 12.9375 19.0625 12.9375C18.7173 12.9375 18.4375 13.2173 18.4375 13.5625C18.4375 13.9077 18.7173 14.1875 19.0625 14.1875Z" fill="#00199F"/>
<path d="M20.5 8.25H19.6875V7.625C19.6875 7.27969 19.4078 7 19.0625 7C18.7172 7 18.4375 7.27969 18.4375 7.625V8.25H15.5938V7.625C15.5938 7.27969 15.3141 7 14.9688 7C14.6234 7 14.3438 7.27969 14.3438 7.625V8.25H11.5312V7.625C11.5312 7.27969 11.2516 7 10.9062 7C10.5609 7 10.2812 7.27969 10.2812 7.625V8.25H9.5C8.12156 8.25 7 9.37156 7 10.75V20.5C7 21.8784 8.12156 23 9.5 23H14.2812C14.6266 23 14.9062 22.7203 14.9062 22.375C14.9062 22.0297 14.6266 21.75 14.2812 21.75H9.5C8.81063 21.75 8.25 21.1894 8.25 20.5V10.75C8.25 10.0606 8.81063 9.5 9.5 9.5H10.2812V10.125C10.2812 10.4703 10.5609 10.75 10.9062 10.75C11.2516 10.75 11.5312 10.4703 11.5312 10.125V9.5H14.3438V10.125C14.3438 10.4703 14.6234 10.75 14.9688 10.75C15.3141 10.75 15.5938 10.4703 15.5938 10.125V9.5H18.4375V10.125C18.4375 10.4703 18.7172 10.75 19.0625 10.75C19.4078 10.75 19.6875 10.4703 19.6875 10.125V9.5H20.5C21.1894 9.5 21.75 10.0606 21.75 10.75V14.3125C21.75 14.6578 22.0297 14.9375 22.375 14.9375C22.7203 14.9375 23 14.6578 23 14.3125V10.75C23 9.37156 21.8784 8.25 20.5 8.25Z" fill="#00199F"/>
<path d="M19.2188 15.4375C17.1337 15.4375 15.4375 17.1337 15.4375 19.2188C15.4375 21.3038 17.1337 23 19.2188 23C21.3038 23 23 21.3038 23 19.2188C23 17.1337 21.3038 15.4375 19.2188 15.4375ZM19.2188 21.75C17.8231 21.75 16.6875 20.6144 16.6875 19.2188C16.6875 17.8231 17.8231 16.6875 19.2188 16.6875C20.6144 16.6875 21.75 17.8231 21.75 19.2188C21.75 20.6144 20.6144 21.75 19.2188 21.75Z" fill="#00199F"/>
<path d="M20.125 18.5938H19.8438V17.9375C19.8438 17.5922 19.5641 17.3125 19.2188 17.3125C18.8734 17.3125 18.5938 17.5922 18.5938 17.9375V19.2188C18.5938 19.5641 18.8734 19.8438 19.2188 19.8438H20.125C20.4703 19.8438 20.75 19.5641 20.75 19.2188C20.75 18.8734 20.4703 18.5938 20.125 18.5938Z" fill="#00199F"/>
<path d="M16.3438 14.1875C16.6889 14.1875 16.9688 13.9077 16.9688 13.5625C16.9688 13.2173 16.6889 12.9375 16.3438 12.9375C15.9986 12.9375 15.7188 13.2173 15.7188 13.5625C15.7188 13.9077 15.9986 14.1875 16.3438 14.1875Z" fill="#00199F"/>
<path d="M13.625 16.9062C13.9702 16.9062 14.25 16.6264 14.25 16.2812C14.25 15.9361 13.9702 15.6562 13.625 15.6562C13.2798 15.6562 13 15.9361 13 16.2812C13 16.6264 13.2798 16.9062 13.625 16.9062Z" fill="#00199F"/>
<path d="M10.9062 14.1875C11.2514 14.1875 11.5312 13.9077 11.5312 13.5625C11.5312 13.2173 11.2514 12.9375 10.9062 12.9375C10.5611 12.9375 10.2812 13.2173 10.2812 13.5625C10.2812 13.9077 10.5611 14.1875 10.9062 14.1875Z" fill="#00199F"/>
<path d="M10.9062 16.9062C11.2514 16.9062 11.5312 16.6264 11.5312 16.2812C11.5312 15.9361 11.2514 15.6562 10.9062 15.6562C10.5611 15.6562 10.2812 15.9361 10.2812 16.2812C10.2812 16.6264 10.5611 16.9062 10.9062 16.9062Z" fill="#00199F"/>
<path d="M10.9062 19.625C11.2514 19.625 11.5312 19.3452 11.5312 19C11.5312 18.6548 11.2514 18.375 10.9062 18.375C10.5611 18.375 10.2812 18.6548 10.2812 19C10.2812 19.3452 10.5611 19.625 10.9062 19.625Z" fill="#00199F"/>
<path d="M13.625 19.625C13.9702 19.625 14.25 19.3452 14.25 19C14.25 18.6548 13.9702 18.375 13.625 18.375C13.2798 18.375 13 18.6548 13 19C13 19.3452 13.2798 19.625 13.625 19.625Z" fill="#00199F"/>
<path d="M13.625 14.1875C13.9702 14.1875 14.25 13.9077 14.25 13.5625C14.25 13.2173 13.9702 12.9375 13.625 12.9375C13.2798 12.9375 13 13.2173 13 13.5625C13 13.9077 13.2798 14.1875 13.625 14.1875Z" fill="#00199F"/>
</svg>
