<svg width="30" height="30" viewBox="0 0 30 30" fill="none" xmlns="http://www.w3.org/2000/svg">
<rect width="30" height="30" rx="12" fill="#F0F5FF"/>
<path d="M17.0967 15.4581C16.9916 15.457 16.8864 15.4581 16.7625 15.4581C16.7625 15.2334 16.7754 15.0236 16.7604 14.8155C16.6933 13.8929 15.9231 13.1822 15.001 13.1816C14.0789 13.1811 13.3071 13.8929 13.2395 14.8139C13.2244 15.022 13.2373 15.2318 13.2373 15.4581C13.1048 15.4581 12.9992 15.457 12.893 15.4587C12.7658 15.4608 12.7229 15.5026 12.7229 15.6308C12.7224 16.6623 12.7213 17.6944 12.7235 18.7259C12.724 19.0364 12.9359 19.2521 13.2438 19.2526C14.4136 19.2553 15.5841 19.2553 16.754 19.2526C17.0624 19.2521 17.2753 19.0375 17.2759 18.7275C17.2786 17.696 17.2769 16.6639 17.2764 15.6324C17.2769 15.4989 17.234 15.4597 17.0967 15.4581ZM15.3121 17.4814C15.325 17.6665 15.3507 17.8505 15.3727 18.0344C15.391 18.19 15.3507 18.2367 15.1952 18.2388C15.1281 18.2399 15.0611 18.2388 14.9935 18.2388C14.9264 18.2388 14.8594 18.2399 14.7918 18.2383C14.6523 18.2351 14.61 18.1862 14.6261 18.0452C14.647 17.8569 14.6743 17.6691 14.6877 17.4803C14.6915 17.4305 14.6679 17.3655 14.6341 17.3275C14.4464 17.1145 14.4507 16.8039 14.6518 16.6119C14.846 16.4269 15.1549 16.4269 15.3486 16.6124C15.5492 16.8045 15.553 17.1156 15.3652 17.328C15.3314 17.3661 15.3089 17.431 15.3121 17.4814ZM16.0014 15.4522C15.3314 15.4522 14.6663 15.4522 13.9883 15.4522C13.9936 15.1765 13.954 14.904 14.0392 14.6396C14.1835 14.1922 14.6271 13.8999 15.0906 13.9439C15.5648 13.9884 15.9494 14.3542 15.9982 14.8278C16.0186 15.0301 16.0014 15.236 16.0014 15.4522Z" fill="#00199F"/>
<path d="M20.7218 8.91563H19.2536V8.82069C19.2536 8.36797 18.8857 8 18.433 8C17.9802 8 17.6123 8.36797 17.6123 8.82069V8.91563H12.6168V8.82069C12.6168 8.36797 12.2483 8 11.7961 8C11.3439 8 10.9754 8.36797 10.9754 8.82069V8.91563H9.27824C8.57341 8.91563 8 9.48904 8 10.1939V20.7218C8 21.4266 8.57341 22 9.27824 22H20.7212C21.4261 22 21.9995 21.4266 21.9995 20.7218V10.1939C22 9.48904 21.4266 8.91563 20.7218 8.91563ZM19.8464 19.2536L19.2536 19.8464V19.2536H19.8464ZM9.64138 20.3586V12.8453H20.3586V18.5274H18.8905C18.6904 18.5274 18.5274 18.6904 18.5274 18.8905V20.3586H9.64138ZM10.9754 9.83073H9.27824C9.07816 9.83073 8.9151 9.99379 8.9151 10.1939V20.7218C8.9151 20.9218 9.07816 21.0849 9.27824 21.0849H18.8916C18.9871 21.0844 19.0777 21.0474 19.148 20.9792L20.9803 19.1469C21.0468 19.0782 21.0838 18.9876 21.0844 18.891V10.1939C21.0844 9.99379 20.9213 9.83073 20.7212 9.83073H19.2536V9.64138H20.7212C21.0254 9.64245 21.2732 9.89027 21.2743 10.1939V20.7212C21.2732 21.0254 21.0254 21.2732 20.7218 21.2743H9.27877C8.97464 21.2732 8.72682 21.0254 8.72575 20.7218V10.1944C8.72682 9.89027 8.97464 9.64245 9.27824 9.64138H10.9749V9.83073H10.9754ZM11.7956 11.4721H11.7966C12.2477 11.4705 12.6157 11.1025 12.6168 10.6514V10.5565H17.6123V10.6514C17.6123 11.1041 17.9802 11.4721 18.433 11.4721C18.8857 11.4721 19.2536 11.1041 19.2536 10.6514V10.5565H20.3586V12.1195H9.64138V10.557H10.9754V10.652C10.9765 11.1031 11.3444 11.471 11.7956 11.4721ZM18.5279 10.6514C18.5279 10.7034 18.4855 10.7464 18.433 10.7464C18.3804 10.7464 18.338 10.704 18.338 10.6514V8.82069C18.338 8.76866 18.3804 8.72575 18.433 8.72575C18.4855 8.72575 18.5279 8.76812 18.5279 8.82069V10.6514ZM12.6168 9.83073V9.64138H17.6123V9.83073H12.6168ZM11.8905 10.6514C11.8905 10.7034 11.8481 10.7464 11.7956 10.7464C11.743 10.7464 11.7011 10.704 11.7011 10.6514V8.82069C11.7011 8.76866 11.7435 8.72575 11.7961 8.72575C11.8487 8.72575 11.891 8.76812 11.891 8.82069V10.6514H11.8905Z" fill="#00199F"/>
</svg>
