<svg width="30" height="30" viewBox="0 0 30 30" fill="none" xmlns="http://www.w3.org/2000/svg">
<rect width="30" height="30" rx="12" fill="#F0F5FF"/>
<path d="M20.7218 8.91563H19.2536V8.82069C19.2536 8.36797 18.8857 8 18.433 8C17.9802 8 17.6123 8.36797 17.6123 8.82069V8.91563H12.6168V8.82069C12.6168 8.36797 12.2483 8 11.7961 8C11.3439 8 10.9754 8.36797 10.9754 8.82069V8.91563H9.27824C8.57341 8.91563 8 9.48904 8 10.1939V20.7218C8 21.4266 8.57341 22 9.27824 22H20.7212C21.4261 22 21.9995 21.4266 21.9995 20.7218V10.1939C22 9.48904 21.4266 8.91563 20.7218 8.91563ZM19.8464 19.2536L19.2536 19.8464V19.2536H19.8464ZM9.64138 20.3586V12.8453H20.3586V18.5274H18.8905C18.6904 18.5274 18.5274 18.6904 18.5274 18.8905V20.3586H9.64138ZM10.9754 9.83073H9.27824C9.07816 9.83073 8.9151 9.99379 8.9151 10.1939V20.7218C8.9151 20.9218 9.07816 21.0849 9.27824 21.0849H18.8916C18.9871 21.0844 19.0777 21.0474 19.148 20.9792L20.9803 19.1469C21.0468 19.0782 21.0838 18.9876 21.0844 18.891V10.1939C21.0844 9.99379 20.9213 9.83073 20.7212 9.83073H19.2536V9.64138H20.7212C21.0254 9.64245 21.2732 9.89027 21.2743 10.1939V20.7212C21.2732 21.0254 21.0254 21.2732 20.7218 21.2743H9.27877C8.97464 21.2732 8.72682 21.0254 8.72575 20.7218V10.1944C8.72682 9.89027 8.97464 9.64245 9.27824 9.64138H10.9749V9.83073H10.9754ZM11.7956 11.4721H11.7966C12.2477 11.4705 12.6157 11.1025 12.6168 10.6514V10.5565H17.6123V10.6514C17.6123 11.1041 17.9802 11.4721 18.433 11.4721C18.8857 11.4721 19.2536 11.1041 19.2536 10.6514V10.5565H20.3586V12.1195H9.64138V10.557H10.9754V10.652C10.9765 11.1031 11.3444 11.471 11.7956 11.4721ZM18.5279 10.6514C18.5279 10.7034 18.4855 10.7464 18.433 10.7464C18.3804 10.7464 18.338 10.704 18.338 10.6514V8.82069C18.338 8.76866 18.3804 8.72575 18.433 8.72575C18.4855 8.72575 18.5279 8.76812 18.5279 8.82069V10.6514ZM12.6168 9.83073V9.64138H17.6123V9.83073H12.6168ZM11.8905 10.6514C11.8905 10.7034 11.8481 10.7464 11.7956 10.7464C11.743 10.7464 11.7011 10.704 11.7011 10.6514V8.82069C11.7011 8.76866 11.7435 8.72575 11.7961 8.72575C11.8487 8.72575 11.891 8.76812 11.891 8.82069V10.6514H11.8905Z" fill="#00199F"/>
<path d="M14.9936 13.1357C13.2256 13.1384 11.7956 14.569 11.7939 16.337C11.7923 18.1103 13.2251 19.5457 14.9979 19.5462C16.7712 19.5468 18.205 18.1125 18.2039 16.3391C18.2028 14.5658 16.7664 13.1331 14.9936 13.1357ZM15.4774 16.441C15.7515 16.7157 16.0277 16.9882 16.2992 17.2649C16.4665 17.4355 16.4059 17.6849 16.1881 17.7348C16.0739 17.7611 15.987 17.708 15.9092 17.6302C15.6415 17.361 15.3728 17.0928 15.1041 16.8246C15.0724 16.7929 15.0386 16.7623 14.9941 16.72C14.6798 17.0354 14.3767 17.34 14.0731 17.6436C13.9948 17.722 13.895 17.7793 13.7931 17.7236C13.7169 17.6823 13.6434 17.6039 13.6097 17.5246C13.5646 17.4189 13.6343 17.3266 13.7121 17.2494C13.9814 16.9817 14.249 16.713 14.5172 16.4443C14.5489 16.4126 14.5784 16.3788 14.6186 16.3364C14.4534 16.1723 14.2946 16.0146 14.1353 15.8564C13.9937 15.7148 13.851 15.5742 13.711 15.4315C13.5737 15.2915 13.5614 15.1403 13.6751 15.0233C13.792 14.9032 13.9481 14.9144 14.0919 15.0577C14.3901 15.3548 14.6873 15.6531 14.9941 15.9604C15.0316 15.9256 15.0649 15.8966 15.096 15.8655C15.3733 15.5887 15.6485 15.3087 15.929 15.0351C16.0943 14.8737 16.3405 14.938 16.3914 15.1499C16.4188 15.2642 16.3673 15.3516 16.2895 15.4294C16.0208 15.697 15.7531 15.9669 15.4833 16.234C15.4511 16.2656 15.4087 16.2876 15.361 16.3209C15.4157 16.3767 15.4457 16.4094 15.4774 16.441Z" fill="#00199F"/>
</svg>
