<svg width="30" height="30" viewBox="0 0 30 30" fill="none" xmlns="http://www.w3.org/2000/svg">
<rect width="30" height="30" rx="12" fill="#F0F5FF"/>
<path d="M17.0625 13.1875C17.4077 13.1875 17.6875 12.9077 17.6875 12.5625C17.6875 12.2173 17.4077 11.9375 17.0625 11.9375C16.7173 11.9375 16.4375 12.2173 16.4375 12.5625C16.4375 12.9077 16.7173 13.1875 17.0625 13.1875Z" fill="#00199F"/>
<path d="M18.5 7.25H17.6875V6.625C17.6875 6.27969 17.4078 6 17.0625 6C16.7172 6 16.4375 6.27969 16.4375 6.625V7.25H13.5938V6.625C13.5938 6.27969 13.3141 6 12.9688 6C12.6234 6 12.3438 6.27969 12.3438 6.625V7.25H9.53125V6.625C9.53125 6.27969 9.25156 6 8.90625 6C8.56094 6 8.28125 6.27969 8.28125 6.625V7.25H7.5C6.12156 7.25 5 8.37156 5 9.75V19.5C5 20.8784 6.12156 22 7.5 22H12.2812C12.6266 22 12.9062 21.7203 12.9062 21.375C12.9062 21.0297 12.6266 20.75 12.2812 20.75H7.5C6.81063 20.75 6.25 20.1894 6.25 19.5V9.75C6.25 9.06063 6.81063 8.5 7.5 8.5H8.28125V9.125C8.28125 9.47031 8.56094 9.75 8.90625 9.75C9.25156 9.75 9.53125 9.47031 9.53125 9.125V8.5H12.3438V9.125C12.3438 9.47031 12.6234 9.75 12.9688 9.75C13.3141 9.75 13.5938 9.47031 13.5938 9.125V8.5H16.4375V9.125C16.4375 9.47031 16.7172 9.75 17.0625 9.75C17.4078 9.75 17.6875 9.47031 17.6875 9.125V8.5H18.5C19.1894 8.5 19.75 9.06063 19.75 9.75V13.3125C19.75 13.6578 20.0297 13.9375 20.375 13.9375C20.7203 13.9375 21 13.6578 21 13.3125V9.75C21 8.37156 19.8784 7.25 18.5 7.25Z" fill="#00199F"/>
<path d="M14.3438 13.1875C14.6889 13.1875 14.9688 12.9077 14.9688 12.5625C14.9688 12.2173 14.6889 11.9375 14.3438 11.9375C13.9986 11.9375 13.7188 12.2173 13.7188 12.5625C13.7188 12.9077 13.9986 13.1875 14.3438 13.1875Z" fill="#00199F"/>
<path d="M11.625 15.9062C11.9702 15.9062 12.25 15.6264 12.25 15.2812C12.25 14.9361 11.9702 14.6562 11.625 14.6562C11.2798 14.6562 11 14.9361 11 15.2812C11 15.6264 11.2798 15.9062 11.625 15.9062Z" fill="#00199F"/>
<path d="M8.90625 13.1875C9.25143 13.1875 9.53125 12.9077 9.53125 12.5625C9.53125 12.2173 9.25143 11.9375 8.90625 11.9375C8.56107 11.9375 8.28125 12.2173 8.28125 12.5625C8.28125 12.9077 8.56107 13.1875 8.90625 13.1875Z" fill="#00199F"/>
<path d="M8.90625 15.9062C9.25143 15.9062 9.53125 15.6264 9.53125 15.2812C9.53125 14.9361 9.25143 14.6562 8.90625 14.6562C8.56107 14.6562 8.28125 14.9361 8.28125 15.2812C8.28125 15.6264 8.56107 15.9062 8.90625 15.9062Z" fill="#00199F"/>
<path d="M8.90625 18.625C9.25143 18.625 9.53125 18.3452 9.53125 18C9.53125 17.6548 9.25143 17.375 8.90625 17.375C8.56107 17.375 8.28125 17.6548 8.28125 18C8.28125 18.3452 8.56107 18.625 8.90625 18.625Z" fill="#00199F"/>
<path d="M11.625 18.625C11.9702 18.625 12.25 18.3452 12.25 18C12.25 17.6548 11.9702 17.375 11.625 17.375C11.2798 17.375 11 17.6548 11 18C11 18.3452 11.2798 18.625 11.625 18.625Z" fill="#00199F"/>
<path d="M11.625 13.1875C11.9702 13.1875 12.25 12.9077 12.25 12.5625C12.25 12.2173 11.9702 11.9375 11.625 11.9375C11.2798 11.9375 11 12.2173 11 12.5625C11 12.9077 11.2798 13.1875 11.625 13.1875Z" fill="#00199F"/>
<circle cx="19" cy="20" r="5" fill="#00199F"/>
<g clip-path="url(#clip0)">
<path d="M18.1114 22.2495L16.7505 20.8885L20.0422 17.597L21.4031 18.958L18.1114 22.2495ZM16.6233 21.1283L17.8716 22.3767L16 23L16.6233 21.1283ZM21.8217 18.5411L21.5855 18.7772L20.2229 17.4146L20.459 17.1785C20.6968 16.9405 21.0825 16.9405 21.3202 17.1785L21.8218 17.6801C22.0576 17.9186 22.0576 18.3026 21.8217 18.5411Z" fill="white"/>
</g>
<defs>
<clipPath id="clip0">
<rect width="5.99852" height="6" fill="white" transform="translate(16 17)"/>
</clipPath>
</defs>
</svg>
