<svg width="30" height="30" viewBox="0 0 30 30" fill="none" xmlns="http://www.w3.org/2000/svg">
<rect width="30" height="30" rx="12" fill="#F0F5FF"/>
<g clip-path="url(#clip0)">
<path d="M12.5789 18.582H17.4204C18.0605 18.582 18.5818 18.0611 18.5818 17.4206V14.8571C18.5818 14.8547 18.5818 14.8522 18.5818 14.8497C18.5818 14.8394 18.5818 14.8292 18.581 14.8189C18.5609 14.196 18.0482 13.6957 17.4208 13.6957H16.8732V13.4329C16.8732 12.7928 16.3523 12.2715 15.7117 12.2715H14.2875C13.6474 12.2715 13.1261 12.7924 13.1261 13.4329V13.6957H12.5784C11.9383 13.6957 11.417 14.2166 11.417 14.8571V17.4206C11.4178 18.0611 11.9387 18.582 12.5789 18.582ZM15.6899 13.6961H14.3102V13.4556H15.6899V13.6961ZM16.5677 14.8797L14.9996 15.6264L13.4311 14.8797H16.5677ZM12.6011 15.7945L14.7447 16.8154C14.8228 16.8532 14.9112 16.8733 15 16.8733C15.0893 16.8733 15.1776 16.8528 15.2545 16.8154L17.3986 15.7945V17.3992H12.6011V15.7945Z" fill="#00199F"/>
<path d="M20.2687 8H9.73088C8.77664 8 8 8.84036 8 9.87314V20.1265C8 21.1592 8.77664 21.9996 9.73088 21.9996H20.2687C21.223 21.9996 21.9996 21.1592 21.9996 20.1265V9.87314C21.9996 8.84036 21.223 8 20.2687 8ZM9.18325 11.1768H20.8159V20.1265C20.8159 20.464 20.5705 20.7386 20.2683 20.7386H9.73088C9.42911 20.7386 9.18325 20.464 9.18325 20.1265V11.1768ZM20.8163 9.9936H9.18325V9.87314C9.18325 9.53559 9.4287 9.26095 9.73088 9.26095H20.2687C20.5705 9.26095 20.8163 9.53559 20.8163 9.87314V9.9936Z" fill="#00199F"/>
</g>
<defs>
<clipPath id="clip0">
<rect width="13.9996" height="14" fill="white" transform="translate(8 8)"/>
</clipPath>
</defs>
</svg>
