<svg width="30" height="30" viewBox="0 0 30 30" fill="none" xmlns="http://www.w3.org/2000/svg">
<rect width="30" height="30" rx="12" fill="#F0F5FF"/>
<g clip-path="url(#clip0)">
<path d="M22.9982 11.1994C22.9969 10.0341 22.5739 8.96823 21.806 8.19783C21.038 7.42744 19.9752 7.00256 18.8129 7.00134C16.2496 6.9989 13.6833 6.9989 11.1841 7.00134C8.8045 7.0044 7.0061 8.79669 7.00122 11.1714C6.99939 12.0474 7 12.9234 7.00061 13.7994L7.00122 14.9861V16.1258C7.00122 17.0073 7.00061 17.8888 7.00122 18.7703C7.00305 21.2194 8.77642 22.9977 11.2176 22.9995C12.4971 23.0001 13.7736 23.0007 15.0378 23.0007C16.3021 23.0007 17.5541 23.0001 18.7854 22.9995C21.2248 22.9983 22.9969 21.231 22.9988 18.7984C23.0006 16.2424 23.0006 13.6858 22.9982 11.1994ZM11.2341 21.3311C9.70248 21.3293 8.67142 20.3031 8.66898 18.7782C8.66532 16.464 8.66471 13.999 8.66654 11.2422C8.66776 9.70321 9.7037 8.66849 11.2445 8.66727C12.0948 8.66666 12.9501 8.66666 13.8078 8.66666C15.4523 8.66666 17.1067 8.66788 18.75 8.66971C20.314 8.67155 21.3267 9.6794 21.3304 11.2373C21.3322 12.1041 21.3316 12.971 21.3316 13.8372C21.3316 14.2212 21.331 14.6058 21.331 14.9897L21.3335 16.1411C21.3341 17.0085 21.3341 17.8754 21.3328 18.7422C21.3304 20.3153 20.3128 21.3324 18.7396 21.3336C16.0945 21.3348 13.6393 21.3336 11.2341 21.3311Z" fill="#00199F"/>
<path d="M18.5068 12.2323C18.2217 12.1743 17.9226 12.2732 17.6851 12.5033L17.2993 12.8776C16.6364 13.521 15.9502 14.1858 15.2891 14.8548C14.8966 15.2516 14.5126 15.6679 14.1415 16.0708C13.9931 16.2314 13.8454 16.3919 13.6964 16.5519L13.6592 16.55C13.5524 16.4341 13.4462 16.3169 13.3399 16.2003C13.0567 15.8895 12.7643 15.5678 12.4658 15.2602C12.2643 15.052 12.0317 14.9421 11.793 14.9421H11.7924C11.5763 14.9421 11.3755 15.0325 11.2107 15.2034C10.8621 15.5648 10.8981 16.0556 11.3022 16.4536C11.8529 16.9963 12.4157 17.5457 12.9596 18.0774L12.9798 18.0975C13.2178 18.3301 13.4437 18.4467 13.6696 18.4467C13.8967 18.4467 14.1244 18.3289 14.3655 18.0933C14.9314 17.5402 15.4961 16.9859 16.0607 16.4322C16.3592 16.1392 16.6577 15.8462 16.9569 15.5532L17.2688 15.2473C17.7962 14.7303 18.3231 14.2132 18.8517 13.698C19.2284 13.3305 19.1869 12.9661 19.0861 12.7256C18.9763 12.4643 18.7656 12.2848 18.5068 12.2323Z" fill="#00199F"/>
</g>
<defs>
<clipPath id="clip0">
<rect width="16" height="16" fill="white" transform="translate(7 7)"/>
</clipPath>
</defs>
</svg>
