<svg width="30" height="30" viewBox="0 0 30 30" fill="none" xmlns="http://www.w3.org/2000/svg">
<rect width="30" height="30" rx="12" fill="#F0F5FF"/>
<g clip-path="url(#clip0)">
<path d="M24.7253 19.8783C24.3395 19.4907 23.9524 19.1037 23.5654 18.7172C23.3047 18.4572 23.0446 18.1965 22.784 17.9358C22.7333 17.8851 22.6826 17.8308 22.6344 17.7783C23.1692 16.9017 23.3407 15.9341 23.1167 15.0513C22.889 14.1539 22.2614 13.3713 21.35 12.8493C21.3255 12.8322 21.2822 12.7504 21.281 12.6973C21.2749 12.4214 21.2755 12.1399 21.2767 11.8671C21.2779 11.5191 21.2791 11.1589 21.2657 10.803C21.2572 10.5777 21.1528 10.325 21.0056 10.1742C20.0753 9.22063 19.0942 8.2396 18.0906 7.25856C17.9417 7.11327 17.6914 7.01071 17.482 7.00949C15.493 6.99789 13.3985 6.99605 10.8894 7.00338C9.8156 7.00643 9.00488 7.81532 9.00366 8.88487C8.99878 13.041 8.99878 17.1574 9.00366 21.1201C9.00488 22.186 9.80522 22.9912 10.865 22.9942C12.288 22.9979 13.7184 22.9997 15.1457 22.9997C16.573 22.9997 17.9972 22.9979 19.4086 22.9942C20.4562 22.9918 21.2572 22.1872 21.2712 21.1237C21.2724 21.0132 21.2749 20.9021 21.2773 20.7916C21.2852 20.396 21.2938 19.987 21.2639 19.5829C21.2273 19.0835 21.292 18.8143 21.748 18.7001L22.2675 19.2239C22.773 19.7343 23.2919 20.2568 23.812 20.7788C23.9933 20.9607 24.1917 21.0541 24.3877 21.0523C24.5489 21.0499 24.6978 20.9815 24.8181 20.8545C25.0861 20.5706 25.0513 20.2056 24.7253 19.8783ZM16.3733 21.7141L15.2269 21.7134H14.0474C13.0365 21.7134 12.0255 21.7134 11.0146 21.7128C10.4896 21.7122 10.2851 21.5077 10.2851 20.9833C10.2844 16.9951 10.2844 13.0062 10.2851 9.01796C10.2851 8.48989 10.4883 8.28416 11.0091 8.28416C12.4022 8.28355 13.7947 8.28355 15.1878 8.28355H16.9374V8.71516C16.9374 8.90013 16.9374 9.08572 16.9368 9.27069C16.9362 9.70902 16.9356 10.1626 16.9386 10.6089C16.9417 11.0808 17.1914 11.3323 17.6608 11.3347C18.2445 11.3378 18.8146 11.3372 19.4184 11.3365C19.6009 11.3365 19.7841 11.3359 19.9684 11.3359V12.4879C18.822 12.4757 17.8873 12.9012 17.1871 13.7577C16.6517 14.4127 16.4008 15.1996 16.4423 16.0952C16.5254 17.8961 17.7829 19.0206 19.9886 19.274C19.9892 19.4284 19.9898 19.5817 19.9904 19.7343C19.9929 20.2269 19.9953 20.6927 19.9837 21.1665C19.9758 21.4961 19.7255 21.7104 19.347 21.711C18.3556 21.7147 17.3477 21.7141 16.3733 21.7141ZM17.7237 15.8724C17.7256 15.3083 17.9465 14.7803 18.3446 14.3853C18.7396 13.994 19.2633 13.7791 19.8213 13.7791C19.8256 13.7791 19.8293 13.7791 19.8335 13.7791C20.9953 13.7858 21.936 14.7351 21.9311 15.8956C21.9287 16.4548 21.7059 16.981 21.3042 17.3778C20.9025 17.7746 20.3726 17.9932 19.8116 17.9889C18.6559 17.9834 17.7194 17.0335 17.7237 15.8724ZM18.2335 10.0344V9.31343L18.963 10.0344H18.2335Z" fill="#00199F"/>
<path d="M17.1403 12.9533C17.2526 12.8367 17.3094 12.6817 17.3039 12.5053C17.2947 12.2061 17.0896 11.8868 16.542 11.8862C14.7081 11.8838 13.0904 11.8832 11.5965 11.8844C11.3426 11.8844 11.1362 11.9595 10.9989 12.1005C10.8853 12.2177 10.8279 12.3728 10.8328 12.548C10.842 12.8465 11.0471 13.1664 11.5959 13.1676C12.1759 13.1688 12.7558 13.1688 13.3358 13.1682H13.8547L14.7624 13.1695C15.0042 13.1695 15.2453 13.1701 15.4871 13.1701C15.8387 13.1701 16.1897 13.1695 16.5414 13.1682C16.7978 13.1676 17.0047 13.0931 17.1403 12.9533Z" fill="#00199F"/>
<path d="M11.597 15.0016C11.9859 15.0022 12.3821 15.0022 12.7881 15.0022C13.5866 15.0022 14.4235 15.0016 15.3197 15.0004C15.7764 14.9998 16.0688 14.7617 16.0816 14.3802C16.0877 14.2056 16.0309 14.0517 15.9186 13.9345C15.7819 13.7923 15.5749 13.7172 15.3197 13.7166C14.8832 13.7154 14.4467 13.716 14.0096 13.716H13.4578L13.2832 13.7178H12.909C12.4712 13.7172 12.0335 13.7172 11.5958 13.7184C11.1386 13.7196 10.8468 13.9571 10.8339 14.338C10.8278 14.5133 10.8846 14.6677 10.9975 14.7849C11.1355 14.9265 11.3425 15.0016 11.597 15.0016Z" fill="#00199F"/>
<path d="M15.3225 15.5498C14.8762 15.5486 14.4299 15.5486 13.9831 15.5492H13.4294H12.8867C12.4569 15.5486 12.0271 15.5486 11.5973 15.5498C11.3403 15.5504 11.1321 15.6255 10.996 15.7672C10.8843 15.8832 10.8281 16.037 10.8336 16.211C10.8464 16.5932 11.1382 16.8312 11.5949 16.8319C12.4612 16.8331 13.3152 16.8337 14.1467 16.8337C14.5429 16.8337 14.9342 16.8337 15.3188 16.8331C15.574 16.8331 15.7815 16.758 15.9183 16.617C16.0312 16.5004 16.088 16.3459 16.0825 16.1713C16.0721 15.7898 15.7803 15.5517 15.3225 15.5498Z" fill="#00199F"/>
<path d="M15.3221 17.3809C13.965 17.3785 12.7471 17.3785 11.5988 17.3797C11.3442 17.3797 11.1372 17.4548 10.9999 17.5952C10.8863 17.7118 10.829 17.8656 10.8332 18.0402C10.8424 18.423 11.1342 18.6617 11.5939 18.6629C11.8485 18.6635 12.1036 18.6642 12.3582 18.6642C12.5413 18.6642 12.7245 18.6642 12.907 18.6642H13.4558H14.0071C14.4442 18.6648 14.8807 18.6648 15.3178 18.6635C15.5754 18.6629 15.7836 18.5878 15.9191 18.4474C16.0308 18.3321 16.0876 18.1782 16.0821 18.0036C16.0705 17.6202 15.7793 17.3815 15.3221 17.3809Z" fill="#00199F"/>
</g>
<defs>
<clipPath id="clip0">
<rect width="15.9969" height="16" fill="white" transform="translate(9 7)"/>
</clipPath>
</defs>
</svg>
