<svg width="30" height="30" viewBox="0 0 30 30" fill="none" xmlns="http://www.w3.org/2000/svg">
<rect width="30" height="30" rx="12" fill="#F0F5FF"/>
<g clip-path="url(#clip0_856_46)">
<path d="M22.4349 19.4398C21.8308 19.4398 21.2257 19.4398 20.6216 19.4398H19.7402V17.7694H20.8269C21.3609 17.7694 21.895 17.7694 22.4291 17.7685C22.8212 17.7685 22.9953 17.5933 22.9963 17.2023C22.9972 16.3939 22.9972 15.5845 22.9963 14.7761C22.9963 14.3665 22.826 14.1992 22.4087 14.1992H19.7295V13.6057C19.7295 13.1125 19.7295 12.6281 19.7295 12.1426C19.7295 11.7623 19.5515 11.5842 19.1711 11.5842C15.2993 11.5833 11.4265 11.5833 7.55466 11.5842C7.17332 11.5842 7.00307 11.7574 7.0021 12.1446C7.00015 12.9588 7.00015 13.7731 7.00113 14.5873C7.00113 14.9794 7.17234 15.1467 7.5712 15.1467H10.2601V16.817H7.57801C7.16845 16.817 7.00113 16.9824 7.00113 17.3871C7.00015 18.1848 7.00113 18.9825 7.00113 19.7802C7.00113 20.2258 7.16164 20.3834 7.61303 20.3834H10.2688V21.0235C10.2688 21.4924 10.2688 21.9623 10.2688 22.4312C10.2688 22.8232 10.4439 22.9974 10.834 22.9983H16.634H22.434C22.827 22.9983 22.9953 22.8291 22.9953 22.4312C22.9963 21.6228 22.9963 20.8134 22.9953 20.005C22.9953 19.61 22.828 19.4398 22.4349 19.4398ZM22.0409 20.7433H21.5448C20.9329 20.7433 20.322 20.7433 19.7052 20.7443C19.6332 20.7443 19.5583 20.7443 19.4805 20.7618C19.2567 20.8114 19.103 21.0041 19.1079 21.2298C19.1128 21.4613 19.2849 21.6539 19.5184 21.6879C19.5719 21.6957 19.6245 21.6957 19.6712 21.6948H22.0536V21.7025C22.0536 21.8251 22.0546 21.9428 22.0517 22.0586C22.0458 22.0586 22.04 22.0576 22.0351 22.0576H17.1165H17.1156V20.3951H22.04V20.7433H22.0409ZM15.1436 21.6121C15.1427 21.4409 15.0892 21.2978 14.989 21.1996C14.9043 21.1159 14.7915 21.0741 14.665 21.0741C14.3946 21.078 14.201 21.294 14.1951 21.6014C14.1932 21.7084 14.1932 21.8164 14.1922 21.9234V21.9331C14.1922 21.971 14.1922 22.009 14.1913 22.0459H13.1815V22.01C13.1815 21.8747 13.1824 21.7415 13.1805 21.6082C13.1795 21.4409 13.1231 21.2949 13.0239 21.1976C12.9392 21.115 12.8264 21.0741 12.697 21.0731C12.4275 21.079 12.2359 21.2978 12.232 21.6033C12.23 21.7035 12.23 21.8027 12.2291 21.9029L12.2281 22.0469H11.2271V20.397H16.1495V22.0459H15.1446V22.0109C15.1446 21.8767 15.1446 21.7444 15.1436 21.6121ZM7.95255 13.8412C7.96811 13.8402 7.98368 13.8402 7.99924 13.8402C8.49635 13.8402 8.99347 13.8402 9.48961 13.8402H10.2795C10.3126 13.8402 10.3467 13.8402 10.3797 13.8392C10.6842 13.8276 10.8983 13.6203 10.8875 13.347C10.8768 13.0765 10.6677 12.8936 10.3671 12.8936C9.7941 12.8927 9.22013 12.8927 8.64714 12.8927H7.95157V12.5356H12.876V14.1865H7.95255V13.8412ZM16.814 14.1369V14.1875H15.8013V14.1544C15.8013 14.0299 15.8013 13.9102 15.8013 13.7896C15.8003 13.595 15.7487 13.4452 15.6476 13.346C15.5629 13.2633 15.453 13.2225 15.3188 13.2234C15.0279 13.2273 14.8537 13.4365 14.8518 13.7828C14.8508 13.919 14.8508 14.0542 14.8489 14.1904H13.8469V12.5395H18.7664V14.1846H17.7635V14.1534C17.7644 14.0134 17.7644 13.8713 17.7625 13.7283C17.7576 13.4666 17.6127 13.276 17.3841 13.2312C17.242 13.203 17.1039 13.2351 16.9969 13.3207C16.884 13.4112 16.8198 13.5474 16.8159 13.7059C16.813 13.849 16.813 13.9881 16.814 14.1369ZM16.815 19.3824V19.43H15.8032L15.8042 19.4008C15.8081 19.2588 15.811 19.1109 15.7945 18.964C15.7789 18.8288 15.7166 18.6498 15.5911 18.5555C15.4695 18.464 15.2468 18.4485 15.1145 18.5224C14.9744 18.6012 14.88 18.7841 14.8625 18.9164C14.8421 19.073 14.846 19.2238 14.8499 19.3853L14.8508 19.4291H13.8508V17.7792H18.7694V19.431H17.7644V19.3804C17.7654 19.2355 17.7673 19.0866 17.7615 18.9388C17.7547 18.7646 17.673 18.6148 17.5387 18.5282C17.4132 18.4475 17.2586 18.4339 17.1156 18.4922C16.922 18.571 16.815 18.7345 16.814 18.9543C16.815 19.0944 16.815 19.2355 16.815 19.3824ZM16.1495 16.8054H15.1446V16.7626C15.1456 16.6166 15.1466 16.4668 15.1427 16.316C15.1378 16.1555 15.0658 16.0125 14.9452 15.925C14.8294 15.8413 14.6806 15.8179 14.5366 15.8607C14.3206 15.925 14.2 16.0952 14.1961 16.3403C14.1942 16.4785 14.1942 16.6166 14.1951 16.7616V16.8063H13.1815V16.4522C13.1815 15.9532 12.9266 15.8462 12.7116 15.8432C12.5773 15.8432 12.4684 15.8841 12.3876 15.9629C12.2826 16.067 12.231 16.2294 12.231 16.46V16.8063H11.2319V15.1584H16.1505V16.8054H16.1495ZM22.0409 15.5115H21.5691C20.9524 15.5115 20.3366 15.5115 19.7198 15.5115H19.6896C19.6284 15.5115 19.5651 15.5115 19.498 15.5212C19.2772 15.5553 19.1089 15.7518 19.1069 15.9785C19.105 16.2051 19.2694 16.4046 19.4902 16.4425C19.5622 16.4542 19.6332 16.4542 19.6955 16.4542L20.2208 16.4551C20.8113 16.4561 21.4222 16.4561 22.0234 16.4522C22.0371 16.4522 22.0497 16.4522 22.0585 16.4532C22.0585 16.4571 22.0585 16.462 22.0575 16.4668C22.0487 16.5806 22.0507 16.6886 22.0526 16.8044V16.8063H17.1107V15.1613H22.0409V15.5115V15.5115ZM10.4838 19.0662C10.7076 19.036 10.8768 18.8493 10.8875 18.6226C10.8983 18.392 10.7436 18.1916 10.5208 18.1459C10.4342 18.1284 10.3476 18.1284 10.2766 18.1284C9.80869 18.1274 9.34076 18.1274 8.87284 18.1274H8.48273H7.95449V17.7772H12.877V19.43H7.95255V19.073H10.299H10.335C10.3788 19.073 10.4303 19.073 10.4838 19.0662Z" fill="#00199F"/>
<path d="M11.0316 9.18706C11.7593 9.41762 12.5045 9.63456 13.2283 9.84566L13.5766 9.94683C13.8519 10.0276 14.0844 9.90208 14.1826 9.61996C14.2011 9.5684 14.2176 9.51587 14.2352 9.45945C14.3032 9.47793 14.3675 9.49641 14.4287 9.51879C14.706 9.62191 14.9784 9.65207 15.2381 9.60732C15.5932 9.54603 15.8919 9.63164 16.1516 9.86706C16.1827 9.89527 16.1876 9.905 16.1886 9.90597C16.1886 9.90792 16.1886 9.91376 16.1818 9.93418C16.102 10.1842 16.0222 10.4478 15.9318 10.764C15.8724 10.9722 15.9006 11.156 16.0135 11.2806C16.1001 11.3779 16.2285 11.4284 16.3831 11.4284C16.4259 11.4284 16.4707 11.4245 16.5174 11.4168C17.0369 11.3273 17.5564 11.2348 18.0749 11.1424C18.4601 11.0743 18.8444 11.0053 19.2296 10.9381C19.3541 10.9167 19.6129 10.871 19.7005 10.5879C19.788 10.3039 19.5993 10.1287 19.4874 10.0237C18.929 9.5042 18.3726 8.98277 17.8151 8.46231L17.5087 8.17532C17.2849 7.96617 17.1011 7.95936 16.9863 7.99049C16.8715 8.02162 16.7168 8.11987 16.6293 8.41269C16.5835 8.56445 16.5388 8.71524 16.4931 8.87089L16.4688 8.9458C16.4084 8.90591 16.352 8.86603 16.3014 8.8242C16.1283 8.68314 15.9327 8.62379 15.7031 8.64325L15.6477 8.64811C15.4648 8.66465 15.2761 8.68119 15.099 8.66563C14.9307 8.65006 14.7624 8.61601 14.5834 8.57904C14.5562 8.57321 14.5289 8.56737 14.5007 8.56251C14.5173 8.50414 14.5309 8.45355 14.5445 8.40199C14.6214 8.10528 14.4939 7.86888 14.2128 7.78425L13.8723 7.6821C13.1553 7.46711 12.414 7.24531 11.6815 7.04004C11.1017 6.87758 10.5063 7.21126 10.3264 7.80176C10.1474 8.38643 10.4645 9.00709 11.0316 9.18706ZM11.2282 8.0829C11.2593 7.97784 11.3468 7.92823 11.4509 7.95838C11.9753 8.10917 12.4987 8.26385 13.0318 8.42145L13.5104 8.56251L13.4073 8.91078L11.7885 8.43118C11.7428 8.41756 11.698 8.40491 11.6513 8.39226C11.5521 8.36405 11.449 8.33487 11.3517 8.30082C11.2515 8.26385 11.2009 8.17532 11.2282 8.0829ZM17.0379 10.3642C17.0447 10.3428 17.0505 10.3214 17.0573 10.3C17.1021 10.3126 17.1458 10.3253 17.1906 10.3379L17.0379 10.3642ZM17.82 9.76589L18.2325 10.1511L17.675 10.2504C17.7441 10.192 17.7947 10.1122 17.821 10.0159C17.8453 9.93029 17.8433 9.84469 17.82 9.76589ZM17.3287 9.38843L17.3472 9.3252L17.462 9.43221C17.4192 9.41664 17.3754 9.40302 17.3287 9.38843Z" fill="#00199F"/>
</g>
<defs>
<clipPath id="clip0_856_46">
<rect width="15.9961" height="16" fill="white" transform="translate(7 7)"/>
</clipPath>
</defs>
</svg>
