<svg width="40" height="41" viewBox="0 0 40 41" fill="none" xmlns="http://www.w3.org/2000/svg">
<circle cx="20" cy="20.7031" r="20" fill="#179A6B"/>
<g clip-path="url(#clip0_714_3604)">
<mask id="mask0_714_3604" style="mask-type:luminance" maskUnits="userSpaceOnUse" x="12" y="12" width="16" height="17">
<path d="M28 12.7031H12V28.7031H28V12.7031Z" fill="white"/>
</mask>
<g mask="url(#mask0_714_3604)">
<path d="M15.5994 21.8231C15.5994 23.1031 15.5994 24.3831 15.5994 25.7031C15.5994 26.5831 16.1994 27.3031 17.1594 27.2631C19.0794 27.2231 20.9594 27.2231 22.8794 27.2631C23.6394 27.2631 24.3594 26.7031 24.3594 25.7431C24.3594 23.1031 24.3594 20.4631 24.3594 17.8231C24.3594 17.5031 24.4794 17.3031 24.7594 17.1431C25.0394 16.9831 25.2794 17.0631 25.5194 17.2231C25.7594 17.3831 25.7994 17.6631 25.7994 17.9431C25.7994 19.3831 25.7994 20.7831 25.7994 22.2231C25.7994 23.3831 25.7994 24.5831 25.7994 25.7431C25.7994 27.1431 24.9994 28.2231 23.7194 28.5831C23.5194 28.6231 23.3194 28.7031 23.0794 28.7031C20.9994 28.7031 18.9594 28.7031 16.8794 28.7031C15.5194 28.7031 14.2394 27.5831 14.1594 26.2231C14.0794 25.3031 14.1194 24.3431 14.1194 23.4231C14.1194 21.6231 14.1194 19.8231 14.1194 18.0231C14.1194 17.8631 14.1194 17.7031 14.1994 17.5431C14.3194 17.2231 14.6794 17.0231 14.9994 17.1031C15.3594 17.1431 15.5994 17.4231 15.5994 17.7831C15.5994 19.1431 15.5994 20.4631 15.5994 21.8231Z" fill="white"/>
<path d="M17.0797 14.8631C17.0797 14.3831 17.0797 13.9431 17.0797 13.5031C17.0797 12.9831 17.3597 12.6631 17.9197 12.6631C19.3197 12.6631 20.6797 12.6631 22.0797 12.6631C22.6397 12.6631 22.9197 12.9431 22.9197 13.5031C22.9197 13.9431 22.9197 14.3831 22.9197 14.8631C23.5597 14.8631 24.1597 14.8631 24.7597 14.8631C25.1597 14.8631 25.5597 14.8631 25.9997 14.9031C26.2797 14.9431 26.4797 15.1431 26.5597 15.3831C26.6397 15.6631 26.5997 15.9431 26.3197 16.1431C26.1597 16.2231 25.9997 16.3031 25.8397 16.3031C21.9597 16.3031 18.0397 16.3031 14.1597 16.3031C13.7597 16.3031 13.4797 16.0631 13.4797 15.7031C13.4397 15.3031 13.6397 14.9431 13.9997 14.9031C14.3597 14.8631 14.7597 14.8631 15.1197 14.8631C15.7597 14.8631 16.3997 14.8631 17.0797 14.8631ZM21.4397 14.1831C20.4797 14.1831 19.5197 14.1831 18.5597 14.1831C18.5597 14.4231 18.5597 14.6231 18.5597 14.8631C19.5197 14.8631 20.4797 14.8631 21.4397 14.8631C21.4397 14.6231 21.4397 14.4231 21.4397 14.1831Z" fill="white"/>
<path d="M22.1597 21.8232C22.1597 22.6632 22.1597 23.5032 22.1597 24.3432C22.1597 24.7432 21.8797 25.0632 21.4797 25.1032C21.1597 25.1432 20.7997 24.8632 20.7197 24.5032C20.6797 24.4232 20.6797 24.3032 20.6797 24.1832C20.6797 22.6232 20.6797 21.1032 20.6797 19.5432C20.6797 19.3832 20.6797 19.2232 20.7197 19.1032C20.7997 18.7432 21.1597 18.5032 21.5197 18.5832C21.8797 18.6232 22.1197 18.9032 22.1197 19.3032C22.1597 20.1032 22.1597 20.9432 22.1597 21.8232Z" fill="white"/>
<path d="M17.7998 21.7831C17.7998 20.9431 17.7998 20.1431 17.7998 19.3031C17.7998 18.8631 18.0398 18.5831 18.3998 18.5431C18.8398 18.5031 19.1198 18.7431 19.2398 19.1831C19.2398 19.2631 19.2398 19.3831 19.2398 19.4631C19.2398 21.0631 19.2398 22.6231 19.2398 24.2231C19.2398 24.3831 19.1998 24.5431 19.1598 24.7031C19.0398 24.9831 18.6798 25.1831 18.3998 25.1031C18.0398 25.0231 17.7598 24.7431 17.7598 24.3831C17.7998 23.5031 17.7998 22.6231 17.7998 21.7831Z" fill="white"/>
</g>
</g>
<defs>
<clipPath id="clip0_714_3604">
<rect width="16" height="16" fill="white" transform="translate(12 12.7031)"/>
</clipPath>
</defs>
</svg>
