<svg width="30" height="30" viewBox="0 0 30 30" fill="none" xmlns="http://www.w3.org/2000/svg">
<rect width="30" height="30" rx="12" fill="#F0F5FF"/>
<path d="M19.6292 16.2589C19.2737 16.2589 18.9255 16.3133 18.5924 16.4215C18.2442 16.0286 18.0538 15.5274 18.0538 14.9997C18.0538 14.4719 18.2442 13.9708 18.5924 13.5779C18.9255 13.6855 19.2737 13.7405 19.6292 13.7405C21.4875 13.7405 22.9994 12.2285 22.9994 10.3702C23 8.51192 21.4881 7 19.6292 7C17.7702 7 16.2589 8.51192 16.2589 10.3702C16.2589 10.7257 16.3133 11.0733 16.4215 11.407C16.0286 11.7546 15.5274 11.9456 14.9997 11.9456C14.4719 11.9456 13.9708 11.7552 13.5779 11.407C13.6855 11.0739 13.7405 10.7257 13.7405 10.3702C13.7405 8.51192 12.2285 7 10.3702 7C8.51192 7 7 8.51192 7 10.3702C7 12.2285 8.51192 13.7405 10.3702 13.7405C10.7251 13.7405 11.0733 13.6861 11.407 13.5779C11.7552 13.9708 11.9456 14.4719 11.9456 14.9997C11.9456 15.5274 11.7552 16.0286 11.407 16.4215C11.0739 16.3139 10.7257 16.2589 10.3702 16.2589C8.51192 16.2589 7 17.7708 7 19.6292C7 21.4875 8.51192 22.9994 10.3702 22.9994C12.2285 22.9994 13.7405 21.4875 13.7405 19.6292C13.7405 19.2737 13.6861 18.9255 13.5779 18.5924C13.9708 18.2448 14.4719 18.0538 14.9997 18.0538C15.5274 18.0538 16.0286 18.2442 16.4215 18.5924C16.3139 18.9255 16.2589 19.2737 16.2589 19.6292C16.2589 21.4875 17.7708 22.9994 19.6292 22.9994C21.4875 22.9994 22.9994 21.4875 22.9994 19.6292C22.9994 17.7708 21.4881 16.2589 19.6292 16.2589ZM9.73911 18.0955C9.44954 18.385 9.29055 18.7689 9.29055 19.1776C9.29055 19.5862 9.45015 19.9707 9.73911 20.2603C10.0287 20.5499 10.4126 20.7088 10.8212 20.7088C11.2299 20.7088 11.6143 20.5492 11.9039 20.2603L12.5187 19.6455C12.5097 20.8225 11.5497 21.777 10.3702 21.777C9.18536 21.777 8.22175 20.8134 8.22175 19.6286C8.22175 18.4497 9.17629 17.4891 10.3533 17.4801L9.73911 18.0955ZM10.8212 19.4871C10.739 19.4871 10.661 19.4551 10.603 19.3964C10.5443 19.3378 10.5123 19.2604 10.5123 19.1782C10.5123 19.096 10.5443 19.018 10.603 18.9599L12.1802 17.3833C12.8168 16.7468 13.1674 15.9004 13.1674 15.0003C13.1674 14.1002 12.8168 13.2538 12.1802 12.6173L10.603 11.0394C10.5443 10.9814 10.5123 10.9034 10.5123 10.8212C10.5123 10.739 10.5443 10.661 10.603 10.603C10.6634 10.5425 10.742 10.5129 10.8212 10.5129C10.9004 10.5129 10.9796 10.5431 11.0394 10.603L12.6167 12.1802C13.2532 12.8168 14.0996 13.1674 14.9997 13.1674C15.8998 13.1674 16.7462 12.8168 17.3827 12.1802L18.9599 10.603C19.018 10.5443 19.096 10.5123 19.1782 10.5123C19.2604 10.5123 19.3384 10.5443 19.3964 10.603C19.4551 10.6616 19.4871 10.739 19.4871 10.8212C19.4871 10.9034 19.4551 10.9808 19.3964 11.0394L17.8192 12.616C17.1826 13.2526 16.832 14.099 16.832 14.9991C16.832 15.8992 17.1826 16.7456 17.8192 17.3821L19.3964 18.9593C19.4551 19.0174 19.4871 19.0954 19.4871 19.1776C19.4871 19.2598 19.4551 19.3378 19.3964 19.3958C19.2761 19.5161 19.0802 19.5161 18.9599 19.3958L17.3827 17.8186C16.7462 17.182 15.8998 16.8314 14.9997 16.8314C14.0996 16.8314 13.2532 17.182 12.6167 17.8186L11.0394 19.3958C10.9814 19.4551 10.904 19.4871 10.8212 19.4871ZM11.9039 9.73911C11.3073 9.14244 10.3358 9.14244 9.73911 9.73911C9.44954 10.0287 9.29055 10.4126 9.29055 10.8218C9.29055 11.2311 9.45015 11.615 9.73911 11.9045L10.3539 12.5193C9.1769 12.5103 8.22235 11.5503 8.22235 10.3708C8.22235 9.18657 9.18597 8.22235 10.3708 8.22235C11.5497 8.22235 12.5103 9.1769 12.5193 10.3539L11.9039 9.73911ZM20.2603 11.9039C20.5499 11.6143 20.7088 11.2305 20.7088 10.8212C20.7088 10.4126 20.5492 10.0281 20.2603 9.7385C19.9616 9.43987 19.5699 9.29115 19.1782 9.29115C18.7864 9.29115 18.3941 9.44047 18.0955 9.7385L17.4807 10.3533C17.4897 9.17629 18.4497 8.22175 19.6292 8.22175C20.814 8.22175 21.7776 9.18536 21.7776 10.3702C21.7776 11.5491 20.8231 12.5097 19.6461 12.5187L20.2603 11.9039ZM18.0961 20.2609C18.6927 20.8576 19.6642 20.8576 20.2609 20.2609C20.5505 19.9713 20.7094 19.5874 20.7094 19.1788C20.7094 18.7701 20.5499 18.3856 20.2609 18.0961L19.6461 17.4813C20.8231 17.4903 21.7776 18.4503 21.7776 19.6298C21.7776 20.814 20.814 21.7783 19.6292 21.7783C18.4503 21.7783 17.4897 20.8237 17.4807 19.6467L18.0961 20.2609Z" fill="#00199F"/>
<path d="M14.9997 16.5311C15.8436 16.5311 16.5303 15.8443 16.5303 15.0004C16.5303 14.1565 15.8436 13.4697 14.9997 13.4697C14.1558 13.4697 13.469 14.1565 13.469 15.0004C13.469 15.8443 14.1558 16.5311 14.9997 16.5311ZM14.6914 14.9998C14.6914 14.8293 14.8298 14.6909 15.0003 14.6909C15.1708 14.6909 15.3092 14.8293 15.3092 14.9998C15.3092 15.1703 15.1708 15.3087 15.0003 15.3087C14.8298 15.3087 14.6914 15.1703 14.6914 14.9998Z" fill="#00199F"/>
</svg>
