<svg width="30" height="30" viewBox="0 0 30 30" fill="none" xmlns="http://www.w3.org/2000/svg">
<rect width="30" height="30" rx="12" fill="#F0F5FF"/>
<path d="M20 15V8.6C20 8.1 19.8 7.7 19.5 7.5C19.2 7.1 18.8 7 18.2 7C16.1 7 13.9 7 11.8 7C10.7 7 10 7.6 10 8.6V21.5C10 22.4 10.7 23 11.7 23H15H18.2C19.3 23 20 22.4 20 21.4V15ZM16.5 21.2C16.4 21.1 16.3 21 16 21H14C13.7 21 13.6 21.1 13.5 21.2C13.4 21.3 13.3 21.4 13.3 21.6C13.3 21.7 13.3 21.8 13.3 21.8H11.8C11.3 21.8 11.3 21.7 11.3 21.3V8.6C11.3 8.2 11.4 8.1 11.9 8.1C12 8.1 12 8.1 12.1 8.1C12.5 8.1 12.6 8.1 12.8 8.3C13 8.7 13.5 8.9 14.1 8.9C14.6 8.9 15 8.9 15.5 8.9H15.8C16.5 8.9 17.1 8.6 17.5 8.2C17.7 8.2 17.9 8.2 18.1 8.2H18.2C18.6 8.2 18.7 8.4 18.7 8.6V21.4C18.7 21.8 18.6 21.9 18.1 21.9H16.6C16.6 21.8 16.6 21.8 16.6 21.7C16.7 21.4 16.6 21.3 16.5 21.2Z" fill="#000F9F"/>
<path fill-rule="evenodd" clip-rule="evenodd" d="M17.9 15.0001L15.5 15.5001L15 17.8001L14.5 15.5001L12.1 15.0001L14.5 14.5001L15 12.1001L15.5 14.5001L17.9 15.0001Z" fill="#000F9F"/>
<path fill-rule="evenodd" clip-rule="evenodd" d="M15 16.7L14.7 15.3L13.3 15L14.7 14.7L15 13.2L15.3 14.6L16.7 15L15.3 15.3L15 16.7Z" fill="#ED1C24"/>
<path fill-rule="evenodd" clip-rule="evenodd" d="M14.9999 12.0002C16.6999 12.0002 17.9999 13.4002 17.9999 15.0002C17.9999 16.6002 16.5999 18.0002 14.9999 18.0002C13.3999 18.0002 11.9999 16.7002 11.9999 15.0002C11.9999 13.3002 13.2999 12.0002 14.9999 12.0002ZM14.9999 12.1002C13.3999 12.1002 12.0999 13.4002 12.0999 15.0002C12.0999 16.6002 13.3999 17.9002 14.9999 17.9002C16.5999 17.9002 17.8999 16.6002 17.8999 15.0002C17.8999 13.4002 16.5999 12.1002 14.9999 12.1002Z" fill="#000F9F"/>
<path d="M15 18.1001C13.3 18.1001 11.9 16.7001 11.9 15.0001C11.9 13.3001 13.3 11.9001 15 11.9001C16.7 11.9001 18.1 13.3001 18.1 15.0001C18.1 16.7001 16.7 18.1001 15 18.1001ZM15 12.3001C13.5 12.3001 12.3 13.5001 12.3 15.0001C12.3 16.5001 13.5 17.7001 15 17.7001C16.5 17.7001 17.7 16.5001 17.7 15.0001C17.7 13.5001 16.5 12.3001 15 12.3001Z" fill="#000F9F"/>
<path d="M15 18.1001C13.3 18.1001 11.9 16.7001 11.9 15.0001C11.9 13.3001 13.3 11.9001 15 11.9001C16.7 11.9001 18.1 13.3001 18.1 15.0001C18.1 16.7001 16.7 18.1001 15 18.1001ZM15 12.2001C13.5 12.2001 12.2 13.5001 12.2 15.0001C12.2 16.5001 13.5 17.8001 15 17.8001C16.5 17.8001 17.8 16.5001 17.8 15.0001C17.8 13.5001 16.5 12.2001 15 12.2001Z" fill="#000F9F"/>
<path d="M15 18.2C13.2 18.2 11.8 16.8 11.8 15C11.8 13.2 13.2 11.8 15 11.8C16.8 11.8 18.2 13.2 18.2 15C18.2 16.8 16.8 18.2 15 18.2ZM15 12C13.4 12 12 13.4 12 15C12 16.6 13.3 18 15 18C16.7 18 18 16.7 18 15C18 13.4 16.6 12 15 12ZM15 17.9C13.4 17.9 12.1 16.6 12.1 15C12.1 13.4 13.4 12.1 15 12.1C16.6 12.1 17.9 13.4 17.9 15C17.9 16.6 16.6 17.9 15 17.9ZM15 12.3C13.5 12.3 12.3 13.5 12.3 15C12.3 16.5 13.5 17.7 15 17.7C16.5 17.7 17.7 16.5 17.7 15C17.7 13.5 16.5 12.3 15 12.3Z" fill="#000F9F"/>
<path fill-rule="evenodd" clip-rule="evenodd" d="M15 15.7L14.8 15.1L14.3 15L14.8 14.8L15 14.2L15.2 14.8L15.7 15L15.2 15.1L15 15.7Z" fill="#FFF200"/>
</svg>
