<svg width="30" height="30" viewBox="0 0 30 30" fill="none" xmlns="http://www.w3.org/2000/svg">
<rect width="30" height="30" rx="12" fill="#F0F5FF"/>
<path d="M16.5519 13.4923C16.4089 13.4909 16.2659 13.492 16.098 13.492C16.098 13.1866 16.1155 12.9016 16.095 12.6192C16.0036 11.3663 14.9577 10.4002 13.7048 10.3994C12.4522 10.3986 11.4036 11.3652 11.3123 12.6167C11.2917 12.8992 11.3092 13.1846 11.3092 13.492C11.1296 13.492 10.9855 13.4904 10.8417 13.4925C10.6689 13.4953 10.6109 13.5519 10.6106 13.7263C10.6095 15.1277 10.6082 16.5293 10.6114 17.9307C10.6123 18.3526 10.8999 18.6455 11.3183 18.6463C12.9078 18.6498 14.497 18.6498 16.0865 18.6463C16.5057 18.6455 16.7947 18.3537 16.7958 17.9332C16.7991 16.5318 16.7974 15.1302 16.7966 13.7288C16.7963 13.5478 16.7384 13.4942 16.5519 13.4923ZM14.1278 16.2406C14.1456 16.4916 14.1806 16.7415 14.2099 16.992C14.2348 17.2031 14.1801 17.2668 13.9684 17.2695C13.8774 17.2706 13.786 17.2698 13.6947 17.2698C13.6034 17.2698 13.5123 17.2714 13.421 17.2693C13.2315 17.2652 13.1741 17.1984 13.1954 17.0068C13.2239 16.7511 13.2608 16.496 13.2791 16.2395C13.284 16.1714 13.252 16.0836 13.2066 16.032C12.9515 15.7427 12.9575 15.3205 13.2307 15.0602C13.4946 14.8086 13.914 14.8091 14.1773 15.061C14.4497 15.3216 14.4552 15.7446 14.1998 16.033C14.1541 16.0842 14.1232 16.1722 14.1278 16.2406ZM15.0638 13.4846C14.1538 13.4846 13.2498 13.4846 12.3292 13.4846C12.3363 13.1103 12.2824 12.7403 12.3984 12.3805C12.5941 11.7723 13.1971 11.3759 13.8265 11.4352C14.4705 11.4959 14.9933 11.9925 15.0592 12.6361C15.0873 12.9107 15.0638 13.1907 15.0638 13.4846Z" fill="#00199F"/>
<path d="M19.2902 9.80633V8H8V19.9678C8 21.0884 8.91164 22 10.0322 22H19.9675C21.0881 22 21.9997 21.0884 21.9997 19.9678V9.80633H19.2902ZM10.0322 20.6451C9.65867 20.6451 9.35488 20.3413 9.35488 19.9678V9.35488H17.9356V19.9678C17.9356 20.2052 17.9769 20.4332 18.0521 20.6451H10.0322ZM20.6451 19.9678C20.6451 20.3413 20.3413 20.6451 19.9678 20.6451C19.5943 20.6451 19.2905 20.3413 19.2905 19.9678V11.1612H20.6454V19.9678H20.6451Z" fill="#00199F"/>
</svg>
