<svg width="30" height="30" viewBox="0 0 30 30" fill="none" xmlns="http://www.w3.org/2000/svg">
<rect width="30" height="30" rx="12" fill="#F0F5FF"/>
<g clip-path="url(#clip0)">
<path d="M17.1649 8.52637H12.4794C12.1892 8.52637 11.9531 8.76259 11.9531 9.05297C11.9531 9.34335 12.1892 9.57957 12.4794 9.57957H17.1649C17.4551 9.57957 17.6912 9.34335 17.6912 9.05297C17.6912 8.76259 17.4551 8.52637 17.1649 8.52637Z" fill="#00199F"/>
<path d="M17.1649 9.84668H12.4794C12.1892 9.84668 11.9531 10.0829 11.9531 10.3733C11.9531 10.6637 12.1892 10.8999 12.4794 10.8999H17.1649C17.4551 10.8999 17.6912 10.6637 17.6912 10.3733C17.6912 10.0829 17.4551 9.84668 17.1649 9.84668Z" fill="#00199F"/>
<path d="M22.4737 19.9764C22.1835 19.9764 21.9474 20.2126 21.9474 20.503V21.481C21.9474 21.7377 21.7386 21.9465 21.4821 21.9465H13.2574C13.0009 21.9465 12.7919 21.7377 12.7919 21.481V18.9548C13.0611 19.1311 13.3651 19.25 13.6818 19.3029V19.3764C13.6818 19.9972 14.1865 20.5021 14.8069 20.5021C15.4274 20.5021 15.9323 19.9972 15.9323 19.3764V19.3342H18.8072V19.3764C18.8072 19.9972 19.3119 20.5021 19.9323 20.5021C20.5528 20.5021 21.0574 19.9972 21.0574 19.3764V19.3029C21.3741 19.2503 21.6782 19.1311 21.9474 18.9548V19.448C21.9474 19.7384 22.1835 19.9746 22.4737 19.9746C22.7639 19.9746 23 19.7384 23 19.448V16.3197C23 15.4822 22.3191 14.8009 21.4821 14.8009H20.4436V14.4717C20.4436 13.7282 19.9922 13.0881 19.3495 12.811C19.606 12.7761 19.8045 12.5555 19.8045 12.2892V8.41701C19.8042 7.63553 19.169 7 18.3883 7H10.7405C10.3621 7 10.0063 7.14745 9.73895 7.41496L7.41474 9.74044C7.14737 10.008 7 10.3639 7 10.7425V21.583C7 22.3642 7.63519 23 8.41624 23H11.7495C11.9889 23 12.1913 22.8393 12.255 22.6202C12.5311 22.8631 12.8887 23 13.2577 23H21.4824C22.3194 23 23.0003 22.3187 23.0003 21.4813V20.5033C23 20.2126 22.7639 19.9764 22.4737 19.9764ZM14.7347 18.5696C14.7347 18.5296 14.7672 18.4971 14.8072 18.4971C14.8472 18.4971 14.8797 18.5296 14.8797 18.5696V19.3764C14.8797 19.4164 14.8472 19.4489 14.8072 19.4489C14.7672 19.4489 14.7347 19.4164 14.7347 19.3764V18.5696ZM13.2574 15.8538H21.4821C21.7386 15.8538 21.9474 16.0627 21.9474 16.3194V17.0094C21.9474 17.5847 21.5561 18.09 21.0075 18.2374C20.8632 17.7665 20.431 17.4436 19.9323 17.4436C19.4223 17.4436 18.9744 17.792 18.8448 18.2807H15.895C15.7654 17.792 15.3176 17.4436 14.8075 17.4436C14.3086 17.4436 13.8767 17.7665 13.7323 18.2374C13.1838 18.0903 12.7925 17.5847 12.7925 17.0094V16.3194C12.7922 16.063 13.0009 15.8538 13.2574 15.8538ZM19.8598 18.5696C19.8598 18.5296 19.8923 18.4971 19.9323 18.4971C19.9723 18.4971 20.0048 18.5296 20.0048 18.5696V19.3764C20.0048 19.4164 19.9723 19.4489 19.9323 19.4489C19.8923 19.4489 19.8598 19.4164 19.8598 19.3764V18.5696ZM18.4701 14.6394V14.8006H16.2695V14.6394H18.4701ZM14.2959 14.4717V14.8009H13.2574C12.4205 14.8009 11.7395 15.4822 11.7395 16.3197V21.481C11.7395 21.642 11.7645 21.7993 11.8141 21.9507C11.7928 21.948 11.7711 21.9468 11.7495 21.9468H8.41624C8.21564 21.9468 8.05263 21.7837 8.05263 21.583V10.9002H9.82015C10.4147 10.9002 10.8983 10.4163 10.8983 9.82169V8.05321H18.3883C18.5889 8.05321 18.7519 8.2163 18.7519 8.41701V12.2892C18.7519 12.4493 18.8235 12.5928 18.9365 12.6894C18.8394 12.6732 18.7395 12.6647 18.6379 12.6647H16.102C15.1059 12.6647 14.2959 13.4754 14.2959 14.4717ZM8.79699 9.84697L9.84541 8.79797V9.82169C9.84541 9.83583 9.83399 9.84697 9.81985 9.84697H8.79699Z" fill="#00199F"/>
</g>
<defs>
<clipPath id="clip0">
<rect width="16" height="16" fill="white" transform="translate(7 7)"/>
</clipPath>
</defs>
</svg>
