<svg width="30" height="30" viewBox="0 0 30 30" fill="none" xmlns="http://www.w3.org/2000/svg">
<rect width="30" height="30" rx="12" fill="#F0F5FF"/>
<g clip-path="url(#clip0)">
<path d="M21.6374 11.0156C21.5649 10.9945 21.5061 10.9548 21.4968 10.9313C21.1293 9.98262 20.4018 9.54018 19.2078 9.54018C19.2034 9.54018 19.1991 9.54018 19.1948 9.54018C18.9413 9.5408 18.6811 9.53461 18.4301 9.52841C17.8854 9.51478 17.3222 9.50053 16.7738 9.55877C15.8356 9.65792 15.1751 9.37226 14.6949 8.65904C14.2853 8.05054 13.6966 7.98548 13.1748 8.00221C12.404 8.027 11.6189 8.0239 10.8592 8.02142C10.2272 8.01894 9.57406 8.01646 8.93148 8.0301C7.74175 8.0555 7.00189 8.82015 7.00127 10.0266V11.3905C7.00127 12.1452 7.00065 12.8999 7.00065 13.6547C7.00003 15.4721 6.99879 17.3521 7.00313 19.2005C7.00623 20.5458 8.01874 21.5602 9.35842 21.5602C10.7099 21.5602 12.0607 21.5602 13.4122 21.5602H14.2227C14.6825 21.5602 15.1422 21.5596 15.602 21.5596C16.8252 21.5589 18.0905 21.5577 19.3348 21.5633C19.3385 21.5633 19.3429 21.5633 19.3466 21.5633C19.8565 21.5633 20.2984 21.4133 20.6949 21.1053C21.2886 20.6449 21.6628 20.0216 21.8072 19.2526C22.1177 17.5932 22.4374 15.9065 22.7472 14.2749L22.9567 13.1701C23.1562 12.1167 22.6629 11.3111 21.6374 11.0156ZM19.8621 10.9703C19.1446 10.971 18.4239 10.9697 17.7045 10.9691C15.5171 10.9672 13.2554 10.9654 11.0302 10.9815C10.5878 10.9846 10.1231 11.0788 9.72092 11.2455C9.0802 11.5113 8.67061 12.038 8.53738 12.7673C8.44072 13.2971 8.33848 13.835 8.23933 14.3555C8.22012 14.4559 8.20091 14.5563 8.18232 14.6573V13.7941C8.18232 12.4792 8.18232 11.1649 8.1817 9.85001C8.1817 9.60587 8.29634 9.42679 8.50578 9.34561C8.73815 9.25576 8.96804 9.20743 9.17129 9.20557C9.82564 9.19938 10.4893 9.19628 11.1715 9.19628C11.8854 9.19628 12.6196 9.19938 13.3843 9.20619C13.4952 9.20743 13.6439 9.27188 13.7375 9.36049C14.095 9.69882 14.3968 10.0105 14.6595 10.3135C14.9055 10.5973 15.2141 10.7293 15.6311 10.7293C15.6336 10.7293 15.6355 10.7293 15.638 10.7293C16.6542 10.7256 17.6878 10.7268 18.6873 10.7274L19.2945 10.7281C19.5771 10.7281 19.8541 10.7491 20.128 10.9691H19.8621V10.9703ZM8.53553 19.3833C8.67866 18.6131 8.82056 17.8429 8.96308 17.0727C9.20475 15.7658 9.45447 14.4144 9.70295 13.0858C9.8151 12.4854 10.1646 12.1836 10.7706 12.1638C10.9199 12.1588 11.0705 12.157 11.2211 12.157C11.3965 12.157 11.5718 12.1594 11.7441 12.1613C11.9145 12.1638 12.0843 12.1656 12.2547 12.1656C13.1371 12.1663 14.0194 12.1663 14.9018 12.1663H15.9087V12.2022H16.8884C18.2653 12.2022 19.6421 12.2022 21.0184 12.2028C21.1213 12.2028 21.2216 12.2041 21.3189 12.2171C21.5147 12.2431 21.6548 12.3125 21.7347 12.4228C21.8146 12.5331 21.8363 12.6868 21.7998 12.8801C21.6002 13.9403 21.3939 15.0173 21.1944 16.0595L20.9769 17.1953C20.9378 17.3992 20.8994 17.6031 20.861 17.8069C20.7711 18.2841 20.6782 18.7773 20.5797 19.2606C20.431 19.9906 19.9563 20.376 19.2053 20.376C15.9224 20.376 12.6395 20.376 9.35656 20.376C8.98911 20.376 8.74869 20.3023 8.62228 20.1498C8.49649 19.9986 8.46798 19.7477 8.53553 19.3833Z" fill="#00199F"/>
<path d="M11.1542 14.9077C11.4355 14.9083 11.7224 14.9052 11.9994 14.9015C12.5738 14.8947 13.1681 14.8872 13.7499 14.9182C13.7834 14.9201 13.8169 14.9207 13.8497 14.9207C14.2562 14.9207 14.6193 14.7844 14.8808 14.5309C15.1813 14.2403 15.3344 13.8171 15.3238 13.3071C15.3115 12.7085 14.9242 12.3138 14.3367 12.3021C13.9854 12.2952 13.6291 12.2965 13.284 12.2983C13.1501 12.299 13.0156 12.2996 12.8818 12.2996L12.414 12.2977C12.1159 12.2977 11.8185 12.2977 11.5204 12.2977C10.5581 12.2983 10.1405 12.6751 10.0289 13.6411C9.98183 14.0482 10.0556 14.3642 10.247 14.5799C10.4385 14.7968 10.744 14.9064 11.1542 14.9077ZM11.2069 13.4658C11.2372 13.4317 11.3234 13.4249 11.4523 13.4242C12.0862 13.423 12.7201 13.4236 13.3571 13.4236H14.0573C14.0629 13.5389 14.0449 13.6176 14.0034 13.6628C13.9569 13.7136 13.8695 13.7353 13.7282 13.7322C13.3515 13.7242 12.971 13.7217 12.5937 13.7217C12.3489 13.7217 12.106 13.7229 11.8656 13.7235C11.6406 13.7242 11.4163 13.7254 11.1914 13.7254C11.1771 13.5903 11.1765 13.4998 11.2069 13.4658Z" fill="#00199F"/>
</g>
<defs>
<clipPath id="clip0">
<rect width="16" height="13.5629" fill="white" transform="translate(7 8)"/>
</clipPath>
</defs>
</svg>
