<svg width="20" height="20" viewBox="0 0 20 20" fill="none" xmlns="http://www.w3.org/2000/svg">
<rect width="20" height="20" rx="5" fill="#F0F5FF"/>
<g clip-path="url(#clip0)">
<path d="M15.6434 4.34943C15.5331 4.13384 15.3134 4 15.0712 4H15.0702H4.6457H4.64468C4.40254 4 4.18389 4.13384 4.07252 4.34943C3.96013 4.56705 3.97955 4.82656 4.12259 5.02478L7.94787 10.4133C8.06843 10.5747 8.13178 10.7678 8.13178 10.9691V15.3553C8.13076 15.5269 8.19717 15.6894 8.31773 15.811C8.43727 15.9315 8.60279 16 8.77239 16C8.85822 16 8.94302 15.9826 9.01965 15.951L11.1612 15.1346C11.4145 15.0549 11.5841 14.8128 11.5841 14.5308V10.9701C11.5841 10.7709 11.6495 10.5737 11.7742 10.4061L15.5933 5.0258C15.7364 4.82656 15.7558 4.56705 15.6434 4.34943ZM8.67431 9.88199L5.13817 4.90013H14.5788L11.0437 9.88097C10.8097 10.1987 10.6861 10.5747 10.685 10.9701V14.354L9.03293 14.9844V10.9691C9.03089 10.5737 8.90624 10.1977 8.67431 9.88199Z" fill="#00199F"/>
</g>
<defs>
<clipPath id="clip0">
<rect width="11.716" height="12" fill="white" transform="translate(4 4)"/>
</clipPath>
</defs>
</svg>
