<svg width="17" height="17" viewBox="0 0 17 17" fill="none" xmlns="http://www.w3.org/2000/svg">
<g clip-path="url(#clip0_276_138)">
<path d="M15.692 6.41754L13.5692 4.49125C12.5471 3.54776 11.5249 2.60427 10.4635 1.7001C9.40209 0.717297 7.86892 0.717297 6.80749 1.66079C4.99914 3.23327 3.2301 4.84506 1.42174 6.49617C0.871376 7.00722 0.596191 7.67553 0.596191 8.46177C0.596191 10.3487 0.596191 12.275 0.596191 14.162C0.596191 15.7345 1.81486 16.9532 3.38735 16.9532H7.04337H9.67727C11.0532 16.9532 12.4291 16.9532 13.805 16.9532C13.9623 16.9532 14.0802 16.9532 14.2375 16.9139C15.6134 16.678 16.5962 15.5379 16.5962 14.1227C16.5962 12.9827 16.5962 11.8819 16.5962 10.7419C16.5962 9.99494 16.5962 9.24801 16.5962 8.50108C16.6355 7.67553 16.321 6.96791 15.692 6.41754ZM14.6699 14.162C14.6699 14.8303 14.3161 15.1841 13.6478 15.1841C12.4291 15.1841 11.2498 15.1841 10.0311 15.1841H8.57653H7.08268C5.90332 15.1841 4.72396 15.1841 3.54459 15.1841C2.79767 15.1841 2.48317 14.8696 2.48317 14.1227V12.4323C2.48317 11.2136 2.48317 9.95563 2.48317 8.73695C2.48317 8.30452 2.60111 7.99002 2.95491 7.67553C4.25221 6.53548 5.54951 5.35612 6.80749 4.17676L7.82961 3.23327C8.34066 2.76152 8.7731 2.76152 9.28415 3.23327C10.9353 4.72712 12.5864 6.22098 14.1982 7.71484C14.5127 7.99003 14.6306 8.30452 14.6306 8.69764C14.6306 9.95563 14.6306 11.2136 14.6306 12.4716L14.6699 14.162Z" fill="#179A6B"/>
<path d="M12.1539 11.5281H5.07777C4.56671 11.5281 4.13428 11.9605 4.13428 12.4716C4.13428 12.9826 4.56671 13.4151 5.07777 13.4151H12.1539C12.665 13.4151 13.0974 12.9826 13.0974 12.4716C13.0974 11.9605 12.665 11.5281 12.1539 11.5281Z" fill="#179A6B"/>
</g>
<defs>
<clipPath id="clip0_276_138">
<rect width="16" height="16" fill="white" transform="translate(0.596191 0.953125)"/>
</clipPath>
</defs>
</svg>
