<svg width="30" height="30" viewBox="0 0 30 30" fill="none" xmlns="http://www.w3.org/2000/svg">
<rect width="30" height="30" rx="12" fill="#F0F5FF"/>
<g clip-path="url(#clip0)">
<path d="M22.0692 8.38043V9.08467H20.3599V7H18.8748V9.08467H17.1656V8.38043H16.2348V8.97116C15.1744 10.8783 13.458 12.122 11.1264 12.6737V11.6985H9.64066V12.9172C8.36582 13.038 7.4386 12.9147 7.41872 12.9117C7.26148 12.8897 7.11688 12.9953 7.08435 13.1497H7V13.802V13.8539V14.7449H9.64066V15.5023H7V16.4933H9.64066V22.9841H11.1258V16.4939H13.7664V15.5029H11.1258V14.7455H13.7664V14.3513C14.2779 14.6528 15.0087 14.9463 15.9125 14.9463C16.0679 14.9463 16.2294 14.9378 16.395 14.9188C17.2295 14.8236 18.0573 14.4868 18.8748 13.9131V23.0006H20.3599V12.5968C20.5961 12.3435 20.8311 12.0707 21.0654 11.7766H23.0006V10.7855H21.7981C21.9649 10.5438 22.1306 10.2906 22.2957 10.0281H23V9.08467V8.38043H22.0692ZM7.93083 13.802V13.5677C8.09832 13.5762 8.29713 13.583 8.52186 13.583C8.84599 13.583 9.22495 13.5695 9.64006 13.5317V13.8027H7.93083V13.802ZM16.3372 14.3104C15.1581 14.4483 14.2514 13.9686 13.7664 13.6214V13.1503H12.835V13.8027H11.1258V13.301C13.3399 12.8061 15.0973 11.685 16.2788 10.0288H18.8742V10.7861H16.2336V11.7772H18.8742V13.1423C18.0247 13.8173 17.1734 14.2121 16.3372 14.3104ZM21.0528 10.7855H20.3593V10.0281H21.5757C21.4022 10.2924 21.2281 10.5444 21.0528 10.7855Z" fill="#00199F"/>
</g>
<defs>
<clipPath id="clip0">
<rect width="16" height="16" fill="white" transform="translate(7 7)"/>
</clipPath>
</defs>
</svg>
