<svg width="30" height="30" viewBox="0 0 30 30" fill="none" xmlns="http://www.w3.org/2000/svg">
<rect width="30" height="30" rx="12" fill="#F0F5FF"/>
<g clip-path="url(#clip0)">
<path d="M20.5655 13.3369C20.4478 13.1261 20.2236 12.9931 19.9805 12.9931H15.9781L16.6638 7.75603C16.7113 7.38941 16.4549 7.05319 16.0883 7.0057C15.8261 6.97151 15.5697 7.09308 15.431 7.31913L10.099 15.9887C9.9052 16.304 10.004 16.7163 10.3193 16.91C10.4238 16.9746 10.5454 17.0088 10.6707 17.0088H14.6066L13.9893 22.2535C13.9456 22.6201 14.2096 22.9525 14.5762 22.9962C14.8346 23.0266 15.0872 22.9031 15.224 22.6828L20.5503 14.0132C20.6776 13.8061 20.6833 13.5478 20.5655 13.3369ZM15.6723 19.3946L16.0218 16.4161C16.0655 16.0495 15.8033 15.7171 15.4348 15.6734C15.4082 15.6696 15.3816 15.6696 15.3569 15.6696H11.8675L14.9314 10.687L14.5534 13.5763C14.5059 13.9429 14.7643 14.2791 15.1309 14.3266C15.1594 14.3304 15.1879 14.3323 15.2183 14.3323H18.7857L15.6723 19.3946Z" fill="#00199F"/>
</g>
<defs>
<clipPath id="clip0">
<rect width="10.6489" height="16" fill="white" transform="translate(10 7)"/>
</clipPath>
</defs>
</svg>
