<svg width="30" height="30" viewBox="0 0 30 30" fill="none" xmlns="http://www.w3.org/2000/svg">
<rect width="30" height="30" rx="12" fill="#F0F5FF"/>
<g clip-path="url(#clip0)">
<path d="M14.9996 7C12.2426 7 10 9.1549 10 11.8041C10 12.612 10.2165 13.4146 10.6258 14.126C11.0194 14.8102 11.5844 15.3964 12.2616 15.8238V19.0828C12.2616 19.735 12.8139 20.2658 13.4927 20.2658H13.7685V22.5406C13.7685 22.7935 13.9826 23 14.2465 23H15.7542C16.0174 23 16.2323 22.7942 16.2323 22.5406V20.2658H16.5081C17.1869 20.2658 17.7392 19.735 17.7392 19.0828V15.8238C18.4164 15.3971 18.9806 14.8109 19.3749 14.126C19.7843 13.4146 20.0008 12.612 20.0008 11.8041C20 9.1549 17.7566 7 14.9996 7ZM15.2762 20.2658V22.0812H14.7246V20.2658H15.2762ZM13.2169 15.0068H13.996C14.2126 15.0068 14.3959 14.8671 14.4544 14.6765C14.5128 14.8671 14.6962 15.0068 14.9127 15.0068H14.9198C15.1829 15.0068 15.3979 14.8011 15.3979 14.5475C15.3979 14.2938 15.1837 14.0881 14.9127 14.0881C14.6962 14.0881 14.5128 14.2278 14.4544 14.4184C14.3959 14.2278 14.2126 14.0881 13.996 14.0881H13.2169V13.7122H16.7831V19.0828C16.7831 19.2293 16.659 19.3478 16.5073 19.3478H13.4927C13.3402 19.3478 13.2169 19.2285 13.2169 19.0828V15.0068ZM17.2612 12.7935H12.7388C12.4757 12.7935 12.2608 12.9992 12.2608 13.2528V14.6621C11.4405 13.9309 10.9554 12.8747 10.9554 11.8041C10.9554 9.66135 12.7697 7.918 14.9996 7.918C17.2295 7.918 19.0438 9.66135 19.0438 11.8041C19.0438 12.8747 18.5587 13.9309 17.7384 14.6621V13.2528C17.7384 13 17.5243 12.7935 17.2612 12.7935Z" fill="#00199F"/>
<path d="M18.8702 11.8042C18.8702 11.7951 18.8702 11.786 18.8694 11.7807C18.8559 9.74349 17.1206 8.08594 14.9997 8.08594C12.8662 8.08594 11.1301 9.75412 11.1301 11.8042C11.1301 12.0571 11.3443 12.2636 11.6082 12.2636H18.3921C18.656 12.2636 18.8702 12.0578 18.8702 11.8042ZM14.9997 9.71616C14.7366 9.71616 14.5217 9.92193 14.5217 10.1755V11.3456H12.125C12.3549 10.0047 13.575 9.00469 14.9997 9.00469C16.4245 9.00469 17.6445 10.0047 17.8745 11.3456H15.4778V10.1748C15.4778 9.92193 15.2637 9.71616 14.9997 9.71616Z" fill="#00199F"/>
<path d="M14.9997 18.6541C15.6785 18.6541 16.2308 18.1233 16.2308 17.4711C16.2308 16.8188 15.6785 16.2881 14.9997 16.2881C14.3209 16.2881 13.7686 16.8188 13.7686 17.4711C13.7686 18.1233 14.3209 18.6541 14.9997 18.6541ZM14.7239 17.4711C14.7239 17.3245 14.848 17.2061 14.9997 17.2061C15.1514 17.2061 15.2755 17.3253 15.2755 17.4711C15.2755 17.6169 15.1514 17.7361 14.9997 17.7361C14.848 17.7361 14.7239 17.6169 14.7239 17.4711Z" fill="#00199F"/>
</g>
<defs>
<clipPath id="clip0">
<rect width="10" height="16" fill="white" transform="translate(10 7)"/>
</clipPath>
</defs>
</svg>
