<svg width="30" height="30" viewBox="0 0 30 30" fill="none" xmlns="http://www.w3.org/2000/svg">
<rect width="30" height="30" rx="12" fill="#F0F5FF"/>
<path d="M19.9031 9.06437V7H7V20.6775C7 21.9581 8.04188 23 9.3225 23H20.6772C21.9578 23 22.9997 21.9581 22.9997 20.6775V9.06437H19.9031ZM9.3225 21.4516C8.89562 21.4516 8.54844 21.1044 8.54844 20.6775V8.54844H18.355V20.6775C18.355 20.9487 18.4022 21.2094 18.4881 21.4516H9.3225ZM21.4516 20.6775C21.4516 21.1044 21.1044 21.4516 20.6775 21.4516C20.2506 21.4516 19.9034 21.1044 19.9034 20.6775V10.6128H21.4519V20.6775H21.4516Z" fill="#00199F"/>
<path d="M16.8034 10.1089H10.0938V11.7281H16.8034V10.1089Z" fill="#00199F"/>
<path d="M16.8034 13.4995H10.0938V15.0479H16.8034V13.4995Z" fill="#00199F"/>
<path d="M16.8034 16.8125H10.0938V18.3609H16.8034V16.8125Z" fill="#00199F"/>
</svg>
