<svg width="251" height="240" viewBox="0 0 251 240" fill="none" xmlns="http://www.w3.org/2000/svg">
<g clip-path="url(#clip0_1_508)">
<path d="M159.689 10.0944C147.33 17.471 137.429 28.3419 125.653 36.6891C110.705 47.3012 93.0401 53.5131 75.1808 57.9779C52.9861 63.5427 28.3326 67.5546 13.3852 84.8962C0.573089 99.8436 -1.69167 121.456 1.60841 140.803C16.75 230.617 161.371 225.57 206.925 166.363C231.191 134.85 278.362 35.5244 226.985 6.60016C224.72 5.30601 222.261 4.27069 219.737 3.42949C200.713 -2.97655 176.901 -0.194125 159.689 10.0944Z" fill="#179A6B"/>
<path opacity="0.7" d="M159.689 10.0944C147.33 17.471 137.429 28.3419 125.653 36.6891C110.705 47.3012 93.0401 53.5131 75.1808 57.9779C52.9861 63.5427 28.3326 67.5546 13.3852 84.8962C0.573089 99.8436 -1.69167 121.456 1.60841 140.803C16.75 230.617 161.371 225.57 206.925 166.363C231.191 134.85 278.362 35.5244 226.985 6.60016C224.72 5.30601 222.261 4.27069 219.737 3.42949C200.713 -2.97655 176.901 -0.194125 159.689 10.0944Z" fill="white"/>
<path d="M223.102 177.751C223.102 177.751 224.655 175.875 224.72 175.745C225.69 174.193 226.596 170.698 225.302 169.145C224.396 168.175 222.908 168.045 221.937 168.951C221.873 169.016 221.808 169.081 221.743 169.145C220.773 170.181 220.643 171.928 220.837 173.287C221.161 174.775 223.102 177.751 223.102 177.751Z" fill="#179A6B"/>
<path d="M238.503 170.439C238.438 170.375 238.373 170.31 238.308 170.31C236.561 169.275 233.261 170.828 231.902 172.057C231.773 172.187 230.155 173.998 230.155 173.998H230.22C229.702 174.257 229.12 174.516 228.538 174.775C227.438 175.357 226.143 176.004 224.849 176.781C223.426 177.622 222.002 178.528 220.708 179.563C219.22 180.663 217.861 181.893 216.567 183.252L217.537 181.116C218.055 179.369 218.055 175.745 216.373 174.581C215.273 173.869 213.784 174.193 213.072 175.293C213.008 175.357 213.008 175.422 212.943 175.551C212.231 176.781 212.62 178.528 213.202 179.757C213.849 181.181 216.308 183.316 216.502 183.51C215.273 184.934 214.108 186.422 213.008 187.975C212.361 188.881 211.778 189.852 211.196 190.758L211.649 189.787C212.167 188.04 212.167 184.416 210.484 183.252C209.384 182.54 207.896 182.863 207.184 183.963L207.055 184.157C206.343 185.387 206.731 187.134 207.249 188.363C207.831 189.593 209.902 191.534 210.419 192.052L209.772 193.152C208.737 194.899 207.702 196.646 206.602 198.328C206.213 198.911 205.825 199.493 205.437 200.076L205.825 199.234C206.343 197.487 206.343 193.864 204.661 192.699C203.56 191.987 202.072 192.311 201.36 193.411C201.296 193.475 201.296 193.54 201.231 193.605C200.519 194.834 200.907 196.581 201.425 197.811C202.007 199.04 203.884 200.787 204.531 201.37C204.143 201.952 203.69 202.534 203.237 203.052C202.913 203.44 202.655 203.764 202.331 204.152C202.007 204.476 201.684 204.864 201.425 205.187C200.778 205.834 200.196 206.482 199.549 207.129C199.096 207.582 198.707 207.97 198.254 208.358C198.643 207.776 199.354 206.611 199.419 206.482C200.066 204.993 200.325 203.44 200.131 201.823C200.196 201.693 200.26 201.499 200.325 201.305C200.713 200.011 200.002 198.717 198.707 198.328C198.643 198.328 198.513 198.264 198.449 198.264C196.443 197.94 193.919 200.593 193.078 202.211C193.013 202.34 192.625 203.376 192.366 204.087C192.431 203.634 192.56 203.246 192.625 202.793C192.819 201.952 192.948 201.046 193.078 200.076C193.143 199.623 193.207 199.17 193.272 198.717C193.337 198.264 193.337 197.746 193.401 197.293C193.466 196.193 193.531 195.028 193.531 193.864C194.307 193.993 197.025 194.446 198.319 194.187C199.613 193.864 201.231 193.087 201.813 191.793C202.396 190.628 201.878 189.14 200.713 188.558C200.649 188.493 200.584 188.493 200.455 188.493C198.513 187.846 195.601 190.111 194.566 191.534C194.501 191.664 193.854 192.764 193.531 193.411C193.531 192.699 193.531 192.052 193.466 191.34C193.401 189.334 193.272 187.263 193.078 185.193L192.948 183.316C193.207 183.381 196.443 184.028 197.931 183.64C199.225 183.316 200.843 182.54 201.425 181.246C202.007 180.016 201.425 178.593 200.26 178.075C200.131 178.01 199.937 177.946 199.743 177.881C197.802 177.234 194.89 179.499 193.854 180.922C193.79 181.052 192.884 182.669 192.625 183.122C192.56 181.763 192.496 180.404 192.496 179.046C192.496 177.234 192.56 175.357 192.754 173.545C192.884 173.61 196.249 174.257 197.737 173.869C199.031 173.545 200.649 172.769 201.231 171.475C201.813 170.31 201.296 168.822 200.131 168.239C200.066 168.175 200.002 168.175 199.872 168.175C197.931 167.528 195.019 169.792 193.984 171.216C193.919 171.345 193.207 172.575 192.884 173.157L192.754 173.092C193.013 171.281 193.401 169.469 193.984 167.722C194.307 166.751 194.631 165.845 195.019 165.004C195.666 165.198 198.449 166.039 199.872 165.845C201.296 165.651 202.849 165.069 203.625 163.839C204.337 162.739 203.949 161.251 202.849 160.539C202.784 160.475 202.719 160.475 202.655 160.41C200.778 159.569 197.672 161.445 196.443 162.804C196.378 162.869 195.796 163.71 195.343 164.292L195.86 163.128C196.507 161.704 197.154 160.475 197.737 159.375C198.06 158.727 198.384 158.21 198.707 157.692C199.419 157.563 202.202 156.98 203.366 156.204C204.531 155.427 205.696 154.133 205.761 152.71C205.89 151.415 204.919 150.251 203.56 150.121C203.496 150.121 203.366 150.121 203.302 150.121C201.296 150.251 199.354 153.357 198.902 155.104C198.837 155.233 198.513 157.692 198.578 157.692C198.254 158.21 197.931 158.727 197.607 159.31C196.96 160.41 196.313 161.639 195.601 162.998C195.343 163.516 195.084 164.033 194.89 164.551C194.437 165.522 194.048 166.557 193.66 167.592C193.013 169.339 192.56 171.151 192.237 172.963V173.028C192.172 172.445 191.848 170.828 191.848 170.698C191.331 168.951 189.325 165.91 187.254 165.845C185.895 165.845 184.86 166.945 184.86 168.304C184.86 168.369 184.86 168.498 184.86 168.563C185.054 169.922 186.284 171.216 187.448 171.928C188.742 172.769 192.043 173.222 192.301 173.222C192.043 175.098 191.913 176.975 191.848 178.851C191.848 179.951 191.848 181.052 191.913 182.152C191.848 181.634 191.719 181.181 191.719 181.116C191.201 179.369 189.195 176.328 187.125 176.263C185.766 176.263 184.731 177.363 184.731 178.657C184.731 178.722 184.731 178.851 184.731 178.916C184.86 180.34 186.089 181.569 187.254 182.281C188.419 182.993 191.201 183.446 191.978 183.51C191.978 183.963 191.978 184.352 192.043 184.805C192.107 186.875 192.237 188.881 192.237 190.887C192.237 191.599 192.237 192.311 192.237 193.022C192.172 192.569 192.107 192.181 192.107 192.116C191.59 190.369 189.584 187.328 187.513 187.263C186.219 187.263 185.119 188.363 185.119 189.658C185.119 189.787 185.119 189.852 185.119 189.981C185.248 191.405 186.478 192.634 187.642 193.346C188.807 194.058 191.331 194.511 192.172 194.64C192.172 195.352 192.107 196.064 192.043 196.775C191.978 197.228 191.978 197.681 191.913 198.199C191.848 198.652 191.784 199.105 191.719 199.558C191.525 200.464 191.395 201.37 191.201 202.211C191.072 202.793 190.943 203.376 190.813 203.958C190.813 203.246 190.748 201.887 190.748 201.758C190.49 199.946 188.937 196.646 186.931 196.322C185.637 196.128 184.407 197.099 184.213 198.393C184.213 198.458 184.213 198.523 184.213 198.652C184.084 200.076 185.184 201.499 186.154 202.405C187.254 203.376 190.295 204.281 190.684 204.411C190.49 205.317 190.231 206.287 190.037 207.129C189.26 210.105 188.548 212.499 188.031 214.246C187.966 214.441 187.901 214.699 187.837 214.829L189.066 215.411C189.131 215.152 189.195 214.894 189.325 214.635C189.843 212.888 190.49 210.429 191.201 207.387C191.395 206.417 191.654 205.446 191.848 204.346C192.884 204.411 193.919 204.346 194.89 204.281C195.407 205.705 197.284 208.035 197.543 208.293C196.831 208.94 196.184 209.587 195.537 210.17C193.272 212.241 191.331 213.858 189.907 215.023C189.713 215.217 189.519 215.346 189.325 215.476L190.748 216.123L190.813 216.058C192.172 214.894 194.113 213.211 196.378 211.076C197.09 210.429 197.866 209.652 198.578 208.94C198.902 209.199 201.49 211.011 202.913 211.335C204.272 211.593 206.019 211.593 207.055 210.623C208.09 209.782 208.219 208.229 207.378 207.258C207.314 207.193 207.249 207.129 207.184 207.064C205.696 205.705 202.137 206.482 200.519 207.387C200.455 207.452 199.484 208.099 198.902 208.552C199.225 208.229 199.484 207.97 199.807 207.646C200.455 206.999 201.037 206.352 201.684 205.64C202.007 205.317 202.266 204.929 202.59 204.605C202.913 204.217 203.172 203.829 203.496 203.505C204.208 202.599 204.855 201.693 205.502 200.723C206.084 201.24 208.09 203.181 209.384 203.634C210.678 204.087 212.425 204.346 213.655 203.57C214.82 202.923 215.208 201.434 214.496 200.27C214.431 200.205 214.431 200.14 214.367 200.076C213.072 198.458 209.449 198.717 207.766 199.364C207.637 199.428 206.472 200.011 205.89 200.334C206.278 199.752 206.666 199.17 206.99 198.587C208.025 196.84 209.061 195.093 210.031 193.281C210.355 192.699 210.678 192.181 211.002 191.664C211.196 191.858 213.525 194.187 214.949 194.705C216.243 195.158 217.99 195.417 219.22 194.64C220.384 193.993 220.773 192.505 220.061 191.34C219.996 191.275 219.996 191.211 219.931 191.146C218.637 189.593 215.014 189.787 213.331 190.434C213.202 190.499 211.519 191.34 211.131 191.599C211.843 190.434 212.555 189.205 213.267 188.105C214.237 186.552 215.337 185.063 216.502 183.64C216.567 183.705 219.026 186.163 220.514 186.681C221.808 187.134 223.555 187.393 224.785 186.616C225.949 185.969 226.273 184.481 225.626 183.316C225.561 183.252 225.561 183.187 225.496 183.122C224.202 181.504 220.579 181.763 218.896 182.41C218.767 182.475 217.537 183.122 216.89 183.446L216.826 183.381C218.055 182.022 219.414 180.728 220.837 179.628C221.614 178.981 222.39 178.398 223.232 177.881C223.62 178.398 225.561 180.663 226.79 181.246C228.02 181.893 229.702 182.281 230.996 181.634C232.226 181.116 232.744 179.693 232.161 178.463C232.096 178.398 232.096 178.334 232.032 178.204C230.932 176.457 227.308 176.328 225.561 176.781C225.496 176.781 224.526 177.169 223.814 177.428C224.202 177.169 224.526 176.975 224.914 176.716C226.208 175.875 227.438 175.228 228.538 174.645C229.185 174.322 229.767 174.063 230.285 173.74C230.932 174.063 233.585 175.098 235.008 175.098C236.367 175.098 238.05 174.645 238.955 173.481C239.732 172.769 239.538 171.281 238.503 170.439Z" fill="#179A6B"/>
<path d="M190.554 162.286C191.654 163.451 194.89 164.875 194.89 164.875C194.89 164.875 195.149 162.48 195.149 162.286C195.149 160.475 193.984 156.98 192.043 156.398C190.748 156.074 189.454 156.851 189.066 158.145C189.066 158.21 189.001 158.275 189.001 158.404C188.742 159.763 189.648 161.316 190.554 162.286Z" fill="#179A6B"/>
<path opacity="0.5" d="M238.503 170.439C238.438 170.375 238.373 170.31 238.308 170.31C236.561 169.275 233.261 170.828 231.902 172.057C231.773 172.187 230.155 173.998 230.155 173.998H230.22C229.702 174.257 229.12 174.516 228.538 174.775C227.438 175.357 226.143 176.004 224.849 176.781C223.426 177.622 222.002 178.528 220.708 179.563C219.22 180.663 217.861 181.893 216.567 183.252L217.537 181.116C218.055 179.369 218.055 175.745 216.373 174.581C215.273 173.869 213.784 174.193 213.072 175.293C213.008 175.357 213.008 175.422 212.943 175.551C212.231 176.781 212.62 178.528 213.202 179.757C213.849 181.181 216.308 183.316 216.502 183.51C215.273 184.934 214.108 186.422 213.008 187.975C212.361 188.881 211.778 189.852 211.196 190.758L211.649 189.787C212.167 188.04 212.167 184.416 210.484 183.252C209.384 182.54 207.896 182.863 207.184 183.963L207.055 184.157C206.343 185.387 206.731 187.134 207.249 188.363C207.831 189.593 209.902 191.534 210.419 192.052L209.772 193.152C208.737 194.899 207.702 196.646 206.602 198.328C206.213 198.911 205.825 199.493 205.437 200.076L205.825 199.234C206.343 197.487 206.343 193.864 204.661 192.699C203.56 191.987 202.072 192.311 201.36 193.411C201.296 193.475 201.296 193.54 201.231 193.605C200.519 194.834 200.907 196.581 201.425 197.811C202.007 199.04 203.884 200.787 204.531 201.37C204.143 201.952 203.69 202.534 203.237 203.052C202.913 203.44 202.655 203.764 202.331 204.152C202.007 204.476 201.684 204.864 201.425 205.187C200.778 205.834 200.196 206.482 199.549 207.129C199.096 207.582 198.707 207.97 198.254 208.358C198.643 207.776 199.354 206.611 199.419 206.482C200.066 204.993 200.325 203.44 200.131 201.823C200.196 201.693 200.26 201.499 200.325 201.305C200.713 200.011 200.002 198.717 198.707 198.328C198.643 198.328 198.513 198.264 198.449 198.264C196.443 197.94 193.919 200.593 193.078 202.211C193.013 202.34 192.625 203.376 192.366 204.087C192.431 203.634 192.56 203.246 192.625 202.793C192.819 201.952 192.948 201.046 193.078 200.076C193.143 199.623 193.207 199.17 193.272 198.717C193.337 198.264 193.337 197.746 193.401 197.293C193.466 196.193 193.531 195.028 193.531 193.864C194.307 193.993 197.025 194.446 198.319 194.187C199.613 193.864 201.231 193.087 201.813 191.793C202.396 190.628 201.878 189.14 200.713 188.558C200.649 188.493 200.584 188.493 200.455 188.493C198.513 187.846 195.601 190.111 194.566 191.534C194.501 191.664 193.854 192.764 193.531 193.411C193.531 192.699 193.531 192.052 193.466 191.34C193.401 189.334 193.272 187.263 193.078 185.193L192.948 183.316C193.207 183.381 196.443 184.028 197.931 183.64C199.225 183.316 200.843 182.54 201.425 181.246C202.007 180.016 201.425 178.593 200.26 178.075C200.131 178.01 199.937 177.946 199.743 177.881C197.802 177.234 194.89 179.499 193.854 180.922C193.79 181.052 192.884 182.669 192.625 183.122C192.56 181.763 192.496 180.404 192.496 179.046C192.496 177.234 192.56 175.357 192.754 173.545C192.884 173.61 196.249 174.257 197.737 173.869C199.031 173.545 200.649 172.769 201.231 171.475C201.813 170.31 201.296 168.822 200.131 168.239C200.066 168.175 200.002 168.175 199.872 168.175C197.931 167.528 195.019 169.792 193.984 171.216C193.919 171.345 193.207 172.575 192.884 173.157L192.754 173.092C193.013 171.281 193.401 169.469 193.984 167.722C194.307 166.751 194.631 165.845 195.019 165.004C195.666 165.198 198.449 166.039 199.872 165.845C201.296 165.651 202.849 165.069 203.625 163.839C204.337 162.739 203.949 161.251 202.849 160.539C202.784 160.475 202.719 160.475 202.655 160.41C200.778 159.569 197.672 161.445 196.443 162.804C196.378 162.869 195.796 163.71 195.343 164.292L195.86 163.128C196.507 161.704 197.154 160.475 197.737 159.375C198.06 158.727 198.384 158.21 198.707 157.692C199.419 157.563 202.202 156.98 203.366 156.204C204.531 155.427 205.696 154.133 205.761 152.71C205.89 151.415 204.919 150.251 203.56 150.121C203.496 150.121 203.366 150.121 203.302 150.121C201.296 150.251 199.354 153.357 198.902 155.104C198.837 155.233 198.513 157.692 198.578 157.692C198.254 158.21 197.931 158.727 197.607 159.31C196.96 160.41 196.313 161.639 195.601 162.998C195.343 163.516 195.084 164.033 194.89 164.551C194.437 165.522 194.048 166.557 193.66 167.592C193.013 169.339 192.56 171.151 192.237 172.963V173.028C192.172 172.445 191.848 170.828 191.848 170.698C191.331 168.951 189.325 165.91 187.254 165.845C185.895 165.845 184.86 166.945 184.86 168.304C184.86 168.369 184.86 168.498 184.86 168.563C185.054 169.922 186.284 171.216 187.448 171.928C188.742 172.769 192.043 173.222 192.301 173.222C192.043 175.098 191.913 176.975 191.848 178.851C191.848 179.951 191.848 181.052 191.913 182.152C191.848 181.634 191.719 181.181 191.719 181.116C191.201 179.369 189.195 176.328 187.125 176.263C185.766 176.263 184.731 177.363 184.731 178.657C184.731 178.722 184.731 178.851 184.731 178.916C184.86 180.34 186.089 181.569 187.254 182.281C188.419 182.993 191.201 183.446 191.978 183.51C191.978 183.963 191.978 184.352 192.043 184.805C192.107 186.875 192.237 188.881 192.237 190.887C192.237 191.599 192.237 192.311 192.237 193.022C192.172 192.569 192.107 192.181 192.107 192.116C191.59 190.369 189.584 187.328 187.513 187.263C186.219 187.263 185.119 188.363 185.119 189.658C185.119 189.787 185.119 189.852 185.119 189.981C185.248 191.405 186.478 192.634 187.642 193.346C188.807 194.058 191.331 194.511 192.172 194.64C192.172 195.352 192.107 196.064 192.043 196.775C191.978 197.228 191.978 197.681 191.913 198.199C191.848 198.652 191.784 199.105 191.719 199.558C191.525 200.464 191.395 201.37 191.201 202.211C191.072 202.793 190.943 203.376 190.813 203.958C190.813 203.246 190.748 201.887 190.748 201.758C190.49 199.946 188.937 196.646 186.931 196.322C185.637 196.128 184.407 197.099 184.213 198.393C184.213 198.458 184.213 198.523 184.213 198.652C184.084 200.076 185.184 201.499 186.154 202.405C187.254 203.376 190.295 204.281 190.684 204.411C190.49 205.317 190.231 206.287 190.037 207.129C189.26 210.105 188.548 212.499 188.031 214.246C187.966 214.441 187.901 214.699 187.837 214.829L189.066 215.411C189.131 215.152 189.195 214.894 189.325 214.635C189.843 212.888 190.49 210.429 191.201 207.387C191.395 206.417 191.654 205.446 191.848 204.346C192.884 204.411 193.919 204.346 194.89 204.281C195.407 205.705 197.284 208.035 197.543 208.293C196.831 208.94 196.184 209.587 195.537 210.17C193.272 212.241 191.331 213.858 189.907 215.023C189.713 215.217 189.519 215.346 189.325 215.476L190.748 216.123L190.813 216.058C192.172 214.894 194.113 213.211 196.378 211.076C197.09 210.429 197.866 209.652 198.578 208.94C198.902 209.199 201.49 211.011 202.913 211.335C204.272 211.593 206.019 211.593 207.055 210.623C208.09 209.782 208.219 208.229 207.378 207.258C207.314 207.193 207.249 207.129 207.184 207.064C205.696 205.705 202.137 206.482 200.519 207.387C200.455 207.452 199.484 208.099 198.902 208.552C199.225 208.229 199.484 207.97 199.807 207.646C200.455 206.999 201.037 206.352 201.684 205.64C202.007 205.317 202.266 204.929 202.59 204.605C202.913 204.217 203.172 203.829 203.496 203.505C204.208 202.599 204.855 201.693 205.502 200.723C206.084 201.24 208.09 203.181 209.384 203.634C210.678 204.087 212.425 204.346 213.655 203.57C214.82 202.923 215.208 201.434 214.496 200.27C214.431 200.205 214.431 200.14 214.367 200.076C213.072 198.458 209.449 198.717 207.766 199.364C207.637 199.428 206.472 200.011 205.89 200.334C206.278 199.752 206.666 199.17 206.99 198.587C208.025 196.84 209.061 195.093 210.031 193.281C210.355 192.699 210.678 192.181 211.002 191.664C211.196 191.858 213.525 194.187 214.949 194.705C216.243 195.158 217.99 195.417 219.22 194.64C220.384 193.993 220.773 192.505 220.061 191.34C219.996 191.275 219.996 191.211 219.931 191.146C218.637 189.593 215.014 189.787 213.331 190.434C213.202 190.499 211.519 191.34 211.131 191.599C211.843 190.434 212.555 189.205 213.267 188.105C214.237 186.552 215.337 185.063 216.502 183.64C216.567 183.705 219.026 186.163 220.514 186.681C221.808 187.134 223.555 187.393 224.785 186.616C225.949 185.969 226.273 184.481 225.626 183.316C225.561 183.252 225.561 183.187 225.496 183.122C224.202 181.504 220.579 181.763 218.896 182.41C218.767 182.475 217.537 183.122 216.89 183.446L216.826 183.381C218.055 182.022 219.414 180.728 220.837 179.628C221.614 178.981 222.39 178.398 223.232 177.881C223.62 178.398 225.561 180.663 226.79 181.246C228.02 181.893 229.702 182.281 230.996 181.634C232.226 181.116 232.744 179.693 232.161 178.463C232.096 178.398 232.096 178.334 232.032 178.204C230.932 176.457 227.308 176.328 225.561 176.781C225.496 176.781 224.526 177.169 223.814 177.428C224.202 177.169 224.526 176.975 224.914 176.716C226.208 175.875 227.438 175.228 228.538 174.645C229.185 174.322 229.767 174.063 230.285 173.74C230.932 174.063 233.585 175.098 235.008 175.098C236.367 175.098 238.05 174.645 238.955 173.481C239.732 172.769 239.538 171.281 238.503 170.439Z" fill="#179A6B"/>
<path opacity="0.3" d="M223.102 177.751C223.102 177.751 224.655 175.875 224.72 175.745C225.69 174.193 226.596 170.698 225.302 169.145C224.396 168.175 222.908 168.045 221.937 168.951C221.873 169.016 221.808 169.081 221.743 169.145C220.773 170.181 220.643 171.928 220.837 173.287C221.161 174.775 223.102 177.751 223.102 177.751Z" fill="#179A6B"/>
<path opacity="0.3" d="M190.554 162.286C191.654 163.451 194.89 164.875 194.89 164.875C194.89 164.875 195.149 162.48 195.149 162.286C195.149 160.475 193.984 156.98 192.043 156.398C190.748 156.074 189.454 156.851 189.066 158.145C189.066 158.21 189.001 158.275 189.001 158.404C188.742 159.763 189.648 161.316 190.554 162.286Z" fill="#179A6B"/>
<path d="M36.3564 177.234C36.3564 177.234 36.0976 174.969 36.0976 174.84C35.7093 173.222 34.0269 170.245 32.0857 170.116C30.8563 170.051 29.8209 170.957 29.7562 172.187C29.7562 172.251 29.7562 172.381 29.7562 172.445C29.7562 173.804 30.8563 175.034 31.8916 175.745C33.121 176.587 36.3564 177.234 36.3564 177.234Z" fill="#179A6B"/>
<path d="M41.6624 162.222C41.5977 162.222 41.533 162.222 41.4035 162.286C39.5917 162.804 38.427 165.975 38.3623 167.657C38.3623 167.786 38.5564 170.116 38.5564 170.116H38.6211C38.427 170.634 38.2329 171.151 38.0388 171.734C37.7152 172.834 37.2623 174.063 36.9387 175.487C36.5505 176.975 36.2269 178.528 36.0328 180.016C35.774 181.763 35.7093 183.446 35.774 185.193L34.9975 183.187C34.221 181.699 31.7621 179.304 29.8856 179.628C28.6562 179.887 27.8797 181.052 28.1385 182.281C28.1385 182.346 28.2032 182.41 28.2032 182.54C28.5915 183.834 29.9503 184.74 31.1151 185.128C32.4739 185.646 35.5152 185.452 35.774 185.387C35.9034 187.134 36.0975 188.881 36.4858 190.628C36.6799 191.664 36.9387 192.634 37.1328 193.669L36.8093 192.764C36.0328 191.275 33.5739 188.881 31.6974 189.205C30.468 189.463 29.6915 190.628 29.9503 191.858L30.015 192.116C30.4033 193.411 31.7621 194.317 32.9269 194.769C34.0916 195.222 36.7446 195.093 37.4564 195.028L37.7152 196.193C38.1682 198.07 38.6858 199.881 39.0741 201.693C39.2035 202.34 39.3329 202.987 39.4623 203.634L39.1388 202.858C38.3623 201.37 35.9034 198.975 34.0269 199.299C32.7974 199.558 32.021 200.723 32.2798 201.952C32.2798 202.017 32.3445 202.081 32.3445 202.211C32.7327 203.505 34.0916 204.411 35.2563 204.864C36.4211 205.317 38.8152 205.187 39.6564 205.187C39.7859 205.834 39.8506 206.482 39.9153 207.129C39.98 207.582 40.0447 207.97 40.0447 208.423C40.0447 208.876 40.1094 209.329 40.1094 209.717C40.1094 210.558 40.1741 211.399 40.1741 212.24C40.1741 212.823 40.1741 213.341 40.1741 213.858C40.0447 213.211 39.7211 211.982 39.7211 211.852C39.1388 210.493 38.2976 209.264 37.1328 208.358C37.0681 208.229 37.0034 208.035 36.9387 207.905C36.3564 206.805 34.9975 206.417 33.8975 206.999C33.8328 207.064 33.7681 207.064 33.7034 207.129C32.1504 208.229 32.2151 211.658 32.7974 213.276C32.8622 213.341 33.2504 214.376 33.5739 214.958C33.3798 214.635 33.121 214.311 32.8622 213.923C32.4092 213.211 31.8915 212.564 31.3739 211.852C31.1151 211.529 30.8562 211.14 30.5974 210.817C30.3386 210.493 30.015 210.105 29.6915 209.782C28.9797 209.005 28.2679 208.229 27.4914 207.452C28.0738 207.064 30.2091 205.511 30.8562 204.476C31.5033 203.376 32.0857 201.823 31.568 200.593C31.1798 199.428 29.8856 198.846 28.7209 199.234C28.6562 199.234 28.5915 199.299 28.5268 199.299C26.8444 200.14 26.3914 203.57 26.6502 205.187C26.7149 205.252 26.9738 206.482 27.1679 207.129C26.7149 206.676 26.262 206.223 25.7443 205.77C24.3208 204.476 22.8972 203.246 21.4736 202.017L20.1795 200.852C20.3736 200.723 22.9619 198.975 23.6737 197.746C24.3208 196.646 24.8384 195.093 24.3855 193.864C23.9325 192.699 22.6384 192.116 21.4736 192.569C21.3442 192.634 21.1501 192.699 21.0207 192.828C19.3383 193.669 18.8853 197.099 19.1442 198.717C19.2089 198.846 19.6618 200.528 19.7912 200.981C18.8206 200.14 17.85 199.299 17.0088 198.393C15.7794 197.228 14.6146 195.934 13.5793 194.575C13.7087 194.511 16.3617 192.764 17.0735 191.469C17.7206 190.369 18.303 188.816 17.7853 187.587C17.3971 186.422 16.1029 185.84 14.9382 186.228C14.8735 186.228 14.8088 186.293 14.7441 186.293C13.0617 187.134 12.6087 190.563 12.9323 192.181C12.997 192.311 13.3205 193.605 13.5146 194.187L13.4499 194.252C12.4146 192.893 11.5087 191.469 10.7322 189.916C10.2792 189.075 9.95571 188.234 9.56746 187.458C10.0851 187.199 12.4793 185.84 13.3205 184.805C14.097 183.769 14.8088 182.346 14.4205 181.051C14.1617 179.822 12.9323 179.11 11.7028 179.369C11.6381 179.369 11.5734 179.434 11.5087 179.434C9.76159 180.146 8.92039 183.446 9.0498 185.128C9.11451 185.193 9.24393 186.163 9.30863 186.81L8.85568 185.71C8.33802 184.352 7.94978 183.122 7.62624 182.022C7.43212 181.375 7.3027 180.793 7.17329 180.275C7.56153 179.693 9.0498 177.493 9.24393 176.198C9.43805 174.904 9.43805 173.287 8.53214 172.316C7.75565 171.41 6.33209 171.281 5.36148 172.057C5.29677 172.122 5.23206 172.187 5.16736 172.251C3.93791 173.675 4.7144 176.975 5.5556 178.463C5.62031 178.593 6.97917 180.404 7.04387 180.404C7.17329 180.922 7.3027 181.504 7.49682 182.087C7.82036 183.187 8.1439 184.481 8.66156 185.84C8.85568 186.358 9.0498 186.81 9.24393 187.328C9.63217 188.299 10.0204 189.205 10.4734 190.111C11.1852 191.664 12.0911 193.152 13.1264 194.575V194.64C12.6734 194.317 11.3793 193.411 11.3146 193.346C9.82629 192.569 6.46151 191.858 5.10265 193.217C4.26145 194.122 4.26145 195.546 5.16736 196.387C5.23206 196.452 5.29677 196.517 5.36148 196.517C6.3968 197.293 8.01448 197.293 9.24393 197.034C10.6675 196.711 13.0617 194.834 13.2558 194.705C14.2911 196.128 15.4558 197.422 16.6853 198.717C17.3971 199.428 18.1736 200.14 18.8853 200.852C18.4971 200.593 18.1088 200.334 18.1088 200.334C16.6206 199.558 13.2558 198.911 11.8969 200.205C11.0557 201.111 11.0557 202.534 11.9616 203.376C12.0263 203.44 12.0911 203.505 12.1558 203.57C13.1911 204.411 14.8088 204.411 16.0382 204.152C17.2677 203.893 19.403 202.34 19.9854 201.887C20.3089 202.146 20.5677 202.405 20.8913 202.664C22.3148 203.958 23.7384 205.252 25.0973 206.546C25.5502 206.999 26.0032 207.452 26.4561 207.905C26.1326 207.646 25.809 207.452 25.7443 207.387C24.2561 206.611 20.8913 205.964 19.5324 207.258C18.6912 208.164 18.6912 209.523 19.5324 210.429C19.5971 210.493 19.6618 210.558 19.7912 210.623C20.8266 211.464 22.4443 211.464 23.6737 211.205C24.9031 210.882 26.8444 209.523 27.4914 209.005C27.9444 209.523 28.3973 209.976 28.8503 210.493C29.1091 210.817 29.4327 211.14 29.6915 211.529C29.9503 211.917 30.2091 212.24 30.468 212.564C30.9209 213.276 31.4386 213.923 31.8915 214.635C32.2151 215.088 32.4739 215.541 32.7974 215.994C32.3445 215.541 31.3739 214.635 31.3092 214.57C29.9503 213.535 26.7149 212.435 25.2267 213.47C24.2561 214.246 24.0619 215.605 24.8384 216.641C24.9031 216.705 24.9031 216.77 24.9678 216.835C25.8737 217.805 27.4914 218.064 28.7209 217.999C30.0797 217.87 32.7327 216.511 33.0563 216.317C33.5092 217.094 34.0269 217.805 34.4151 218.517C35.9034 220.976 37.0034 223.047 37.7799 224.535C37.9093 224.729 37.974 224.923 38.0388 225.053L39.2035 224.6C39.0741 224.406 38.9447 224.147 38.8152 223.888C37.974 222.4 36.8093 220.329 35.2563 217.87C34.8034 217.094 34.221 216.317 33.7034 215.476C34.4151 214.829 35.0622 214.117 35.7093 213.405C37.0034 214.052 39.7211 214.311 40.1094 214.311C40.1094 215.217 40.0447 216.058 40.0447 216.899C39.9153 219.747 39.7211 222.076 39.527 223.758C39.4623 224.017 39.4623 224.211 39.4623 224.47L40.8212 223.953V223.888C40.9506 222.205 41.08 219.811 41.1447 216.964C41.1447 216.058 41.2094 215.088 41.1447 214.052C41.533 213.988 44.4448 213.47 45.6095 212.758C46.6448 212.046 47.8096 210.882 47.8743 209.523C48.0037 208.293 47.0978 207.193 45.8684 207.064C45.8036 207.064 45.7389 207.064 45.6095 207.064C43.733 207.129 41.9212 210.04 41.4682 211.658C41.4682 211.788 41.2741 212.823 41.1447 213.535C41.1447 213.146 41.1447 212.758 41.1447 212.305C41.1447 211.464 41.08 210.623 41.08 209.717C41.0153 209.264 41.0153 208.876 40.9506 208.423C40.8859 207.97 40.8212 207.517 40.8212 207.064C40.6918 206.029 40.4976 204.993 40.2388 203.893C40.9506 203.893 43.5389 203.764 44.7036 203.246C45.8684 202.728 47.1625 201.693 47.4213 200.399C47.7449 199.234 47.0331 198.005 45.8036 197.681C45.7389 197.681 45.6742 197.617 45.5448 197.617C43.6683 197.422 41.4035 199.946 40.7565 201.499C40.6918 201.564 40.3682 202.728 40.1741 203.376C40.0447 202.728 39.9153 202.146 39.7211 201.499C39.2682 199.687 38.7505 197.811 38.2329 195.999C38.1035 195.417 37.9093 194.899 37.7799 194.317C38.0387 194.317 41.08 194.252 42.3741 193.669C43.5389 193.152 44.833 192.116 45.0919 190.822C45.4154 189.593 44.7036 188.428 43.4742 188.105C43.4095 188.105 43.3448 188.04 43.2801 188.04C41.4035 187.846 39.1388 190.369 38.4917 191.922C38.427 192.052 37.9093 193.669 37.7799 194.122C37.4564 192.893 37.1328 191.664 36.874 190.434C36.4858 188.752 36.2269 187.069 36.0975 185.387C36.2269 185.387 39.3976 185.387 40.7565 184.74C41.9212 184.222 43.2154 183.187 43.4742 181.893C43.7977 180.663 43.0212 179.499 41.8565 179.175C41.7918 179.175 41.7271 179.11 41.5977 179.11C39.7211 178.916 37.4564 181.44 36.8093 182.993C36.7446 183.122 36.3564 184.352 36.1622 184.999H36.0328C35.9034 183.316 35.9681 181.569 36.1622 179.887C36.2916 178.916 36.4211 178.075 36.5505 177.169C37.1328 177.234 39.9153 177.428 41.1447 177.04C42.3742 176.651 43.733 175.81 44.186 174.516C44.6389 173.351 43.9918 172.057 42.8918 171.669C42.8271 171.669 42.7624 171.604 42.633 171.604C40.7565 171.216 38.2976 173.481 37.4564 174.969C37.3917 175.034 37.0681 175.875 36.7446 176.522C36.8093 176.134 36.874 175.745 37.0034 175.357C37.327 173.934 37.6505 172.704 38.0388 171.604C38.2329 170.957 38.427 170.375 38.6211 169.857C39.2682 169.598 41.7271 168.563 42.5683 167.657C43.4742 166.751 44.3154 165.328 44.0565 163.969C43.9918 162.933 42.8918 162.092 41.6624 162.222Z" fill="#179A6B"/>
<path d="M4.77909 188.622C6.26736 188.687 9.30861 187.393 9.30861 187.393C9.30861 187.393 7.88505 185.646 7.75564 185.516C6.52619 184.352 3.48494 182.863 1.80255 183.769C0.702521 184.416 0.378984 185.775 1.02606 186.875C1.09077 186.94 1.09077 187.005 1.15547 187.069C1.93196 188.169 3.48494 188.558 4.77909 188.622Z" fill="#179A6B"/>
<path opacity="0.5" d="M41.6624 162.222C41.5977 162.222 41.533 162.222 41.4035 162.286C39.5917 162.804 38.427 165.975 38.3623 167.657C38.3623 167.786 38.5564 170.116 38.5564 170.116H38.6211C38.427 170.634 38.2329 171.151 38.0388 171.734C37.7152 172.834 37.2623 174.063 36.9387 175.487C36.5505 176.975 36.2269 178.528 36.0328 180.016C35.774 181.763 35.7093 183.446 35.774 185.193L34.9975 183.187C34.221 181.699 31.7621 179.304 29.8856 179.628C28.6562 179.887 27.8797 181.052 28.1385 182.281C28.1385 182.346 28.2032 182.41 28.2032 182.54C28.5915 183.834 29.9503 184.74 31.1151 185.128C32.4739 185.646 35.5152 185.452 35.774 185.387C35.9034 187.134 36.0975 188.881 36.4858 190.628C36.6799 191.664 36.9387 192.634 37.1328 193.669L36.8093 192.764C36.0328 191.275 33.5739 188.881 31.6974 189.205C30.468 189.463 29.6915 190.628 29.9503 191.858L30.015 192.116C30.4033 193.411 31.7621 194.317 32.9269 194.769C34.0916 195.222 36.7446 195.093 37.4564 195.028L37.7152 196.193C38.1682 198.07 38.6858 199.881 39.0741 201.693C39.2035 202.34 39.3329 202.987 39.4623 203.634L39.1388 202.858C38.3623 201.37 35.9034 198.975 34.0269 199.299C32.7974 199.558 32.021 200.723 32.2798 201.952C32.2798 202.017 32.3445 202.081 32.3445 202.211C32.7327 203.505 34.0916 204.411 35.2563 204.864C36.4211 205.317 38.8152 205.187 39.6564 205.187C39.7859 205.834 39.8506 206.482 39.9153 207.129C39.98 207.582 40.0447 207.97 40.0447 208.423C40.0447 208.876 40.1094 209.329 40.1094 209.717C40.1094 210.558 40.1741 211.399 40.1741 212.24C40.1741 212.823 40.1741 213.341 40.1741 213.858C40.0447 213.211 39.7211 211.982 39.7211 211.852C39.1388 210.493 38.2976 209.264 37.1328 208.358C37.0681 208.229 37.0034 208.035 36.9387 207.905C36.3564 206.805 34.9975 206.417 33.8975 206.999C33.8328 207.064 33.7681 207.064 33.7034 207.129C32.1504 208.229 32.2151 211.658 32.7974 213.276C32.8622 213.341 33.2504 214.376 33.5739 214.958C33.3798 214.635 33.121 214.311 32.8622 213.923C32.4092 213.211 31.8915 212.564 31.3739 211.852C31.1151 211.529 30.8562 211.14 30.5974 210.817C30.3386 210.493 30.015 210.105 29.6915 209.782C28.9797 209.005 28.2679 208.229 27.4914 207.452C28.0738 207.064 30.2091 205.511 30.8562 204.476C31.5033 203.376 32.0857 201.823 31.568 200.593C31.1798 199.428 29.8856 198.846 28.7209 199.234C28.6562 199.234 28.5915 199.299 28.5268 199.299C26.8444 200.14 26.3914 203.57 26.6502 205.187C26.7149 205.252 26.9738 206.482 27.1679 207.129C26.7149 206.676 26.262 206.223 25.7443 205.77C24.3208 204.476 22.8972 203.246 21.4736 202.017L20.1795 200.852C20.3736 200.723 22.9619 198.975 23.6737 197.746C24.3208 196.646 24.8384 195.093 24.3855 193.864C23.9325 192.699 22.6384 192.116 21.4736 192.569C21.3442 192.634 21.1501 192.699 21.0207 192.828C19.3383 193.669 18.8853 197.099 19.1442 198.717C19.2089 198.846 19.6618 200.528 19.7912 200.981C18.8206 200.14 17.85 199.299 17.0088 198.393C15.7794 197.228 14.6146 195.934 13.5793 194.575C13.7087 194.511 16.3617 192.764 17.0735 191.469C17.7206 190.369 18.303 188.816 17.7853 187.587C17.3971 186.422 16.1029 185.84 14.9382 186.228C14.8735 186.228 14.8088 186.293 14.7441 186.293C13.0617 187.134 12.6087 190.563 12.9323 192.181C12.997 192.311 13.3205 193.605 13.5146 194.187L13.4499 194.252C12.4146 192.893 11.5087 191.469 10.7322 189.916C10.2792 189.075 9.95571 188.234 9.56746 187.458C10.0851 187.199 12.4793 185.84 13.3205 184.805C14.097 183.769 14.8088 182.346 14.4205 181.051C14.1617 179.822 12.9323 179.11 11.7028 179.369C11.6381 179.369 11.5734 179.434 11.5087 179.434C9.76159 180.146 8.92039 183.446 9.0498 185.128C9.11451 185.193 9.24393 186.163 9.30863 186.81L8.85568 185.71C8.33802 184.352 7.94978 183.122 7.62624 182.022C7.43212 181.375 7.3027 180.793 7.17329 180.275C7.56153 179.693 9.0498 177.493 9.24393 176.198C9.43805 174.904 9.43805 173.287 8.53214 172.316C7.75565 171.41 6.33209 171.281 5.36148 172.057C5.29677 172.122 5.23206 172.187 5.16736 172.251C3.93791 173.675 4.7144 176.975 5.5556 178.463C5.62031 178.593 6.97917 180.404 7.04387 180.404C7.17329 180.922 7.3027 181.504 7.49682 182.087C7.82036 183.187 8.1439 184.481 8.66156 185.84C8.85568 186.358 9.0498 186.81 9.24393 187.328C9.63217 188.299 10.0204 189.205 10.4734 190.111C11.1852 191.664 12.0911 193.152 13.1264 194.575V194.64C12.6734 194.317 11.3793 193.411 11.3146 193.346C9.82629 192.569 6.46151 191.858 5.10265 193.217C4.26145 194.122 4.26145 195.546 5.16736 196.387C5.23206 196.452 5.29677 196.517 5.36148 196.517C6.3968 197.293 8.01448 197.293 9.24393 197.034C10.6675 196.711 13.0617 194.834 13.2558 194.705C14.2911 196.128 15.4558 197.422 16.6853 198.717C17.3971 199.428 18.1736 200.14 18.8853 200.852C18.4971 200.593 18.1088 200.334 18.1088 200.334C16.6206 199.558 13.2558 198.911 11.8969 200.205C11.0557 201.111 11.0557 202.534 11.9616 203.376C12.0263 203.44 12.0911 203.505 12.1558 203.57C13.1911 204.411 14.8088 204.411 16.0382 204.152C17.2677 203.893 19.403 202.34 19.9854 201.887C20.3089 202.146 20.5677 202.405 20.8913 202.664C22.3148 203.958 23.7384 205.252 25.0973 206.546C25.5502 206.999 26.0032 207.452 26.4561 207.905C26.1326 207.646 25.809 207.452 25.7443 207.387C24.2561 206.611 20.8913 205.964 19.5324 207.258C18.6912 208.164 18.6912 209.523 19.5324 210.429C19.5971 210.493 19.6618 210.558 19.7912 210.623C20.8266 211.464 22.4443 211.464 23.6737 211.205C24.9031 210.882 26.8444 209.523 27.4914 209.005C27.9444 209.523 28.3973 209.976 28.8503 210.493C29.1091 210.817 29.4327 211.14 29.6915 211.529C29.9503 211.917 30.2091 212.24 30.468 212.564C30.9209 213.276 31.4386 213.923 31.8915 214.635C32.2151 215.088 32.4739 215.541 32.7974 215.994C32.3445 215.541 31.3739 214.635 31.3092 214.57C29.9503 213.535 26.7149 212.435 25.2267 213.47C24.2561 214.246 24.0619 215.605 24.8384 216.641C24.9031 216.705 24.9031 216.77 24.9678 216.835C25.8737 217.805 27.4914 218.064 28.7209 217.999C30.0797 217.87 32.7327 216.511 33.0563 216.317C33.5092 217.094 34.0269 217.805 34.4151 218.517C35.9034 220.976 37.0034 223.047 37.7799 224.535C37.9093 224.729 37.974 224.923 38.0388 225.053L39.2035 224.6C39.0741 224.406 38.9447 224.147 38.8152 223.888C37.974 222.4 36.8093 220.329 35.2563 217.87C34.8034 217.094 34.221 216.317 33.7034 215.476C34.4151 214.829 35.0622 214.117 35.7093 213.405C37.0034 214.052 39.7211 214.311 40.1094 214.311C40.1094 215.217 40.0447 216.058 40.0447 216.899C39.9153 219.747 39.7211 222.076 39.527 223.758C39.4623 224.017 39.4623 224.211 39.4623 224.47L40.8212 223.953V223.888C40.9506 222.205 41.08 219.811 41.1447 216.964C41.1447 216.058 41.2094 215.088 41.1447 214.052C41.533 213.988 44.4448 213.47 45.6095 212.758C46.6448 212.046 47.8096 210.882 47.8743 209.523C48.0037 208.293 47.0978 207.193 45.8684 207.064C45.8036 207.064 45.7389 207.064 45.6095 207.064C43.733 207.129 41.9212 210.04 41.4682 211.658C41.4682 211.788 41.2741 212.823 41.1447 213.535C41.1447 213.146 41.1447 212.758 41.1447 212.305C41.1447 211.464 41.08 210.623 41.08 209.717C41.0153 209.264 41.0153 208.876 40.9506 208.423C40.8859 207.97 40.8212 207.517 40.8212 207.064C40.6918 206.029 40.4976 204.993 40.2388 203.893C40.9506 203.893 43.5389 203.764 44.7036 203.246C45.8684 202.728 47.1625 201.693 47.4213 200.399C47.7449 199.234 47.0331 198.005 45.8036 197.681C45.7389 197.681 45.6742 197.617 45.5448 197.617C43.6683 197.422 41.4035 199.946 40.7565 201.499C40.6918 201.564 40.3682 202.728 40.1741 203.376C40.0447 202.728 39.9153 202.146 39.7211 201.499C39.2682 199.687 38.7505 197.811 38.2329 195.999C38.1035 195.417 37.9093 194.899 37.7799 194.317C38.0387 194.317 41.08 194.252 42.3741 193.669C43.5389 193.152 44.833 192.116 45.0919 190.822C45.4154 189.593 44.7036 188.428 43.4742 188.105C43.4095 188.105 43.3448 188.04 43.2801 188.04C41.4035 187.846 39.1388 190.369 38.4917 191.922C38.427 192.052 37.9093 193.669 37.7799 194.122C37.4564 192.893 37.1328 191.664 36.874 190.434C36.4858 188.752 36.2269 187.069 36.0975 185.387C36.2269 185.387 39.3976 185.387 40.7565 184.74C41.9212 184.222 43.2154 183.187 43.4742 181.893C43.7977 180.663 43.0212 179.499 41.8565 179.175C41.7918 179.175 41.7271 179.11 41.5977 179.11C39.7211 178.916 37.4564 181.44 36.8093 182.993C36.7446 183.122 36.3564 184.352 36.1622 184.999H36.0328C35.9034 183.316 35.9681 181.569 36.1622 179.887C36.2916 178.916 36.4211 178.075 36.5505 177.169C37.1328 177.234 39.9153 177.428 41.1447 177.04C42.3742 176.651 43.733 175.81 44.186 174.516C44.6389 173.351 43.9918 172.057 42.8918 171.669C42.8271 171.669 42.7624 171.604 42.633 171.604C40.7565 171.216 38.2976 173.481 37.4564 174.969C37.3917 175.034 37.0681 175.875 36.7446 176.522C36.8093 176.134 36.874 175.745 37.0034 175.357C37.327 173.934 37.6505 172.704 38.0388 171.604C38.2329 170.957 38.427 170.375 38.6211 169.857C39.2682 169.598 41.7271 168.563 42.5683 167.657C43.4742 166.751 44.3154 165.328 44.0565 163.969C43.9918 162.933 42.8918 162.092 41.6624 162.222Z" fill="#179A6B"/>
<path opacity="0.3" d="M36.3564 177.234C36.3564 177.234 36.0976 174.969 36.0976 174.84C35.7093 173.222 34.0269 170.245 32.0857 170.116C30.8563 170.051 29.8209 170.957 29.7562 172.187C29.7562 172.251 29.7562 172.381 29.7562 172.445C29.7562 173.804 30.8563 175.034 31.8916 175.745C33.121 176.587 36.3564 177.234 36.3564 177.234Z" fill="#179A6B"/>
<path opacity="0.3" d="M4.77909 188.622C6.26736 188.687 9.30861 187.393 9.30861 187.393C9.30861 187.393 7.88505 185.646 7.75564 185.516C6.52619 184.352 3.48494 182.863 1.80255 183.769C0.702521 184.416 0.378984 185.775 1.02606 186.875C1.09077 186.94 1.09077 187.005 1.15547 187.069C1.93196 188.169 3.48494 188.558 4.77909 188.622Z" fill="#179A6B"/>
<path d="M114.005 240C175.509 240 225.367 233.337 225.367 225.117C225.367 216.898 175.509 210.235 114.005 210.235C52.502 210.235 2.64374 216.898 2.64374 225.117C2.64374 233.337 52.502 240 114.005 240Z" fill="#179A6B"/>
<path opacity="0.5" d="M114.005 240C175.509 240 225.367 233.337 225.367 225.117C225.367 216.898 175.509 210.235 114.005 210.235C52.502 210.235 2.64374 216.898 2.64374 225.117C2.64374 233.337 52.502 240 114.005 240Z" fill="white"/>
<path d="M215.984 50.666L167.518 167.398C166.483 169.857 163.701 171.022 161.242 169.987L97.8931 143.651C95.4342 142.615 94.2695 139.833 95.3048 137.374L143.771 20.6417C144.806 18.1828 147.588 17.0181 150.047 18.0534L213.396 44.3246C215.855 45.4247 217.02 48.2071 215.984 50.666Z" fill="white" stroke="#263238" stroke-miterlimit="10"/>
<path d="M198.19 53.7719L195.86 59.3367C195.148 61.0191 193.207 61.7956 191.525 61.0838L153.477 45.2952C152.053 44.7128 151.277 43.2893 151.471 41.8657C151.471 41.5422 151.6 41.2833 151.73 40.9598L154.059 35.395C154.771 33.7126 156.712 32.9361 158.395 33.5832L196.443 49.3718C198.125 50.1483 198.901 52.0895 198.19 53.7719Z" fill="#179A6B"/>
<path d="M188.591 83.6625L140.242 63.5974L139.026 66.5258L187.375 86.5909L188.591 83.6625Z" fill="#263238"/>
<path d="M185.412 91.2159L137.063 71.1508L135.848 74.0792L184.197 94.1443L185.412 91.2159Z" fill="#263238"/>
<path d="M182.319 98.7343L133.97 78.6692L132.755 81.5976L181.103 101.663L182.319 98.7343Z" fill="#263238"/>
<path d="M179.201 106.312L130.852 86.2473L129.636 89.1757L177.985 109.241L179.201 106.312Z" fill="#263238"/>
<path d="M176.023 113.866L127.674 93.8007L126.458 96.7291L174.807 116.794L176.023 113.866Z" fill="#263238"/>
<path d="M172.929 121.384L124.58 101.319L123.365 104.247L171.714 124.312L172.929 121.384Z" fill="#263238"/>
<path d="M180.719 135.497L167.518 167.334C166.483 169.792 163.701 170.957 161.242 169.922L115.882 151.092C118.729 147.727 122.547 145.268 126.817 144.298C133.482 142.809 141.053 144.621 146.747 140.868C151.342 137.827 153.606 131.809 158.653 129.674C161.177 128.574 164.089 128.638 166.807 129.221C171.66 130.127 176.642 132.521 180.719 135.497Z" fill="#179A6B" stroke="#263238" stroke-miterlimit="10"/>
<path d="M150.63 30.8655C148.883 32.1596 147.718 34.1008 146.747 36.0421C144.483 40.6363 142.994 45.5541 140.73 50.1483C138.465 54.7425 135.165 59.0779 130.57 61.2133C129.276 61.7956 127.917 62.1839 126.494 62.378L143.835 20.6417C144.871 18.1828 147.653 17.0181 150.112 18.0534L161.177 22.6476C160.206 26.6595 154.059 28.3419 150.63 30.8655Z" fill="#179A6B" stroke="#263238" stroke-miterlimit="10"/>
<path opacity="0.1" d="M198.19 53.7719L195.86 59.3367C195.148 61.0191 193.207 61.7956 191.525 61.0838L153.477 45.2952C152.053 44.7129 151.277 43.2893 151.471 41.8657C153.477 41.8657 155.936 43.5481 157.553 44.1952C160.206 45.2952 162.859 46.3305 165.577 47.2364C174.054 50.213 183.372 52.6072 191.913 49.9542C192.884 49.6306 193.919 49.2424 194.825 48.7247L196.313 49.3718C198.125 50.1483 198.901 52.0895 198.19 53.7719Z" fill="black"/>
<path d="M198.19 53.7719L195.86 59.3367C195.148 61.0191 193.207 61.7956 191.525 61.0838L153.477 45.2952C152.053 44.7128 151.277 43.2893 151.471 41.8657C151.471 41.5422 151.6 41.2833 151.73 40.9598L154.059 35.395C154.771 33.7126 156.712 32.9361 158.395 33.5832L196.443 49.3718C198.125 50.1483 198.901 52.0895 198.19 53.7719Z" stroke="#263238" stroke-miterlimit="10"/>
<path d="M159.3 53.4484V214.376C159.3 217.999 156.389 220.911 152.765 220.911H72.5278C71.0395 220.911 69.6806 220.394 68.5806 219.552C67.0276 218.388 65.9923 216.446 65.9923 214.311V53.4484C65.9923 49.8247 68.9041 46.9129 72.5278 46.9129H152.7C156.389 46.9129 159.3 49.8247 159.3 53.4484Z" fill="#263238"/>
<path d="M161.954 53.4484V214.376C161.954 217.999 159.042 220.911 155.418 220.911H75.2455C73.7573 220.911 72.3984 220.394 71.2984 219.552C69.7454 218.388 68.7101 216.446 68.7101 214.311V53.4484C68.7101 49.8247 71.6219 46.9129 75.2455 46.9129H155.418C159.042 46.9129 161.954 49.8247 161.954 53.4484Z" fill="#263238"/>
<path d="M102.229 54.0955H123.906" stroke="white" stroke-width="2" stroke-miterlimit="10" stroke-linecap="round" stroke-linejoin="round"/>
<path opacity="0.1" d="M159.3 53.4484V214.376C159.3 217.999 156.389 220.911 152.765 220.911H72.5277C71.0394 220.911 69.6806 220.394 68.5806 219.552L138.594 46.9129H152.765C156.389 46.9129 159.3 49.8247 159.3 53.4484Z" fill="white"/>
<path d="M159.3 53.4484V214.376C159.3 217.999 156.389 220.911 152.765 220.911H72.5278C71.0395 220.911 69.6806 220.394 68.5806 219.552C67.0276 218.388 65.9923 216.446 65.9923 214.311V53.4484C65.9923 49.8247 68.9041 46.9129 72.5278 46.9129H152.7C156.389 46.9129 159.3 49.8247 159.3 53.4484Z" stroke="#263238" stroke-miterlimit="10"/>
<path d="M145.777 206.158H79.6456C75.0514 206.158 71.363 202.47 71.363 197.875V66.5193C71.363 61.925 75.0514 58.2367 79.6456 58.2367H145.712C150.306 58.2367 153.994 61.925 153.994 66.5193V197.875C154.059 202.47 150.306 206.158 145.777 206.158Z" fill="white" stroke="#263238" stroke-miterlimit="10"/>
<path d="M116.335 213.988C116.335 216.123 114.588 217.935 112.388 217.935C110.252 217.935 108.44 216.188 108.44 213.988C108.44 211.852 110.188 210.04 112.388 210.04C114.588 210.04 116.335 211.852 116.335 213.988Z" fill="#263238"/>
<path d="M139.435 217.547V210.429L146.488 213.988L139.435 217.547Z" fill="#263238"/>
<path d="M85.7281 210.817H79.322V217.223H85.7281V210.817Z" fill="#263238"/>
<path d="M136.265 97.32L135.229 95.12L132.512 95.5729L132.317 98.0318C131.476 98.3554 130.7 98.7436 129.988 99.2613L127.853 97.9671L125.976 99.9083L127.27 102.044C126.429 103.273 125.847 104.697 125.588 106.185L123.129 106.767V109.485L125.588 110.132C125.717 110.973 125.976 111.815 126.364 112.591L124.682 114.532L126.235 116.732L128.629 115.826C129.212 116.409 129.923 116.926 130.635 117.379L130.376 119.903L132.9 120.809L134.323 118.674C134.906 118.803 135.488 118.803 136.135 118.803C136.394 118.803 136.653 118.803 136.912 118.803L138.141 121.003L140.794 120.291L140.729 117.768C141.506 117.379 142.282 116.926 142.93 116.409L145.194 117.509L146.941 115.438L145.518 113.432C145.971 112.656 146.294 111.879 146.553 111.038L149.012 110.65L149.271 107.932L147.006 107.091C146.941 106.185 146.747 105.344 146.424 104.503L148.171 102.82L146.812 100.491L144.482 101.138C143.9 100.491 143.253 99.8436 142.541 99.326L142.994 96.9318L140.535 95.7671L138.982 97.6436C138.012 97.3848 137.106 97.32 136.265 97.32ZM136.2 101.332C139.953 101.332 142.994 104.373 142.994 108.126C142.994 111.879 139.953 114.92 136.2 114.92C132.447 114.92 129.406 111.879 129.406 108.126C129.406 104.373 132.447 101.332 136.2 101.332Z" fill="#263238"/>
<path d="M137.429 95.8318L136.394 93.6317L133.676 94.0847L133.482 96.5436C132.641 96.8671 131.864 97.2553 131.153 97.773L129.017 96.4788L127.141 98.4201L128.435 100.555C127.594 101.785 127.011 103.208 126.753 104.697L124.294 105.279V107.997L126.753 108.644C126.882 109.485 127.141 110.326 127.529 111.103L125.847 113.044L127.4 115.244L129.794 114.338C130.376 114.92 131.088 115.438 131.8 115.891L131.541 118.415L134.065 119.321L135.488 117.185C136.07 117.315 136.653 117.315 137.3 117.315C137.559 117.315 137.818 117.315 138.076 117.315L139.306 119.515L141.959 118.803L141.894 116.279C142.671 115.891 143.447 115.438 144.094 114.92L146.359 116.021L148.106 113.95L146.682 111.944C147.135 111.167 147.459 110.391 147.718 109.55L150.177 109.162L150.436 106.444L148.171 105.603C148.106 104.697 147.912 103.855 147.588 103.014L149.335 101.332L147.977 99.0024L145.647 99.6495C145.065 99.0024 144.418 98.3554 143.706 97.8377L144.159 95.4435L141.7 94.2788L140.147 96.1553C139.176 95.9612 138.271 95.8318 137.429 95.8318ZM137.365 99.8436C141.118 99.8436 144.159 102.885 144.159 106.638C144.159 110.391 141.118 113.432 137.365 113.432C133.612 113.432 130.57 110.391 130.57 106.638C130.57 102.885 133.612 99.8436 137.365 99.8436Z" fill="#179A6B" stroke="#263238" stroke-miterlimit="10"/>
<path d="M97.1166 74.2194L95.4989 70.6605L91.1635 71.437L90.84 75.3842C89.5458 75.9018 88.2517 76.5489 87.1517 77.3254L83.7222 75.3195L80.6809 78.3607L82.7515 81.7902C81.3927 83.7961 80.4868 85.9962 80.0338 88.3904L76.0867 89.361V93.6964L80.0338 94.667C80.2927 96.0259 80.6809 97.32 81.2633 98.5494L78.6103 101.655L81.0691 105.214L84.8869 103.726C85.8575 104.697 86.9575 105.538 88.1223 106.185L87.734 110.261L91.8106 111.75L94.1401 108.385C95.1107 108.579 96.0166 108.644 96.9872 108.644C97.3754 108.644 97.8284 108.644 98.2166 108.579L100.223 112.138L104.429 111.038L104.364 107.026C105.593 106.444 106.823 105.667 107.858 104.826L111.482 106.573L114.264 103.273L111.935 100.038C112.646 98.8083 113.164 97.5141 113.552 96.1553L117.435 95.5082L117.823 91.1728L114.135 89.8786C114.005 88.4551 113.682 87.0315 113.164 85.7374L115.946 83.0197L113.746 79.2666L109.993 80.3019C109.087 79.2019 107.987 78.2313 106.823 77.4548L107.535 73.6371L103.587 71.8253L101.128 74.8018C99.8343 74.4136 98.4755 74.2841 97.1166 74.2194ZM96.9872 84.2491C100.999 84.2491 104.234 87.4845 104.234 91.4963C104.234 95.5082 100.999 98.7436 96.9872 98.7436C92.9753 98.7436 89.74 95.5082 89.74 91.4963C89.8047 87.4845 93.04 84.2491 96.9872 84.2491Z" fill="#263238"/>
<path d="M129.859 166.169L128.629 163.516L125.394 164.098L125.135 167.01C124.164 167.398 123.194 167.851 122.352 168.498L119.764 167.01L117.499 169.275L119.052 171.863C118.017 173.351 117.37 175.034 117.046 176.781L114.135 177.493V180.728L117.111 181.504C117.305 182.54 117.629 183.51 118.017 184.416L116.011 186.746L117.888 189.399L120.735 188.299C121.447 189.01 122.288 189.658 123.129 190.175L122.805 193.216L125.847 194.316L127.594 191.793C128.306 191.922 129.017 191.987 129.729 191.987C130.053 191.987 130.312 191.987 130.635 191.922L132.123 194.575L135.229 193.734L135.165 190.758C136.135 190.305 136.976 189.787 137.818 189.075L140.535 190.369L142.606 187.91L140.859 185.516C141.376 184.61 141.829 183.64 142.088 182.604L145 182.152L145.259 178.916L142.541 177.946C142.412 176.91 142.218 175.81 141.829 174.84L143.9 172.769L142.282 169.987L139.5 170.763C138.788 169.986 138.012 169.21 137.171 168.628L137.688 165.781L134.776 164.422L132.9 166.686C131.929 166.298 130.894 166.169 129.859 166.169ZM129.794 173.61C132.77 173.61 135.229 176.004 135.229 179.046C135.229 182.022 132.835 184.481 129.794 184.481C126.817 184.481 124.358 182.087 124.358 179.046C124.423 176.069 126.817 173.61 129.794 173.61Z" fill="#263238"/>
<path d="M131.023 164.228L129.794 161.575L126.559 162.157L126.3 165.069C125.329 165.457 124.358 165.91 123.517 166.557L120.929 165.069L118.664 167.333L120.217 169.922C119.182 171.41 118.535 173.092 118.211 174.84L115.299 175.551V178.787L118.276 179.563C118.47 180.599 118.794 181.569 119.182 182.475L117.176 184.805L119.052 187.458L121.9 186.357C122.611 187.069 123.453 187.716 124.294 188.234L123.97 191.275L127.011 192.375L128.759 189.852C129.47 189.981 130.182 190.046 130.894 190.046C131.217 190.046 131.476 190.046 131.8 189.981L133.288 192.634L136.394 191.793L136.329 188.816C137.3 188.363 138.141 187.846 138.982 187.134L141.7 188.428L143.771 185.969L142.024 183.575C142.541 182.669 142.994 181.699 143.253 180.663L146.165 180.21L146.424 176.975L143.706 176.004C143.577 174.969 143.382 173.869 142.994 172.898L145.065 170.828L143.447 168.045L140.665 168.822C139.953 168.045 139.176 167.269 138.335 166.686L138.853 163.839L135.941 162.48L134.065 164.745C133.094 164.357 132.059 164.228 131.023 164.228ZM130.959 171.669C133.935 171.669 136.394 174.063 136.394 177.104C136.394 180.081 134 182.54 130.959 182.54C127.982 182.54 125.523 180.146 125.523 177.104C125.523 174.128 127.982 171.669 130.959 171.669Z" fill="#179A6B" stroke="#263238" stroke-miterlimit="10"/>
<path d="M152.765 143.262V139.186C149.077 138.539 146.618 135.044 147.265 131.356C147.783 128.509 149.983 125.662 152.765 125.144V119.515L150.306 119.968L150.112 122.426C149.271 122.75 148.494 123.138 147.783 123.656L145.647 122.362L143.706 124.303L145 126.438C144.159 127.668 143.577 129.091 143.318 130.58L140.859 131.162V133.88L143.318 134.462C143.447 135.303 143.706 136.144 144.094 136.921L142.412 138.862L143.965 141.062L146.359 140.156C146.941 140.739 147.653 141.256 148.365 141.709L148.106 144.298L150.63 145.204L152.053 143.068C152.377 143.198 152.571 143.198 152.765 143.262Z" fill="#263238"/>
<path d="M95.2401 124.821L92.8459 121.909L88.9635 123.721L89.6753 127.474C88.5105 128.25 87.4752 129.221 86.5693 130.256L82.881 129.221L80.7456 132.909L83.4634 135.562C83.0104 136.856 82.6869 138.28 82.5575 139.639L78.9338 140.933L79.3221 145.139L83.1398 145.786C83.5281 147.145 84.0457 148.374 84.7575 149.604L82.4927 152.774L85.2105 156.01L88.7694 154.327C89.8047 155.169 90.9694 155.945 92.1989 156.527L92.1342 160.475L96.2754 161.575L98.2167 158.08C98.6049 158.145 98.9932 158.145 99.4461 158.145C100.417 158.145 101.323 158.08 102.229 157.886L104.493 161.186L108.505 159.698L108.117 155.686C109.282 154.974 110.317 154.198 111.288 153.227L115.041 154.651L117.499 151.157L114.782 148.18C115.364 146.951 115.752 145.657 116.011 144.362L119.894 143.392V139.121L116.011 138.215C115.558 135.886 114.717 133.686 113.358 131.744L115.364 128.38L112.388 125.338L109.023 127.344C107.923 126.568 106.693 125.921 105.399 125.403L105.076 121.521L100.87 120.809L99.252 124.303C97.9578 124.303 96.599 124.497 95.2401 124.821ZM99.3814 130.58C105.27 130.58 109.993 135.368 109.993 141.192C109.993 147.08 105.205 151.804 99.3814 151.804C93.493 151.804 88.7694 147.015 88.7694 141.192C88.7694 135.368 93.493 130.58 99.3814 130.58Z" fill="#263238"/>
<path d="M93.1694 123.656L90.7753 120.744L86.8928 122.556L87.6046 126.309C86.4399 127.085 85.4045 128.056 84.4986 129.091L80.8103 128.056L78.675 131.744L81.3927 134.397C80.9397 135.692 80.6162 137.115 80.4868 138.474L76.8632 139.768L77.2514 143.974L81.0691 144.621C81.4574 145.98 81.975 147.209 82.6868 148.439L80.4221 151.61L83.1398 154.845L86.6987 153.163C87.734 154.004 88.8987 154.78 90.1282 155.363L90.0635 159.31L94.2048 160.41L96.146 156.916C96.5342 156.98 96.9225 156.98 97.3754 156.98C98.346 156.98 99.2519 156.916 100.158 156.721L102.423 160.022L106.434 158.533L106.046 154.521C107.211 153.81 108.246 153.033 109.217 152.063L112.97 153.486L115.429 149.992L112.776 146.951C113.358 145.721 113.746 144.427 114.005 143.133L117.888 142.162V137.892L114.005 136.986C113.552 134.656 112.711 132.456 111.352 130.515L113.358 127.15L110.382 124.109L107.017 126.115C105.852 125.338 104.687 124.691 103.393 124.174L103.07 120.291L98.8637 119.579L97.246 123.074C95.8224 123.138 94.4636 123.268 93.1694 123.656ZM97.3107 129.415C103.199 129.415 107.923 134.203 107.923 140.027C107.923 145.915 103.134 150.639 97.3107 150.639C91.4223 150.639 86.6987 145.851 86.6987 140.027C86.634 134.139 91.4223 129.415 97.3107 129.415Z" fill="#179A6B" stroke="#263238" stroke-miterlimit="10"/>
<path d="M72.4631 195.675L74.7278 198.975L78.7397 197.552L78.3514 193.54C79.5162 192.828 80.5515 192.052 81.5221 191.081L85.2751 192.505L87.734 189.011L85.081 185.969C85.6634 184.74 86.0516 183.446 86.3105 182.152L90.1929 181.246V176.975L86.3105 176.069C85.9222 173.74 85.0163 171.539 83.6574 169.598L85.6634 166.233L82.6221 163.257L79.2573 165.263C78.1573 164.486 76.9279 163.839 75.6337 163.322L75.3102 159.504L71.4277 158.792V168.692C75.8278 169.469 79.322 172.898 80.0985 177.363C81.0691 183.122 77.1867 188.622 71.4277 189.658V195.999C71.6866 195.869 72.0748 195.869 72.4631 195.675Z" fill="#263238"/>
<path d="M72.4631 193.217L74.7278 196.517L78.7397 195.093L78.3514 191.081C79.5162 190.369 80.5515 189.593 81.5221 188.622L85.2751 190.046L87.734 186.552L85.081 183.51C85.6634 182.281 86.0516 180.987 86.3105 179.693L90.1929 178.787V174.516L86.3105 173.61C85.9222 171.281 85.0163 169.081 83.6574 167.139L85.6634 163.775L82.6221 160.798L79.2573 162.804C78.1573 162.028 76.9279 161.38 75.6337 160.863L75.3102 157.045L71.4277 156.333V166.233C75.8278 167.01 79.322 170.439 80.0985 174.904C81.0691 180.663 77.1867 186.163 71.4277 187.199V193.54C71.6866 193.346 72.0748 193.346 72.4631 193.217Z" fill="#179A6B" stroke="#263238" stroke-miterlimit="10"/>
<path d="M95.9519 72.6665L94.3342 69.1075L89.9988 69.884L89.6753 73.8312C88.3811 74.3488 87.087 74.9959 85.987 75.7724L82.5575 73.7665L79.5162 76.8077L81.5869 80.2372C80.228 82.2432 79.3221 84.4432 78.8692 86.8374L74.922 87.808V92.1434L78.8692 93.114C79.128 94.4729 79.5162 95.767 80.0986 96.9965L77.4456 100.102L79.9045 103.661L83.7222 102.173C84.6928 103.144 85.7929 103.985 86.9576 104.632L86.5693 108.709L90.6459 110.197L92.9754 106.832C93.946 107.026 94.8519 107.091 95.8225 107.091C96.2108 107.091 96.6637 107.091 97.052 107.026L99.0579 110.585L103.264 109.485L103.134 105.473C104.364 104.891 105.593 104.114 106.629 103.273L110.252 105.02L113.035 101.72L110.705 98.4847C111.417 97.2553 111.935 95.9611 112.323 94.6023L116.205 93.9552L116.594 89.6198L112.905 88.3257C112.776 86.9021 112.452 85.4785 111.935 84.1844L114.717 81.4667L112.517 77.7136L108.764 78.749C107.858 77.6489 106.758 76.6783 105.593 75.9018L106.305 72.0841L102.358 70.2723L99.8991 73.2488C98.6696 72.8606 97.3108 72.6665 95.9519 72.6665ZM95.8225 82.6961C99.8344 82.6961 103.07 85.9315 103.07 89.9433C103.07 93.9552 99.8344 97.1906 95.8225 97.1906C91.8106 97.1906 88.5753 93.9552 88.5753 89.9433C88.5753 85.9315 91.8754 82.6961 95.8225 82.6961Z" fill="#179A6B" stroke="#263238" stroke-miterlimit="10"/>
<path d="M154.059 142.227V138.15C150.371 137.503 147.912 134.009 148.559 130.321C149.077 127.474 151.277 125.274 154.059 124.821V118.544L151.6 118.997L151.406 121.456C150.565 121.779 149.788 122.168 149.077 122.685L146.941 121.391L145 123.332L146.294 125.468C145.453 126.697 144.871 128.121 144.612 129.609L142.153 130.191V132.909L144.612 133.491C144.741 134.333 145 135.174 145.388 135.95L143.706 137.892L145.259 140.092L147.653 139.186C148.235 139.768 148.947 140.286 149.659 140.739L149.4 143.327L151.924 144.233L153.347 142.098C153.606 142.162 153.8 142.162 154.059 142.227Z" fill="#179A6B" stroke="#263238" stroke-miterlimit="10"/>
<path d="M95.7578 100.426C101.547 100.426 106.24 95.7327 106.24 89.9434C106.24 84.154 101.547 79.4608 95.7578 79.4608C89.9684 79.4608 85.2751 84.154 85.2751 89.9434C85.2751 95.7327 89.9684 100.426 95.7578 100.426Z" stroke="white" stroke-miterlimit="10"/>
<path d="M96.9871 153.745C104.563 153.745 110.705 147.603 110.705 140.027C110.705 132.451 104.563 126.309 96.9871 126.309C89.4109 126.309 83.2692 132.451 83.2692 140.027C83.2692 147.603 89.4109 153.745 96.9871 153.745Z" stroke="white" stroke-miterlimit="10"/>
<path d="M130.894 185.322C135.468 185.322 139.176 181.614 139.176 177.04C139.176 172.465 135.468 168.757 130.894 168.757C126.32 168.757 122.611 172.465 122.611 177.04C122.611 181.614 126.32 185.322 130.894 185.322Z" stroke="#263238" stroke-miterlimit="10"/>
<path d="M95.9519 15.3357L117.952 160.733C118.405 163.775 116.335 166.622 113.294 167.075L34.3504 178.981C32.8622 179.175 31.4386 178.851 30.2739 178.01C29.1091 177.169 28.2032 175.875 28.0091 174.322L6.00856 28.9242C5.5556 25.883 7.62624 23.0359 10.6675 22.5829L89.6106 10.6767C91.9401 10.3532 94.1401 11.4532 95.2402 13.3297C95.6284 13.9121 95.8872 14.6239 95.9519 15.3357Z" fill="white"/>
<path d="M89.3615 25.6141L78.9963 27.1813L79.1318 28.077L89.497 26.5099L89.3615 25.6141Z" fill="#263238"/>
<path d="M88.968 23.0271L78.6028 24.5942L78.7382 25.49L89.1034 23.9228L88.968 23.0271Z" fill="#263238"/>
<path d="M88.5843 20.5033L78.2191 22.0705L78.3545 22.9663L88.7198 21.3991L88.5843 20.5033Z" fill="#263238"/>
<path d="M93.8165 120.356L94.8519 127.28C95.1754 129.35 93.7518 131.356 91.6165 131.615L44.2506 138.798C42.18 139.121 40.174 137.697 39.9152 135.562L38.8799 128.638C38.5564 126.568 39.9799 124.562 42.1153 124.238L89.4811 117.056C91.5518 116.797 93.493 118.285 93.8165 120.356Z" fill="#179A6B"/>
<path d="M106.957 141.291L32.8013 152.503L33.0044 153.846L107.16 142.634L106.957 141.291Z" fill="#263238"/>
<path d="M107.478 144.918L33.3219 156.13L33.525 157.474L107.681 146.262L107.478 144.918Z" fill="#263238"/>
<path d="M108.053 148.472L33.8969 159.684L34.1 161.028L108.256 149.816L108.053 148.472Z" fill="#263238"/>
<path d="M108.573 152.1L34.4172 163.312L34.6204 164.656L108.776 153.444L108.573 152.1Z" fill="#263238"/>
<path opacity="0.1" d="M93.8166 120.356L94.8519 127.28C95.1755 129.35 93.7519 131.356 91.6165 131.615L44.2507 138.798C42.18 139.121 40.1741 137.698 39.9153 135.562V135.497C48.6508 135.627 79.0633 134.656 88.8988 117.185L89.4812 117.121C91.5518 116.797 93.4931 118.285 93.8166 120.356Z" fill="black"/>
<path d="M93.8165 120.356L94.8519 127.28C95.1754 129.35 93.7518 131.356 91.6165 131.615L44.2506 138.798C42.18 139.121 40.174 137.697 39.9152 135.562L38.8799 128.638C38.5564 126.568 39.9799 124.562 42.1153 124.238L89.4811 117.056C91.5518 116.797 93.493 118.285 93.8165 120.356Z" stroke="#263238" stroke-miterlimit="10" stroke-linecap="round" stroke-linejoin="round"/>
<path d="M59.7157 109.679C59.7804 110.326 59.3922 110.909 58.7451 110.973C58.098 111.038 57.5157 110.65 57.451 110.003C57.3863 109.356 57.7745 108.773 58.4216 108.709C59.004 108.644 59.5863 109.097 59.7157 109.679Z" fill="#263238"/>
<path d="M65.1512 108.903C65.2159 109.55 64.8276 110.132 64.1805 110.197C63.5335 110.262 62.9511 109.873 62.8864 109.226C62.8217 108.579 63.2099 107.997 63.857 107.932C64.4394 107.803 65.0217 108.256 65.1512 108.903Z" fill="#263238"/>
<path d="M70.5866 108.061C70.6513 108.709 70.263 109.291 69.616 109.356C68.9689 109.42 68.3865 109.032 68.3218 108.385C68.2571 107.738 68.6454 107.156 69.2924 107.091C69.8748 106.961 70.4572 107.414 70.5866 108.061Z" fill="#263238"/>
<path d="M53.6332 31.4479L17.7206 36.8833C16.4264 37.0774 15.197 36.1715 14.9382 34.8774L14.8087 34.1009C14.6146 32.8067 15.5205 31.5773 16.8147 31.3184L52.792 25.883C54.0862 25.6889 55.3156 26.5948 55.5744 27.8889L55.7038 28.6654C55.8333 30.0243 54.9274 31.2537 53.6332 31.4479Z" fill="white" stroke="#263238" stroke-miterlimit="10"/>
<path d="M18.6912 35.395L18.303 32.6125" stroke="#263238" stroke-miterlimit="10" stroke-linecap="round" stroke-linejoin="round"/>
<path d="M90.8904 35.8438L16.7983 47.046L26.3463 110.197L100.438 98.9948L90.8904 35.8438Z" fill="#179A6B"/>
<path opacity="0.5" d="M90.8904 35.8438L16.7983 47.046L26.3463 110.197L100.438 98.9948L90.8904 35.8438Z" fill="white"/>
<path d="M90.8904 35.8438L16.7983 47.046L26.3463 110.197L100.438 98.9948L90.8904 35.8438Z" stroke="#263238" stroke-miterlimit="10"/>
<path d="M85.4649 56.5565C87.8216 53.3212 87.1094 48.7881 83.8741 46.4314C80.6389 44.0747 76.1057 44.7869 73.749 48.0221C71.3923 51.2574 72.1045 55.7905 75.3398 58.1472C78.575 60.5039 83.1082 59.7917 85.4649 56.5565Z" fill="#179A6B" stroke="#263238" stroke-miterlimit="10"/>
<path d="M95.1107 63.9957L100.417 99.0671L26.3267 110.197L23.0266 88.261C25.2914 83.1491 28.6562 77.1313 32.6033 75.3842C39.9153 72.1488 47.4213 93.6964 61.2687 90.1375C75.1161 86.708 77.7044 64.1251 95.1107 63.9957Z" fill="#179A6B"/>
<path opacity="0.1" d="M95.1107 63.9957L100.417 99.0671L26.3267 110.197L23.0266 88.261C25.2914 83.1491 28.6562 77.1313 32.6033 75.3842C39.9153 72.1488 47.4213 93.6964 61.2687 90.1375C75.1161 86.708 77.7044 64.1251 95.1107 63.9957Z" fill="black"/>
<path d="M95.1107 63.9957L100.417 99.0671L26.3267 110.197L23.0266 88.261C25.2914 83.1491 28.6562 77.1313 32.6033 75.3842C39.9153 72.1488 47.4213 93.6964 61.2687 90.1375C75.1161 86.708 77.7044 64.1251 95.1107 63.9957Z" stroke="#263238" stroke-miterlimit="10"/>
<path opacity="0.1" d="M95.9519 15.3357L117.952 160.733C118.405 163.775 116.335 166.622 113.293 167.075L34.3504 178.981C32.8621 179.175 31.4385 178.851 30.2738 178.01C47.8742 162.416 103.329 105.473 95.3048 13.265C95.6283 13.9121 95.8872 14.6239 95.9519 15.3357Z" fill="black"/>
<path d="M95.9519 15.3357L117.952 160.733C118.405 163.775 116.335 166.622 113.294 167.075L34.3504 178.981C32.8622 179.175 31.4386 178.851 30.2739 178.01C29.1091 177.169 28.2032 175.875 28.0091 174.322L6.00856 28.9242C5.5556 25.883 7.62624 23.0359 10.6675 22.5829L89.6106 10.6767C91.9401 10.3532 94.1401 11.4532 95.2402 13.3297C95.6284 13.9121 95.8872 14.6239 95.9519 15.3357Z" stroke="#263238" stroke-miterlimit="10"/>
</g>
<defs>
<clipPath id="clip0_1_508">
<rect width="249.771" height="240" fill="white" transform="translate(0.249573)"/>
</clipPath>
</defs>
</svg>
