<svg width="30" height="30" viewBox="0 0 30 30" fill="none" xmlns="http://www.w3.org/2000/svg">
<rect width="30" height="30" rx="12" fill="#F0F5FF"/>
<g clip-path="url(#clip0)">
<path d="M24.8485 19.676C22.2341 16.9213 20.901 13.6477 20.8869 9.94623C20.8848 9.32208 20.6744 9.11099 20.0531 9.10959C19.3111 9.10818 18.5692 9.10818 17.8279 9.10748C17.2023 9.10748 16.5775 9.10678 15.9519 9.10608C15.865 9.10608 15.7745 9.09977 15.6798 9.09416C15.6623 9.09275 15.6448 9.09205 15.6272 9.09065C15.6272 8.97073 15.6272 8.85221 15.6279 8.7358C15.6286 8.39847 15.6293 8.08009 15.6265 7.75749C15.6223 7.24625 15.3937 7.01412 14.8867 7.00641C14.2576 6.99589 13.6208 7.0001 13.0261 7.00641C12.477 7.01202 12.2624 7.23573 12.2603 7.80237C12.2589 8.11375 12.2596 8.42582 12.2596 8.75403V9.10818H10.6803C9.71674 9.10818 8.75246 9.10748 7.78818 9.11029C7.24468 9.11169 7.00133 9.33961 7.00133 9.85015C6.99923 13.931 6.99923 18.1065 7.00133 22.2588C7.00133 22.749 7.22996 22.9826 7.72016 22.9945C7.90039 22.9987 8.08273 23.0001 8.26366 23.0001C8.39691 23.0001 8.52875 22.9994 8.65919 22.9987C8.79103 22.998 8.92288 22.9973 9.05472 22.9973H19.8511C20.7516 22.9973 20.8876 22.864 20.8876 21.9776V20.8934H22.0595C22.8225 20.8927 23.5848 20.8927 24.3471 20.8948C24.6353 20.8969 24.9593 20.8654 25.1129 20.4958C25.2693 20.1185 25.0358 19.873 24.8485 19.676ZM13.5444 11.1861V8.28977H14.3425V11.1854H13.5444V11.1861ZM8.28119 16.1632C8.97197 17.7355 9.94676 19.1935 11.1796 20.4972C11.4419 20.7749 11.7288 20.899 12.1074 20.899C12.1103 20.899 12.1131 20.899 12.1159 20.899C13.8782 20.8906 15.6707 20.8913 17.4036 20.8927C17.978 20.8927 18.553 20.8934 19.1274 20.8934H19.6092V21.7062H8.28119V16.1632ZM12.4097 19.6339C12.409 19.6339 12.4076 19.6339 12.4069 19.6339C12.186 19.6339 12.0401 19.568 11.8858 19.3983C9.69009 16.983 8.47615 14.0881 8.27699 10.7927C8.27067 10.6889 8.27208 10.5823 8.27418 10.4694C8.27418 10.4462 8.27488 10.4224 8.27488 10.3986H12.2596V10.7162C12.2596 11.0381 12.2589 11.3607 12.2603 11.6833C12.2624 12.2493 12.4777 12.4716 13.0268 12.4765C13.7204 12.4828 14.3284 12.4828 14.8867 12.4758C15.3944 12.4695 15.623 12.2388 15.6272 11.7268C15.63 11.4042 15.6293 11.0865 15.6286 10.7499C15.6286 10.6363 15.6279 10.5213 15.6279 10.4049H19.6162C19.7312 13.8363 20.8701 16.8568 23.0953 19.629H20.7761C18.0334 19.6269 15.198 19.6269 12.4097 19.6339Z" fill="#00199F"/>
<path d="M14.7479 16.6861H15.5221H16.2746C17.1687 16.6861 18.0622 16.6861 18.9563 16.6854H18.9739C19.0889 16.6854 19.2074 16.6854 19.3245 16.6623C19.6359 16.6005 19.8189 16.3859 19.8273 16.0725C19.8365 15.7443 19.6527 15.5149 19.3238 15.4441C19.213 15.4203 19.1022 15.4182 18.9886 15.4182C16.6757 15.4175 14.3629 15.4189 12.0451 15.4203C11.9371 15.4203 11.8249 15.4203 11.7141 15.4448C11.3859 15.517 11.2035 15.7471 11.2141 16.076C11.2239 16.3916 11.4083 16.6054 11.719 16.663C11.8368 16.6847 11.9553 16.6847 12.0696 16.6847H12.0865C12.7155 16.6854 13.3446 16.6854 13.9736 16.6854C14.2324 16.6861 14.4905 16.6861 14.7479 16.6861Z" fill="#00199F"/>
<path d="M18.7782 18.1312C18.7515 17.7868 18.5454 17.5744 18.1961 17.533C18.1064 17.5225 18.0173 17.5225 17.931 17.5239H17.8686C16.5719 17.5232 15.2759 17.5225 13.9792 17.5239C13.8804 17.5239 13.7808 17.5218 13.6819 17.5197C13.4077 17.514 13.1237 17.5084 12.8467 17.5463C12.6496 17.5737 12.4119 17.7511 12.3277 17.9341C12.2485 18.1059 12.2997 18.4117 12.4308 18.552C12.5725 18.7034 12.834 18.7757 13.0311 18.7799C13.4245 18.789 13.8215 18.7918 14.2149 18.7918C14.4302 18.7918 14.6448 18.7911 14.8566 18.7904C15.0782 18.7897 15.2991 18.7897 15.5207 18.789H15.9057C16.2914 18.789 16.6771 18.7897 17.0621 18.789C17.1617 18.789 17.2613 18.7897 17.3609 18.7897C17.6323 18.7911 17.9128 18.7932 18.1891 18.7764C18.3672 18.7659 18.5257 18.6901 18.6358 18.5639C18.7396 18.4447 18.7901 18.2911 18.7782 18.1312Z" fill="#00199F"/>
<path d="M14.0192 14.5782C14.6721 14.581 15.2738 14.5831 15.8376 14.5831C16.6526 14.5831 17.3882 14.5796 18.0839 14.5733C18.2333 14.5719 18.4948 14.513 18.6 14.3573C18.7024 14.2066 18.8062 13.9001 18.7059 13.7184C18.5965 13.5214 18.3251 13.3447 18.1133 13.3327C17.6196 13.3047 17.1175 13.3096 16.6315 13.3138C16.4478 13.3152 16.2633 13.3173 16.0796 13.3173C15.8776 13.3187 15.6749 13.3166 15.473 13.3159C14.9933 13.3145 14.4968 13.3131 14.0087 13.3201C13.5956 13.3257 13.3228 13.567 13.3137 13.9344C13.3095 14.1077 13.3663 14.2605 13.4778 14.3749C13.6054 14.5067 13.7927 14.5775 14.0192 14.5782Z" fill="#00199F"/>
</g>
<defs>
<clipPath id="clip0">
<rect width="18.1642" height="16" fill="white" transform="translate(7 7)"/>
</clipPath>
</defs>
</svg>
