<svg width="30" height="30" viewBox="0 0 30 30" fill="none" xmlns="http://www.w3.org/2000/svg">
<rect width="30" height="30" rx="12" fill="#F0F5FF"/>
<g clip-path="url(#clip0)">
<path d="M23.0006 15.1286C23.0018 15.0887 23.003 15.0489 23.003 15.0091C23.0042 13.8784 22.9083 13.7342 21.8567 13.2923C21.8187 13.2766 21.7517 13.2048 21.7227 13.136C21.6629 12.9971 21.6122 12.845 21.5627 12.6953C21.474 12.4285 21.3817 12.152 21.2259 11.9015C21.0195 11.5689 21.014 11.3057 21.2072 10.9635C21.4462 10.5403 21.3798 10.1021 21.0213 9.72965C20.9863 9.69343 20.9531 9.6548 20.9175 9.61435C20.8728 9.56365 20.8269 9.51053 20.775 9.45861C19.8551 8.53384 19.6963 8.49581 18.6502 8.94613L18.611 8.96303C18.5941 8.96786 18.5174 8.96484 18.4365 8.93164C18.2802 8.86826 18.1202 8.7928 17.9657 8.71976C17.6838 8.58636 17.3922 8.44873 17.0795 8.3618C16.7862 8.27971 16.6679 8.17166 16.6105 7.93383C16.456 7.29216 16.0069 6.97103 15.3067 7.00362C15.2535 7.00604 15.1962 7.00423 15.1376 7.00302C15.0773 7.0006 15.0181 7 14.9584 7C13.8784 7 13.7239 7.10745 13.3068 8.15053C13.279 8.21935 13.2585 8.24711 13.1348 8.29058L13.0841 8.30808C12.6422 8.46201 12.1852 8.62137 11.7603 8.84834C11.4977 8.98838 11.3601 8.99683 11.1723 8.88214C10.5832 8.52358 10.0025 8.62137 9.53769 9.1574C9.51958 9.17792 9.49363 9.20146 9.46103 9.23044C9.43266 9.25579 9.40369 9.28114 9.3735 9.31193C8.54048 10.1661 8.50246 10.358 8.96726 11.3643C8.99563 11.4259 8.99985 11.456 8.9413 11.5792L8.88818 11.6897C8.692 12.0995 8.48857 12.5233 8.34974 12.97C8.27609 13.2078 8.18977 13.3002 7.96582 13.3823C7.18049 13.669 7.01872 13.902 7.00483 14.7676C7.00362 14.8497 7.00242 14.9318 7.00242 15.0139C7.00362 16.1155 7.11892 16.2876 8.12398 16.686C8.25014 16.7361 8.26704 16.765 8.28635 16.8423C8.36905 17.1713 8.55437 17.4333 8.80729 17.5805C9.04633 17.7188 9.32401 17.7496 9.61194 17.6687C9.76225 17.6264 9.89082 17.5576 9.99706 17.4671C9.09885 18.3586 8.24712 19.2152 7.56501 19.9021C6.92938 20.542 6.81891 21.4318 7.28311 22.1688C7.57285 22.6294 8.04248 22.9282 8.57067 22.9891C8.63767 22.997 8.70528 23.0006 8.77288 23.0006C9.26183 23.0006 9.73327 22.8008 10.1003 22.438C10.882 21.666 11.6613 20.8867 12.4484 20.0971C12.3935 20.1822 12.3494 20.277 12.3186 20.382C12.2341 20.6669 12.2673 20.9712 12.4086 21.2163C12.5378 21.4402 12.7478 21.5971 12.9996 21.6575C13.2283 21.7124 13.3255 21.8108 13.3841 22.0469C13.5392 22.671 13.966 23.0006 14.6185 23.0006C14.6571 23.0006 14.6976 22.9994 14.7386 22.997C14.7791 22.9946 14.8249 22.9964 14.8696 22.9976C14.901 22.9988 14.9324 22.9994 14.9632 22.9994C16.1101 23.0048 16.255 22.9076 16.7077 21.8519C16.7216 21.8199 16.7898 21.7541 16.8701 21.7197C17.0053 21.6617 17.1544 21.6116 17.2993 21.5633C17.5606 21.4758 17.8311 21.3859 18.0767 21.2326C18.4262 21.0146 18.6961 21.0068 19.0407 21.2036C19.4561 21.4414 19.9064 21.3726 20.2758 21.0146C20.3138 20.9778 20.3531 20.9434 20.3947 20.906C20.4412 20.8643 20.4943 20.8179 20.545 20.7671C21.4734 19.8466 21.5096 19.6842 21.0334 18.6007C21.0285 18.5844 21.0297 18.515 21.0539 18.4558C21.1185 18.2983 21.1945 18.1383 21.27 17.9802C21.4076 17.691 21.5501 17.3922 21.64 17.0717C21.7209 16.7831 21.8308 16.6654 22.0758 16.6045C22.7048 16.4481 23.0326 15.9833 22.9994 15.2964C22.9976 15.2439 22.9988 15.1877 23.0006 15.1286ZM21.9255 15.4648C21.9279 15.5155 21.9213 15.5342 21.9225 15.5354C21.9177 15.5372 21.905 15.5403 21.896 15.5421C21.3768 15.6483 21.0146 15.897 20.7877 16.3105C20.8396 16.0757 20.8758 15.8366 20.8957 15.5946C20.9476 14.9535 20.906 14.3215 20.775 13.7185C20.8577 13.9249 20.9899 14.1332 21.2851 14.2201C21.3068 14.2267 21.3328 14.237 21.3605 14.2485L21.3744 14.2539C21.6666 14.3704 21.8597 14.4477 21.9044 14.5165C21.9497 14.5859 21.9448 14.796 21.937 15.1147C21.9364 15.1509 21.934 15.1877 21.931 15.2306C21.9261 15.3048 21.9213 15.3815 21.9255 15.4648ZM19.9595 19.8557L19.9462 19.8689C19.7573 20.0645 19.6076 20.219 19.5357 20.2335C19.4621 20.2486 19.243 20.1466 19.0317 20.0476C18.8524 19.9637 18.6918 19.9305 18.5452 19.9305C18.4275 19.9305 18.3182 19.9516 18.2156 19.9854C18.9025 19.5333 19.4983 18.9399 19.9534 18.2548C19.8877 18.4419 19.8665 18.6761 20.0198 18.9381C20.0374 18.9677 20.053 19.0088 20.07 19.0516C20.0802 19.0776 20.0905 19.1035 20.1013 19.1295C20.1786 19.3088 20.251 19.4784 20.242 19.5243C20.2335 19.5719 20.1001 19.7096 19.9595 19.8557ZM15.7201 20.8939C15.8946 20.8758 16.0672 20.8486 16.2381 20.813C16.0998 20.8915 15.9948 21.0062 15.9 21.1088L15.8632 21.1486C15.7853 21.2326 15.7552 21.3303 15.734 21.4022L15.7316 21.4112C15.7274 21.4257 15.7232 21.4402 15.7165 21.4565C15.629 21.6756 15.5535 21.8652 15.5022 21.8996C15.4503 21.9346 15.2535 21.9346 15.0036 21.9346H14.9855C14.7507 21.9346 14.5485 21.9346 14.4984 21.9002C14.4459 21.8646 14.3698 21.6497 14.3028 21.4607C14.2213 21.2307 14.0939 20.9712 13.8175 20.8142C14.4374 20.9374 15.064 20.9633 15.7201 20.8939ZM9.9862 11.0613C9.96869 11.0317 9.953 10.9906 9.93368 10.943C9.92402 10.9188 9.91436 10.8947 9.9041 10.8699C9.82683 10.6906 9.7544 10.521 9.76345 10.4745C9.77251 10.4262 9.90591 10.2886 10.0466 10.1431L10.0598 10.1299C10.2494 9.93428 10.3985 9.77975 10.4703 9.76526C10.4751 9.76405 10.4806 9.76405 10.4866 9.76405C10.5747 9.76405 10.786 9.86305 10.9743 9.95118C11.3039 10.1057 11.5713 10.0876 11.8056 10.0073C11.6848 10.0852 11.5659 10.1673 11.45 10.2536C10.9001 10.6641 10.4311 11.1579 10.0586 11.7066C10.1184 11.5116 10.1244 11.2985 9.9862 11.0613ZM15.5892 8.22055C15.6109 8.28575 15.6362 8.36301 15.67 8.45597C15.8034 8.82479 16.0026 9.06625 16.3111 9.22078C16.1904 9.19181 16.0678 9.16645 15.9441 9.14412C15.626 9.08738 15.3042 9.05901 14.9813 9.05901C14.5684 9.05901 14.1555 9.10488 13.7493 9.19482C13.8815 9.12299 13.9841 9.01615 14.0782 8.91715C14.0976 8.89663 14.1169 8.87671 14.1362 8.85739C14.2123 8.78194 14.2394 8.69018 14.2581 8.62922C14.2612 8.61956 14.2636 8.6099 14.2672 8.60085C14.371 8.34249 14.4525 8.13846 14.5159 8.09681C14.5805 8.05455 14.7936 8.05878 15.0924 8.06482L15.1099 8.06542C15.2034 8.07025 15.2831 8.07266 15.3568 8.07508C15.4044 8.07628 15.4914 8.0793 15.5409 8.08292C15.5578 8.12518 15.5801 8.19399 15.5892 8.22055ZM19.0703 9.92462C19.1096 9.90953 19.1482 9.89444 19.1868 9.87814C19.3275 9.81838 19.485 9.74896 19.5267 9.75379C19.5677 9.76466 19.6933 9.88599 19.8152 10.0037L19.8231 10.0109C20.0543 10.2343 20.207 10.3816 20.2239 10.4655C20.2414 10.5506 20.1508 10.7516 20.0259 11.0299C19.8919 11.3275 19.9088 11.5665 19.9788 11.776C19.8919 11.6402 19.7989 11.508 19.7005 11.38C19.2979 10.8548 18.8065 10.4057 18.2494 10.0453C18.416 10.1093 18.6369 10.1498 18.8844 10.0067C18.9363 9.97653 19.0015 9.95178 19.0703 9.92462ZM8.08413 15.5354C8.08051 15.4877 8.07931 15.4087 8.0781 15.3688C8.07689 15.3121 8.07508 15.2463 8.07267 15.169C8.05939 14.8243 8.05093 14.5962 8.10285 14.5171C8.15295 14.441 8.34672 14.365 8.68596 14.2364C8.93768 14.141 9.07953 13.9925 9.1731 13.8277C9.14654 13.9672 9.12481 14.1072 9.10911 14.2485C9.03486 14.9173 9.05901 15.5517 9.18275 16.1753C8.98657 15.8572 8.64371 15.7328 8.43183 15.6562C8.35215 15.6272 8.28394 15.6042 8.22418 15.5837C8.19279 15.5741 8.12639 15.5517 8.08413 15.5354ZM11.6685 17.295C11.9951 17.0107 12.0742 16.6564 11.9106 16.2115C11.4579 14.9807 11.6383 13.8603 12.4478 12.8806C13.1106 12.0784 13.9617 11.6722 14.9777 11.6722C15.1087 11.6722 15.2439 11.6788 15.3809 11.6927L15.1262 11.945C14.6909 12.3766 14.2702 12.7943 13.8507 13.2126C13.2561 13.806 13.2579 14.3626 13.8561 14.9644L14.1229 15.233C14.4398 15.5523 14.7676 15.8819 15.0942 16.2049C15.6169 16.7216 16.2163 16.7198 16.7397 16.2006C17.1779 15.7654 17.6095 15.3332 18.0665 14.8757L18.3097 14.6318C18.4365 15.7853 17.9759 16.8954 17.0711 17.6125C16.153 18.3399 14.9445 18.5271 13.8386 18.1124C13.3702 17.9373 13.008 18.0158 12.6639 18.3665C11.7078 19.3408 10.7232 20.3217 9.7707 21.27L9.36264 21.6768C9.0415 21.9968 8.63103 22.0336 8.31774 21.7704C8.15778 21.6364 8.06482 21.4553 8.05576 21.2603C8.04611 21.0448 8.13665 20.8293 8.31171 20.6537C9.05961 19.9003 9.81235 19.1488 10.5403 18.422C10.8428 18.1202 11.1452 17.8184 11.447 17.516C11.473 17.49 11.4977 17.464 11.5243 17.4369C11.5738 17.3856 11.6208 17.3373 11.6685 17.295ZM13.3907 19.1512C13.4257 19.1162 13.439 19.1071 13.4432 19.1053C13.4468 19.1047 13.4589 19.1059 13.4982 19.1198C15.1304 19.6794 16.5966 19.4138 17.857 18.3309C19.1114 17.2534 19.6015 15.8445 19.3136 14.1434C19.287 13.9853 19.2055 13.5036 18.7009 13.3575C18.2627 13.2307 17.9566 13.4764 17.7647 13.672C17.2558 14.1911 16.7403 14.7036 16.2417 15.1998L16.0189 15.4219C15.9791 15.4618 15.9381 15.5022 15.9145 15.5209C15.8898 15.5016 15.8469 15.4588 15.8047 15.4171C15.4141 15.0284 15.0175 14.63 14.6119 14.2219C14.5455 14.1549 14.5086 14.1133 14.4887 14.0885C14.5092 14.0632 14.5485 14.0185 14.6227 13.9436C14.8074 13.7583 14.9928 13.5736 15.1781 13.3883L15.2052 13.3611C15.5958 12.9712 15.999 12.5686 16.3926 12.1677C16.6455 11.91 16.7397 11.5925 16.6516 11.2973C16.5634 11.0033 16.3117 10.7908 15.961 10.7142C15.7449 10.6671 15.5282 10.6436 15.3169 10.62C15.2264 10.6097 15.1352 10.6001 15.0429 10.588L15.0229 10.5856H15.0072C13.5561 10.5971 12.2444 11.2834 11.4096 12.4683C10.5904 13.6297 10.387 15.061 10.8506 16.3938C10.9061 16.5532 10.891 16.5833 10.7727 16.7004C10.5464 16.9238 10.3206 17.1465 10.0979 17.3681C10.3194 17.1127 10.4009 16.7367 10.3079 16.3033C10.2439 16.0051 10.1951 15.6948 10.148 15.3948C10.1274 15.265 10.1069 15.1358 10.0858 15.0121C10.1522 12.2794 12.2281 10.1812 14.9179 10.1299C14.9505 10.1293 14.9825 10.1287 15.0145 10.1287C17.2594 10.1287 19.2406 11.683 19.747 13.8579C20.2776 16.1379 19.1856 18.4196 17.091 19.4072C15.9918 19.9257 14.8497 20.015 13.6014 19.6812C13.2857 19.5967 12.9814 19.6474 12.7436 19.8025C12.9579 19.5858 13.1734 19.3691 13.3907 19.1512Z" fill="#00199F"/>
</g>
<defs>
<clipPath id="clip0">
<rect width="16.003" height="16" fill="white" transform="translate(7 7)"/>
</clipPath>
</defs>
</svg>
