<svg width="30" height="30" viewBox="0 0 30 30" fill="none" xmlns="http://www.w3.org/2000/svg">
<rect width="30" height="30" rx="12" fill="#F0F5FF"/>
<g clip-path="url(#clip0)">
<path d="M22.9955 15.5729C22.9955 15.0577 22.9977 14.5403 22.9934 14.0251C22.987 12.8903 22.2759 12.1792 21.1411 12.1686C20.8409 12.1664 20.5407 12.1664 20.2405 12.1686C20.0808 12.1686 19.919 12.1686 19.7572 12.1686C20.2384 12.1217 20.6834 11.9152 21.0325 11.5724C21.4371 11.1764 21.6627 10.6441 21.6691 10.0778C21.6734 9.50296 21.4605 8.9643 21.0687 8.56191C20.677 8.15951 20.1447 7.93596 19.5741 7.9317C18.3754 7.92318 17.4344 8.84081 17.4216 10.0246C17.4152 10.625 17.6579 11.17 18.054 11.5639C17.7687 11.4149 17.4557 11.3382 17.1193 11.3361C16.1868 11.3361 15.2521 11.3361 14.3196 11.3361H12.859C12.5311 11.3361 12.2309 11.4106 11.9478 11.5575C12.331 11.1764 12.5695 10.6527 12.5737 10.0714C12.578 9.50296 12.3608 8.96643 11.9648 8.56403C11.5688 8.16164 11.0344 7.93596 10.4659 7.9317C10.4617 7.9317 10.4553 7.9317 10.451 7.9317C9.26726 7.9317 8.33472 8.85146 8.32621 10.0331C8.31769 11.1487 9.16719 12.0706 10.2509 12.1707C10.0891 12.1707 9.92514 12.1707 9.76546 12.1707C9.42055 12.1707 9.07777 12.1686 8.73286 12.1749C7.76839 12.1898 7.02747 12.918 7.01044 13.8697C6.99979 14.5616 7.00192 15.2706 7.00192 15.9583C7.00192 16.4501 7.00405 16.9419 6.99979 17.4338C6.99553 17.9 7.36174 17.9256 7.48309 17.9341C7.6151 17.9426 7.74923 17.9618 7.88975 17.9831C8.12394 18.0171 8.36453 18.0512 8.60937 18.0384C9.13313 18.0107 9.38861 18.1981 9.51636 18.7048C9.55681 18.8645 9.55255 18.8815 9.49933 18.9454C9.197 19.3052 8.90319 19.6714 8.61789 20.027L8.29427 20.4294C8.22614 20.5145 8.23253 20.638 8.3113 20.7147L10.4276 22.8054C10.4468 22.8395 10.4766 22.8672 10.5128 22.8863C10.6107 22.9374 10.7108 22.9012 10.7725 22.8501C10.8683 22.7735 10.9684 22.699 11.0663 22.6244C11.3027 22.4477 11.5475 22.2646 11.7561 22.0432C12.1607 21.6174 12.4949 21.562 12.908 21.8516C12.9953 21.9133 13.0485 21.9921 13.0528 22.0177C13.1188 22.4988 13.172 22.9885 13.2231 23.4633L13.2763 23.953C13.2891 24.0616 13.3785 24.1425 13.4871 24.1425H16.5125C16.6211 24.1425 16.7126 24.0616 16.7233 23.953C16.7403 23.8103 16.7573 23.6698 16.7765 23.5314C16.8191 23.2121 16.8595 22.9119 16.8659 22.5989C16.8787 22.0581 16.9703 21.7813 17.4642 21.6749C17.6771 21.628 17.7325 21.6344 17.8347 21.7196C18.1796 22.0091 18.5309 22.2902 18.8715 22.5606L19.2633 22.8735C19.3484 22.9417 19.4698 22.9353 19.5464 22.8586L21.6925 20.7125C21.7692 20.6359 21.7756 20.5124 21.7074 20.4294C21.6244 20.3272 21.5435 20.2207 21.4626 20.1121C21.2731 19.8609 21.0772 19.6012 20.8409 19.3755C20.4406 18.9965 20.3917 18.6793 20.6685 18.2833C20.7472 18.1704 20.8345 18.1129 20.8622 18.1087C21.3753 18.032 21.9267 17.9724 22.4973 17.932C22.953 17.9 23.0019 17.602 22.9998 17.3784C22.9934 16.7801 22.9934 16.1755 22.9955 15.5729ZM10.4489 9.3965C10.451 9.3965 10.4553 9.3965 10.4574 9.3965C10.8087 9.40076 11.1047 9.69883 11.1068 10.0459C11.1068 10.2205 11.0365 10.3865 10.9088 10.5143C10.781 10.642 10.6128 10.708 10.4404 10.708C10.2679 10.7059 10.104 10.6335 9.98476 10.5079C9.85914 10.378 9.79314 10.2056 9.79953 10.0246C9.80804 9.66477 10.087 9.3965 10.4489 9.3965ZM19.5571 10.708H19.5549C19.3761 10.708 19.2079 10.6356 19.0802 10.5058C18.9567 10.378 18.8885 10.2141 18.8907 10.0395C18.8971 9.68606 19.1909 9.39863 19.5464 9.3965C19.7338 9.39012 19.8913 9.4625 20.0127 9.58173C20.1341 9.70522 20.2022 9.87554 20.2001 10.0608C20.1979 10.4121 19.9041 10.708 19.5571 10.708ZM19.1632 15.4133V13.6419C19.2973 13.6419 19.4293 13.6397 19.5635 13.6397C20.1703 13.6355 20.7451 13.6312 21.3136 13.6589C21.3711 13.6781 21.4924 13.8143 21.5031 13.8718C21.535 14.2849 21.5286 14.6979 21.5243 15.1344C21.5222 15.228 21.5222 15.3217 21.5222 15.4154H19.1632V15.4133ZM8.48376 13.859C8.49015 13.6823 8.62215 13.6419 8.73286 13.6419C9.27577 13.6334 9.81656 13.6355 10.3701 13.6376H10.8215V15.409H8.4795C8.4795 15.3047 8.4795 15.2025 8.47737 15.0982C8.47524 14.6702 8.47098 14.2678 8.48376 13.859ZM15.878 20.6998C15.7077 20.77 15.5778 20.9787 15.5587 21.132C15.5012 21.5599 15.4586 21.9793 15.4118 22.4243L15.3841 22.6819H14.6176L14.5899 22.435C14.5452 22.0177 14.5005 21.5876 14.4409 21.1618C14.4175 20.9914 14.2897 20.7722 14.1152 20.6998C13.6489 20.5081 13.1805 20.3314 12.6844 20.1419L12.1905 19.9546C12.1202 19.9269 12.0393 19.9397 11.9818 19.9887L10.6639 21.0489L10.1189 20.5039C10.1806 20.4272 10.2424 20.3506 10.3041 20.2718C10.549 19.9652 10.8045 19.648 11.0621 19.3435C11.2941 19.071 11.2303 18.839 11.1259 18.6303C10.8598 18.0895 10.6703 17.636 10.5298 17.1996C10.4936 17.0846 10.4468 16.993 10.3893 16.9207H11.886C12.4162 18.5579 13.5105 19.3712 15.1392 19.335C16.553 19.3031 17.5196 18.5068 18.0944 16.9036H19.6188C19.5528 16.9781 19.5017 17.0782 19.4591 17.2059C19.3165 17.6467 19.1206 18.1151 18.8609 18.6388C18.7225 18.9199 18.7438 19.1264 18.9354 19.3521C19.1887 19.6501 19.44 19.9631 19.6806 20.2654C19.738 20.3378 19.7955 20.4081 19.853 20.4805L19.2824 21.0085L18.0092 19.9929C17.9496 19.9461 17.8709 19.9333 17.8006 19.961L17.3066 20.1483C16.8148 20.3336 16.3443 20.5103 15.878 20.6998ZM12.3374 13.2693C12.3502 12.9265 12.6184 12.8052 12.8675 12.803C14.3302 12.7945 15.7609 12.7945 17.1193 12.803C17.4514 12.8052 17.6558 12.9883 17.6665 13.2927C17.6856 13.8292 17.6814 14.3572 17.6771 14.9172C17.675 15.0811 17.675 15.2451 17.675 15.409H12.3289C12.3289 15.2429 12.3267 15.079 12.3246 14.9151C12.3204 14.3509 12.3161 13.8143 12.3374 13.2693ZM15.2457 17.8574C14.4494 17.9469 13.749 17.5594 13.4807 16.9143H16.5253C16.3762 17.3529 15.8056 17.7936 15.2457 17.8574ZM19.3058 12.1643C19.1802 12.1622 19.0525 12.1622 18.9269 12.16C18.8502 12.1579 18.7353 12.1047 18.6799 12.0451C18.6458 12.0067 18.6096 11.9727 18.5734 11.9386C18.797 12.0536 19.044 12.1345 19.3058 12.1643ZM11.3325 12.0238C11.2622 12.0962 11.1366 12.1558 11.0536 12.1579C10.9301 12.16 10.8066 12.1622 10.6831 12.1622C10.9471 12.1324 11.1941 12.0557 11.4198 11.9386C11.3899 11.9684 11.3601 11.994 11.3325 12.0238Z" fill="#00199F"/>
<path d="M14.9925 10.9652C14.9968 10.9652 14.9989 10.9652 15.0032 10.9652C15.6611 10.9652 16.2806 10.7097 16.7511 10.2434C17.2238 9.77505 17.4857 9.15336 17.4878 8.49121C17.4899 7.83333 17.2323 7.21164 16.7639 6.73899C16.2913 6.2642 15.6674 6.00233 15.0053 6.0002C14.3432 5.99168 13.713 6.25994 13.236 6.73686C12.7655 7.20738 12.5079 7.82481 12.51 8.47631C12.5143 9.84318 13.6278 10.9588 14.9925 10.9652ZM16.0166 8.48909C16.0145 8.75735 15.9059 9.01071 15.71 9.2002C15.5141 9.39181 15.2565 9.49614 14.984 9.49188C14.7136 9.48762 14.4496 9.37265 14.2601 9.17252C14.0706 8.97664 13.9727 8.72328 13.9791 8.46354C13.994 7.91849 14.4581 7.46713 14.9989 7.46713C15.0074 7.46713 15.0159 7.46713 15.0245 7.46713C15.5674 7.48416 16.0209 7.95043 16.0166 8.48909Z" fill="#00199F"/>
</g>
<defs>
<clipPath id="clip0">
<rect width="16" height="18.1418" fill="white" transform="translate(7 6)"/>
</clipPath>
</defs>
</svg>
