<svg width="32" height="32" viewBox="0 0 32 32" fill="none" xmlns="http://www.w3.org/2000/svg">
<rect width="32" height="32" rx="10" fill="#F0FCF8"/>
<g clip-path="url(#clip0_1084_32)">
<path d="M21.8599 11.1062H20.3992H19.8217L19.7537 10.9363C19.6858 10.7325 19.6518 10.5287 19.5499 10.3588C19.2442 9.54352 18.4968 9 17.6136 9C16.5265 9 15.4735 9 14.3864 9C13.5032 9 12.7558 9.54352 12.4501 10.3588C12.3822 10.5626 12.3142 10.7325 12.2463 10.9363L12.1783 11.1062H11.6008H10.1401C8.88323 11.1062 8 11.9894 8 13.2463C8 15.7601 8 18.2399 8 20.7537C8 22.0446 8.88323 22.9278 10.1741 22.9278C12.1104 22.9278 14.0807 22.9278 16.017 22.9278C17.9533 22.9278 19.9236 22.9278 21.8599 22.9278C23.1168 22.9278 24.034 22.0446 24.034 20.7537C24.034 18.2399 24.034 15.7601 24.034 13.2463C24 11.9894 23.1168 11.1062 21.8599 11.1062ZM17.5796 10.3928C17.9533 10.3928 18.1571 10.5287 18.293 10.9023C18.4289 11.242 18.5308 11.5817 18.6327 11.9554C18.7346 12.3291 19.0064 12.4989 19.38 12.4989C20.1614 12.4989 20.9427 12.4989 21.69 12.4989H21.7919C22.3355 12.4989 22.6072 12.7707 22.6072 13.2803C22.6072 15.7601 22.6072 18.2739 22.6072 20.7537C22.6072 21.2972 22.3355 21.535 21.7919 21.535C20.3992 21.535 19.0064 21.535 17.6136 21.535H15.983H10.2081C9.5966 21.535 9.35881 21.2972 9.35881 20.6858C9.35881 18.2399 9.35881 15.7601 9.35881 13.3142C9.35881 12.7367 9.63057 12.465 10.2081 12.465H12.4841C13.0276 12.465 13.1975 12.3291 13.3673 11.8195L13.4692 11.4798C13.5372 11.276 13.6051 11.0722 13.673 10.9023C13.8089 10.5287 14.0127 10.3928 14.3864 10.3928C15.5074 10.3928 16.5265 10.3928 17.5796 10.3928Z" fill="#179A6B"/>
<path d="M11.9067 16.7113C11.9067 18.9873 13.7072 20.8217 15.9492 20.8217C17.0362 20.8217 18.0554 20.414 18.8367 19.6327C19.618 18.8514 20.0596 17.8323 20.0596 16.7452C20.0596 14.4692 18.2592 12.6348 16.0171 12.6348C14.9301 12.6348 13.911 13.0425 13.1297 13.8238C12.3484 14.6051 11.9067 15.6242 11.9067 16.7113ZM13.2995 16.7452C13.2995 15.2505 14.5224 14.0616 15.9832 14.0276C16.6965 14.0276 17.376 14.2994 17.8855 14.8089C18.3951 15.3185 18.6668 15.9979 18.6668 16.7113C18.6668 18.206 17.4779 19.4289 15.9832 19.4289C15.2698 19.4289 14.5904 19.1571 14.0469 18.6476C13.5713 18.138 13.2995 17.4586 13.2995 16.7452Z" fill="#179A6B"/>
<path d="M21.2485 14.5711C21.6562 14.5711 21.9619 14.2314 21.9279 13.8578C21.9279 13.4841 21.5882 13.1783 21.2485 13.1783C21.0447 13.1783 20.8749 13.2463 20.739 13.3822C20.6031 13.518 20.5352 13.6879 20.5352 13.8917C20.5691 14.2654 20.8749 14.5711 21.2485 14.5711Z" fill="#179A6B"/>
</g>
<defs>
<clipPath id="clip0_1084_32">
<rect width="16" height="13.9278" fill="white" transform="translate(8 9)"/>
</clipPath>
</defs>
</svg>
