<svg width="32" height="32" viewBox="0 0 32 32" fill="none" xmlns="http://www.w3.org/2000/svg">
<rect width="32" height="32" rx="10" fill="#F0FCF8"/>
<g clip-path="url(#clip0_859_942)">
<mask id="mask0_859_942" style="mask-type:luminance" maskUnits="userSpaceOnUse" x="8" y="8" width="16" height="16">
<path d="M24 8H8V24H24V8Z" fill="white"/>
</mask>
<g mask="url(#mask0_859_942)">
<path d="M13.44 22.68C12.92 22.68 12.4 22.68 11.88 22.68H10.84C10.28 22.68 10.12 22.52 10.12 21.96V14.28V10C10.12 9.52 10.28 9.32 10.8 9.32C14.08 9.32 17.4 9.32 20.68 9.32C21.2 9.32 21.36 9.52 21.36 10.04V14.24C21.36 14.48 21.4 14.64 21.52 14.8C21.64 14.96 21.8 15.04 22 15.04C22.4 15.04 22.64 14.72 22.64 14.24V13.6C22.64 12.36 22.64 11.16 22.64 9.92C22.64 8.76 21.84 8 20.68 8C17.4 8 14.04 8 10.68 8C10.56 8 10.36 8 10.2 8.04C9.28001 8.28 8.76001 9 8.76001 10.04C8.76001 12.8 8.76001 15.52 8.76001 18.28V21.32V21.56C8.76001 21.76 8.76001 21.92 8.76001 22.12C8.80001 23.24 9.56001 24 10.72 24C11.12 24 11.52 24 11.92 24C12.44 24 12.92 24 13.44 24C13.68 24 13.92 23.92 14.04 23.8C14.16 23.68 14.2 23.52 14.2 23.36C14.2 22.92 13.92 22.68 13.44 22.68Z" fill="#179A6B"/>
<path d="M22.68 16.36C22.32 16 21.84 15.8 21.32 15.8C20.8 15.8 20.28 16 19.88 16.4C18.44 17.8 17.04 19.24 15.64 20.68C15.52 20.8 15.36 21 15.32 21.16C15.2 21.72 15.08 22.28 15.04 22.84C15 23.12 15.12 23.4 15.28 23.64C15.52 23.88 15.84 24.04 16.28 24.04L16.64 24C16.96 23.96 17.36 23.88 17.72 23.8C17.96 23.76 18.2 23.64 18.36 23.48C19.96 21.88 21.36 20.48 22.64 19.2C23.44 18.32 23.44 17.12 22.68 16.36ZM19.96 19.96C19.16 20.76 18.32 21.56 17.52 22.4C17.48 22.44 17.44 22.48 17.4 22.48C17.12 22.52 16.8 22.6 16.48 22.64H16.4V22.56C16.44 22.24 16.52 21.92 16.56 21.64C16.56 21.6 16.6 21.56 16.6 21.56C17.44 20.72 18.24 19.92 19.08 19.08L19.48 18.68L20.36 19.56L19.96 19.96ZM21.76 18.12C21.64 18.24 21.52 18.4 21.4 18.52L21.36 18.56L20.48 17.68C20.52 17.64 20.52 17.64 20.56 17.6C20.72 17.44 20.84 17.32 21 17.2C21.24 17.04 21.56 17.08 21.76 17.28C21.96 17.52 21.96 17.88 21.76 18.12Z" fill="#179A6B"/>
<path d="M12.1999 14.84C12.3199 14.88 12.4799 14.88 12.5599 14.88C13.1999 14.88 13.8399 14.88 14.4799 14.88C14.6799 14.88 14.9199 14.88 15.1199 14.88H18.9199C19.0399 14.88 19.1599 14.88 19.2799 14.84C19.6399 14.76 19.7999 14.52 19.8399 14.2C19.8399 13.88 19.6399 13.64 19.3199 13.56C19.1999 13.52 19.1199 13.52 18.9999 13.52H18.9599C16.8399 13.52 14.7199 13.52 12.5999 13.52C12.4799 13.52 12.3199 13.52 12.1999 13.56C11.8799 13.64 11.7199 13.88 11.7199 14.2C11.6799 14.52 11.8799 14.76 12.1999 14.84Z" fill="#179A6B"/>
<path d="M12.4 12.2C12.88 12.2 13.36 12.2 13.88 12.2C14.2 12.2 14.48 12.2 14.8 12.2H15.72H17.12C17.8 12.2 18.48 12.2 19.12 12.2C19.48 12.2 19.72 12 19.8 11.64C19.84 11.28 19.68 11 19.36 10.92C19.24 10.88 19.08 10.88 18.96 10.88H18.88C17.64 10.88 16.4 10.88 15.12 10.88H12.36C11.8 10.88 11.68 11.24 11.64 11.44C11.6 11.64 11.64 11.84 11.76 11.96C11.96 12.12 12.16 12.2 12.4 12.2Z" fill="#179A6B"/>
<path d="M16.3999 16.84C16.3999 16.44 16.1199 16.2 15.6799 16.2C14.5999 16.2 13.5199 16.2 12.3999 16.2C11.9199 16.2 11.6799 16.44 11.6799 16.84C11.6799 17.24 11.9599 17.48 12.3999 17.48C12.7999 17.48 13.1999 17.48 13.5999 17.48H14.0799H14.5599C14.7199 17.48 14.8799 17.48 15.0399 17.48C15.2399 17.48 15.4799 17.48 15.6799 17.48C16.1199 17.52 16.3999 17.28 16.3999 16.84Z" fill="#179A6B"/>
</g>
</g>
<defs>
<clipPath id="clip0_859_942">
<rect width="16" height="16" fill="white" transform="translate(8 8)"/>
</clipPath>
</defs>
</svg>
