<svg width="32" height="32" viewBox="0 0 32 32" fill="none" xmlns="http://www.w3.org/2000/svg">
<rect width="32" height="32" rx="10" fill="#F0FCF8"/>
<g clip-path="url(#clip0_594_28885)">
<path d="M19.5184 13.3464C19.5184 12.7568 19.2432 12.4816 18.6929 12.4816C15.43 12.4816 12.1278 12.4816 8.86486 12.4816C8.27518 12.4816 8.03931 12.7568 8.03931 13.3464C8.03931 16.6093 8.03931 19.8722 8.03931 23.1351C8.03931 23.7641 8.31449 24 8.90417 24C10.5946 24 12.2457 24 13.9361 24C15.5086 24 17.0811 24 18.6536 24C19.2826 24 19.5577 23.7641 19.5577 23.0958C19.5577 21.9558 19.5577 20.855 19.5577 19.715V18.2604V16.9238C19.5184 15.7445 19.5184 14.5651 19.5184 13.3464ZM18.1032 13.9361V22.5848H9.45454V13.9361H18.1032Z" fill="#179A6B"/>
<path d="M24.0001 8.78624C24.0001 8.27518 23.7249 8 23.2138 8C19.8723 8 16.5701 8 13.2286 8C12.9927 8 12.7568 8.07862 12.6389 8.23587C12.521 8.35381 12.4423 8.55037 12.4817 8.74693C12.521 9.17936 12.7962 9.41523 13.2286 9.41523C13.3072 9.41523 13.3858 9.41523 13.4645 9.41523H22.5849V12.0491C22.5849 14.2506 22.5849 16.4521 22.5849 18.6929C22.5849 19.2039 22.86 19.5184 23.2532 19.5184C23.2532 19.5184 23.2532 19.5184 23.2925 19.5184C23.489 19.5184 23.6463 19.4398 23.7642 19.3219C23.9215 19.1646 24.0001 18.9681 24.0001 18.6929C24.0394 15.3907 24.0394 12.0885 24.0001 8.78624Z" fill="#179A6B"/>
<path d="M21.7591 20.7764V11.2236C21.7591 10.4767 21.5233 10.2408 20.7763 10.2408H11.1842H11.1449C11.0663 10.2408 10.9876 10.2408 10.909 10.2408C10.5159 10.2801 10.28 10.5553 10.28 10.9484C10.28 11.3415 10.5159 11.6167 10.9483 11.656C11.027 11.656 11.1056 11.656 11.2235 11.656H20.4225V20.7764C20.4225 20.8157 20.4225 20.855 20.4225 20.8943C20.4225 21.0123 20.3832 21.1695 20.5012 21.2875C20.6584 21.484 20.8943 21.7592 21.1302 21.7592C21.366 21.7592 21.6019 21.484 21.7985 21.2482C21.8771 21.1302 21.8771 21.0123 21.8378 20.8943C21.7591 20.855 21.7591 20.8157 21.7591 20.7764Z" fill="#179A6B"/>
</g>
<defs>
<clipPath id="clip0_594_28885">
<rect width="16.0393" height="16" fill="white" transform="translate(8 8)"/>
</clipPath>
</defs>
</svg>
