<svg width="16" height="16" viewBox="0 0 16 16" fill="none" xmlns="http://www.w3.org/2000/svg">
<path d="M15.2188 2.01187L13.9881 0.78125C13.4881 0.280625 12.81 0 12.1028 0H1.83344C0.820625 0 0 0.820625 0 1.83344V14.1666C0 15.1794 0.820625 16 1.83344 16H14.1666C15.1794 16 16 15.1794 16 14.1666V3.89719C16 3.19 15.7194 2.51187 15.2188 2.01187ZM2.66656 4.16656V2.5C2.66656 2.22406 2.89062 2 3.16656 2H10.1666C10.4425 2 10.6666 2.22406 10.6666 2.5V4.16656C10.6666 4.4425 10.4425 4.66656 10.1666 4.66656H3.16656C2.89062 4.66656 2.66656 4.4425 2.66656 4.16656ZM8 13.3334C6.34344 13.3334 5 11.99 5 10.3334C5 8.67656 6.34344 7.33344 8 7.33344C9.65656 7.33344 11 8.67656 11 10.3334C11 11.99 9.65656 13.3334 8 13.3334Z" fill="white"/>
</svg>
