<svg width="32" height="32" viewBox="0 0 32 32" fill="none" xmlns="http://www.w3.org/2000/svg">
<circle cx="16" cy="16" r="16" fill="#179A6B"/>
<g clip-path="url(#clip0_1219_6)">
<path d="M21.84 14.76C21.48 13.8 20.8 13.24 19.84 13.16C19.8 13.16 19.76 13.16 19.72 13.16C19.72 12.88 19.72 12.56 19.72 12.28C19.68 11.24 19.44 10.28 18.84 9.48C18.24 8.64 17.44 8.16 16.44 8.08C16.44 8.04 16.4 8 16.32 8C16.08 8 15.88 8 15.64 8C15.4 8.04 15.12 8.08 14.88 8.16C13.64 8.56 12.88 9.48 12.48 10.8C12.28 11.52 12.24 12.24 12.24 12.96C12.24 13 12.24 13.04 12.24 13.08V13.12C11.84 13.16 11.44 13.24 11.12 13.48C10.52 13.88 10.16 14.48 10.04 15.24C10.04 15.28 10.04 15.28 10 15.32C10 17.48 10 19.6 10 21.76C10.12 22.08 10.16 22.44 10.32 22.72C10.68 23.4 11.2 23.8 11.92 23.92C11.96 23.96 11.96 24 12 24C14.68 24 17.32 24 20 24C20.2 23.96 20.4 23.92 20.56 23.84C21.36 23.48 21.8 22.84 21.96 21.92C21.96 21.88 22 21.84 22 21.8C22 19.68 22 17.56 22 15.44C21.96 15.2 21.92 14.96 21.84 14.76ZM14.4 10.56C14.84 9.88 15.52 9.72 16.24 9.76C16.8 9.8 17.28 10.04 17.64 10.52C17.92 10.92 18.08 11.44 18.12 11.92C18.16 12.32 18.16 12.72 18.16 13.12C16.72 13.12 15.32 13.12 13.88 13.12C13.84 12.24 13.88 11.36 14.4 10.56ZM20.68 21.44C20.68 22.12 20.28 22.56 19.64 22.56C19.04 22.56 18.4 22.56 17.8 22.56C17.2 22.56 16.56 22.56 15.96 22.56C14.72 22.56 13.52 22.56 12.28 22.56C12.04 22.56 11.8 22.48 11.6 22.32C11.36 22.12 11.24 21.84 11.24 21.52C11.24 19.56 11.24 17.6 11.24 15.68C11.24 15.08 11.68 14.6 12.2 14.6C14.68 14.6 17.16 14.6 19.64 14.6C20.2 14.6 20.6 15.08 20.6 15.68C20.68 17.6 20.68 19.52 20.68 21.44Z" fill="white"/>
<path d="M16.2001 16.84C15.7601 16.76 15.3201 17 15.0801 17.44C14.8801 17.88 14.8801 18.44 15.2401 18.76C15.4801 19 15.5201 19.24 15.4801 19.52C15.4801 19.6 15.4801 19.64 15.4801 19.72C15.4801 19.92 15.4801 20.12 15.4801 20.32C15.4801 20.68 15.7201 20.92 16.0401 20.92C16.3201 20.92 16.5601 20.68 16.5601 20.32C16.5601 19.96 16.5601 19.56 16.5601 19.2C16.5601 19.08 16.6001 19 16.6801 18.92C17.0001 18.64 17.1601 18.24 17.0801 17.8C17.0001 17.32 16.6401 16.92 16.2001 16.84Z" fill="white"/>
</g>
<defs>
<clipPath id="clip0_1219_6">
<rect width="12" height="16" fill="white" transform="translate(10 8)"/>
</clipPath>
</defs>
</svg>
