<svg width="32" height="32" viewBox="0 0 32 32" fill="none" xmlns="http://www.w3.org/2000/svg">
<rect width="32" height="32" rx="10" fill="#F0FCF8"/>
<g clip-path="url(#clip0_594_28853)">
<path d="M24 14.716C24 14.4 23.8024 14.163 23.4469 14.163H23.2888C23.0913 14.163 22.8938 14.1235 22.6962 14.163C22.4197 14.2025 22.2222 14.163 22.0642 14.084C21.9456 14.0049 21.8666 13.8469 21.8271 13.6099C21.8271 13.5704 21.7876 13.5309 21.7876 13.4914C21.7086 13.3728 21.7086 13.2938 21.8666 13.1753C22.1432 12.9383 22.3802 12.6617 22.6172 12.4247L22.7358 12.3062C23.0518 11.9901 23.0518 11.6741 22.7358 11.358C22.1037 10.7259 21.4716 10.0938 20.8395 9.46173C20.5234 9.14568 20.2074 9.14568 19.8913 9.46173C19.6543 9.69877 19.4172 9.9358 19.1802 10.1728L18.9037 10.4494C18.8642 10.4099 18.7851 10.3704 18.7456 10.3704C18.5481 10.2914 18.3901 10.2123 18.1925 10.1333C18.074 10.0938 18.0345 10.0543 18.0345 9.8963C18.0345 9.50123 18.0345 9.10617 18.0345 8.6321C18.0345 8.23704 17.7975 8 17.4419 8C16.4938 8 15.5456 8 14.5975 8C14.2419 8 14.0444 8.23704 14.0049 8.59259C14.0049 8.79012 14.0049 9.02716 14.0049 9.22469V9.50123C14.0049 10.0148 14.0049 10.0148 13.5308 10.2123L13.4518 10.2519C13.3728 10.2914 13.2938 10.2914 13.2148 10.3704C13.1358 10.4494 13.0567 10.4494 12.9382 10.2914C12.7012 10.0543 12.4642 9.81728 12.1481 9.50123C11.8716 9.14568 11.5555 9.3037 11.358 9.46173C10.6864 10.1333 10.0148 10.8049 9.38267 11.4765C9.18514 11.6741 9.02712 11.9506 9.38267 12.3457L9.46168 12.4642C9.5802 12.5827 9.69872 12.7407 9.85675 12.8198C10.2913 13.1358 10.3703 13.4123 10.0543 13.8074C10.0148 13.8469 10.0148 13.9259 9.97526 14.0444C9.97526 14.1235 9.93576 14.163 9.77773 14.163C9.38267 14.163 8.98761 14.163 8.55304 14.163C8.19749 14.163 7.96045 14.4 7.96045 14.716C7.96045 15.6247 7.96045 16.5728 7.96045 17.5605C7.96045 17.916 8.15798 18.1136 8.55304 18.1531H8.63205C8.82958 18.1531 8.98761 18.1926 9.18514 18.1531C9.77773 18.0346 10.1333 18.2716 10.2518 18.8642C10.2913 19.0222 10.2913 19.0617 10.2123 19.1012C9.89625 19.3778 9.61971 19.6938 9.30366 20.0099C9.02712 20.2864 9.02712 20.563 9.30366 20.8395C9.93576 21.4716 10.6074 22.1827 11.3185 22.8543C11.5555 23.0914 11.8716 23.0914 12.1086 22.8543C12.2666 22.7358 12.3851 22.5778 12.5037 22.4593L12.6617 22.3012C13.1358 21.8272 13.1358 21.8272 13.8074 22.1037C13.8469 22.1037 13.9259 22.2222 13.9259 22.2617C13.9259 22.4988 13.9259 22.7753 13.9259 23.0123C13.9259 23.1309 13.9259 23.2494 13.9259 23.3284C13.9259 23.8025 14.1234 24.0395 14.5975 24.0395C14.9135 24.0395 15.1901 24.0395 15.5061 24.0395C15.7037 24.0395 15.9407 24.0395 16.1382 24.0395H16.7703C17.837 24.0395 17.916 23.9605 17.916 22.8938C17.916 22.1432 17.916 22.1432 18.6271 21.8667C18.6666 21.8667 18.7851 21.8667 18.8246 21.9062C19.0222 22.1037 19.2197 22.3012 19.4172 22.4988C19.5358 22.6173 19.6543 22.7358 19.8123 22.8543C20.0888 23.1309 20.4049 23.1309 20.6814 22.8543C21.353 22.1827 22.0246 21.5111 22.6567 20.879C22.9333 20.6025 22.8938 20.3259 22.6567 20.0494C22.5382 19.8914 22.3802 19.7728 22.2617 19.6543L22.1037 19.4963C21.6296 19.0222 21.6296 19.0222 21.9061 18.3901C21.9456 18.3506 22.0246 18.2716 22.1037 18.2716C22.3407 18.2716 22.5777 18.2716 22.8148 18.2716C22.9728 18.2716 23.1703 18.2716 23.3283 18.2716C23.7234 18.2716 23.9209 18.0741 23.9604 17.7185C24 16.6123 24 15.6247 24 14.716ZM20.958 17.6395C20.8395 17.9556 20.7209 18.3111 20.5629 18.6272C20.3259 19.1012 20.3654 19.2593 20.7209 19.6148C20.9185 19.8123 21.1555 20.0494 21.353 20.2469L21.5506 20.4049L20.2469 21.6296L20.0888 21.4321C19.8913 21.2346 19.6543 20.9975 19.4567 20.7605C19.1012 20.4049 18.9432 20.4049 18.5481 20.6025C18.2321 20.7605 17.837 20.9185 17.4814 21.037C17.0469 21.1951 16.9284 21.3136 16.9284 21.7877C16.9284 22.0247 16.9284 22.2617 16.9284 22.4988V22.7753H15.1111V22.5778C15.1111 22.3012 15.1111 22.0642 15.1111 21.7877C15.1111 21.3531 14.9925 21.1951 14.558 21.037C14.2024 20.9185 13.8469 20.7605 13.4913 20.6025C13.0963 20.4444 12.9382 20.4049 12.6222 20.7605C12.4246 20.958 12.2271 21.1556 12.0296 21.3926L11.8321 21.5901L10.5679 20.3259L10.7259 20.1679C10.9234 19.9704 11.1604 19.7728 11.3975 19.5358C11.753 19.2198 11.6345 18.9037 11.516 18.6667C11.3185 18.2321 11.1209 17.8765 11.0024 17.4815C10.8839 17.1259 10.6864 16.9679 10.3308 16.9679C10.0543 16.9679 9.77773 16.9679 9.46168 16.9679H9.18514V15.1901H9.42218C9.69872 15.1901 9.97526 15.1901 10.2123 15.1901C10.6864 15.1901 10.8049 15.0321 10.9629 14.637C11.0814 14.242 11.279 13.8469 11.437 13.4519C11.595 13.0963 11.6345 12.8988 11.279 12.5827C11.0814 12.3852 10.8839 12.2272 10.7259 12.0296L10.5679 11.8716L11.8716 10.5679L11.9901 10.7259C12.1481 10.9235 12.3456 11.0815 12.5432 11.279C12.8592 11.5951 13.0567 11.5951 13.4518 11.437C13.8469 11.2395 14.2814 11.0815 14.6765 10.9235C15.0321 10.8049 15.1901 10.6074 15.1901 10.2519C15.1901 9.9358 15.1901 9.65926 15.1901 9.34321V9.02716H16.9679V9.3037C16.9679 9.61975 16.9679 9.8963 16.9679 10.2123C16.9679 10.6864 17.0864 10.8049 17.4814 10.963C17.916 11.121 18.3111 11.3185 18.6666 11.4765C18.9827 11.6346 19.2592 11.5951 19.4567 11.358C19.6938 11.121 19.8913 10.884 20.1284 10.6864L20.3259 10.4889L21.5901 11.7531L21.3925 11.9506C21.1555 12.1481 20.958 12.3852 20.7209 12.6222C20.4049 12.9383 20.4049 13.1358 20.5629 13.4914C20.7209 13.8469 20.879 14.242 21.037 14.637C21.195 15.0716 21.353 15.1901 21.7876 15.1901C22.0642 15.1901 22.3407 15.1901 22.6172 15.1901H22.8938V16.9284H22.6567C22.3802 16.9284 22.1037 16.9284 21.8271 16.9284C21.274 17.0469 21.1555 17.1259 20.958 17.6395Z" fill="#179A6B"/>
<path d="M12.8987 15.7037C12.9777 15.7037 13.0567 15.7037 13.0962 15.6642C13.2147 15.6247 13.3332 15.5852 13.4518 15.5852C13.5308 15.5852 13.5703 15.5457 13.6493 15.5457C13.8863 15.5062 14.2024 15.4272 14.2419 15.0321C14.2814 14.6765 14.0839 14.5185 13.8468 14.4395C13.8863 14.4 13.9653 14.321 14.0049 14.2815C14.1629 14.1234 14.3604 13.9654 14.5184 13.8469C15.19 13.3728 15.9802 13.2543 16.7308 13.4913C17.5209 13.7284 18.153 14.3605 18.5086 15.1901C18.6666 15.5852 18.9431 15.7037 19.2592 15.5852C19.5752 15.4667 19.6937 15.1506 19.5752 14.7951C18.9826 13.0568 17.1258 11.9506 15.3086 12.3457C14.2419 12.5432 13.4123 13.1358 12.8197 14.0444C12.5431 13.8864 12.3061 13.8864 12.0691 14.1234C11.911 14.2815 11.7925 14.5185 12.0295 14.8741C12.1086 15.0321 12.2271 15.1506 12.3061 15.3086L12.3851 15.4272C12.5036 15.6247 12.6616 15.7037 12.8987 15.7037Z" fill="#179A6B"/>
<path d="M19.8124 16.8889C19.7334 16.7704 19.6939 16.6519 19.5753 16.5333C19.4173 16.4148 19.2198 16.2963 19.0223 16.2963C18.7852 16.2963 18.5877 16.3753 18.3506 16.4543C18.2716 16.4543 18.2321 16.4938 18.1531 16.4938C17.9951 16.5333 17.8766 16.6519 17.7976 16.7704C17.7185 16.8889 17.7185 17.0074 17.7581 17.1654C17.7976 17.2839 17.9161 17.4025 17.9951 17.521C18.0346 17.5605 18.0741 17.6 18.0741 17.6C17.442 18.3901 16.5729 18.7457 15.5852 18.5877C14.5976 18.4296 13.8864 17.8765 13.4914 16.8494C13.2939 16.2963 12.9383 16.3358 12.7408 16.4148C12.4247 16.5333 12.3062 16.8494 12.4247 17.2444C12.9383 18.7457 14.4395 19.7333 15.9803 19.7333C16.2963 19.7333 16.6124 19.6938 16.9284 19.6148C17.8766 19.3778 18.6272 18.8247 19.1803 17.9951C19.3383 18.0741 19.6544 18.2321 19.9309 17.916C20.2074 17.6 20.0494 17.2839 19.8914 17.0864C19.8914 17.0074 19.8519 16.9679 19.8124 16.8889Z" fill="#179A6B"/>
</g>
<defs>
<clipPath id="clip0_594_28853">
<rect width="16" height="16" fill="white" transform="translate(8 8)"/>
</clipPath>
</defs>
</svg>
