<svg width="30" height="30" viewBox="0 0 30 30" fill="none" xmlns="http://www.w3.org/2000/svg">
<rect width="30" height="30" rx="12" fill="#F0F5FF"/>
<g clip-path="url(#clip0)">
<path d="M24.5471 11.9804C24.2562 11.6894 23.8689 11.5297 23.4576 11.5297C23.0453 11.5297 22.658 11.6894 22.3671 11.9804L21.2655 13.0819V9.83968C21.2655 9.42839 21.1047 9.04116 20.8138 8.75019L19.5153 7.45177C19.2244 7.1608 18.8372 7 18.4259 7H10.5413C9.69132 7 9 7.69132 9 8.54126V21.4587C9 22.3087 9.69132 23 10.5413 23H19.7243C20.5742 23 21.2655 22.3087 21.2655 21.4587V17.4442L24.5471 14.1605C24.8381 13.8695 24.9989 13.4823 24.9989 13.071C24.9989 12.6586 24.8381 12.2713 24.5471 11.9804ZM17.8877 11.0014H20.0196V14.33C19.7801 14.5696 18.7256 15.6251 18.7135 15.6372L18.0649 16.2858C17.9971 16.3537 17.9446 16.4379 17.9139 16.5298L17.2642 18.478C17.1887 18.7033 17.2467 18.9472 17.4151 19.1157C17.5836 19.2841 17.8275 19.3421 18.0528 19.2666L20.001 18.6169C20.0076 18.6147 20.0142 18.6125 20.0207 18.6103V21.4587C20.0207 21.6217 19.8884 21.7541 19.7254 21.7541H10.5413C10.3783 21.7541 10.2459 21.6217 10.2459 21.4587V8.54126C10.2459 8.37827 10.3783 8.24592 10.5413 8.24592H17.2642V10.3779C17.2642 10.7213 17.5442 11.0014 17.8877 11.0014ZM19.4661 17.4814L18.8404 17.6904L19.0494 17.0636L19.1544 16.9586L19.5711 17.3764L19.4661 17.4814ZM20.0349 16.078L22.0105 14.1014L22.4272 14.5182L20.4517 16.4948L20.0349 16.078ZM18.5112 9.75436V8.25904C18.5517 8.27107 18.5932 8.29295 18.6348 8.33342L19.9332 9.63185C19.9737 9.67232 19.9956 9.71389 20.0065 9.75545H18.5112V9.75436ZM23.6655 13.2788L23.3078 13.6365L22.891 13.2197L23.2487 12.862C23.3636 12.7472 23.5506 12.7472 23.6655 12.862C23.7803 12.9769 23.7803 13.1639 23.6655 13.2788Z" fill="#00199F"/>
<path d="M10.8365 12.2143C10.8365 12.5578 11.1166 12.8378 11.4601 12.8378H17.8876C18.2311 12.8378 18.5111 12.5578 18.5111 12.2143C18.5111 11.8709 18.2311 11.5908 17.8876 11.5908H11.4601C11.1166 11.5908 10.8365 11.8709 10.8365 12.2143Z" fill="#00199F"/>
<path d="M11.4601 14.6747H16.051C16.3945 14.6747 16.6745 14.3947 16.6745 14.0512C16.6745 13.7078 16.3945 13.4277 16.051 13.4277H11.4601C11.1166 13.4277 10.8365 13.7078 10.8365 14.0512C10.8365 14.3947 11.1166 14.6747 11.4601 14.6747Z" fill="#00199F"/>
<path d="M11.4601 16.5116H16.051C16.3945 16.5116 16.6745 16.2316 16.6745 15.8881C16.6745 15.5447 16.3945 15.2646 16.051 15.2646H11.4601C11.1166 15.2646 10.8365 15.5447 10.8365 15.8881C10.8365 16.2316 11.1166 16.5116 11.4601 16.5116Z" fill="#00199F"/>
<path d="M16.6745 17.7241C16.6745 17.3806 16.3945 17.1006 16.051 17.1006H11.4601C11.1166 17.1006 10.8365 17.3806 10.8365 17.7241C10.8365 18.0676 11.1166 18.3476 11.4601 18.3476H16.051C16.3945 18.3476 16.6745 18.0676 16.6745 17.7241Z" fill="#00199F"/>
<path d="M14.5098 20.5395C14.5098 20.883 14.7898 21.163 15.1333 21.163H17.8876C18.2311 21.163 18.5111 20.883 18.5111 20.5395C18.5111 20.196 18.2311 19.916 17.8876 19.916H15.1333C14.7887 19.9171 14.5098 20.196 14.5098 20.5395Z" fill="#00199F"/>
</g>
<defs>
<clipPath id="clip0">
<rect width="15.9989" height="16" fill="white" transform="translate(9 7)"/>
</clipPath>
</defs>
</svg>
