<svg width="30" height="30" viewBox="0 0 30 30" fill="none" xmlns="http://www.w3.org/2000/svg">
<rect width="30" height="30" rx="12" fill="#F0F5FF"/>
<g clip-path="url(#clip0)">
<path d="M22.9895 13.9085C22.8969 13.2664 22.3802 12.7466 21.7326 12.6447C21.6109 12.6256 21.4881 12.6256 21.3689 12.6262C21.2591 12.6262 21.1553 12.6268 21.0541 12.6126C20.9831 12.6028 20.8856 12.5379 20.8726 12.5015C20.3059 10.8871 19.1922 9.76787 17.563 9.17459C17.5031 9.15298 17.4345 9.09187 17.4271 9.07149C17.4129 8.82085 17.4148 8.56958 17.4166 8.30412C17.4173 8.24053 17.4179 8.17633 17.4179 8.11089C17.4444 8.11151 17.4697 8.11151 17.495 8.11212C17.6074 8.11398 17.7043 8.11583 17.8037 8.1078C18.1167 8.08373 18.3346 7.85654 18.3346 7.55527C18.3346 7.2435 18.1031 7.00706 17.7963 7.00521C16.5258 6.99656 15.2689 6.99718 14.0595 7.00582C13.915 7.00706 13.7823 7.062 13.6853 7.1614C13.5829 7.26635 13.5273 7.40896 13.5298 7.56391C13.5341 7.86765 13.7495 8.08681 14.0662 8.10842C14.1718 8.11583 14.2755 8.11398 14.386 8.11212C14.4064 8.11151 14.4268 8.11151 14.4478 8.11089C14.4478 8.17756 14.4484 8.243 14.4484 8.30659C14.4496 8.55353 14.4502 8.78689 14.4435 9.01717C14.4422 9.06532 14.4151 9.12829 14.4033 9.13817C14.0409 9.30609 13.6711 9.4666 13.3131 9.62217C13.2408 9.65366 13.1692 9.68453 13.0982 9.7154L13.0359 9.45549C12.963 9.15052 12.889 8.83937 12.8118 8.52946C12.7717 8.36647 12.6963 8.06335 12.3667 7.98248C12.0493 7.90469 11.853 8.0899 11.6938 8.27017C11.5382 8.44611 11.3826 8.62268 11.2276 8.79862C10.6449 9.45981 10.0423 10.1438 9.43485 10.8019C9.05271 11.2156 8.878 11.6699 8.88479 12.2317C8.89281 12.8769 8.89096 13.5331 8.88972 14.1684C8.88849 14.7376 8.88726 15.3253 8.89281 15.9044C8.89775 16.4353 8.73539 16.8335 8.38288 17.157C8.0637 17.449 7.75317 17.7602 7.45252 18.0602L7.25373 18.259C7.08026 18.4331 7 18.5831 7 18.7343C7 18.8856 7.08087 19.0368 7.25373 19.2085C8.48536 20.4345 9.68735 21.6266 10.8258 22.7527C10.9924 22.9175 11.1449 23.0003 11.2974 23.0003C11.4511 23.0003 11.6055 22.9163 11.7765 22.7484L11.8938 22.6329C12.2241 22.3088 12.5655 21.973 12.8908 21.6328C13.2168 21.292 13.5983 21.134 14.0916 21.1389C15.2114 21.1476 16.3505 21.1457 17.4518 21.1439C17.8037 21.1433 18.1556 21.1426 18.5069 21.1426C19.1076 21.142 19.5774 20.9531 19.8657 20.5957C20.1441 20.2512 20.2342 19.7733 20.1281 19.2109C20.9627 18.7899 21.206 18.3096 21.0652 17.3601C21.853 17.0039 22.1697 16.3649 21.9863 15.5043C22.0295 15.4858 22.0678 15.4691 22.1055 15.4519C22.7247 15.1592 23.0803 14.5394 22.9895 13.9085ZM15.5862 8.90543V8.13003H16.2844V8.90481H15.5862V8.90543ZM18.2315 20.0258C18.1797 20.0258 18.1278 20.0277 18.076 20.0289C17.963 20.0326 17.8562 20.0357 17.7525 20.0228C17.6031 20.0036 17.4247 19.9252 17.4253 19.6598C17.4253 19.4455 17.5432 19.314 17.7475 19.2998C17.9167 19.2881 18.0852 19.2819 18.2513 19.2819C18.4186 19.2819 18.5841 19.2881 18.7458 19.2998C18.9477 19.3153 19.0631 19.4443 19.0711 19.6647C19.0779 19.8616 18.9316 20.0104 18.7156 20.0258C18.6075 20.0333 18.4995 20.0314 18.3853 20.0296C18.3649 20.0289 18.3445 20.0289 18.3241 20.0283L18.2315 20.0258ZM18.4649 18.1781C18.263 18.1793 18.0544 18.18 17.8494 18.1756C17.7049 18.1725 17.5889 18.1287 17.5136 18.0491C17.4512 17.983 17.4203 17.8941 17.424 17.791C17.4321 17.5725 17.5932 17.441 17.855 17.4391C18.1797 17.4367 18.4773 17.4354 18.7575 17.4354C19.0446 17.4354 19.3138 17.4367 19.5755 17.4391C19.8354 17.4416 19.9941 17.5756 19.9997 17.7972C20.0021 17.9009 19.9719 17.9861 19.9101 18.0509C19.8348 18.1299 19.7163 18.1732 19.5681 18.1763C19.3774 18.18 19.1829 18.1793 18.9946 18.1781C18.9094 18.1775 18.8248 18.1775 18.7396 18.1775C18.6458 18.1756 18.5563 18.1775 18.4649 18.1781ZM17.8827 16.3236C17.7179 16.3229 17.5895 16.2797 17.5111 16.1995C17.4494 16.1359 17.4197 16.0501 17.4228 15.9439C17.4321 15.6364 17.7136 15.5877 17.8809 15.5864C18.0507 15.5852 18.2223 15.5846 18.3933 15.5846C18.5242 15.5846 18.6538 15.5846 18.7822 15.5852C18.9125 15.5852 19.0428 15.5858 19.173 15.5858C19.3051 15.5858 19.4385 15.5858 19.5712 15.5852C19.8694 15.5846 20.1676 15.584 20.4658 15.5864C20.6312 15.5877 20.7596 15.6309 20.838 15.7124C20.8991 15.776 20.9288 15.8618 20.9257 15.9674C20.9164 16.2766 20.6355 16.3242 20.4682 16.3248C19.6064 16.3273 18.7365 16.3273 17.8827 16.3236ZM17.2975 14.545C16.561 14.8666 16.2264 15.4556 16.3258 16.2563C15.4714 16.5298 14.3385 15.9575 13.9113 15.0203C13.4328 13.9696 13.8699 12.6799 14.8855 12.1453C15.2281 11.965 15.588 11.8786 15.9399 11.8786C16.6684 11.8786 17.3623 12.249 17.8006 12.9269C17.3074 13.3572 17.1388 13.9004 17.2975 14.545ZM10.0028 14.1579C10.0034 13.5232 10.0041 12.867 9.99973 12.2219C9.99788 11.9539 10.0726 11.7576 10.2504 11.565C10.6788 11.1007 11.0955 10.6291 11.5376 10.1296C11.6684 9.98209 11.8006 9.83208 11.9364 9.67959C11.9407 9.72219 11.9456 9.76417 11.95 9.80553C12 10.2599 12.0432 10.6519 11.7685 11.018C10.6646 12.4892 10.4374 14.3925 11.1604 16.1106C11.8827 17.8256 13.4007 18.9918 15.2207 19.2295C15.4942 19.2653 15.7726 19.277 16.0424 19.2881C16.1387 19.2924 16.2344 19.2961 16.3301 19.3011V20.0296H15.7053C15.1337 20.0302 14.5558 20.0302 13.9786 20.0283C13.4156 20.024 12.9223 20.182 12.5074 20.4913C12.3148 20.6352 12.1432 20.8031 12.016 20.9334C11.8394 21.1136 11.6647 21.3038 11.4962 21.4871C11.445 21.5427 11.3931 21.5989 11.3412 21.655L8.46066 18.6905C8.50758 18.6405 8.55635 18.5874 8.60698 18.5325C8.77613 18.3491 8.96813 18.1411 9.17 17.9497C9.73674 17.4126 10.0102 16.7699 10.0059 15.9846C10.0016 15.3772 10.0022 14.7573 10.0028 14.1579ZM19.5743 12.6225C19.3724 12.6262 19.1817 12.6299 18.9915 12.6096C18.9582 12.6059 18.8822 12.5355 18.8193 12.4287C18.2772 11.5131 17.3666 10.9162 16.3214 10.7921C15.2855 10.6692 14.2724 11.0304 13.5409 11.7829C12.5772 12.775 12.3253 14.2758 12.9149 15.5173C13.5224 16.7958 14.8299 17.5453 16.2474 17.4262C16.277 17.4237 16.3072 17.42 16.3375 17.4163V18.1306C14.8416 18.3738 12.5309 17.4385 11.9555 14.9938C11.7104 13.9517 11.9154 12.8219 12.5179 11.894C13.1266 10.9575 14.0885 10.3037 15.1565 10.1012C15.3744 10.0599 15.601 10.0401 15.8313 10.0401C16.7129 10.0401 17.6537 10.3346 18.4112 10.8668C19.107 11.3551 19.5601 11.9743 19.699 12.6207C19.6576 12.6207 19.6157 12.6213 19.5743 12.6225ZM20.4892 14.4727C20.3565 14.4727 20.2238 14.4721 20.0916 14.4721C19.9688 14.4721 19.8459 14.4727 19.7237 14.4727C19.42 14.4734 19.1063 14.4746 18.7983 14.4715C18.5192 14.4684 18.3513 14.3307 18.3501 14.1023C18.3495 14.0011 18.3809 13.9184 18.4433 13.8554C18.5211 13.777 18.6427 13.735 18.7952 13.7344C19.2983 13.7325 19.7576 13.7319 20.1879 13.7319C20.6207 13.7319 21.0245 13.7325 21.4146 13.7344C21.5745 13.735 21.711 13.7856 21.7986 13.877C21.8616 13.9424 21.8931 14.0245 21.89 14.1141C21.882 14.3252 21.6918 14.4684 21.4171 14.4709C21.1072 14.474 20.793 14.4734 20.4892 14.4727Z" fill="#00199F"/>
<path d="M15.9385 12.6221C15.6212 12.6184 15.399 12.8493 15.3773 13.2117C15.3718 13.3031 15.373 13.3944 15.3749 13.4914C15.3749 13.5093 15.3755 13.5272 15.3755 13.5457C15.3557 13.5457 15.336 13.5451 15.3168 13.5451C15.2193 13.5438 15.1273 13.5432 15.0366 13.5469C14.681 13.563 14.4482 13.792 14.4563 14.1161C14.4643 14.4273 14.6952 14.644 15.0316 14.6551C15.1718 14.66 15.3156 14.6619 15.4619 14.6619C15.6058 14.6619 15.7515 14.6594 15.899 14.6551C16.2571 14.644 16.4639 14.4452 16.4824 14.0939C16.4972 13.8068 16.4972 13.5037 16.4836 13.1932C16.4676 12.8561 16.2484 12.6264 15.9385 12.6221Z" fill="#00199F"/>
</g>
<defs>
<clipPath id="clip0">
<rect width="16.0037" height="16" fill="white" transform="translate(7 7)"/>
</clipPath>
</defs>
</svg>
