<svg width="30" height="30" viewBox="0 0 30 30" fill="none" xmlns="http://www.w3.org/2000/svg">
<rect width="30" height="30" rx="12" fill="#F0F5FF"/>
<g clip-path="url(#clip0_857_106)">
<path d="M20.9971 8.22939C20.9971 8.02471 20.9536 7.80851 20.8756 7.62301C20.7451 7.31087 20.4765 7.10874 20.053 7.00384L12.408 7L12.3799 7.02047C12.3453 7.04605 12.3082 7.07036 12.2724 7.09467C12.1893 7.15096 12.1035 7.2098 12.0281 7.284C11.5534 7.75734 11.0801 8.23195 10.6068 8.70656C10.1437 9.17094 9.68058 9.63532 9.2162 10.0984C9.06908 10.2455 9 10.4131 9 10.6255C9.00256 13.3913 9.00256 16.1584 9.00256 18.9242V21.786C9.00256 22.5343 9.46566 23 10.2102 23C11.7658 23 13.3201 23 14.8757 23C16.5171 23 18.1584 23 19.7997 23C20.5404 23 21.001 22.5382 21.001 21.7949C21.001 21.0939 21.001 20.3915 21.001 19.6905V18.7886V16.9452C21.0022 14.0885 21.0035 11.1346 20.9971 8.22939ZM16.164 7.97609H18.1302V10.9939L18.0931 10.9351C17.9128 10.6472 17.7413 10.3735 17.5674 10.101C17.4816 9.96666 17.3512 9.87583 17.2104 9.8528C17.1861 9.84896 17.1618 9.84641 17.1362 9.84641C17.0352 9.84641 16.938 9.88095 16.8548 9.94619C16.778 10.0076 16.7205 10.0895 16.6757 10.1611C16.5068 10.4272 16.3405 10.6933 16.164 10.9735V7.97609ZM12.0281 8.71552C12.0281 8.73215 12.0281 8.75006 12.0281 8.76669C12.0306 9.0072 12.0319 9.25538 12.0229 9.501C12.014 9.75941 11.8055 9.99352 11.5675 10.0114C11.3078 10.0306 11.0443 10.0268 10.7897 10.0217C10.7667 10.0217 10.7449 10.0204 10.7232 10.0204L12.0281 8.71552ZM19.7357 22.0367H10.255C9.98505 22.0367 9.9633 22.015 9.9633 21.7476V11.0067C9.99528 11.0067 10.0247 11.0067 10.0541 11.0067C10.2166 11.0042 10.3803 11.0042 10.5441 11.0029C10.9151 11.0016 11.2989 11.0003 11.6775 10.9747C12.3338 10.9287 12.9428 10.3044 12.9811 9.6366C13.0016 9.26945 13.0042 8.89718 13.0054 8.5377C13.0067 8.37907 13.0067 8.22044 13.0093 8.06181C13.0093 8.03366 13.0093 8.00424 13.0093 7.97481H15.1725V8.8895V11.6643C15.1725 12.0161 15.3107 12.2681 15.5819 12.4139C15.9312 12.6007 16.3508 12.4728 16.6028 12.1005C16.732 11.9099 16.8535 11.7116 16.9712 11.5197C17.0262 11.4302 17.0825 11.3393 17.1388 11.2511C17.1401 11.2485 17.1426 11.2459 17.1439 11.2434L17.2104 11.3496C17.3396 11.5581 17.465 11.7615 17.5942 11.9623C17.6595 12.0647 17.7324 12.1709 17.8258 12.2604C18.0599 12.4868 18.3324 12.5534 18.6138 12.4536C18.8991 12.3525 19.0654 12.1248 19.1115 11.7781C19.1191 11.7206 19.1179 11.6643 19.1179 11.6093V7.97865C19.1716 7.97865 19.2253 7.97865 19.279 7.97737C19.5042 7.97609 19.7166 7.97481 19.9328 7.98121C19.9839 7.98249 20.0146 8.02087 20.0236 8.09379C20.0313 8.15391 20.0325 8.2166 20.0325 8.26393C20.0325 12.7542 20.0325 17.2445 20.0325 21.7348C20.0313 22.0188 20.0146 22.0367 19.7357 22.0367Z" fill="#00199F"/>
<path d="M18.2018 19.551C16.0692 19.551 13.9366 19.551 11.8041 19.5523C11.7119 19.5523 11.6262 19.5625 11.5495 19.583C11.3486 19.6355 11.2028 19.835 11.2092 20.0487C11.2156 20.2713 11.3755 20.4619 11.5904 20.5003C11.6633 20.513 11.7426 20.5194 11.8386 20.5194C12.6816 20.5207 13.5247 20.5207 14.3665 20.5207H14.9984H15.6496C15.8671 20.5207 16.0845 20.5207 16.302 20.5207C16.9212 20.5207 17.5404 20.5207 18.1595 20.5194C18.2337 20.5194 18.322 20.5169 18.409 20.5003C18.6086 20.4619 18.739 20.3314 18.7787 20.1305C18.8081 19.9783 18.7787 19.844 18.693 19.7404C18.5907 19.6163 18.4218 19.551 18.2018 19.551Z" fill="#00199F"/>
<path d="M18.2285 17.7012C16.0755 17.7012 13.9224 17.7012 11.7694 17.7012C11.7003 17.7012 11.6287 17.7114 11.5596 17.7293C11.4125 17.769 11.2961 17.8726 11.2423 18.0133C11.1873 18.1566 11.204 18.3139 11.2884 18.4444C11.4163 18.6414 11.6082 18.6683 11.7963 18.6683H14.2013H15.4896C16.3812 18.6683 17.2729 18.6683 18.1633 18.6683C18.2272 18.6683 18.3117 18.6658 18.3961 18.6517C18.6571 18.6082 18.8208 18.383 18.7837 18.1182C18.7466 17.8534 18.5445 17.7012 18.2285 17.7012Z" fill="#00199F"/>
<path d="M11.794 14.9662C11.7952 14.9662 11.7952 14.9662 11.7965 14.9662C12.6038 14.9649 13.411 14.9649 14.2182 14.9649H15.3964C16.3175 14.9649 17.2399 14.9649 18.161 14.9649C18.2288 14.9649 18.3017 14.9636 18.3759 14.9534C18.5102 14.9342 18.6241 14.8677 18.6983 14.7666C18.7737 14.6643 18.8019 14.5338 18.7789 14.3982C18.7482 14.2165 18.6253 13.999 18.2121 13.999C16.0693 13.999 13.9265 13.999 11.785 14.0003C11.6942 14.0003 11.6123 14.0105 11.5419 14.031C11.4051 14.0707 11.2963 14.1717 11.2439 14.3061C11.1889 14.4455 11.2017 14.5977 11.2759 14.7244C11.4038 14.9367 11.6097 14.9662 11.794 14.9662Z" fill="#00199F"/>
<path d="M11.7965 16.816C12.2903 16.816 12.7828 16.816 13.2766 16.816C13.5645 16.816 13.8523 16.816 14.1401 16.816H15.6356C16.4787 16.816 17.3217 16.816 18.1635 16.816C18.2377 16.816 18.3157 16.8147 18.395 16.8019C18.6483 16.761 18.8134 16.5448 18.7878 16.2876C18.7596 16.01 18.5562 15.8514 18.23 15.8514C16.077 15.8501 13.9239 15.8514 11.7709 15.8514C11.7069 15.8514 11.6417 15.8591 11.579 15.8744C11.446 15.9064 11.3372 15.987 11.272 16.1009C11.2067 16.216 11.194 16.3516 11.2349 16.4846C11.2809 16.6356 11.4165 16.816 11.7965 16.816Z" fill="#00199F"/>
</g>
<defs>
<clipPath id="clip0_857_106">
<rect width="12.0022" height="16" fill="white" transform="translate(9 7)"/>
</clipPath>
</defs>
</svg>
