<svg width="30" height="30" viewBox="0 0 30 30" fill="none" xmlns="http://www.w3.org/2000/svg">
<rect width="30" height="30" rx="12" fill="#F0F5FF"/>
<g clip-path="url(#clip0)">
<path d="M21.351 19.0977H17.9099V20.215H21.351V19.0977Z" fill="#00199F"/>
<path d="M21.3008 16.714C21.1834 16.6442 21.1809 16.6072 21.2211 16.4793C21.5635 15.4002 21.6451 14.2582 21.464 13.0846C21.1673 11.1649 20.0454 9.41445 18.3851 8.28227C16.7205 7.14639 14.6727 6.73934 12.7664 7.16492C8.84138 8.04077 6.41527 11.6986 7.12239 15.672C7.72073 19.0364 10.8206 21.5645 14.1974 21.5645C14.4069 21.5645 14.6177 21.5547 14.8291 21.5349C15.255 21.4947 15.6685 21.4163 16.1067 21.3335C16.2866 21.2996 16.4714 21.2644 16.6587 21.2322C16.6643 21.2415 16.6699 21.2514 16.6754 21.2607C17.3133 22.3669 18.4068 23 19.6195 23C19.8155 23 20.0151 22.9833 20.216 22.9494C21.5654 22.722 22.6841 21.6343 22.937 20.3045C23.212 18.8505 22.5852 17.4744 21.3008 16.714ZM13.7282 17.3891V18.559C12.9784 18.4694 12.3127 18.1958 11.6483 17.7041L12.487 16.9043L11.6742 16.0525L10.8855 16.9407C10.3879 16.2983 10.1067 15.6325 10.0065 14.8598H11.1785V13.7437H10.0084C10.0869 13.0025 10.3564 12.3385 10.849 11.6708L11.6427 12.5584L12.4691 11.677L11.6353 10.8802C12.2874 10.3885 12.9506 10.1124 13.7072 10.0191V11.1828H14.8347V10.0198C15.5974 10.1062 16.2588 10.3842 16.9523 10.9086L16.0752 11.6918L16.8775 12.4799L17.6477 11.6059C18.1657 12.2742 18.455 12.9555 18.552 13.7332H17.3838V14.8388H18.5551C18.4352 15.6763 18.1595 16.3249 17.6718 16.9154L16.9146 16.0216L16.0981 16.8956L16.9115 17.6695C16.362 18.1427 15.7334 18.4151 14.8452 18.5652V17.3891H13.7282ZM20.174 16.1143C20.1264 16.2718 20.0924 16.2983 19.957 16.2823C19.7901 16.2625 19.6226 16.2668 19.4458 16.2712C19.4106 16.2718 19.3747 16.273 19.3383 16.2736C19.8723 14.8042 19.8297 13.3749 19.2109 12.0235C18.7158 10.9419 17.929 10.1001 16.8714 9.52069C15.8416 8.95676 14.6826 8.74614 13.5193 8.91167C12.3566 9.07659 11.299 9.6016 10.4609 10.4293C8.75114 12.1174 8.35183 14.6763 9.46692 16.7962C10.1209 18.0395 11.1247 18.9141 12.4493 19.3953C13.6714 19.8394 14.9527 19.8233 16.2594 19.3477C16.2594 19.3638 16.2594 19.3805 16.2594 19.3959C16.2588 19.5176 16.2582 19.6294 16.2607 19.743C16.2644 19.9463 16.2662 20.0587 16.2285 20.1062C16.1896 20.1557 16.069 20.1884 15.8682 20.2421C13.8988 20.7715 11.7972 20.2872 10.2464 18.9463C8.69612 17.6059 7.91482 15.5985 8.15589 13.5769C8.52305 10.5009 11.1117 8.15503 14.1776 8.11983C14.2017 8.11983 14.2252 8.11921 14.2493 8.11921C17.3343 8.11921 19.9688 10.3935 20.3934 13.4367C20.5158 14.3206 20.4422 15.2211 20.174 16.1143ZM18.0279 18.0395C18.4513 17.6146 19.0193 17.3799 19.6269 17.3792C19.6276 17.3792 19.6282 17.3792 19.6294 17.3792C20.2339 17.3792 20.8014 17.6133 21.2266 18.0389C21.6531 18.4651 21.888 19.0334 21.8886 19.6399C21.8899 20.8789 20.8836 21.8888 19.6449 21.8919C19.643 21.8919 19.6411 21.8919 19.6393 21.8919C19.0342 21.8919 18.4655 21.659 18.0384 21.2359C17.61 20.8116 17.3733 20.2452 17.3727 19.6418C17.3714 19.0334 17.6044 18.4645 18.0279 18.0395Z" fill="#00199F"/>
<path d="M15.7643 13.7343H14.8304V12.1797H13.7493V14.8251H15.7643V13.7343Z" fill="#00199F"/>
</g>
<defs>
<clipPath id="clip0">
<rect width="16" height="16" fill="white" transform="translate(7 7)"/>
</clipPath>
</defs>
</svg>
