<svg width="30" height="30" viewBox="0 0 30 30" fill="none" xmlns="http://www.w3.org/2000/svg">
<rect width="30" height="30" rx="12" fill="#F0F5FF"/>
<g clip-path="url(#clip0)">
<path d="M21.3008 16.714C21.1834 16.6442 21.1809 16.6072 21.2211 16.4793C21.5635 15.4002 21.6451 14.2582 21.464 13.0846C21.1673 11.1649 20.0454 9.41445 18.3851 8.28227C16.7205 7.14639 14.6727 6.73934 12.7664 7.16492C8.84138 8.04077 6.41527 11.6986 7.12239 15.672C7.75782 19.2452 11.215 21.8752 14.8285 21.5349C15.2544 21.4947 15.6685 21.4163 16.1067 21.3335C16.286 21.2996 16.4714 21.2644 16.6581 21.2322L16.6748 21.2607C17.3127 22.3669 18.4061 23 19.6189 23C19.8148 23 20.0145 22.9833 20.2154 22.9494C21.5647 22.722 22.6835 21.6343 22.9363 20.3045C23.212 18.8505 22.5852 17.4744 21.3008 16.714ZM19.6393 21.8919C19.0342 21.8919 18.4655 21.659 18.0384 21.2359C17.61 20.8116 17.3733 20.2452 17.3727 19.6418C17.3714 19.0334 17.6044 18.4645 18.0279 18.0395C18.4513 17.6146 19.0193 17.3799 19.6269 17.3792C19.6276 17.3792 19.6282 17.3792 19.6294 17.3792C20.2339 17.3792 20.8014 17.6133 21.2266 18.0389C21.6531 18.4651 21.888 19.0334 21.8886 19.6399C21.8899 20.8579 20.8626 21.8888 19.6449 21.8919C19.643 21.8919 19.6411 21.8919 19.6393 21.8919ZM13.7282 17.3891V18.559C12.9784 18.4694 12.3127 18.1958 11.6483 17.7041L12.4877 16.9043L11.6748 16.0531L10.8861 16.9413C10.3885 16.2989 10.1073 15.6331 10.0072 14.8604H11.1785V13.7443H10.0084C10.0875 13.0031 10.3564 12.3391 10.849 11.6714L11.6427 12.559L12.4691 11.6776L11.6353 10.8808C12.2874 10.3891 12.9513 10.113 13.7072 10.0198V11.1834H14.8347V10.0198C15.5974 10.1062 16.2588 10.3842 16.9523 10.908L16.0752 11.6912L16.8775 12.4793L17.6477 11.6053C18.1657 12.2736 18.455 12.9549 18.552 13.7325H17.3838V14.8382H18.5551C18.4352 15.6757 18.1595 16.3243 17.6718 16.9148L16.9146 16.021L16.0981 16.895L16.9115 17.6689C16.362 18.1421 15.7334 18.4145 14.8452 18.5645V17.3891H13.7282ZM20.174 16.1143C20.1264 16.2718 20.0918 16.2983 19.957 16.2823C19.7901 16.2625 19.6226 16.2668 19.4458 16.2712C19.4106 16.2718 19.3747 16.273 19.3389 16.2736C19.8729 14.8042 19.8303 13.3755 19.2116 12.0235C18.7164 10.9419 17.9296 10.1001 16.872 9.52069C15.8422 8.95676 14.6832 8.74614 13.5199 8.91167C12.3572 9.07659 11.2996 9.6016 10.4615 10.4293C8.75114 12.1174 8.35183 14.6757 9.46692 16.7962C10.1209 18.0395 11.1247 18.9141 12.4493 19.3953C13.6714 19.8394 14.9527 19.8233 16.2594 19.3477C16.2594 19.3638 16.2594 19.3805 16.2594 19.3959C16.2588 19.5176 16.2582 19.6294 16.2607 19.743C16.2644 19.9463 16.2662 20.0587 16.2285 20.1062C16.1902 20.1557 16.069 20.1884 15.8682 20.2421C13.8988 20.7721 11.7972 20.2872 10.2464 18.9463C8.69612 17.6059 7.9142 15.5985 8.15589 13.5769C8.52305 10.5009 11.1117 8.15503 14.1782 8.11983C14.2023 8.11983 14.2258 8.11921 14.2499 8.11921C17.3349 8.11921 19.9694 10.3935 20.394 13.4367C20.5158 14.3206 20.4422 15.2211 20.174 16.1143Z" fill="#00199F"/>
<path d="M15.7643 13.7343H14.8304V12.1797H13.7493V14.8251H15.7643V13.7343Z" fill="#00199F"/>
<path d="M19.2806 19.5575L18.9017 19.2073L18.168 19.9268L19.254 21.0559L21.0676 19.2517L20.3252 18.4346L19.2806 19.5575Z" fill="#00199F"/>
</g>
<defs>
<clipPath id="clip0">
<rect width="16" height="16" fill="white" transform="translate(7 7)"/>
</clipPath>
</defs>
</svg>
