<svg width="30" height="30" viewBox="0 0 30 30" fill="none" xmlns="http://www.w3.org/2000/svg">
<rect width="30" height="30" rx="12" fill="#F0F5FF"/>
<g clip-path="url(#clip0)">
<path d="M20.5181 14.8427H20.5084C21.3662 14.5334 21.9808 13.7126 21.9808 12.7498C21.9808 11.5225 20.981 10.5227 19.7537 10.5227C18.9134 10.5227 18.1802 10.9915 17.8009 11.682C17.869 11.435 17.9079 11.1763 17.9079 10.9079C17.9098 9.30513 16.6047 8 15 8C13.3953 8 12.0902 9.30513 12.0902 10.9098C12.0902 11.1782 12.1291 11.4369 12.1972 11.6839C11.8179 10.9934 11.0846 10.5247 10.2443 10.5247C9.01702 10.5247 8.01726 11.5244 8.01726 12.7518C8.01726 13.7146 8.6319 14.5334 9.48967 14.8446H9.47994C8.11257 14.8427 7 15.9553 7 17.3246V19.7676C7 20.6312 7.70216 21.3333 8.56577 21.3333H21.4323C22.2959 21.3333 22.9981 20.6312 22.9981 19.7676V17.3246C23 15.9553 21.8874 14.8427 20.5181 14.8427ZM13.3953 10.9098C13.3953 10.0248 14.115 9.30513 15 9.30513C15.885 9.30513 16.6047 10.0248 16.6047 10.9098C16.6047 11.7948 15.885 12.5145 15 12.5145C14.115 12.5145 13.3953 11.7948 13.3953 10.9098ZM9.48189 16.1459H11.0107C11.0632 16.1459 11.1177 16.1498 11.1702 16.1575V20.0301H8.56577C8.41989 20.0301 8.30318 19.9115 8.30318 19.7676V17.3246C8.30318 16.6749 8.83224 16.1459 9.48189 16.1459ZM12.4714 16.1517C12.4714 15.5021 13.0005 14.975 13.6482 14.975H16.3499C16.9995 14.975 17.5266 15.504 17.5266 16.1517V20.0301H12.4695V16.1517H12.4714ZM18.8318 16.1575C18.8843 16.1498 18.9368 16.1459 18.9912 16.1459H20.5201C21.1697 16.1459 21.6968 16.6749 21.6968 17.3226V19.7676C21.6968 19.9134 21.5782 20.0301 21.4342 20.0301H18.8318V16.1575ZM18.8318 12.7498C18.8318 12.2402 19.246 11.8279 19.7537 11.8279C20.2633 11.8279 20.6757 12.2422 20.6757 12.7498C20.6757 13.2594 20.2614 13.6718 19.7537 13.6718C19.246 13.6718 18.8318 13.2594 18.8318 12.7498ZM19.001 14.8427H18.9912C18.824 14.8427 18.6548 14.8602 18.4894 14.8952C18.044 14.1366 17.2368 13.6698 16.3518 13.6698H15.9142C16.6475 13.4267 17.2524 12.8976 17.5966 12.2169C17.5539 12.388 17.5286 12.567 17.5286 12.7498C17.5286 13.7126 18.1432 14.5334 19.001 14.8427ZM10.2463 11.8279C10.7559 11.8279 11.1682 12.2422 11.1682 12.7498C11.1682 13.2594 10.754 13.6718 10.2463 13.6718C9.73863 13.6718 9.32434 13.2575 9.32434 12.7498C9.32239 12.2422 9.73669 11.8279 10.2463 11.8279ZM12.4714 12.7498C12.4714 12.565 12.4461 12.388 12.4034 12.2169C12.7476 12.8976 13.3525 13.4267 14.0858 13.6698H13.6482C12.7612 13.6698 11.956 14.1347 11.5106 14.8952C11.3452 14.8602 11.176 14.8427 11.0088 14.8427H10.999C11.8568 14.5334 12.4714 13.7126 12.4714 12.7498Z" fill="#00199F"/>
</g>
<defs>
<clipPath id="clip0">
<rect width="16" height="13.3333" fill="white" transform="translate(7 8)"/>
</clipPath>
</defs>
</svg>
