<svg width="30" height="30" viewBox="0 0 30 30" fill="none" xmlns="http://www.w3.org/2000/svg">
<rect width="30" height="30" rx="12" fill="#F0F5FF"/>
<g clip-path="url(#clip0)">
<path d="M21.5912 20.0582C21.5912 20.0391 21.59 20.0213 21.59 19.9974C21.5364 16.6088 20.9756 15.1848 17.9704 14.4347C18.6395 13.6453 19.0527 12.563 19.0527 11.37C19.0527 10.2889 19.0527 7.00147 15.2986 7.00147C11.5432 7.00027 11.5432 10.2889 11.5432 11.3688C11.5432 12.563 11.9576 13.6453 12.6267 14.4347C9.65605 15.1848 9.06906 16.6303 9.00833 19.8855C9.00714 19.9665 9.00595 20.0189 9.00476 20.0546C9.00357 20.0725 9 20.0891 9 20.1082V20.126C9 20.1356 9 20.1451 9 20.1546V20.713L9.01667 20.7464L9.02619 21.0619L9.18812 21.0607C9.55604 21.6108 10.9193 23.0015 15.2986 23.0015C19.4623 23.0015 20.8994 21.7453 21.3471 21.1488L21.5554 21.1512L21.5733 20.7595L21.5959 20.7142V20.2665C21.5983 20.2141 21.5995 20.1427 21.5912 20.0582ZM15.2986 8.78625C16.8071 8.78625 17.2667 9.38992 17.2667 11.3688C17.2667 12.7928 16.3832 13.9513 15.2986 13.9513C14.2127 13.9513 13.3304 12.7928 13.3304 11.3688C13.3292 9.38992 13.79 8.78625 15.2986 8.78625ZM15.2986 21.2143C12.2529 21.2143 11.1229 20.4844 10.7872 20.1844C10.7884 20.1689 10.7884 20.1534 10.7896 20.1379C10.7907 20.0963 10.7919 20.0284 10.7943 19.9201C10.8205 18.5401 10.9158 17.5768 11.3146 17.0458C11.6421 16.6088 12.2814 16.3171 13.4792 16.0695C13.8471 16.3255 14.4437 16.6041 15.2986 16.6041C16.1534 16.6041 16.75 16.3255 17.1179 16.0695C18.3264 16.3195 18.9693 16.6148 19.2932 17.0601C19.6885 17.6019 19.7814 18.596 19.804 20.026C19.8052 20.0963 19.8064 20.1487 19.8064 20.1868C19.4682 20.4868 18.3371 21.2143 15.2986 21.2143Z" fill="#00199F"/>
</g>
<defs>
<clipPath id="clip0">
<rect width="12.5971" height="16" fill="white" transform="translate(9 7)"/>
</clipPath>
</defs>
</svg>
