<svg width="30" height="30" viewBox="0 0 30 30" fill="none" xmlns="http://www.w3.org/2000/svg">
<rect width="30" height="30" rx="12" fill="#F0F5FF"/>
<g clip-path="url(#clip0)">
<path d="M17.838 12.2659C17.838 10.7015 16.5652 9.42871 15.0008 9.42871C13.4364 9.42871 12.1636 10.7015 12.1636 12.2659C12.1636 13.8304 13.4364 15.1032 15.0008 15.1032C16.5652 15.1032 17.838 13.8304 17.838 12.2659ZM13.5862 12.2659C13.5862 11.4859 14.2207 10.8514 15.0008 10.8514C15.7809 10.8514 16.4154 11.4859 16.4154 12.2659C16.4154 13.046 15.7809 13.6805 15.0008 13.6805C14.2207 13.6805 13.5862 13.046 13.5862 12.2659Z" fill="#00199F"/>
<path d="M22.8193 21.4095L20.2842 17.7651C20.0921 17.4901 19.7753 17.3255 19.4372 17.3255H18.1805C19.5842 15.0541 20.2671 13.3976 20.2671 12.2666C20.2676 9.36254 17.905 7 15.0009 7C12.0964 7 9.73384 9.36254 9.73384 12.2666C9.73384 13.3976 10.4172 15.0541 11.8204 17.3255H10.5637C10.2256 17.3255 9.90882 17.4896 9.71629 17.7661L7.18114 21.4109C6.95968 21.7291 6.93929 22.1369 7.12945 22.4788C7.31107 22.8008 7.65535 23.0005 8.02856 23.0005H21.9724C22.347 23.0005 22.6918 22.7994 22.872 22.476C23.0626 22.1365 23.0422 21.7282 22.8193 21.4095ZM15.0009 8.42264C17.1207 8.42264 18.8449 10.1469 18.8449 12.2666C18.8449 13.7908 16.655 17.2592 15.0009 19.4861C13.3469 17.2592 11.157 13.7908 11.157 12.2666C11.1565 10.1469 12.8812 8.42264 15.0009 8.42264ZM8.79821 21.5774L10.7662 18.7482H11.9034C12.7361 19.9527 13.4706 20.8864 13.6897 21.1605C13.8268 21.3317 13.998 21.473 14.1896 21.5774H8.79821ZM15.8123 21.5774C16.0039 21.473 16.1741 21.3322 16.3107 21.1615C16.4639 20.9699 17.225 20.0106 18.098 18.7482H19.2352L21.2032 21.5774H15.8123Z" fill="#00199F"/>
</g>
<defs>
<clipPath id="clip0">
<rect width="16.0019" height="16" fill="white" transform="translate(7 7)"/>
</clipPath>
</defs>
</svg>
