<svg width="32" height="32" viewBox="0 0 32 32" fill="none" xmlns="http://www.w3.org/2000/svg">
<rect width="32" height="32" rx="10" fill="#F0FCF8"/>
<g clip-path="url(#clip0_594_28717)">
<path d="M16.0593 8H16.0198C13.8864 8 11.8716 8.82963 10.3704 10.3309C8.82963 11.8321 8 13.8074 8 15.9802C8 18.1531 8.82963 20.1679 10.3309 21.6691C11.8321 23.1704 13.8469 24 15.9802 24C20.4444 24 23.9605 20.484 24 16.0198C24 11.5951 20.4444 8.03951 16.0593 8ZM15.9802 9.61975C17.679 9.61975 19.2988 10.2914 20.484 11.4765C21.6691 12.6617 22.3407 14.2815 22.3407 15.9407C22.3407 19.4568 19.4963 22.3407 15.9802 22.3407C14.2815 22.3407 12.7012 21.6691 11.4765 20.484C10.2519 19.2593 9.61975 17.679 9.61975 15.9802C9.61975 12.5037 12.4642 9.61975 15.9802 9.61975Z" fill="#179A6B"/>
<path d="M16.6124 17.8765L16.8099 11.5555H15.1902L15.3877 17.8765H16.6124Z" fill="#179A6B"/>
<path d="M16.0197 18.5086C15.5061 18.5086 15.1111 18.9037 15.1111 19.4568C15.1111 20.0098 15.5061 20.4049 16.0197 20.4049C16.5728 20.4049 16.9284 20.0098 16.9284 19.4568C16.9284 18.9037 16.5333 18.5086 16.0197 18.5086Z" fill="#179A6B"/>
</g>
<defs>
<clipPath id="clip0_594_28717">
<rect width="16" height="16" fill="white" transform="translate(8 8)"/>
</clipPath>
</defs>
</svg>
