<svg width="30" height="30" viewBox="0 0 30 30" fill="none" xmlns="http://www.w3.org/2000/svg">
<rect width="30" height="30" rx="12" fill="#F0F5FF"/>
<path d="M13.3821 19.9409H8.85307C8.44791 19.9409 8.11812 19.6111 8.11812 19.2059V10.7941C8.11812 10.3889 8.44791 10.0591 8.85307 10.0591H9.58802V10.1471C9.58802 10.8121 10.129 11.3531 10.7941 11.3531H14.6761C15.3412 11.3531 15.8822 10.8121 15.8822 10.1471V10.0591H16.6171C17.0223 10.0591 17.3521 10.3889 17.3521 10.7941V12.7351C17.3521 13.0437 17.6025 13.2942 17.9111 13.2942C18.2197 13.2942 18.4702 13.0437 18.4702 12.7351V10.7941C18.4702 9.77254 17.6387 8.94101 16.6171 8.94101H15.8822V8.85307C15.8822 8.54449 15.6317 8.29401 15.3231 8.29401H14.5026C14.2615 7.53394 13.547 7 12.7351 7C11.9232 7 11.2087 7.53394 10.9684 8.29401H10.1471C9.83849 8.29401 9.58802 8.54449 9.58802 8.85307V8.94101H8.85307C7.83153 8.94101 7 9.77254 7 10.7941V19.2059C7 20.2275 7.83153 21.059 8.85307 21.059H13.3821C13.6907 21.059 13.9412 20.8085 13.9412 20.4999C13.9412 20.1913 13.6907 19.9409 13.3821 19.9409ZM14.764 10.1471C14.764 10.195 14.724 10.235 14.6761 10.235H10.7941C10.7462 10.235 10.7061 10.195 10.7061 10.1471V9.41213H11.4411C11.7497 9.41213 12.0001 9.16165 12.0001 8.85307C12.0001 8.44791 12.3299 8.11812 12.7351 8.11812C13.1403 8.11812 13.47 8.44791 13.47 8.85307C13.47 9.16165 13.7205 9.41213 14.0291 9.41213H14.764V10.1471Z" fill="#00199F"/>
<path d="M16.5301 12.7353C16.5301 12.4267 16.2796 12.1763 15.971 12.1763H9.50096C9.19237 12.1763 8.94189 12.4267 8.94189 12.7353C8.94189 13.0439 9.19237 13.2944 9.50096 13.2944H15.971C16.2788 13.2944 16.5301 13.0439 16.5301 12.7353Z" fill="#00199F"/>
<path d="M16.2064 14.6762C16.2064 14.3677 15.9559 14.1172 15.6473 14.1172H9.49998C9.1914 14.1172 8.94092 14.3677 8.94092 14.6762C8.94092 14.9848 9.1914 15.2353 9.49998 15.2353H15.6465C15.9551 15.2353 16.2064 14.9848 16.2064 14.6762Z" fill="#00199F"/>
<path d="M9.49998 16.0586C9.1914 16.0586 8.94092 16.3091 8.94092 16.6177C8.94092 16.9262 9.1914 17.1767 9.49998 17.1767H14.9995C15.3081 17.1767 15.5586 16.9262 15.5586 16.6177C15.5586 16.3091 15.3081 16.0586 14.9995 16.0586H9.49998Z" fill="#00199F"/>
<path d="M21.9437 19.8749L20.4118 19.6849V18.855C20.4118 18.654 20.5366 18.4883 20.6411 18.3846C21.1193 17.9127 21.3823 17.2854 21.3823 16.6171C21.3823 15.8751 21.0564 15.1771 20.488 14.7005C19.9195 14.2246 19.1696 14.026 18.4307 14.1563C17.4288 14.333 16.6036 15.1567 16.423 16.1594C16.2777 16.9658 16.5196 17.7628 17.0857 18.3462C17.2074 18.471 17.3527 18.6704 17.3527 18.9099V19.6833L15.8207 19.8742C15.2185 19.9487 14.7646 20.4631 14.7646 21.0708V22.4402C14.7646 22.7488 15.0151 22.9992 15.3237 22.9992H22.4407C22.7493 22.9992 22.9998 22.7488 22.9998 22.4402V21.0708C22.9998 20.4638 22.546 19.9495 21.9437 19.8749ZM19.2937 19.6174H18.4708V18.9107C18.4708 18.4247 18.269 17.9606 17.8874 17.568C17.5757 17.2461 17.443 16.8056 17.5238 16.3596C17.6228 15.8084 18.0758 15.3561 18.6247 15.2588C19.0448 15.1849 19.4507 15.2917 19.7695 15.5579C20.0844 15.8225 20.2642 16.2088 20.2642 16.6179C20.2642 16.9846 20.1189 17.3293 19.8559 17.5892C19.4931 17.9465 19.2937 18.3956 19.2937 18.855V19.6174ZM17.9259 20.7355H19.8182L21.8047 20.9844C21.8487 20.9899 21.8817 21.0276 21.8817 21.0716V21.8819H15.8828V21.0708C15.8828 21.0268 15.9157 20.9891 15.9605 20.9836L17.9259 20.7355Z" fill="#00199F"/>
</svg>
