<svg width="30" height="30" viewBox="0 0 30 30" fill="none" xmlns="http://www.w3.org/2000/svg">
<rect width="30" height="30" rx="12" fill="#F0F5FF"/>
<g clip-path="url(#clip0)">
<path d="M20.9526 9.87724H17.9938V9.42145C17.9938 8.65085 17.3429 8 16.5723 8H13.4436C12.673 8 12.0222 8.65085 12.0222 9.42145V9.87724H9.06337C7.91521 9.87724 7.01618 10.7763 7.01618 11.9244V12.9925C6.993 13.1035 6.99493 13.2136 7.01618 13.3169V19.4334C7.01618 20.5816 7.91521 21.4806 9.06337 21.4806H20.9526C22.1007 21.4806 22.9998 20.5816 22.9998 19.4334V11.9244C22.9998 10.7763 22.1007 9.87724 20.9526 9.87724ZM21.4084 19.4334C21.4084 19.6681 21.1872 19.8892 20.9526 19.8892H9.06337C8.82872 19.8892 8.60758 19.6681 8.60758 19.4334V14.3164L14.8013 16.4746H15.008C15.175 16.4746 15.3131 16.4196 15.4078 16.323L21.4084 14.2362V19.4334ZM20.9526 11.4686C21.1872 11.4686 21.4084 11.6898 21.4084 11.9244V12.5878L15.008 14.8542L8.60758 12.5888V11.9244C8.60758 11.6898 8.82872 11.4686 9.06337 11.4686H20.9526ZM16.4024 9.87724H13.6136V9.59141H16.4024V9.87724Z" fill="#00199F"/>
</g>
<defs>
<clipPath id="clip0">
<rect width="16" height="13.4806" fill="white" transform="translate(7 8)"/>
</clipPath>
</defs>
</svg>
