<svg width="171" height="32" viewBox="0 0 171 32" fill="none" xmlns="http://www.w3.org/2000/svg">
<path d="M30.1834 7.7205C29.7347 7.04677 29.1964 6.64253 28.4427 6.2383L18.1512 0.6632C16.5272 -0.221067 14.5084 -0.221067 12.8844 0.6632L2.57498 6.2383C1.75848 6.67622 0.672807 7.49311 0.583082 8.52055C0.376714 10.9544 3.72346 12.4787 5.95761 13.5988C9.80682 15.5189 12.3012 16.639 14.1764 18.4412C14.5892 18.8454 15.2531 19.5444 15.4954 20.1002C15.7376 19.5444 16.4016 18.8454 16.8143 18.4412C18.6986 16.6305 21.184 15.5189 25.0332 13.5988C27.2314 12.4955 30.4705 11.106 30.4077 8.52055C30.4077 8.31843 30.309 7.94788 30.1654 7.7205H30.1834ZM15.5133 14.4915C13.7099 14.4915 12.2473 13.1187 12.2473 11.426C12.2473 9.73326 13.7099 8.36054 15.5133 8.36054C17.3168 8.36054 18.7793 9.73326 18.7793 11.426C18.7793 13.1187 17.3168 14.4915 15.5133 14.4915Z" fill="url(#paint0_linear_156_22)"/>
<path d="M25.0602 15.2073C20.4842 17.4896 17.2721 18.5507 16.0249 22.2394C15.8724 22.6773 15.6839 23.1489 15.5045 24.0584C15.325 23.1573 15.1276 22.6857 14.9841 22.2478C13.7369 18.5591 10.5247 17.498 5.94877 15.2158C1.19334 12.8493 0.17945 11.6619 0 11.165V21.6835C0 23.4437 1.00492 25.0775 2.62894 25.9617L12.9114 31.5368C13.2883 31.7389 13.6203 31.8905 13.9881 32C13.8625 31.5873 13.719 31.1494 13.5395 30.6778C10.3274 22.2225 4.63878 20.1508 4.63878 20.1508C4.63878 20.1508 7.28567 20.3529 11.0721 24.0163C12.9025 25.7933 14.347 27.9239 15.4955 30.1388C15.4955 30.1388 18.0168 25.8522 19.9279 24.0079C23.7143 20.3361 26.3612 20.1424 26.3612 20.1424C26.3612 20.1424 20.6726 22.2225 17.4605 30.6694C17.281 31.1326 17.1375 31.5789 17.0119 31.9916C17.3797 31.8821 17.7117 31.7305 18.0886 31.5284L28.3711 25.9533C29.9951 25.069 31 23.4352 31 21.6751V11.1566C30.8205 11.6534 29.8067 12.8409 25.0602 15.2073Z" fill="url(#paint1_linear_156_22)"/>
<path d="M36.7812 9.78906V7H49.9219V9.78906H45.0234V23H41.6797V9.78906H36.7812ZM52.0859 23V7H55.4688V13.6016H62.3359V7H65.7109V23H62.3359V16.3906H55.4688V23H52.0859ZM75.9141 13.6797V16.3203H68.6172V13.6797H75.9141ZM77.5371 9.78906V7H90.6777V9.78906H85.7793V23H82.4355V9.78906H77.5371ZM91.5332 23V11H94.7598V13.0937H94.8848C95.1035 12.349 95.4707 11.7865 95.9863 11.4063C96.502 11.0208 97.0957 10.8281 97.7676 10.8281C97.9342 10.8281 98.1139 10.8385 98.3066 10.8594C98.4993 10.8802 98.6686 10.9089 98.8145 10.9453V13.8984C98.6582 13.8516 98.4421 13.8099 98.166 13.7734C97.89 13.737 97.6374 13.7188 97.4082 13.7188C96.9186 13.7188 96.4811 13.8255 96.0957 14.0391C95.7155 14.2474 95.4134 14.5391 95.1895 14.9141C94.9707 15.2891 94.8613 15.7214 94.8613 16.2109V23H91.5332ZM103.613 23.2266C102.848 23.2266 102.165 23.0938 101.566 22.8281C100.967 22.5573 100.493 22.1589 100.145 21.6328C99.8008 21.1016 99.6289 20.4401 99.6289 19.6484C99.6289 18.9818 99.7513 18.4219 99.9961 17.9687C100.241 17.5156 100.574 17.151 100.996 16.875C101.418 16.599 101.897 16.3906 102.434 16.25C102.975 16.1094 103.543 16.0104 104.137 15.9531C104.835 15.8802 105.397 15.8125 105.824 15.75C106.251 15.6823 106.561 15.5833 106.754 15.4531C106.947 15.3229 107.043 15.1302 107.043 14.875V14.8281C107.043 14.3333 106.887 13.9505 106.574 13.6797C106.267 13.4089 105.829 13.2734 105.262 13.2734C104.663 13.2734 104.186 13.4062 103.832 13.6719C103.478 13.9323 103.243 14.2604 103.129 14.6562L100.051 14.4062C100.207 13.6771 100.514 13.0469 100.973 12.5156C101.431 11.9792 102.022 11.5677 102.746 11.2812C103.475 10.9896 104.319 10.8438 105.277 10.8438C105.944 10.8438 106.582 10.9219 107.191 11.0781C107.806 11.2344 108.35 11.4766 108.824 11.8047C109.303 12.1328 109.681 12.5547 109.957 13.0703C110.233 13.5807 110.371 14.1927 110.371 14.9062V23H107.215V21.3359H107.121C106.928 21.7109 106.671 22.0417 106.348 22.3281C106.025 22.6094 105.637 22.8307 105.184 22.9922C104.73 23.1484 104.207 23.2266 103.613 23.2266ZM104.566 20.9297C105.056 20.9297 105.488 20.8333 105.863 20.6406C106.238 20.4427 106.533 20.1771 106.746 19.8438C106.96 19.5104 107.066 19.1328 107.066 18.7109V17.4375C106.962 17.5052 106.819 17.5677 106.637 17.625C106.46 17.6771 106.259 17.7266 106.035 17.7734C105.811 17.8151 105.587 17.8542 105.363 17.8906C105.139 17.9219 104.936 17.9505 104.754 17.9766C104.363 18.0339 104.022 18.125 103.73 18.25C103.439 18.375 103.212 18.5443 103.051 18.7578C102.889 18.9661 102.809 19.2266 102.809 19.5391C102.809 19.9922 102.973 20.3385 103.301 20.5781C103.634 20.8125 104.056 20.9297 104.566 20.9297ZM118.375 23.2344C117.146 23.2344 116.089 22.974 115.203 22.4531C114.323 21.9271 113.646 21.1979 113.172 20.2656C112.703 19.3333 112.469 18.2604 112.469 17.0469C112.469 15.8177 112.706 14.7396 113.18 13.8125C113.659 12.8802 114.339 12.1536 115.219 11.6328C116.099 11.1068 117.146 10.8438 118.359 10.8438C119.406 10.8438 120.323 11.0339 121.109 11.4141C121.896 11.7943 122.518 12.3281 122.977 13.0156C123.435 13.7031 123.688 14.5104 123.734 15.4375H120.594C120.505 14.8385 120.271 14.3568 119.891 13.9922C119.516 13.6224 119.023 13.4375 118.414 13.4375C117.898 13.4375 117.448 13.5781 117.063 13.8594C116.682 14.1354 116.385 14.5391 116.172 15.0703C115.958 15.6016 115.852 16.2448 115.852 17C115.852 17.7656 115.956 18.4167 116.164 18.9531C116.378 19.4896 116.677 19.8984 117.063 20.1797C117.448 20.4609 117.898 20.6016 118.414 20.6016C118.794 20.6016 119.135 20.5234 119.438 20.3672C119.745 20.2109 119.997 19.9844 120.195 19.6875C120.398 19.3854 120.531 19.0234 120.594 18.6016H123.734C123.682 19.5182 123.432 20.3255 122.984 21.0234C122.542 21.7161 121.93 22.2578 121.148 22.6484C120.367 23.0391 119.443 23.2344 118.375 23.2344ZM125.865 23V11H129.193V23H125.865ZM127.537 9.45312C127.042 9.45312 126.618 9.28906 126.264 8.96094C125.915 8.6276 125.74 8.22917 125.74 7.76562C125.74 7.30729 125.915 6.91406 126.264 6.58594C126.618 6.2526 127.042 6.08594 127.537 6.08594C128.032 6.08594 128.454 6.2526 128.803 6.58594C129.157 6.91406 129.334 7.30729 129.334 7.76562C129.334 8.22917 129.157 8.6276 128.803 8.96094C128.454 9.28906 128.032 9.45312 127.537 9.45312ZM135.188 16.0625V23H131.859V11H135.031V13.1172H135.172C135.438 12.4193 135.883 11.8672 136.508 11.4609C137.133 11.0495 137.891 10.8438 138.781 10.8438C139.615 10.8438 140.341 11.026 140.961 11.3906C141.581 11.7552 142.063 12.276 142.406 12.9531C142.75 13.625 142.922 14.4271 142.922 15.3594V23H139.594V15.9531C139.599 15.2187 139.411 14.6458 139.031 14.2344C138.651 13.8177 138.128 13.6094 137.461 13.6094C137.013 13.6094 136.617 13.7057 136.273 13.8984C135.935 14.0911 135.669 14.3724 135.477 14.7422C135.289 15.1068 135.193 15.5469 135.188 16.0625ZM150.951 27.75C149.873 27.75 148.949 27.6016 148.178 27.3047C147.412 27.013 146.803 26.6146 146.35 26.1094C145.896 25.6042 145.602 25.0365 145.467 24.4062L148.545 23.9922C148.639 24.2318 148.787 24.4557 148.99 24.6641C149.193 24.8724 149.462 25.0391 149.795 25.1641C150.133 25.2943 150.545 25.3594 151.029 25.3594C151.753 25.3594 152.35 25.1823 152.818 24.8281C153.292 24.4792 153.529 23.8932 153.529 23.0703V20.875H153.389C153.243 21.2083 153.024 21.5234 152.732 21.8203C152.441 22.1172 152.066 22.3594 151.607 22.5469C151.149 22.7344 150.602 22.8281 149.967 22.8281C149.066 22.8281 148.245 22.6198 147.506 22.2031C146.771 21.7812 146.186 21.138 145.748 20.2734C145.316 19.4036 145.1 18.3047 145.1 16.9766C145.1 15.6172 145.321 14.4818 145.764 13.5703C146.206 12.6589 146.795 11.9766 147.529 11.5234C148.269 11.0703 149.079 10.8438 149.959 10.8438C150.631 10.8438 151.193 10.9583 151.646 11.1875C152.1 11.4115 152.464 11.6927 152.74 12.0312C153.021 12.3646 153.238 12.6927 153.389 13.0156H153.514V11H156.818V23.1172C156.818 24.138 156.568 24.9922 156.068 25.6797C155.568 26.3672 154.876 26.8828 153.99 27.2266C153.11 27.5755 152.097 27.75 150.951 27.75ZM151.021 20.3281C151.558 20.3281 152.011 20.1953 152.381 19.9297C152.756 19.6589 153.042 19.2734 153.24 18.7734C153.443 18.2682 153.545 17.6641 153.545 16.9609C153.545 16.2578 153.446 15.6484 153.248 15.1328C153.05 14.612 152.764 14.2083 152.389 13.9219C152.014 13.6354 151.558 13.4922 151.021 13.4922C150.475 13.4922 150.014 13.6406 149.639 13.9375C149.264 14.2292 148.98 14.6354 148.787 15.1562C148.594 15.6771 148.498 16.2786 148.498 16.9609C148.498 17.6536 148.594 18.2526 148.787 18.7578C148.985 19.2578 149.269 19.6458 149.639 19.9219C150.014 20.1927 150.475 20.3281 151.021 20.3281Z" fill="#179A6B"/>
<defs>
<linearGradient id="paint0_linear_156_22" x1="0.574109" y1="10.0449" x2="30.4256" y2="10.0449" gradientUnits="userSpaceOnUse">
<stop stop-color="#35A1FF"/>
<stop offset="1" stop-color="#27D8FF"/>
</linearGradient>
<linearGradient id="paint1_linear_156_22" x1="19.1294" y1="6.54152" x2="10.2986" y2="34.9033" gradientUnits="userSpaceOnUse">
<stop stop-color="#179A6B"/>
<stop offset="1" stop-color="#AED136"/>
</linearGradient>
</defs>
</svg>
