<svg id="Layer_1" data-name="Layer 1" xmlns="http://www.w3.org/2000/svg" viewBox="0 0 3600 3673.5"><defs><style>.cls-1{fill:#da173e;}.cls-2{fill:#fff;}</style></defs><title>bd</title><rect class="cls-1" width="3600" height="3673.47"/><path class="cls-2" d="M1876.3,3087.2H1540.7c0,150.8,116.9,274.6,259.3,274.6s259.3-123.9,259.3-274.6h-183Z" transform="translate(0 36.7)"/><path class="cls-2" d="M2033.9,2839.5H1566.1c-40.7,5.4-76.3,43.1-71.2,86.2,5.1,37.7,35.6,70,71.2,75.4h467.7c40.7-5.4,76.3-43.1,71.2-86.2C2099.9,2877.2,2069.4,2844.9,2033.9,2839.5Z" transform="translate(0 36.7)"/><path class="cls-2" d="M2832,1337.1c0-608.5-462.6-1098.5-1032-1098.5h0c-569.4,0-1032,490-1032,1098.5h0c0,576.2,416.9,1050.1,960.8,1093.2v166.9H1571.2c-40.7,5.4-76.3,43.1-71.2,86.2,5.1,37.7,35.6,70,71.2,75.4h467.7c40.7-5.4,76.3-43.1,71.2-86.2-5.1-37.7-35.6-70-71.2-75.4H1876.3V2430.2c538.9-43.1,955.7-522.3,955.7-1093.2Zm-955.7,926.2V1907.9h0c0-43.1-35.6-80.8-76.3-80.8h0c-40.7,0-76.3,37.7-76.3,80.8h0v350c-20.3,0-45.8-5.4-66.1-10.8L1434,1600.9h5.1c142.3,0,259.3-123.9,259.3-274.6h0c0-59.2,45.8-107.7,101.7-107.7s101.7,48.5,101.7,107.7h0c0,150.8,116.9,274.6,259.3,274.6s259.3-123.9,259.3-274.6h0c-5.1-43.1-40.7-80.8-81.3-75.4-35.6,5.4-66.1,37.7-71.2,75.4h0c0,59.2-45.8,107.7-101.7,107.7s-101.7-48.5-101.7-107.7h0c0-150.8-116.9-274.6-259.3-274.6s-259.3,123.9-259.3,274.6h0c5.1,59.2-35.6,113.1-91.5,118.5-30.5,5.4-61-10.8-81.3-32.3l-30.5-91.5c5.1-269.2,213.5-479.3,462.6-479.3,40.7,0,76.3-37.7,76.3-80.8h0c0-43.1-35.6-80.8-76.3-80.8-340.6,0-620.2,296.2-620.2,657h0c0,59.2,20.3,113.1,50.8,161.6l238.9,700c-330.4-140-549-484.6-549-861.6h0c0-517,391.4-931.6,879.5-931.6h0c488,0,879.5,414.6,879.5,931.6h0C2674.4,1816.3,2328.7,2220.2,1876.3,2263.3Z" transform="translate(0 36.7)"/></svg>