<svg xmlns="http://www.w3.org/2000/svg" viewBox="0 0 3600 3673.5"><defs><style>.cls-1{fill:#da173e;}.cls-2{fill:#fff;}</style></defs><title>Asset 1</title><g id="Layer_2" data-name="Layer 2"><g id="Layer_1-2" data-name="Layer 1"><rect class="cls-1" width="3600" height="3673.47"/><path class="cls-2" d="M1860.1,2836.8H1596.5c0,118.5,91.9,215.8,203.7,215.8s203.7-97.3,203.7-215.8H1860.1Z"/><path class="cls-2" d="M1983.9,2642.2H1616.5c-32,4.2-59.9,33.8-55.9,67.7,4,29.6,28,55,55.9,59.2h367.5c32-4.2,59.9-33.8,55.9-67.7C2035.9,2671.8,2011.9,2646.4,1983.9,2642.2Z"/><path class="cls-2" d="M2611,1461.8c0-478.1-363.5-863.1-810.8-863.1h0c-447.3,0-810.8,385-810.8,863.1h0c0,452.7,327.5,825,754.9,858.8v131.2H1620.5c-32,4.2-59.9,33.8-55.9,67.7,4,29.6,28,55,55.9,59.2h367.5c32-4.2,59.9-33.8,55.9-67.7-4-29.6-28-55-55.9-59.2H1860.1V2320.6c423.4-33.8,750.9-410.4,750.9-858.8Zm-750.9,727.7V1910.3h0c0-33.8-28-63.5-59.9-63.5h0c-32,0-59.9,29.6-59.9,63.5h0v275c-16,0-35.9-4.2-51.9-8.5l-175.7-507.7h4c111.8,0,203.7-97.3,203.7-215.8h0c0-46.5,35.9-84.6,79.9-84.6s79.9,38.1,79.9,84.6h0c0,118.5,91.9,215.8,203.7,215.8s203.7-97.3,203.7-215.8h0c-4-33.8-32-63.5-63.9-59.2-28,4.2-51.9,29.6-55.9,59.2h0c0,46.5-35.9,84.6-79.9,84.6s-79.9-38.1-79.9-84.6h0c0-118.5-91.9-215.8-203.7-215.8s-203.7,97.3-203.7,215.8h0c4,46.5-28,88.8-71.9,93.1-24,4.2-47.9-8.5-63.9-25.4l-24-71.9c4-211.5,167.8-376.5,363.5-376.5,32,0,59.9-29.6,59.9-63.5h0c0-33.8-28-63.5-59.9-63.5-267.6,0-487.3,232.7-487.3,516.1h0c0,46.5,16,88.8,39.9,126.9l187.7,550c-259.6-110-431.4-380.8-431.4-676.9h0c0-406.1,307.5-731.9,691-731.9h0c383.4,0,691,325.8,691,731.9h0C2487.2,1838.3,2215.6,2155.6,1860.1,2189.5Z"/></g></g></svg>