<svg width="399" height="77" viewBox="0 0 399 77" fill="none" xmlns="http://www.w3.org/2000/svg">
<g clip-path="url(#clip0)">
<path d="M75.21 65.0599H78.4V73.7699H80.62V65.0599H83.79V63.1799H75.21V65.0599Z" fill="#171A9F"/>
<path d="M89.78 62.86C88.27 62.86 87.11 63.27 86.31 64.1C85.24 65.07 84.7 66.53 84.7 68.47C84.7 70.37 85.24 71.83 86.31 72.84C87.11 73.66 88.27 74.08 89.78 74.08C91.29 74.08 92.45 73.67 93.25 72.84C94.32 71.83 94.85 70.37 94.85 68.47C94.85 66.53 94.32 65.07 93.25 64.1C92.45 63.27 91.29 62.86 89.78 62.86ZM91.87 71.22C91.35 71.87 90.66 72.19 89.78 72.19C88.9 72.19 88.2 71.87 87.68 71.22C87.16 70.57 86.9 69.65 86.9 68.46C86.9 67.27 87.16 66.35 87.68 65.7C88.2 65.05 88.9 64.73 89.78 64.73C90.66 64.73 91.35 65.05 91.87 65.7C92.39 66.35 92.64 67.27 92.64 68.46C92.64 69.65 92.38 70.57 91.87 71.22Z" fill="#171A9F"/>
<path d="M89.7901 60.7699L90.7201 61.9799H92.3901L91.5101 60.8599H92.2901L92.3901 60.5399C92.5701 60.4999 92.7201 60.4499 92.8501 60.3799C92.9801 60.3099 93.0701 60.2299 93.1401 60.1499C93.2101 60.0599 93.2601 59.9699 93.2901 59.8699C93.3201 59.7699 93.3301 59.6699 93.3301 59.5799C93.3301 59.4699 93.3101 59.3599 93.2801 59.2599C93.2501 59.1599 93.2101 59.0799 93.1701 59.0199C93.0101 58.7899 92.82 58.6399 92.59 58.5599C92.36 58.4799 92.1201 58.4399 91.8801 58.4399C91.7801 58.4399 91.6701 58.4399 91.5501 58.4499C91.4201 58.4599 91.3101 58.4699 91.2001 58.4899L91.2301 59.0599L91.6101 59.0699C91.7601 59.0699 91.8701 59.0899 91.9201 59.1099C91.9701 59.1299 92.0301 59.1599 92.0801 59.2099C92.1501 59.2699 92.2001 59.3399 92.2401 59.4099C92.2701 59.4799 92.2901 59.5599 92.2901 59.6399C92.2901 59.7999 92.2301 59.9399 92.1201 60.0799C92.0101 60.2099 91.7501 60.2999 91.3501 60.3199L91.3201 60.6199L90.7101 59.8399H88.8701L87.1801 61.9899H88.8501L89.7901 60.7699Z" fill="#171A9F"/>
<path d="M103.03 70.5699L98.83 63.1799H96.51V73.7699H98.57V66.2599L102.88 73.7699H105.1V63.1799H103.03V70.5699Z" fill="#171A9F"/>
<path d="M112.1 69.8599H114.55C114.44 70.5499 114.15 71.1099 113.67 71.5299C113.2 71.9599 112.59 72.1699 111.84 72.1699C111.08 72.1699 110.41 71.8999 109.81 71.3599C109.22 70.8199 108.92 69.8999 108.92 68.5999C108.92 67.3099 109.19 66.3399 109.74 65.6999C110.29 65.0599 110.99 64.7399 111.84 64.7399C112.29 64.7399 112.69 64.8199 113.05 64.9799C113.7 65.2699 114.11 65.7699 114.28 66.4999H116.46C116.34 65.4799 115.87 64.6299 115.05 63.9499C114.23 63.2699 113.15 62.9299 111.8 62.9299C110.25 62.9299 109 63.4499 108.05 64.4799C107.11 65.5099 106.63 66.8899 106.63 68.5999C106.63 70.2899 107.1 71.6299 108.03 72.6099C108.93 73.5799 110.08 74.0699 111.48 74.0699C112.33 74.0699 113.05 73.8899 113.64 73.5299C113.98 73.3199 114.36 72.9699 114.79 72.4699L115.01 73.7899H116.48V68.1099H112.07V69.8599H112.1Z" fill="#171A9F"/>
<path d="M127.07 64.87C127.84 64.87 128.43 65.1 128.82 65.56C129.04 65.82 129.22 66.2 129.36 66.71H131.57C131.54 66.05 131.3 65.39 130.84 64.73C130.02 63.56 128.73 62.98 126.97 62.98C125.65 62.98 124.57 63.42 123.71 64.29C122.73 65.29 122.24 66.72 122.24 68.57C122.24 70.28 122.67 71.63 123.53 72.61C124.39 73.59 125.58 74.08 127.09 74.08C128.31 74.08 129.31 73.72 130.09 73C130.87 72.28 131.35 71.34 131.54 70.18H129.34C129.19 70.73 129.01 71.14 128.79 71.41C128.39 71.92 127.81 72.17 127.05 72.17C126.31 72.17 125.7 71.87 125.22 71.28C124.74 70.69 124.5 69.8 124.5 68.61C124.5 67.42 124.73 66.5 125.18 65.85C125.66 65.19 126.29 64.87 127.07 64.87Z" fill="#171A9F"/>
<path d="M138.04 60.8L138.98 62.01H140.64L138.96 59.86H137.12L135.43 62.01H137.1L138.04 60.8Z" fill="#171A9F"/>
<path d="M138.04 62.86C136.53 62.86 135.37 63.27 134.57 64.1C133.5 65.07 132.96 66.53 132.96 68.47C132.96 70.37 133.5 71.83 134.57 72.84C135.37 73.66 136.53 74.08 138.04 74.08C139.55 74.08 140.71 73.67 141.51 72.84C142.58 71.83 143.11 70.37 143.11 68.47C143.11 66.53 142.58 65.07 141.51 64.1C140.71 63.27 139.56 62.86 138.04 62.86ZM140.13 71.22C139.61 71.87 138.92 72.19 138.04 72.19C137.16 72.19 136.46 71.87 135.94 71.22C135.42 70.57 135.16 69.65 135.16 68.46C135.16 67.27 135.42 66.35 135.94 65.7C136.46 65.05 137.16 64.73 138.04 64.73C138.92 64.73 139.61 65.05 140.13 65.7C140.65 66.35 140.9 67.27 140.9 68.46C140.9 69.65 140.64 70.57 140.13 71.22Z" fill="#171A9F"/>
<path d="M151.3 70.5699L147.09 63.1799H144.77V73.7699H146.83V66.2599L151.15 73.7699H153.36V63.1799H151.3V70.5699Z" fill="#171A9F"/>
<path d="M160.37 69.8599H162.82C162.71 70.5499 162.42 71.1099 161.94 71.5299C161.47 71.9599 160.86 72.1699 160.11 72.1699C159.35 72.1699 158.68 71.8999 158.08 71.3599C157.49 70.8199 157.19 69.8999 157.19 68.5999C157.19 67.3099 157.46 66.3399 158.01 65.6999C158.56 65.0599 159.26 64.7399 160.11 64.7399C160.56 64.7399 160.96 64.8199 161.33 64.9799C161.98 65.2699 162.39 65.7699 162.56 66.4999H164.74C164.62 65.4799 164.15 64.6299 163.33 63.9499C162.51 63.2699 161.43 62.9299 160.08 62.9299C158.53 62.9299 157.28 63.4499 156.33 64.4799C155.39 65.5099 154.91 66.8899 154.91 68.5999C154.91 70.2899 155.38 71.6299 156.31 72.6099C157.21 73.5799 158.36 74.0699 159.76 74.0699C160.61 74.0699 161.33 73.8899 161.92 73.5299C162.26 73.3199 162.64 72.9699 163.07 72.4699L163.29 73.7899H164.76V68.1099H160.35V69.8599H160.37Z" fill="#171A9F"/>
<path d="M170.1 65.0599H173.28V73.7699H175.51V65.0599H178.68V63.1799H170.1V65.0599Z" fill="#171A9F"/>
<path d="M183.92 67.7899L181.72 63.1799H179.11L182.77 69.7999V73.7699H184.99V69.7999L188.53 63.1799H186.02L183.92 67.7899Z" fill="#171A9F"/>
<path d="M193.01 65.0599H196.19V73.7699H198.42V65.0599H201.59V63.1799H193.01V65.0599Z" fill="#171A9F"/>
<path d="M211.16 72.8999C211.12 72.7299 211.1 72.3999 211.1 71.9199V71.2099C211.1 70.4699 211 69.9199 210.8 69.5499C210.6 69.1899 210.25 68.9099 209.76 68.7099C210.34 68.5099 210.76 68.1699 211.02 67.6799C211.27 67.1899 211.4 66.6999 211.4 66.1999C211.4 65.7799 211.33 65.4099 211.2 65.0899C211.07 64.7699 210.89 64.4699 210.67 64.1999C210.4 63.8699 210.07 63.6299 209.68 63.4599C209.29 63.2899 208.73 63.1999 208.01 63.1899H202.94V73.7799H205.1V69.6299H207.26C207.88 69.6299 208.3 69.7399 208.52 69.9699C208.74 70.1999 208.86 70.6499 208.87 71.3199L208.88 72.2999C208.88 72.6099 208.92 72.9199 208.97 73.2099C209 73.3499 209.05 73.5399 209.11 73.7799H211.55V73.5099C211.36 73.3799 211.22 73.1699 211.16 72.8999ZM208.55 67.6899C208.31 67.7999 207.96 67.8599 207.48 67.8599H205.1V65.0099H207.54C208 65.0099 208.34 65.0699 208.56 65.1999C208.97 65.4199 209.17 65.8499 209.17 66.4899C209.17 67.0899 208.97 67.4899 208.55 67.6899Z" fill="#171A9F"/>
<path d="M219.77 69.6799C219.77 70.4099 219.68 70.9399 219.51 71.2699C219.24 71.8599 218.66 72.1599 217.77 72.1599C216.87 72.1599 216.29 71.8599 216.02 71.2699C215.85 70.9399 215.76 70.3999 215.76 69.6799V63.1799H213.51V69.6899C213.51 70.8199 213.68 71.6899 214.03 72.3199C214.69 73.4699 215.93 74.0399 217.76 74.0399C219.59 74.0399 220.83 73.4699 221.48 72.3199C221.83 71.6899 222 70.8199 222 69.6899V63.1799H219.75V69.6799H219.77Z" fill="#171A9F"/>
<path d="M228.09 67.7899L225.89 63.1799H223.28L226.95 69.7999V73.7699H229.16V69.7999L232.71 63.1799H230.2L228.09 67.7899Z" fill="#171A9F"/>
<path d="M236.61 60.87L235.52 62.27H237.19L238.13 61.06L239.06 62.27H240.73L239.05 60.12H237.21L236.73 60.73L235.44 58.73H233.16L235.34 60.87H236.61Z" fill="#171A9F"/>
<path d="M236.2 69.1399H241.35V67.2999H236.2V65.0599H241.81V63.1799H234.04V73.7699H242.07V71.8699H236.2V69.1399Z" fill="#171A9F"/>
<path d="M250.29 70.5699L246.08 63.1799H243.76V73.7699H245.82V66.2599L250.13 73.7699H252.35V63.1799H250.29V70.5699Z" fill="#171A9F"/>
<path d="M257.63 65.0599H260.82V73.7699H263.05V65.0599H266.22V63.1799H257.63V65.0599Z" fill="#171A9F"/>
<path d="M270.54 63.1799L266.76 73.7699H269.08L269.8 71.5899H273.7L274.4 73.7699H276.8L273.05 63.1799H270.54ZM270.4 69.7699L271.78 65.5999L273.12 69.7699H270.4Z" fill="#171A9F"/>
<path d="M271.49 60.6399C271.64 60.6399 271.75 60.6599 271.8 60.6799C271.85 60.6999 271.91 60.7299 271.96 60.7799C272.03 60.8399 272.08 60.9099 272.12 60.9899C272.15 61.0599 272.17 61.1399 272.17 61.2199C272.17 61.3799 272.11 61.5199 272 61.6599C271.89 61.7899 271.63 61.8799 271.23 61.8999L271.18 62.4499H272.17L272.27 62.1299C272.45 62.0899 272.6 62.0399 272.73 61.9699C272.86 61.8999 272.95 61.8199 273.02 61.7399C273.09 61.6499 273.14 61.5599 273.17 61.4599C273.2 61.3599 273.21 61.2599 273.21 61.1699C273.21 61.0599 273.19 60.9499 273.16 60.8499C273.13 60.7499 273.09 60.6699 273.05 60.6099C272.89 60.3799 272.7 60.2299 272.47 60.1499C272.24 60.0699 272 60.0299 271.76 60.0299C271.66 60.0299 271.55 60.0299 271.43 60.0399C271.3 60.0499 271.19 60.0599 271.08 60.0799L271.11 60.6499L271.49 60.6399Z" fill="#171A9F"/>
<path d="M280.16 63.1799H277.96V73.7699H280.16V63.1799Z" fill="#171A9F"/>
<path d="M294.36 64.8099C293.94 64.2299 293.44 63.8099 292.86 63.5599C292.28 63.3099 291.58 63.1899 290.76 63.1899H286.33V67.1999H285.34V69.0399H286.33V73.7699H290.75C292.55 73.7699 293.83 73.0199 294.59 71.5299C295.06 70.5999 295.3 69.4999 295.3 68.2199C295.3 67.5299 295.22 66.8999 295.07 66.3299C294.92 65.7599 294.68 65.2599 294.36 64.8099ZM292.9 69.7199C292.8 70.2299 292.62 70.6599 292.36 71.0299C292.08 71.4299 291.72 71.6899 291.29 71.8099C291.03 71.8899 290.6 71.9299 290 71.9299H288.47V69.0399H290.7V67.1999H288.47V65.0199H290.1C290.93 65.0199 291.55 65.1599 291.96 65.4399C292.68 65.9399 293.04 66.9199 293.04 68.3799C293.05 68.7699 293 69.2199 292.9 69.7199Z" fill="#171A9F"/>
<path d="M298.98 63.1799H296.78V73.7699H298.98V63.1799Z" fill="#171A9F"/>
<path d="M303.28 69.1399H308.43V67.2999H303.28V65.0599H308.89V63.1799H301.12V73.7699H309.15V71.8699H303.28V69.1399Z" fill="#171A9F"/>
<path d="M305.17 60.9999L306.11 62.1999H307.77L306.09 60.0499H304.25L302.56 62.1999H304.23L305.17 60.9999Z" fill="#171A9F"/>
<path d="M306.07 74.4199H304.19V76.1199H306.07V74.4199Z" fill="#171A9F"/>
<path d="M317.37 70.5699L313.16 63.1799H310.84V73.7699H312.9V66.2599L317.21 73.7699H319.43V63.1799H317.37V70.5699Z" fill="#171A9F"/>
<path d="M335.02 70.67C335.25 70.03 335.36 69.24 335.36 68.3C335.36 66.52 334.82 65.13 333.75 64.14C332.82 63.28 331.67 62.85 330.3 62.85C328.94 62.85 327.8 63.25 326.88 64.06C325.76 65.05 325.2 66.52 325.2 68.45C325.2 70.37 325.75 71.83 326.84 72.82C327.74 73.64 328.88 74.06 330.26 74.06C330.92 74.06 331.49 73.98 331.97 73.82C332.25 73.72 332.59 73.56 332.98 73.32L334.25 74.53L335.4 73.33L334.18 72.18C334.55 71.79 334.83 71.28 335.02 70.67ZM332.99 69.82C332.92 70.08 332.81 70.38 332.64 70.73L331.56 69.72L330.42 70.91L331.49 71.93C331.29 72.02 331.12 72.08 330.99 72.11C330.75 72.17 330.51 72.2 330.26 72.2C329.58 72.2 329 72 328.52 71.59C327.77 70.96 327.4 69.92 327.4 68.47C327.4 67.23 327.66 66.3 328.18 65.68C328.7 65.06 329.4 64.75 330.28 64.75C331.21 64.75 331.92 65.07 332.41 65.72C332.9 66.37 333.14 67.29 333.14 68.47C333.15 68.98 333.09 69.43 332.99 69.82Z" fill="#171A9F"/>
<path d="M343.31 69.6799C343.31 70.4099 343.22 70.9399 343.05 71.2699C342.78 71.8599 342.2 72.1599 341.31 72.1599C340.41 72.1599 339.83 71.8599 339.56 71.2699C339.39 70.9399 339.3 70.3999 339.3 69.6799V63.1799H337.05V69.6899C337.05 70.8199 337.22 71.6899 337.57 72.3199C338.23 73.4699 339.47 74.0399 341.3 74.0399C343.13 74.0399 344.37 73.4699 345.02 72.3199C345.37 71.6899 345.54 70.8199 345.54 69.6899V63.1799H343.29V69.6799H343.31Z" fill="#171A9F"/>
<path d="M352.37 62.86C350.86 62.86 349.7 63.27 348.9 64.1C347.83 65.07 347.29 66.53 347.29 68.47C347.29 70.37 347.83 71.83 348.9 72.84C349.7 73.66 350.86 74.08 352.37 74.08C353.88 74.08 355.04 73.67 355.84 72.84C356.91 71.83 357.44 70.37 357.44 68.47C357.44 66.53 356.91 65.07 355.84 64.1C355.04 63.27 353.89 62.86 352.37 62.86ZM354.46 71.22C353.95 71.87 353.25 72.19 352.37 72.19C351.49 72.19 350.79 71.87 350.27 71.22C349.75 70.57 349.49 69.65 349.49 68.46C349.49 67.27 349.75 66.35 350.27 65.7C350.79 65.05 351.49 64.73 352.37 64.73C353.25 64.73 353.94 65.05 354.46 65.7C354.98 66.35 355.23 67.27 355.23 68.46C355.23 69.65 354.97 70.57 354.46 71.22Z" fill="#171A9F"/>
<path d="M353.94 60.6999L353.41 60.0299H351.57L349.88 62.1699H351.55L352.49 60.9699L353.43 62.1699H355.1L354.05 60.8399H355.34L357.53 58.6899H355.24L353.94 60.6999Z" fill="#171A9F"/>
<path d="M363.49 64.87C364.27 64.87 364.85 65.1 365.24 65.56C365.46 65.82 365.64 66.2 365.78 66.71H368C367.97 66.05 367.72 65.39 367.27 64.73C366.45 63.56 365.16 62.98 363.4 62.98C362.08 62.98 361 63.42 360.14 64.29C359.16 65.29 358.67 66.72 358.67 68.57C358.67 70.28 359.1 71.63 359.96 72.61C360.82 73.59 362.01 74.08 363.52 74.08C364.74 74.08 365.74 73.72 366.52 73C367.3 72.28 367.78 71.34 367.97 70.18H365.77C365.62 70.73 365.44 71.14 365.22 71.41C364.82 71.92 364.24 72.17 363.48 72.17C362.74 72.17 362.13 71.87 361.65 71.28C361.17 70.69 360.93 69.8 360.93 68.61C360.93 67.42 361.16 66.5 361.61 65.85C362.08 65.19 362.7 64.87 363.49 64.87Z" fill="#171A9F"/>
<path d="M378.79 69.8599H381.24C381.13 70.5499 380.84 71.1099 380.36 71.5299C379.89 71.9599 379.28 72.1699 378.53 72.1699C377.77 72.1699 377.1 71.8999 376.5 71.3599C375.91 70.8199 375.61 69.8999 375.61 68.5999C375.61 67.3099 375.88 66.3399 376.43 65.6999C376.98 65.0599 377.68 64.7399 378.53 64.7399C378.98 64.7399 379.38 64.8199 379.75 64.9799C380.4 65.2699 380.81 65.7699 380.98 66.4999H383.16C383.04 65.4799 382.57 64.6299 381.75 63.9499C380.93 63.2699 379.85 62.9299 378.5 62.9299C376.95 62.9299 375.7 63.4499 374.75 64.4799C373.81 65.5099 373.33 66.8899 373.33 68.5999C373.33 70.2899 373.8 71.6299 374.73 72.6099C375.63 73.5799 376.78 74.0699 378.18 74.0699C379.03 74.0699 379.75 73.8899 380.34 73.5299C380.68 73.3199 381.06 72.9699 381.49 72.4699L381.71 73.7899H383.18V68.1099H378.77V69.8599H378.79Z" fill="#171A9F"/>
<path d="M387.33 63.1799H385.13V73.7699H387.33V63.1799Z" fill="#171A9F"/>
<path d="M394.94 63.1799H392.44L388.66 73.7699H390.98L391.7 71.5899H395.6L396.3 73.7699H398.7L394.94 63.1799ZM392.29 69.7699L393.67 65.5999L395.01 69.7699H392.29Z" fill="#171A9F"/>
<path fill-rule="evenodd" clip-rule="evenodd" d="M61.32 31.04L36.69 36.32L31.41 60.95L26.13 36.32L1.5 31.04L26.13 25.77L31.41 1.13L36.69 25.77L61.32 31.04Z" fill="#000F9F"/>
<path fill-rule="evenodd" clip-rule="evenodd" d="M31.41 48.99L27.9 34.55L13.46 31.04L27.9 27.53L31.41 13.09L34.92 27.53L49.36 31.04L34.92 34.55L31.41 48.99Z" fill="#ED1C24"/>
<path fill-rule="evenodd" clip-rule="evenodd" d="M31.41 0C48.75 0 62.82 14.07 62.82 31.41C62.82 48.75 48.75 62.82 31.41 62.82C14.07 62.82 0 48.75 0 31.41C0 14.07 14.07 0 31.41 0ZM31.41 1.49C14.89 1.49 1.5 14.89 1.5 31.41C1.5 47.93 14.9 61.32 31.41 61.32C47.92 61.32 61.32 47.93 61.32 31.41C61.32 14.89 47.93 1.49 31.41 1.49Z" fill="#000F9F"/>
<path fill-rule="evenodd" clip-rule="evenodd" d="M31.41 38.5201L29.65 32.8001L23.93 31.0401L29.65 29.2901L31.41 23.5601L33.17 29.2901L38.89 31.0401L33.17 32.8001L31.41 38.5201Z" fill="#FFF200"/>
<path d="M75.5 21.5801C75.5 28.1801 75.48 34.7601 75.5 41.3601C80.96 41.3401 86.43 41.3601 91.89 41.3601C91.89 39.8301 91.89 38.3101 91.89 36.8101C88.57 36.7201 85.27 36.8101 81.94 36.7601C81.94 35.7401 81.94 34.7101 81.94 33.7101C84.63 33.6901 87.31 33.7301 90 33.6901L90.11 33.5801C90.16 32.1001 90.09 30.6401 90.13 29.1601C87.44 29.0501 84.76 29.1601 82.07 29.1101L81.96 29.0001C81.91 28.0901 81.96 27.1801 81.96 26.2701C85.17 26.2501 88.38 26.2701 91.59 26.2701C91.7 24.7201 91.64 23.1501 91.61 21.6001C86.24 21.5601 80.87 21.5801 75.5 21.5801Z" fill="white"/>
<path d="M93.73 21.58C95.92 28.16 98.19 34.72 100.4 41.32C102.59 41.39 104.79 41.34 106.98 41.34C109.26 34.76 111.56 28.18 113.79 21.58C111.6 21.56 109.42 21.58 107.26 21.58C106.14 25.93 104.98 30.28 103.87 34.65C103.53 33.76 103.37 32.83 103.1 31.92C102.21 28.48 101.26 25.05 100.39 21.61C98.15 21.54 95.94 21.58 93.73 21.58Z" fill="white"/>
<path d="M116.27 21.5801C116.27 28.1601 116.27 34.7601 116.27 41.3401C118.32 41.3401 120.34 41.3401 122.39 41.3401C122.41 37.8101 122.34 34.2601 122.37 30.7301C122.8 31.2301 123.12 31.8201 123.49 32.3701C125.4 35.3501 127.34 38.3301 129.25 41.3401C131.28 41.3601 133.3 41.3401 135.33 41.3401C135.33 34.7601 135.33 28.1801 135.33 21.5801C133.26 21.5601 131.21 21.5801 129.14 21.5801C129.09 25.0601 129.14 28.5501 129.12 32.0501C128.57 31.4601 128.25 30.7301 127.8 30.0701C126 27.2501 124.13 24.4701 122.4 21.6001C120.32 21.5601 118.29 21.5801 116.27 21.5801Z" fill="white"/>
<path d="M75.5 21.5801C80.87 21.6001 86.24 21.5801 91.62 21.6001C91.64 23.1501 91.69 24.7201 91.6 26.2701C88.39 26.2701 85.18 26.2701 81.97 26.2701C81.97 27.1801 81.92 28.0901 81.97 29.0001L82.08 29.1101C84.77 29.1801 87.45 29.0401 90.14 29.1601C90.12 30.6401 90.16 32.1001 90.12 33.5801L90 33.7001C87.31 33.7201 84.63 33.7001 81.94 33.7201C81.94 34.7401 81.94 35.7501 81.94 36.7701C85.26 36.8201 88.56 36.7201 91.89 36.8201C91.89 38.3501 91.89 39.8701 91.89 41.3701C86.43 41.3901 80.96 41.3701 75.5 41.3701C75.47 34.7701 75.5 28.1601 75.5 21.5801Z" fill="#00199F"/>
<path d="M93.73 21.58C95.94 21.58 98.15 21.53 100.35 21.6C101.22 25.04 102.17 28.47 103.06 31.91C103.33 32.82 103.49 33.75 103.83 34.64C104.95 30.29 106.11 25.92 107.22 21.57C109.41 21.57 111.59 21.55 113.75 21.57C111.52 28.17 109.22 34.75 106.94 41.33C104.75 41.33 102.55 41.38 100.36 41.31C98.19 34.74 95.92 28.16 93.73 21.58Z" fill="#00199F"/>
<path d="M116.27 21.5801C118.3 21.5801 120.32 21.5601 122.35 21.6001C124.1 24.4501 125.97 27.2501 127.75 30.0701C128.21 30.7301 128.55 31.4601 129.07 32.0501C129.09 28.5701 129.05 25.0801 129.09 21.5801C131.16 21.5801 133.21 21.5601 135.28 21.5801C135.28 28.1601 135.28 34.7401 135.28 41.3401C133.25 41.3401 131.23 41.3401 129.2 41.3401C127.29 38.3601 125.38 35.3501 123.44 32.3701C123.08 31.8201 122.76 31.2301 122.32 30.7301C122.3 34.2601 122.37 37.8101 122.34 41.3401C120.29 41.3401 118.27 41.3401 116.22 41.3401C116.27 34.7701 116.27 28.1601 116.27 21.5801Z" fill="#00199F"/>
<path d="M143.13 41.41C141.24 41.41 139.33 41.41 137.44 41.41C137.71 39.77 137.96 38.13 138.24 36.49C139.11 31.48 139.99 26.45 140.86 21.44C142.98 21.44 145.12 21.44 147.23 21.44C148.87 25.17 150.49 28.91 151.99 32.3C152.1 31.23 152.22 29.73 152.42 28.23C152.72 25.95 153.06 23.7 153.38 21.42C155.36 21.42 157.32 21.42 159.3 21.42C158.84 23.9 158.39 26.36 157.93 28.84C157.18 33.01 156.4 37.19 155.65 41.38C153.76 41.38 151.85 41.38 149.96 41.38C148.18 37.37 146.41 33.34 144.82 29.72C144.77 30.36 144.75 31.47 144.59 32.57C144.13 35.56 143.63 38.48 143.13 41.41Z" fill="#ED1C24"/>
<path d="M163.85 41.4101H157.7C157.75 41.0001 157.75 40.5901 157.81 40.1801C158.9 33.9401 160 27.7001 161.11 21.4401C164.52 21.4401 167.94 21.4401 171.35 21.4401C172.06 21.4401 172.74 21.5801 173.38 21.8301C175.18 22.4901 176.23 23.7401 176.48 25.6501C176.98 29.6301 174.27 33.5701 170.31 34.3201C168.53 34.6601 166.74 34.7501 164.8 34.9801C164.51 37.1101 164.16 39.2701 163.85 41.4101ZM165.67 30.5301C166.99 30.2801 168.17 30.1901 169.2 29.7801C170.16 29.3901 170.47 28.4101 170.29 27.3901C170.09 26.3401 169.2 26.2701 168.33 26.2301C167.69 26.2101 167.06 26.2301 166.42 26.2301C166.17 27.6201 165.96 28.8701 165.67 30.5301Z" fill="#ED1C24"/>
<path d="M180.21 41.41C181.12 36.38 182.01 31.35 182.94 26.2C181.23 26.2 179.62 26.2 177.95 26.2C178.18 24.54 178.41 22.99 178.63 21.44C183.87 21.44 189.1 21.44 194.34 21.44C194.64 21.44 195.16 21.19 195.02 21.9C194.7 23.31 194.41 24.75 194.06 26.23C192.4 26.23 190.78 26.23 189.1 26.23C188.19 31.33 187.28 36.38 186.37 41.41C184.31 41.41 182.26 41.41 180.21 41.41Z" fill="#ED1C24"/>
</g>
<defs>
<clipPath id="clip0">
<rect width="398.69" height="76.12" fill="white"/>
</clipPath>
</defs>
</svg>
