<svg width="108" height="30" viewBox="0 0 108 30" fill="none" xmlns="http://www.w3.org/2000/svg">
<path d="M13.738 0.722341C10.4 0.987179 7.1852 2.45158 4.83126 4.75722C2.65057 6.85342 1.20213 9.65239 0.769917 12.6002C0.26091 15.9133 1.04853 19.3977 2.94704 22.1984C4.88306 25.0978 7.96746 27.2546 11.4234 28.1028C13.1718 28.5338 15.0043 28.6601 16.7956 28.4299C19.6014 28.0993 22.2893 26.9292 24.42 25.1307C26.5025 23.3859 28.0545 21.0491 28.8171 18.482C29.6887 15.5861 29.5512 12.4185 28.4278 9.60566C27.6491 7.64101 26.4025 5.84946 24.8094 4.41622C21.8821 1.73669 17.7476 0.351915 13.738 0.722341ZM13.4576 0.118234C14.1881 0.0541885 14.9203 0.078422 15.6526 0.0749601C16.5063 0.076691 17.3511 0.213437 18.1833 0.37961C20.923 0.945636 23.4806 2.28713 25.4845 4.18081C27.9223 6.4778 29.5226 9.59527 29.9102 12.872C30.2656 15.7592 29.7173 18.7503 28.3206 21.326C27.1419 23.5192 25.3755 25.4128 23.2413 26.7682C20.7373 28.3745 17.7208 29.2158 14.7167 29.1448C11.543 29.1102 8.40146 28.0387 5.88678 26.1658C4.01506 24.7828 2.48804 22.9652 1.46824 20.9106C0.61275 19.1848 0.107314 17.2929 0.0108708 15.3802C-0.00163115 14.5389 -0.026635 13.6925 0.0965984 12.8581C0.418077 10.1751 1.54504 7.59254 3.29352 5.49115C5.30991 3.04876 8.16214 1.26067 11.2948 0.499047C12.0038 0.317295 12.7307 0.209975 13.4576 0.118234Z" fill="#00199F"/>
<path d="M14.6703 6.9332C14.1666 8.94285 13.6809 10.9577 13.1701 12.9656C11.0072 13.4693 8.84439 13.9782 6.67977 14.4767C6.53332 14.5218 6.34579 14.5079 6.24042 14.636C8.37468 15.1068 10.4982 15.6226 12.6307 16.1039C12.8129 16.1419 12.9933 16.1887 13.1701 16.2475C13.7202 18.5116 14.2917 20.7723 14.8418 23.0381C14.8721 22.9931 14.8971 22.9464 14.915 22.8979C15.4597 20.6632 16.0152 18.4285 16.5688 16.1956C18.871 15.6694 21.1767 15.1449 23.4842 14.6377C23.4431 14.591 23.3913 14.5598 23.3306 14.5443C21.1499 14.0405 18.9728 13.5178 16.7921 13.0141C16.701 12.9898 16.6135 12.9604 16.5259 12.931C15.9759 10.6842 15.4418 8.43394 14.89 6.18715C14.7632 6.41737 14.7382 6.68221 14.6703 6.9332ZM14.7775 1.53258C14.8328 1.2989 14.8632 1.05657 14.9578 0.831543C15.7883 4.52889 16.5813 8.23661 17.3993 11.9357C17.4225 12.0274 17.4457 12.1174 17.4725 12.2092C20.9302 12.9327 24.3915 13.6424 27.8509 14.359C28.3081 14.4594 28.7725 14.5339 29.2243 14.655C27.9099 14.9701 26.5757 15.2072 25.2541 15.4946C22.6626 16.026 20.0747 16.5729 17.4814 17.0974C17.36 17.4557 17.3011 17.8279 17.2171 18.1949C16.5581 21.1842 15.8991 24.1719 15.24 27.1613C15.1293 27.5923 15.0739 28.0354 14.9328 28.4595C14.6828 27.5836 14.531 26.6852 14.3185 25.8007C13.6684 22.8962 13.0379 19.9899 12.3789 17.0888C8.56756 16.296 4.75269 15.5153 0.939592 14.726C0.859223 14.7087 0.782425 14.6758 0.705627 14.6447C2.99706 14.1461 5.29741 13.6822 7.59241 13.1958C9.19445 12.8514 10.8054 12.5433 12.4021 12.178C13.2004 8.63301 13.9827 5.08106 14.7775 1.53258Z" fill="#00199F"/>
<path d="M14.0899 13.6097C14.0595 13.6824 14.0452 13.7845 13.9523 13.8053C13.0558 14.0995 12.1217 14.2847 11.2394 14.6084C12.1556 14.9131 13.1058 15.1208 14.0256 15.422C14.3006 16.3117 14.5828 17.1979 14.8435 18.0911C14.8828 18.034 14.9239 17.9734 14.9418 17.9059C15.1722 17.1079 15.4258 16.3151 15.6651 15.5206C15.6812 15.4081 15.7955 15.3649 15.8919 15.3372C16.7242 15.0862 17.5725 14.8854 18.3995 14.6171C18.2476 14.4959 18.044 14.4786 17.8637 14.4197C17.2011 14.2259 16.5402 14.0355 15.8794 13.8381C15.8062 13.8035 15.6901 13.7966 15.6669 13.7066C15.3901 12.8463 15.1668 11.9687 14.8668 11.1153C14.5917 11.9427 14.3453 12.7771 14.0899 13.6097ZM14.6703 6.93332C14.7382 6.68233 14.765 6.4175 14.89 6.18555C15.4436 8.43061 15.9776 10.6809 16.5259 12.9294C16.6135 12.9588 16.7028 12.9882 16.7921 13.0125C18.9728 13.5162 21.1499 14.0389 23.3306 14.5426C23.3913 14.5582 23.4431 14.5894 23.4842 14.6361C21.1767 15.1433 18.871 15.6678 16.5688 16.194C16.0152 18.4269 15.4597 20.6599 14.915 22.8963C14.8971 22.9465 14.8721 22.9932 14.8418 23.0365C14.2917 20.7724 13.7202 18.5117 13.1701 16.2459C12.9933 16.1871 12.8129 16.1386 12.6307 16.1022C10.4982 15.6228 8.37468 15.1069 6.24042 14.6344C6.34401 14.5063 6.53153 14.5201 6.67977 14.4751C8.84439 13.9766 11.0054 13.4677 13.1701 12.964C13.6809 10.9578 14.1667 8.94297 14.6703 6.93332Z" fill="#EC2527"/>
<path d="M14.0898 13.6098C14.3434 12.7772 14.5916 11.9429 14.8649 11.1172C15.1649 11.9706 15.3882 12.8482 15.665 13.7084C15.6882 13.7985 15.8043 13.8054 15.8776 13.84C16.5384 14.0356 17.201 14.2277 17.8618 14.4216C18.0422 14.4787 18.2458 14.4978 18.3976 14.6189C17.5725 14.8872 16.7241 15.0898 15.8901 15.339C15.7918 15.3684 15.6775 15.41 15.6632 15.5225C15.4239 16.317 15.1703 17.1098 14.9399 17.9078C14.9221 17.9753 14.881 18.0341 14.8417 18.093C14.5809 17.1998 14.2987 16.3118 14.0237 15.4238C13.1039 15.1226 12.1555 14.9167 11.2375 14.6103C12.1216 14.2866 13.0557 14.1014 13.9505 13.8071C14.0451 13.7846 14.0612 13.6825 14.0898 13.6098Z" fill="#ECE718"/>
<path d="M45.005 9.8418C45.0027 13.1774 44.9943 16.5108 45.0074 19.8464C47.8596 19.8372 50.7107 19.8487 53.5617 19.8407C53.5593 19.0713 53.5569 18.3018 53.5629 17.5324C51.8325 17.4887 50.101 17.5313 48.3707 17.5117C48.3742 16.9957 48.373 16.4808 48.3707 15.966C49.7718 15.9579 51.1718 15.9763 52.5729 15.9591L52.6312 15.9061C52.6514 15.1632 52.6252 14.4191 52.6419 13.6762C51.2419 13.6197 49.8384 13.6785 48.436 13.6485L48.379 13.5932C48.36 13.1348 48.3742 12.6753 48.379 12.2157C50.0535 12.2099 51.728 12.2134 53.4036 12.2157C53.4571 11.4278 53.431 10.6377 53.4191 9.84986C50.6144 9.83604 47.8097 9.84871 45.005 9.8418Z" fill="white"/>
<path d="M54.5255 9.84865C55.6688 13.1808 56.856 16.5004 58.0064 19.8302C59.1509 19.8602 60.2977 19.836 61.4421 19.8418C62.6341 16.5142 63.8356 13.1866 64.9943 9.8475C63.8558 9.83829 62.7173 9.84174 61.5788 9.8452C60.9905 12.0498 60.3904 14.2509 59.8057 16.4554C59.6274 16.0085 59.5466 15.5328 59.4028 15.0756C58.9381 13.3352 58.4378 11.6017 57.9886 9.85787C56.8346 9.82677 55.6795 9.8475 54.5255 9.84865Z" fill="white"/>
<path d="M66.2945 9.84525C66.2981 13.1774 66.2921 16.5108 66.2981 19.843C67.3629 19.843 68.4289 19.8418 69.4938 19.843C69.5045 18.0531 69.47 16.2643 69.4807 14.4755C69.7053 14.7301 69.8729 15.0249 70.0606 15.306C71.0637 16.816 72.0667 18.3272 73.0661 19.8395C74.1227 19.8453 75.1792 19.843 76.2369 19.8407C76.2357 16.5096 76.2321 13.1786 76.238 9.84756C75.1601 9.83604 74.0822 9.8464 73.0032 9.8418C72.983 11.6064 73.0079 13.3709 72.9913 15.1355C72.712 14.836 72.5349 14.464 72.2961 14.1357C71.3584 12.7063 70.3874 11.2977 69.4747 9.85332C68.4135 9.83258 67.3546 9.8464 66.2945 9.84525Z" fill="white"/>
<path d="M45.005 9.8418C47.8097 9.84756 50.6144 9.83604 53.4191 9.84756C53.431 10.6354 53.4571 11.4255 53.4037 12.2134C51.7292 12.2111 50.0535 12.2076 48.379 12.2134C48.3742 12.6729 48.36 13.1325 48.379 13.5909L48.436 13.6462C49.8384 13.6762 51.2419 13.6174 52.6419 13.6739C52.6241 14.4168 52.6514 15.1609 52.6312 15.9038L52.5718 15.9591C51.1718 15.9763 49.7706 15.9579 48.3695 15.966C48.3719 16.4808 48.3731 16.9968 48.3695 17.5117C50.0998 17.5313 51.8314 17.4887 53.5617 17.5324C53.5558 18.3018 53.5582 19.0713 53.5605 19.8407C50.7083 19.8487 47.8573 19.8372 45.0062 19.8464C44.9944 16.5108 45.0027 13.1786 45.005 9.8418Z" fill="#00199F"/>
<path d="M54.5255 9.84844C55.6795 9.84729 56.8346 9.82655 57.9886 9.8588C58.4378 11.6026 58.9381 13.3361 59.4028 15.0765C59.5466 15.5338 59.6262 16.0106 59.8057 16.4564C60.3892 14.2507 60.9905 12.0507 61.5788 9.84613C62.7173 9.84268 63.8558 9.83922 64.9943 9.84844C63.8344 13.1875 62.6341 16.514 61.4421 19.8427C60.2977 19.8369 59.1509 19.8611 58.0064 19.8312C56.856 16.499 55.6688 13.1806 54.5255 9.84844Z" fill="#00199F"/>
<path d="M66.2945 9.84524C67.3546 9.8464 68.4135 9.83142 69.4736 9.85331C70.3863 11.2977 71.3584 12.7063 72.2949 14.1357C72.5337 14.464 72.7108 14.836 72.9901 15.1355C73.0067 13.3709 72.9818 11.6064 73.002 9.84179C74.0811 9.8464 75.159 9.83603 76.2369 9.84755C76.2309 13.1786 76.2345 16.5096 76.2357 19.8406C75.1792 19.8429 74.1215 19.8464 73.065 19.8395C72.0655 18.3272 71.0637 16.816 70.0595 15.306C69.8729 15.0261 69.7053 14.7301 69.4795 14.4755C69.4688 16.2643 69.5033 18.0542 69.4926 19.8429C68.4266 19.8418 67.3617 19.8429 66.2969 19.8429C66.2921 16.5108 66.2981 13.1786 66.2945 9.84524Z" fill="#00199F"/>
<path d="M80.3203 19.8832C79.3303 19.8832 78.3404 19.8832 77.3504 19.8832C77.4894 19.0551 77.6202 18.2258 77.7675 17.3999C78.2191 14.8614 78.6767 12.3228 79.133 9.78533C80.2418 9.78533 81.3506 9.78533 82.4594 9.78533C83.3115 11.6731 84.1648 13.5621 84.9409 15.2818C84.9979 14.7347 85.0609 13.9768 85.1619 13.2235C85.3164 12.0751 85.4971 10.9314 85.667 9.78418C86.6962 9.78418 87.7254 9.78418 88.7557 9.78418C88.518 11.0362 88.278 12.2882 88.0427 13.5414C87.6457 15.655 87.2512 17.7685 86.8554 19.8832C85.8655 19.8832 84.8755 19.8832 83.8856 19.8832C82.961 17.8526 82.0376 15.822 81.2009 13.9848C81.1748 14.305 81.1641 14.8729 81.0761 15.4304C80.842 16.9162 80.5746 18.3986 80.3203 19.8832Z" fill="#EE3338"/>
<path d="M91.1302 19.8832H87.9226C87.9417 19.6759 87.9464 19.4651 87.9832 19.2601C88.5549 16.1007 89.1301 12.9424 89.7041 9.78418C91.4855 9.78418 93.267 9.78418 95.0484 9.78418C95.4121 9.78418 95.7698 9.85674 96.1121 9.97884C96.1133 9.97884 96.1156 9.97999 96.1168 9.97999C97.0592 10.3129 97.6024 10.9464 97.7283 11.9173C97.9922 13.9353 96.5708 15.921 94.5124 16.3069C93.5902 16.4796 92.6431 16.5269 91.6377 16.6398C91.4713 17.704 91.3001 18.7936 91.1302 19.8832ZM92.0797 14.373C92.7678 14.2405 93.3834 14.2025 93.9277 13.994C94.4257 13.8028 94.598 13.2995 94.4958 12.7881C94.39 12.2617 93.9242 12.2191 93.4785 12.2018C93.1493 12.1892 92.8189 12.1995 92.4791 12.1995C92.3495 12.8987 92.233 13.5345 92.0797 14.373Z" fill="#EE3338"/>
<path d="M99.6821 19.8833C100.153 17.3401 100.623 14.7957 101.105 12.1949C100.207 12.1949 99.366 12.1949 98.4996 12.1949C98.622 11.3564 98.7361 10.5709 98.8514 9.7842C101.584 9.7842 104.316 9.78305 107.047 9.78765C107.198 9.78765 107.476 9.6598 107.403 10.0134C107.24 10.731 107.079 11.4497 106.909 12.1995C106.04 12.1995 105.194 12.1995 104.315 12.1995C103.836 14.7819 103.363 17.332 102.89 19.8821C101.82 19.8833 100.752 19.8833 99.6821 19.8833Z" fill="#EE3338"/>
</svg>
