<svg width="326" height="157" viewBox="0 0 326 157" fill="none" xmlns="http://www.w3.org/2000/svg">
<path d="M0 145.841H3.20972V154.605H5.44345V145.841H8.63305V143.949H0V145.841Z" fill="#171A9F"/>
<path d="M14.6601 143.627C13.1407 143.627 11.9735 144.04 11.1686 144.875C10.092 145.851 9.54865 147.32 9.54865 149.272C9.54865 151.184 10.092 152.653 11.1686 153.669C11.9735 154.494 13.1407 154.917 14.6601 154.917C16.1794 154.917 17.3466 154.504 18.1515 153.669C19.2281 152.653 19.7614 151.184 19.7614 149.272C19.7614 147.32 19.2281 145.851 18.1515 144.875C17.3466 144.04 16.1794 143.627 14.6601 143.627ZM16.763 152.039C16.2398 152.693 15.5455 153.015 14.6601 153.015C13.7746 153.015 13.0703 152.693 12.5471 152.039C12.0239 151.385 11.7623 150.459 11.7623 149.262C11.7623 148.065 12.0239 147.139 12.5471 146.485C13.0703 145.831 13.7746 145.509 14.6601 145.509C15.5455 145.509 16.2398 145.831 16.763 146.485C17.2862 147.139 17.5377 148.065 17.5377 149.262C17.5377 150.459 17.2761 151.385 16.763 152.039Z" fill="#171A9F"/>
<path d="M14.6701 141.524L15.6058 142.742H17.2862L16.4007 141.615H17.1855L17.2862 141.293C17.4673 141.253 17.6182 141.202 17.749 141.132C17.8798 141.062 17.9704 140.981 18.0408 140.901C18.1112 140.81 18.1615 140.72 18.1917 140.619C18.2219 140.518 18.232 140.418 18.232 140.327C18.232 140.216 18.2118 140.106 18.1817 140.005C18.1515 139.905 18.1112 139.824 18.071 139.764C17.91 139.532 17.7188 139.381 17.4874 139.301C17.256 139.22 17.0145 139.18 16.773 139.18C16.6724 139.18 16.5617 139.18 16.441 139.19C16.3102 139.2 16.1995 139.21 16.0888 139.23L16.119 139.804L16.5013 139.814C16.6523 139.814 16.7629 139.834 16.8132 139.854C16.8636 139.874 16.9239 139.905 16.9742 139.955C17.0447 140.015 17.095 140.086 17.1352 140.156C17.1654 140.226 17.1855 140.307 17.1855 140.387C17.1855 140.548 17.1252 140.689 17.0145 140.83C16.9038 140.961 16.6422 141.052 16.2397 141.072L16.2095 141.374L15.5958 140.589H13.7444L12.0439 142.752H13.7243L14.6701 141.524Z" fill="#171A9F"/>
<path d="M27.992 151.385L23.766 143.949H21.4317V154.605H23.5044V147.048L27.8411 154.605H30.0748V143.949H27.992V151.385Z" fill="#171A9F"/>
<path d="M37.1181 150.671H39.5832C39.4726 151.365 39.1808 151.928 38.6978 152.351C38.2249 152.784 37.6111 152.995 36.8565 152.995C36.0918 152.995 35.4176 152.723 34.8139 152.18C34.2203 151.637 33.9184 150.711 33.9184 149.403C33.9184 148.105 34.1901 147.129 34.7435 146.485C35.2969 145.841 36.0012 145.519 36.8565 145.519C37.3093 145.519 37.7117 145.599 38.074 145.76C38.728 146.052 39.1405 146.555 39.3116 147.29H41.505C41.3843 146.264 40.9114 145.408 40.0863 144.724C39.2613 144.04 38.1746 143.698 36.8162 143.698C35.2566 143.698 33.9989 144.221 33.043 145.257C32.0972 146.294 31.6143 147.682 31.6143 149.403C31.6143 151.103 32.0872 152.452 33.0229 153.438C33.9285 154.414 35.0856 154.907 36.4942 154.907C37.3495 154.907 38.074 154.726 38.6676 154.363C39.0097 154.152 39.3921 153.8 39.8247 153.297L40.0461 154.625H41.5252V148.91H37.0879V150.671H37.1181Z" fill="#171A9F"/>
<path d="M52.1807 145.65C52.9554 145.65 53.5491 145.881 53.9415 146.344C54.1629 146.606 54.344 146.988 54.4848 147.501H56.7085C56.6783 146.837 56.4368 146.173 55.974 145.509C55.1489 144.332 53.8509 143.748 52.08 143.748C50.7519 143.748 49.6652 144.191 48.7999 145.066C47.8138 146.072 47.3208 147.511 47.3208 149.373C47.3208 151.093 47.7535 152.452 48.6188 153.438C49.4841 154.424 50.6814 154.917 52.2008 154.917C53.4283 154.917 54.4345 154.554 55.2193 153.83C56.0042 153.106 56.4871 152.16 56.6783 150.993H54.4647C54.3138 151.546 54.1327 151.959 53.9113 152.23C53.5088 152.743 52.9252 152.995 52.1605 152.995C51.416 152.995 50.8022 152.693 50.3192 152.099C49.8363 151.506 49.5948 150.61 49.5948 149.413C49.5948 148.215 49.8262 147.29 50.279 146.636C50.7619 145.972 51.3958 145.65 52.1807 145.65Z" fill="#171A9F"/>
<path d="M63.2184 141.555L64.1642 142.772H65.8345L64.1441 140.609H62.2927L60.5923 142.772H62.2726L63.2184 141.555Z" fill="#171A9F"/>
<path d="M63.2184 143.627C61.6991 143.627 60.532 144.04 59.727 144.875C58.6504 145.851 58.1071 147.32 58.1071 149.272C58.1071 151.184 58.6504 152.653 59.727 153.669C60.532 154.494 61.6991 154.917 63.2184 154.917C64.7378 154.917 65.905 154.504 66.7099 153.669C67.7865 152.653 68.3198 151.184 68.3198 149.272C68.3198 147.32 67.7865 145.851 66.7099 144.875C65.905 144.04 64.7478 143.627 63.2184 143.627ZM65.3214 152.039C64.7982 152.693 64.1039 153.015 63.2184 153.015C62.333 153.015 61.6287 152.693 61.1055 152.039C60.5823 151.385 60.3207 150.459 60.3207 149.262C60.3207 148.065 60.5823 147.139 61.1055 146.485C61.6287 145.831 62.333 145.509 63.2184 145.509C64.1039 145.509 64.7982 145.831 65.3214 146.485C65.8446 147.139 66.0961 148.065 66.0961 149.262C66.0961 150.459 65.8345 151.385 65.3214 152.039Z" fill="#171A9F"/>
<path d="M76.5604 151.385L72.3244 143.949H69.9901V154.605H72.0628V147.048L76.4095 154.605H78.6332V143.949H76.5604V151.385Z" fill="#171A9F"/>
<path d="M85.6865 150.671H88.1517C88.041 151.365 87.7492 151.928 87.2662 152.351C86.7933 152.784 86.1795 152.995 85.4249 152.995C84.6602 152.995 83.9861 152.723 83.3823 152.18C82.7887 151.637 82.4868 150.711 82.4868 149.403C82.4868 148.105 82.7585 147.129 83.3119 146.485C83.8653 145.841 84.5696 145.519 85.4249 145.519C85.8777 145.519 86.2802 145.599 86.6524 145.76C87.3065 146.052 87.719 146.555 87.89 147.29H90.0835C89.9628 146.264 89.4899 145.408 88.6648 144.724C87.8397 144.04 86.7531 143.698 85.3947 143.698C83.8351 143.698 82.5774 144.221 81.6215 145.257C80.6757 146.294 80.1927 147.682 80.1927 149.403C80.1927 151.103 80.6656 152.452 81.6014 153.438C82.507 154.414 83.6641 154.907 85.0727 154.907C85.928 154.907 86.6524 154.726 87.2461 154.363C87.5882 154.152 87.9705 153.8 88.4032 153.297L88.6245 154.625H90.1036V148.91H85.6664V150.671H85.6865Z" fill="#171A9F"/>
<path d="M95.4767 145.841H98.6763V154.605H100.92V145.841H104.11V143.949H95.4767V145.841Z" fill="#171A9F"/>
<path d="M109.382 148.588L107.169 143.949H104.542L108.225 150.61V154.605H110.459V150.61L114.021 143.949H111.495L109.382 148.588Z" fill="#171A9F"/>
<path d="M118.528 145.841H121.728V154.605H123.972V145.841H127.161V143.949H118.528V145.841Z" fill="#171A9F"/>
<path d="M136.79 153.73C136.75 153.558 136.73 153.226 136.73 152.743V152.029C136.73 151.284 136.629 150.731 136.428 150.359C136.227 149.997 135.875 149.715 135.382 149.514C135.965 149.312 136.388 148.97 136.65 148.477C136.901 147.984 137.032 147.491 137.032 146.988C137.032 146.565 136.962 146.193 136.831 145.871C136.7 145.549 136.519 145.247 136.297 144.976C136.026 144.644 135.694 144.402 135.301 144.231C134.909 144.06 134.345 143.97 133.621 143.959H128.52V154.615H130.693V150.439H132.866C133.49 150.439 133.913 150.55 134.134 150.781C134.356 151.013 134.476 151.466 134.486 152.14L134.496 153.126C134.496 153.438 134.537 153.75 134.587 154.041C134.617 154.182 134.667 154.373 134.728 154.615H137.183V154.343C136.992 154.212 136.851 154.001 136.79 153.73ZM134.164 148.487C133.923 148.598 133.571 148.658 133.088 148.658H130.693V145.791H133.148C133.611 145.791 133.953 145.851 134.174 145.982C134.587 146.203 134.788 146.636 134.788 147.28C134.788 147.884 134.587 148.286 134.164 148.487Z" fill="#171A9F"/>
<path d="M145.454 150.49C145.454 151.224 145.363 151.757 145.192 152.089C144.92 152.683 144.337 152.985 143.441 152.985C142.536 152.985 141.952 152.683 141.681 152.089C141.51 151.757 141.419 151.214 141.419 150.49V143.949H139.155V150.5C139.155 151.637 139.326 152.512 139.678 153.146C140.342 154.303 141.59 154.876 143.431 154.876C145.273 154.876 146.52 154.303 147.174 153.146C147.526 152.512 147.698 151.637 147.698 150.5V143.949H145.434V150.49H145.454Z" fill="#171A9F"/>
<path d="M153.825 148.588L151.612 143.949H148.985L152.678 150.61V154.605H154.902V150.61L158.474 143.949H155.948L153.825 148.588Z" fill="#171A9F"/>
<path d="M162.398 141.625L161.301 143.034H162.981L163.927 141.816L164.863 143.034H166.543L164.853 140.87H163.002L162.519 141.484L161.221 139.472H158.927L161.12 141.625H162.398Z" fill="#171A9F"/>
<path d="M161.985 149.946H167.167V148.095H161.985V145.841H167.63V143.949H159.812V154.605H167.892V152.693H161.985V149.946Z" fill="#171A9F"/>
<path d="M176.162 151.385L171.926 143.949H169.592V154.605H171.665V147.048L176.001 154.605H178.235V143.949H176.162V151.385Z" fill="#171A9F"/>
<path d="M183.548 145.841H186.758V154.605H189.001V145.841H192.191V143.949H183.548V145.841Z" fill="#171A9F"/>
<path d="M196.538 143.949L192.734 154.605H195.069L195.793 152.411H199.717L200.422 154.605H202.836L199.063 143.949H196.538V143.949ZM196.397 150.58L197.785 146.384L199.134 150.58H196.397Z" fill="#171A9F"/>
<path d="M197.494 141.394C197.644 141.394 197.755 141.414 197.805 141.434C197.856 141.454 197.916 141.484 197.966 141.535C198.037 141.595 198.087 141.665 198.127 141.746C198.158 141.816 198.178 141.897 198.178 141.977C198.178 142.138 198.117 142.279 198.007 142.42C197.896 142.551 197.634 142.641 197.232 142.661L197.182 143.215H198.178L198.278 142.893C198.459 142.853 198.61 142.802 198.741 142.732C198.872 142.661 198.963 142.581 199.033 142.5C199.103 142.41 199.154 142.319 199.184 142.219C199.214 142.118 199.224 142.018 199.224 141.927C199.224 141.816 199.204 141.706 199.174 141.605C199.144 141.504 199.103 141.424 199.063 141.363C198.902 141.132 198.711 140.981 198.48 140.901C198.248 140.82 198.007 140.78 197.765 140.78C197.665 140.78 197.554 140.78 197.433 140.79C197.302 140.8 197.192 140.81 197.081 140.83L197.111 141.404L197.494 141.394Z" fill="#171A9F"/>
<path d="M206.217 143.949H204.004V154.605H206.217V143.949Z" fill="#171A9F"/>
<path d="M220.505 145.589C220.082 145.006 219.579 144.583 218.996 144.332C218.412 144.08 217.708 143.959 216.883 143.959H212.425V147.994H211.429V149.846H212.425V154.605H216.873C218.684 154.605 219.972 153.85 220.736 152.351C221.209 151.415 221.451 150.308 221.451 149.021C221.451 148.326 221.37 147.692 221.219 147.119C221.068 146.545 220.827 146.042 220.505 145.589ZM219.036 150.53C218.935 151.043 218.754 151.476 218.493 151.848C218.211 152.25 217.849 152.512 217.416 152.633C217.154 152.713 216.722 152.754 216.118 152.754H214.578V149.846H216.822V147.994H214.578V145.801H216.219C217.054 145.801 217.678 145.942 218.09 146.223C218.815 146.726 219.177 147.713 219.177 149.182C219.187 149.574 219.136 150.027 219.036 150.53Z" fill="#171A9F"/>
<path d="M225.153 143.949H222.94V154.605H225.153V143.949Z" fill="#171A9F"/>
<path d="M229.48 149.946H234.662V148.095H229.48V145.841H235.125V143.949H227.307V154.605H235.386V152.693H229.48V149.946Z" fill="#171A9F"/>
<path d="M231.382 141.756L232.328 142.963H233.998L232.307 140.8H230.456L228.756 142.963H230.436L231.382 141.756Z" fill="#171A9F"/>
<path d="M232.287 155.259H230.396V156.969H232.287V155.259Z" fill="#171A9F"/>
<path d="M243.657 151.385L239.421 143.949H237.087V154.605H239.16V147.048L243.496 154.605H245.73V143.949H243.657V151.385Z" fill="#171A9F"/>
<path d="M261.416 151.486C261.648 150.842 261.758 150.047 261.758 149.101C261.758 147.31 261.215 145.911 260.138 144.915C259.203 144.05 258.046 143.617 256.667 143.617C255.299 143.617 254.152 144.02 253.226 144.835C252.099 145.831 251.536 147.31 251.536 149.252C251.536 151.184 252.089 152.653 253.186 153.649C254.091 154.474 255.238 154.897 256.627 154.897C257.291 154.897 257.864 154.816 258.347 154.655C258.629 154.555 258.971 154.394 259.364 154.152L260.642 155.37L261.799 154.162L260.571 153.005C260.943 152.613 261.225 152.099 261.416 151.486ZM259.374 150.63C259.303 150.892 259.193 151.194 259.022 151.546L257.935 150.53L256.788 151.727L257.864 152.753C257.663 152.844 257.492 152.904 257.361 152.935C257.12 152.995 256.878 153.025 256.627 153.025C255.943 153.025 255.359 152.824 254.876 152.411C254.121 151.777 253.749 150.731 253.749 149.272C253.749 148.024 254.011 147.089 254.534 146.465C255.057 145.841 255.762 145.529 256.647 145.529C257.583 145.529 258.297 145.851 258.79 146.505C259.283 147.159 259.525 148.085 259.525 149.272C259.535 149.785 259.474 150.238 259.374 150.63Z" fill="#171A9F"/>
<path d="M269.758 150.49C269.758 151.224 269.667 151.757 269.496 152.089C269.224 152.683 268.641 152.985 267.745 152.985C266.84 152.985 266.256 152.683 265.984 152.089C265.813 151.757 265.723 151.214 265.723 150.49V143.949H263.459V150.5C263.459 151.637 263.63 152.512 263.982 153.146C264.646 154.303 265.894 154.876 267.735 154.876C269.576 154.876 270.824 154.303 271.478 153.146C271.83 152.512 272.001 151.637 272.001 150.5V143.949H269.737V150.49H269.758Z" fill="#171A9F"/>
<path d="M278.874 143.627C277.354 143.627 276.187 144.04 275.382 144.875C274.306 145.851 273.762 147.32 273.762 149.272C273.762 151.184 274.306 152.653 275.382 153.669C276.187 154.494 277.354 154.917 278.874 154.917C280.393 154.917 281.56 154.504 282.365 153.669C283.442 152.653 283.975 151.184 283.975 149.272C283.975 147.32 283.442 145.851 282.365 144.875C281.56 144.04 280.403 143.627 278.874 143.627ZM280.977 152.039C280.463 152.693 279.759 153.015 278.874 153.015C277.988 153.015 277.284 152.693 276.761 152.039C276.237 151.385 275.976 150.459 275.976 149.262C275.976 148.065 276.237 147.139 276.761 146.485C277.284 145.831 277.988 145.509 278.874 145.509C279.759 145.509 280.453 145.831 280.977 146.485C281.5 147.139 281.751 148.065 281.751 149.262C281.751 150.459 281.49 151.385 280.977 152.039Z" fill="#171A9F"/>
<path d="M280.453 141.454L279.92 140.78H278.069L276.368 142.933H278.049L278.994 141.726L279.94 142.933H281.62L280.564 141.595H281.862L284.066 139.432H281.761L280.453 141.454Z" fill="#171A9F"/>
<path d="M290.062 145.65C290.847 145.65 291.431 145.881 291.823 146.344C292.044 146.606 292.226 146.988 292.366 147.501H294.6C294.57 146.837 294.318 146.173 293.866 145.509C293.041 144.332 291.743 143.748 289.972 143.748C288.644 143.748 287.557 144.191 286.692 145.066C285.705 146.072 285.212 147.511 285.212 149.373C285.212 151.093 285.645 152.452 286.51 153.438C287.376 154.424 288.573 154.917 290.092 154.917C291.32 154.917 292.326 154.554 293.111 153.83C293.896 153.106 294.379 152.16 294.57 150.993H292.356C292.205 151.546 292.024 151.959 291.803 152.23C291.4 152.743 290.817 152.995 290.052 152.995C289.308 152.995 288.694 152.693 288.211 152.099C287.728 151.506 287.486 150.61 287.486 149.413C287.486 148.215 287.718 147.29 288.171 146.636C288.644 145.972 289.267 145.65 290.062 145.65Z" fill="#171A9F"/>
<path d="M305.457 150.671H307.922C307.811 151.365 307.52 151.928 307.037 152.351C306.564 152.784 305.95 152.995 305.195 152.995C304.431 152.995 303.756 152.723 303.153 152.18C302.559 151.637 302.257 150.711 302.257 149.403C302.257 148.105 302.529 147.129 303.082 146.485C303.636 145.841 304.34 145.519 305.195 145.519C305.648 145.519 306.051 145.599 306.423 145.76C307.077 146.052 307.489 146.555 307.66 147.29H309.854C309.733 146.264 309.26 145.408 308.435 144.724C307.61 144.04 306.523 143.698 305.165 143.698C303.606 143.698 302.348 144.221 301.392 145.257C300.446 146.294 299.963 147.682 299.963 149.403C299.963 151.103 300.436 152.452 301.372 153.438C302.277 154.414 303.434 154.907 304.843 154.907C305.698 154.907 306.423 154.726 307.016 154.363C307.359 154.152 307.741 153.8 308.174 153.297L308.395 154.625H309.874V148.91H305.437V150.671H305.457Z" fill="#171A9F"/>
<path d="M314.05 143.949H311.836V154.605H314.05V143.949Z" fill="#171A9F"/>
<path d="M321.707 143.949H319.191L315.388 154.605H317.722L318.447 152.411H322.371L323.075 154.605H325.49L321.707 143.949ZM319.04 150.58L320.429 146.384L321.777 150.58H319.04Z" fill="#171A9F"/>
<path fill-rule="evenodd" clip-rule="evenodd" d="M205.051 44.0648L170.086 51.5604L162.59 86.5254L155.094 51.5604L120.129 44.0648L155.094 36.5835L162.59 1.60425L170.086 36.5835L205.051 44.0648Z" fill="#000F9F"/>
<path fill-rule="evenodd" clip-rule="evenodd" d="M162.59 69.5468L157.607 49.0476L137.108 44.0648L157.607 39.082L162.59 18.5828L167.573 39.082L188.072 44.0648L167.573 49.0476L162.59 69.5468Z" fill="#ED1C24"/>
<path fill-rule="evenodd" clip-rule="evenodd" d="M162.59 0C187.206 0 207.18 19.9739 207.18 44.59C207.18 69.2061 187.206 89.18 162.59 89.18C137.974 89.18 118 69.2061 118 44.59C118 19.9739 137.974 0 162.59 0ZM162.59 2.11522C139.138 2.11522 120.129 21.138 120.129 44.59C120.129 68.042 139.152 87.0506 162.59 87.0506C186.028 87.0506 205.051 68.042 205.051 44.59C205.051 21.138 186.042 2.11522 162.59 2.11522Z" fill="#000F9F"/>
<path fill-rule="evenodd" clip-rule="evenodd" d="M162.59 54.6836L160.091 46.5634L151.971 44.0649L160.091 41.5805L162.59 33.4462L165.089 41.5805L173.209 44.0649L165.089 46.5634L162.59 54.6836Z" fill="#FFF200"/>
<path d="M96.077 105.381C96.077 112.641 96.055 119.878 96.077 127.138C102.083 127.116 108.099 127.138 114.105 127.138C114.105 125.455 114.105 123.783 114.105 122.133C110.453 122.034 106.823 122.133 103.161 122.078C103.161 120.956 103.161 119.823 103.161 118.723C106.119 118.701 109.067 118.745 112.026 118.701L112.147 118.58C112.202 116.952 112.125 115.346 112.169 113.719C109.21 113.598 106.262 113.719 103.304 113.664L103.183 113.543C103.128 112.542 103.183 111.541 103.183 110.54C106.713 110.518 110.244 110.54 113.775 110.54C113.896 108.835 113.83 107.108 113.797 105.403C107.89 105.359 101.984 105.381 96.077 105.381Z" fill="white"/>
<path d="M116.129 105.381C118.538 112.619 121.035 119.834 123.465 127.094C125.874 127.171 128.294 127.116 130.703 127.116C133.211 119.878 135.741 112.641 138.194 105.381C135.785 105.359 133.387 105.381 131.011 105.381C129.779 110.166 128.503 114.95 127.282 119.757C126.908 118.778 126.732 117.755 126.435 116.754C125.456 112.971 124.411 109.198 123.454 105.414C120.991 105.337 118.56 105.381 116.129 105.381Z" fill="white"/>
<path d="M140.921 105.381C140.921 112.619 140.921 119.878 140.921 127.116C143.176 127.116 145.398 127.116 147.653 127.116C147.675 123.233 147.598 119.328 147.631 115.445C148.104 115.995 148.456 116.644 148.863 117.249C150.964 120.527 153.098 123.805 155.199 127.116C157.431 127.138 159.653 127.116 161.886 127.116C161.886 119.878 161.886 112.641 161.886 105.381C159.609 105.359 157.354 105.381 155.078 105.381C155.023 109.209 155.078 113.048 155.056 116.897C154.451 116.248 154.099 115.445 153.604 114.719C151.624 111.618 149.567 108.56 147.664 105.403C145.376 105.359 143.143 105.381 140.921 105.381Z" fill="white"/>
<path d="M96.077 105.381C101.984 105.403 107.89 105.381 113.808 105.403C113.83 107.108 113.885 108.835 113.786 110.54C110.255 110.54 106.724 110.54 103.194 110.54C103.194 111.541 103.139 112.542 103.194 113.543L103.315 113.664C106.273 113.741 109.221 113.587 112.18 113.719C112.158 115.346 112.202 116.952 112.158 118.58L112.026 118.712C109.067 118.734 106.119 118.712 103.161 118.734C103.161 119.856 103.161 120.967 103.161 122.089C106.812 122.144 110.442 122.034 114.105 122.144C114.105 123.827 114.105 125.499 114.105 127.149C108.099 127.171 102.083 127.149 96.077 127.149C96.044 119.889 96.077 112.619 96.077 105.381Z" fill="#00199F"/>
<path d="M116.129 105.381C118.56 105.381 120.991 105.326 123.41 105.403C124.367 109.187 125.412 112.96 126.391 116.743C126.688 117.744 126.864 118.767 127.238 119.746C128.47 114.961 129.746 110.155 130.967 105.37C133.376 105.37 135.774 105.348 138.15 105.37C135.697 112.63 133.167 119.867 130.659 127.105C128.25 127.105 125.83 127.16 123.421 127.083C121.035 119.856 118.538 112.619 116.129 105.381Z" fill="#00199F"/>
<path d="M140.921 105.381C143.154 105.381 145.376 105.359 147.609 105.403C149.534 108.538 151.591 111.618 153.549 114.719C154.055 115.445 154.429 116.248 155.001 116.897C155.023 113.07 154.979 109.231 155.023 105.381C157.299 105.381 159.554 105.359 161.831 105.381C161.831 112.619 161.831 119.856 161.831 127.116C159.598 127.116 157.376 127.116 155.144 127.116C153.043 123.838 150.942 120.527 148.808 117.249C148.412 116.644 148.06 115.995 147.576 115.445C147.554 119.328 147.631 123.233 147.598 127.116C145.343 127.116 143.121 127.116 140.866 127.116C140.921 119.889 140.921 112.619 140.921 105.381Z" fill="#00199F"/>
<path d="M172.259 127.193C170.18 127.193 168.079 127.193 166 127.193C166.297 125.389 166.572 123.585 166.88 121.781C167.837 116.27 168.805 110.738 169.762 105.227C172.094 105.227 174.448 105.227 176.768 105.227C178.572 109.33 180.354 113.444 182.004 117.172C182.125 115.995 182.257 114.346 182.477 112.696C182.807 110.188 183.181 107.713 183.533 105.205C185.711 105.205 187.867 105.205 190.045 105.205C189.539 107.933 189.044 110.639 188.538 113.367C187.713 117.953 186.855 122.551 186.03 127.16C183.951 127.16 181.85 127.16 179.771 127.16C177.813 122.749 175.866 118.316 174.118 114.335C174.063 115.039 174.041 116.259 173.865 117.469C173.359 120.758 172.809 123.97 172.259 127.193Z" fill="#EE1D29"/>
<path d="M195.049 127.193H188.285C188.34 126.742 188.34 126.291 188.406 125.84C189.605 118.976 190.815 112.113 192.036 105.227C195.786 105.227 199.548 105.227 203.299 105.227C204.08 105.227 204.828 105.381 205.532 105.656C207.512 106.382 208.667 107.757 208.942 109.858C209.492 114.235 206.511 118.569 202.155 119.394C200.197 119.768 198.228 119.867 196.094 120.12C195.775 122.463 195.39 124.839 195.049 127.193ZM197.051 115.225C198.503 114.95 199.801 114.851 200.934 114.4C201.99 113.971 202.331 112.893 202.133 111.772C201.913 110.617 200.934 110.54 199.977 110.496C199.273 110.474 198.58 110.496 197.876 110.496C197.601 112.025 197.37 113.399 197.051 115.225Z" fill="#EE1D29"/>
<path d="M213.044 127.193C214.045 121.66 215.024 116.127 216.047 110.463C214.166 110.463 212.395 110.463 210.558 110.463C210.811 108.637 211.064 106.932 211.306 105.227C217.07 105.227 222.823 105.227 228.586 105.227C228.916 105.227 229.488 104.952 229.334 105.733C228.982 107.284 228.663 108.868 228.278 110.496C226.452 110.496 224.671 110.496 222.823 110.496C221.822 116.105 220.821 121.66 219.82 127.193C217.554 127.193 215.299 127.193 213.044 127.193Z" fill="#EE1D29"/>
</svg>
