<svg width="32" height="33" viewBox="0 0 32 33" fill="none" xmlns="http://www.w3.org/2000/svg">
<path d="M30.712 19.4307C30.3622 19.1309 29.9999 18.856 29.6501 18.5687C28.4632 17.5942 28.4507 16.3199 29.6251 15.3455C30.0248 15.0082 30.4496 14.6959 30.8244 14.3586C31.7239 13.5465 31.9613 12.3597 31.3741 11.2978C30.4996 9.71117 29.5876 8.14955 28.6631 6.60043C28.051 5.5885 26.9141 5.20122 25.7897 5.56351C25.2026 5.75091 24.6279 6.00077 24.0282 6.20065C22.8664 6.57544 21.767 5.91331 21.5546 4.71399C21.4672 4.20178 21.3797 3.68957 21.3048 3.17736C21.0799 1.81563 20.0929 0.966106 18.7187 0.953613C17.0322 0.953613 15.3456 0.953613 13.6591 0.953613C12.2474 0.953613 11.2729 1.81563 11.0605 3.22733C10.9856 3.73954 10.8981 4.25175 10.7982 4.76396C10.5733 5.88833 9.49893 6.55046 8.39955 6.20065C7.82487 6.02575 7.27518 5.77589 6.7005 5.5885C5.4762 5.16374 4.30186 5.57601 3.63973 6.70037C2.76522 8.18703 1.90321 9.67369 1.05369 11.1853C0.379071 12.3847 0.616437 13.5965 1.67834 14.4835C2.06562 14.8083 2.46539 15.1081 2.84018 15.4329C3.88959 16.3449 3.8771 17.5817 2.82769 18.4937C2.40293 18.856 1.94069 19.1933 1.52842 19.5681C0.653916 20.3677 0.41655 21.542 0.978733 22.5789C1.86573 24.178 2.77772 25.7646 3.72718 27.3262C4.31435 28.3007 5.4637 28.7005 6.55059 28.3507C7.13776 28.1633 7.71243 27.9134 8.3121 27.7135C9.51142 27.3137 10.5983 27.9759 10.8232 29.2252C10.9106 29.7374 10.9981 30.2496 11.073 30.7618C11.2979 32.086 12.2849 32.9356 13.6216 32.9481C14.4711 32.9606 15.3331 32.9481 16.1827 32.9481C17.0197 32.9481 17.8442 32.9481 18.6812 32.9481C20.1054 32.9481 21.0924 32.0985 21.3048 30.7118C21.3797 30.1996 21.4672 29.6874 21.5546 29.1752C21.7795 28.0133 22.8539 27.3512 23.9907 27.7135C24.5654 27.8884 25.1151 28.1383 25.6898 28.3257C26.9016 28.7379 28.051 28.3257 28.7131 27.2388C29.6126 25.7396 30.4746 24.228 31.3366 22.7038C31.9737 21.517 31.7364 20.3177 30.712 19.4307ZM26.5393 25.977C24.7778 25.2024 23.0538 24.5903 21.2173 25.6647C19.3809 26.7266 19.031 28.5256 18.8312 30.412C17.0447 30.412 15.3206 30.412 13.5341 30.412C13.3343 28.538 12.9845 26.7391 11.1605 25.6647C9.32402 24.6028 7.6 25.2024 5.83849 25.977C4.95149 24.4404 4.08948 22.9537 3.18999 21.3921C4.7516 20.2427 6.12583 19.0434 6.11334 16.9071C6.10084 14.7958 4.72662 13.6215 3.18999 12.4846C4.07698 10.9605 4.939 9.44882 5.83849 7.89969C7.6 8.67426 9.32402 9.28641 11.1605 8.21202C12.997 7.15012 13.3343 5.33864 13.5466 3.4647C15.3081 3.4647 17.0197 3.4647 18.8062 3.4647C18.8936 3.93943 18.9936 4.43915 19.0685 4.95136C19.4933 7.81224 22.2292 9.4863 24.9527 8.52434C25.4774 8.33695 25.9896 8.13706 26.5393 7.92468C26.5893 7.99964 26.6268 8.03712 26.6642 8.09958C27.5013 9.53627 28.3258 10.973 29.1878 12.4596C28.8255 12.7595 28.4757 13.0468 28.1384 13.3216C25.6273 15.3705 25.6273 18.4812 28.1384 20.5301C28.4757 20.8049 28.813 21.0798 29.2003 21.3921C28.3008 22.9287 27.4388 24.4279 26.5393 25.977Z" fill="#25B380"/>
<path d="M28.1259 13.3341C28.4757 13.0468 28.8255 12.7594 29.1753 12.4721C28.3133 10.9854 27.4763 9.54875 26.6517 8.11206C26.6268 8.06209 26.5768 8.01211 26.5268 7.93716C25.9771 8.13704 25.4649 8.34942 24.9402 8.53682C22.2167 9.49878 19.4808 7.82472 19.056 4.96383C18.9811 4.46412 18.8811 3.9644 18.7937 3.47717C17.0072 3.47717 15.2957 3.47717 13.5341 3.47717C13.3218 5.35112 12.9845 7.16259 11.148 8.22449C9.31153 9.2864 7.5875 8.68673 5.826 7.91217C4.9265 9.4613 4.06449 10.9729 3.17749 12.4971C4.71412 13.6339 6.08835 14.8083 6.10084 16.9196C6.11333 19.0559 4.72662 20.2552 3.17749 21.4046C4.07698 22.9662 4.939 24.4528 5.826 25.9895C7.5875 25.2024 9.31153 24.6028 11.148 25.6771C12.9845 26.739 13.3218 28.5505 13.5217 30.4245C15.3206 30.4245 17.0322 30.4245 18.8187 30.4245C19.0186 28.538 19.3684 26.739 21.2048 25.6771C23.0413 24.6152 24.7653 25.2149 26.5268 25.9895C27.4263 24.4403 28.2883 22.9412 29.1628 21.4295C28.7755 21.1172 28.4382 20.8424 28.1009 20.5675C25.6148 18.4937 25.6148 15.3954 28.1259 13.3341ZM16.2201 25.2149C11.5353 25.2274 7.88733 21.5795 7.91232 16.8821C7.93731 12.2722 11.5728 8.67424 16.2076 8.67424C20.83 8.68673 24.4405 12.3097 24.453 16.9321C24.453 21.567 20.8425 25.1899 16.2201 25.2149Z" fill="#50E6B4"/>
<path d="M16.2076 8.67423C11.5852 8.66173 7.93722 12.2722 7.91224 16.8821C7.88725 21.5794 11.5352 25.2274 16.2201 25.2149C20.8299 25.2024 24.4404 21.567 24.4404 16.9446C24.4404 12.3097 20.8299 8.68672 16.2076 8.67423ZM16.1826 23.0911C12.7595 23.0911 10.0485 20.3801 10.036 16.9571C10.036 13.509 12.7595 10.7855 16.2076 10.798C19.6306 10.8105 22.3291 13.534 22.3166 16.9571C22.3166 20.3801 19.6056 23.0911 16.1826 23.0911Z" fill="#B8FFE7"/>
<path d="M18.6064 14.7084C18.8188 14.7084 19.0187 14.7084 19.2436 14.7084C19.2436 16.195 19.2436 17.6817 19.2436 19.1808C19.0312 19.1808 18.8313 19.1808 18.6064 19.1808C18.6064 17.6942 18.6064 16.195 18.6064 14.7084Z" fill="white"/>
<path d="M13.3345 14.7084C13.7717 14.7084 14.1965 14.7084 14.6587 14.7084C14.6587 16.195 14.6587 17.6942 14.6587 19.1808C14.2215 19.1808 13.7967 19.1808 13.3345 19.1808C13.3345 17.6942 13.3345 16.2075 13.3345 14.7084Z" fill="white"/>
<path d="M15.7206 19.1808C15.5082 19.1808 15.3208 19.1808 15.1084 19.1808C15.1084 17.6942 15.1084 16.2075 15.1084 14.7084C15.3083 14.7084 15.5082 14.7084 15.7206 14.7084C15.7206 16.195 15.7206 17.6817 15.7206 19.1808Z" fill="white"/>
<path d="M19.9307 14.7084C20.1306 14.7084 20.3304 14.7084 20.5428 14.7084C20.5428 16.195 20.5428 17.6942 20.5428 19.1933C20.3429 19.1933 20.143 19.1933 19.9307 19.1933C19.9307 17.6942 19.9307 16.2075 19.9307 14.7084Z" fill="white"/>
<path d="M20.7927 19.1809C20.7927 17.6942 20.7927 16.2075 20.7927 14.7209C20.9551 14.6834 21.0176 14.7209 21.0051 14.7958C20.9926 14.9707 21.0051 15.1456 21.0051 15.3205C21.0051 16.5698 21.0051 17.8316 21.0051 19.0809C21.0176 19.1434 21.0301 19.2183 20.7927 19.1809Z" fill="white"/>
<path d="M11.5728 19.1808C11.5728 17.6942 11.5728 16.195 11.5728 14.7083C11.9101 14.6834 12.11 14.6959 12.085 14.7708C12.085 14.7833 12.085 14.7958 12.085 14.8208C12.085 16.2325 12.085 17.6567 12.085 19.0684C12.085 19.1309 12.1724 19.2183 11.5728 19.1808Z" fill="white"/>
<path d="M17.8692 14.7084C17.8692 16.195 17.8692 17.6817 17.8692 19.1808C16.8698 19.2058 16.3326 19.1933 16.3951 19.1184C16.4076 19.1059 16.3951 19.0934 16.3951 19.0684C16.3951 17.6567 16.3951 16.2325 16.3951 14.8208C16.4076 14.7583 16.1202 14.6709 17.8692 14.7084Z" fill="white"/>
<path d="M19.6809 14.7084C19.6809 16.195 19.6809 17.6942 19.6809 19.1808C19.5435 19.2058 19.4685 19.1933 19.4685 19.1184C19.4685 19.1059 19.4685 19.0934 19.4685 19.0684C19.4685 17.6567 19.4685 16.245 19.4685 14.8208C19.4685 14.7583 19.4311 14.6709 19.6809 14.7084Z" fill="white"/>
<path d="M11.323 14.7084C11.323 16.195 11.323 17.6942 11.323 19.1808C11.1856 19.2058 11.1106 19.1933 11.1106 19.1184C11.1106 19.1059 11.1106 19.0934 11.1106 19.0684C11.1106 17.6567 11.1106 16.2325 11.1106 14.8208C11.1231 14.7583 11.0856 14.6709 11.323 14.7084Z" fill="white"/>
<path d="M15.9705 19.1808C15.9705 17.6942 15.9705 16.195 15.9705 14.7083C16.1079 14.6834 16.1828 14.6959 16.1703 14.7708C16.1703 14.7833 16.1703 14.7958 16.1703 14.8083C16.1703 16.2325 16.1703 17.6567 16.1703 19.0684C16.1703 19.1433 16.1953 19.2183 15.9705 19.1808Z" fill="white"/>
<path d="M12.8847 16.9321C12.8847 16.2325 12.8847 15.5329 12.8847 14.8333C12.8847 14.8083 12.8722 14.7708 12.8847 14.7459C12.8972 14.7334 12.9347 14.7084 12.9597 14.7084C12.9971 14.7084 13.0596 14.7334 13.0721 14.7459C13.0971 14.7833 13.0846 14.8083 13.0846 14.8458C13.0846 16.245 13.0846 17.6567 13.0846 19.0559C13.0846 19.0809 13.0971 19.1059 13.0846 19.1184C13.0596 19.1434 13.0221 19.1684 12.9846 19.1933C12.9472 19.1684 12.8972 19.1559 12.8847 19.1309C12.8722 19.1059 12.8847 19.0809 12.8847 19.0559C12.8847 18.3438 12.8847 17.6317 12.8847 16.9321Z" fill="white"/>
</svg>
