<svg width="184" height="32" viewBox="0 0 184 32" fill="none" xmlns="http://www.w3.org/2000/svg">
<path d="M37.3413 9.78906V7H50.4819V9.78906H45.5835V23H42.2397V9.78906H37.3413ZM52.646 23V7H56.0288V13.6016H62.896V7H66.271V23H62.896V16.3906H56.0288V23H52.646ZM76.4741 13.6797V16.3203H69.1772V13.6797H76.4741ZM78.0972 9.78906V7H91.2378V9.78906H86.3394V23H82.9956V9.78906H78.0972ZM92.0933 23V11H95.3198V13.0937H95.4448C95.6636 12.349 96.0308 11.7865 96.5464 11.4063C97.062 11.0208 97.6558 10.8281 98.3276 10.8281C98.4943 10.8281 98.674 10.8385 98.8667 10.8594C99.0594 10.8802 99.2287 10.9089 99.3745 10.9453V13.8984C99.2183 13.8516 99.0021 13.8099 98.7261 13.7734C98.45 13.737 98.1974 13.7188 97.9683 13.7188C97.4787 13.7188 97.0412 13.8255 96.6558 14.0391C96.2756 14.2474 95.9735 14.5391 95.7495 14.9141C95.5308 15.2891 95.4214 15.7214 95.4214 16.2109V23H92.0933ZM104.173 23.2266C103.408 23.2266 102.725 23.0938 102.126 22.8281C101.528 22.5573 101.054 22.1589 100.705 21.6328C100.361 21.1016 100.189 20.4401 100.189 19.6484C100.189 18.9818 100.311 18.4219 100.556 17.9687C100.801 17.5156 101.134 17.151 101.556 16.875C101.978 16.599 102.457 16.3906 102.994 16.25C103.535 16.1094 104.103 16.0104 104.697 15.9531C105.395 15.8802 105.957 15.8125 106.384 15.75C106.811 15.6823 107.121 15.5833 107.314 15.4531C107.507 15.3229 107.603 15.1302 107.603 14.875V14.8281C107.603 14.3333 107.447 13.9505 107.134 13.6797C106.827 13.4089 106.389 13.2734 105.822 13.2734C105.223 13.2734 104.746 13.4062 104.392 13.6719C104.038 13.9323 103.804 14.2604 103.689 14.6562L100.611 14.4062C100.767 13.6771 101.074 13.0469 101.533 12.5156C101.991 11.9792 102.582 11.5677 103.306 11.2812C104.035 10.9896 104.879 10.8438 105.837 10.8438C106.504 10.8438 107.142 10.9219 107.751 11.0781C108.366 11.2344 108.91 11.4766 109.384 11.8047C109.863 12.1328 110.241 12.5547 110.517 13.0703C110.793 13.5807 110.931 14.1927 110.931 14.9062V23H107.775V21.3359H107.681C107.488 21.7109 107.231 22.0417 106.908 22.3281C106.585 22.6094 106.197 22.8307 105.744 22.9922C105.291 23.1484 104.767 23.2266 104.173 23.2266ZM105.126 20.9297C105.616 20.9297 106.048 20.8333 106.423 20.6406C106.798 20.4427 107.093 20.1771 107.306 19.8438C107.52 19.5104 107.626 19.1328 107.626 18.7109V17.4375C107.522 17.5052 107.379 17.5677 107.197 17.625C107.02 17.6771 106.819 17.7266 106.595 17.7734C106.371 17.8151 106.147 17.8542 105.923 17.8906C105.699 17.9219 105.496 17.9505 105.314 17.9766C104.923 18.0339 104.582 18.125 104.291 18.25C103.999 18.375 103.772 18.5443 103.611 18.7578C103.449 18.9661 103.369 19.2266 103.369 19.5391C103.369 19.9922 103.533 20.3385 103.861 20.5781C104.194 20.8125 104.616 20.9297 105.126 20.9297ZM118.935 23.2344C117.706 23.2344 116.649 22.974 115.763 22.4531C114.883 21.9271 114.206 21.1979 113.732 20.2656C113.263 19.3333 113.029 18.2604 113.029 17.0469C113.029 15.8177 113.266 14.7396 113.74 13.8125C114.219 12.8802 114.899 12.1536 115.779 11.6328C116.659 11.1068 117.706 10.8438 118.919 10.8438C119.966 10.8438 120.883 11.0339 121.669 11.4141C122.456 11.7943 123.078 12.3281 123.537 13.0156C123.995 13.7031 124.248 14.5104 124.294 15.4375H121.154C121.065 14.8385 120.831 14.3568 120.451 13.9922C120.076 13.6224 119.583 13.4375 118.974 13.4375C118.458 13.4375 118.008 13.5781 117.623 13.8594C117.242 14.1354 116.945 14.5391 116.732 15.0703C116.518 15.6016 116.412 16.2448 116.412 17C116.412 17.7656 116.516 18.4167 116.724 18.9531C116.938 19.4896 117.237 19.8984 117.623 20.1797C118.008 20.4609 118.458 20.6016 118.974 20.6016C119.354 20.6016 119.695 20.5234 119.998 20.3672C120.305 20.2109 120.557 19.9844 120.755 19.6875C120.958 19.3854 121.091 19.0234 121.154 18.6016H124.294C124.242 19.5182 123.992 20.3255 123.544 21.0234C123.102 21.7161 122.49 22.2578 121.708 22.6484C120.927 23.0391 120.003 23.2344 118.935 23.2344ZM126.425 23V11H129.753V23H126.425ZM128.097 9.45312C127.602 9.45312 127.178 9.28906 126.824 8.96094C126.475 8.6276 126.3 8.22917 126.3 7.76562C126.3 7.30729 126.475 6.91406 126.824 6.58594C127.178 6.2526 127.602 6.08594 128.097 6.08594C128.592 6.08594 129.014 6.2526 129.363 6.58594C129.717 6.91406 129.894 7.30729 129.894 7.76562C129.894 8.22917 129.717 8.6276 129.363 8.96094C129.014 9.28906 128.592 9.45312 128.097 9.45312ZM135.748 16.0625V23H132.419V11H135.591V13.1172H135.732C135.998 12.4193 136.443 11.8672 137.068 11.4609C137.693 11.0495 138.451 10.8438 139.341 10.8438C140.175 10.8438 140.901 11.026 141.521 11.3906C142.141 11.7552 142.623 12.276 142.966 12.9531C143.31 13.625 143.482 14.4271 143.482 15.3594V23H140.154V15.9531C140.159 15.2187 139.972 14.6458 139.591 14.2344C139.211 13.8177 138.688 13.6094 138.021 13.6094C137.573 13.6094 137.177 13.7057 136.833 13.8984C136.495 14.0911 136.229 14.3724 136.037 14.7422C135.849 15.1068 135.753 15.5469 135.748 16.0625ZM151.511 27.75C150.433 27.75 149.509 27.6016 148.738 27.3047C147.972 27.013 147.363 26.6146 146.91 26.1094C146.457 25.6042 146.162 25.0365 146.027 24.4062L149.105 23.9922C149.199 24.2318 149.347 24.4557 149.55 24.6641C149.753 24.8724 150.022 25.0391 150.355 25.1641C150.694 25.2943 151.105 25.3594 151.589 25.3594C152.313 25.3594 152.91 25.1823 153.378 24.8281C153.852 24.4792 154.089 23.8932 154.089 23.0703V20.875H153.949C153.803 21.2083 153.584 21.5234 153.292 21.8203C153.001 22.1172 152.626 22.3594 152.167 22.5469C151.709 22.7344 151.162 22.8281 150.527 22.8281C149.626 22.8281 148.806 22.6198 148.066 22.2031C147.332 21.7812 146.746 21.138 146.308 20.2734C145.876 19.4036 145.66 18.3047 145.66 16.9766C145.66 15.6172 145.881 14.4818 146.324 13.5703C146.766 12.6589 147.355 11.9766 148.089 11.5234C148.829 11.0703 149.639 10.8438 150.519 10.8438C151.191 10.8438 151.753 10.9583 152.207 11.1875C152.66 11.4115 153.024 11.6927 153.3 12.0312C153.582 12.3646 153.798 12.6927 153.949 13.0156H154.074V11H157.378V23.1172C157.378 24.138 157.128 24.9922 156.628 25.6797C156.128 26.3672 155.436 26.8828 154.55 27.2266C153.67 27.5755 152.657 27.75 151.511 27.75ZM151.582 20.3281C152.118 20.3281 152.571 20.1953 152.941 19.9297C153.316 19.6589 153.602 19.2734 153.8 18.7734C154.003 18.2682 154.105 17.6641 154.105 16.9609C154.105 16.2578 154.006 15.6484 153.808 15.1328C153.61 14.612 153.324 14.2083 152.949 13.9219C152.574 13.6354 152.118 13.4922 151.582 13.4922C151.035 13.4922 150.574 13.6406 150.199 13.9375C149.824 14.2292 149.54 14.6354 149.347 15.1562C149.154 15.6771 149.058 16.2786 149.058 16.9609C149.058 17.6536 149.154 18.2526 149.347 18.7578C149.545 19.2578 149.829 19.6458 150.199 19.9219C150.574 20.1927 151.035 20.3281 151.582 20.3281Z" fill="white"/>
<path d="M30.1836 7.72049C29.735 7.04677 29.1966 6.64253 28.443 6.23829L18.1515 0.6632C16.5275 -0.221067 14.5087 -0.221067 12.8846 0.6632L2.57522 6.23829C1.75872 6.67622 0.673051 7.49311 0.583326 8.52055C0.376958 10.9544 3.7237 12.4787 5.95786 13.5988C9.80706 15.5189 12.3014 16.639 14.1767 18.4412C14.5894 18.8454 15.2534 19.5444 15.4956 20.1002C15.7379 19.5444 16.4018 18.8454 16.8146 18.4412C18.6988 16.6305 21.1842 15.5189 25.0334 13.5988C27.2317 12.4955 30.4707 11.106 30.4079 8.52055C30.4079 8.31843 30.3092 7.94788 30.1657 7.72049H30.1836ZM15.5136 14.4915C13.7101 14.4915 12.2476 13.1187 12.2476 11.426C12.2476 9.73326 13.7101 8.36054 15.5136 8.36054C17.317 8.36054 18.7796 9.73326 18.7796 11.426C18.7796 13.1187 17.317 14.4915 15.5136 14.4915Z" fill="white"/>
<path d="M25.0602 15.2073C20.4842 17.4896 17.2721 18.5507 16.0249 22.2394C15.8724 22.6773 15.6839 23.1489 15.5045 24.0584C15.325 23.1573 15.1276 22.6857 14.9841 22.2478C13.7369 18.5591 10.5247 17.498 5.94877 15.2158C1.19334 12.8493 0.17945 11.6619 0 11.165V21.6835C0 23.4437 1.00492 25.0774 2.62894 25.9617L12.9114 31.5368C13.2883 31.7389 13.6203 31.8905 13.9881 32C13.8625 31.5873 13.719 31.1494 13.5395 30.6778C10.3274 22.2225 4.63878 20.1508 4.63878 20.1508C4.63878 20.1508 7.28567 20.3529 11.0721 24.0163C12.9025 25.7933 14.347 27.9239 15.4955 30.1388C15.4955 30.1388 18.0168 25.8522 19.9279 24.0079C23.7143 20.3361 26.3612 20.1424 26.3612 20.1424C26.3612 20.1424 20.6726 22.2225 17.4605 30.6694C17.281 31.1326 17.1375 31.5789 17.0119 31.9916C17.3797 31.8821 17.7117 31.7305 18.0886 31.5284L28.3711 25.9533C29.9951 25.069 31 23.4352 31 21.6751V11.1566C30.8205 11.6534 29.8067 12.8409 25.0602 15.2073Z" fill="white"/>
</svg>
