<svg width="399" height="77" viewBox="0 0 399 77" fill="none" xmlns="http://www.w3.org/2000/svg">
<g clip-path="url(#clip0)">
<path d="M75.21 65.06H78.4V73.77H80.62V65.06H83.79V63.18H75.21V65.06Z" fill="#2A2A83"/>
<path d="M89.78 62.86C88.27 62.86 87.11 63.27 86.31 64.1C85.24 65.07 84.7 66.53 84.7 68.47C84.7 70.37 85.24 71.83 86.31 72.84C87.11 73.66 88.27 74.08 89.78 74.08C91.29 74.08 92.45 73.67 93.25 72.84C94.32 71.83 94.85 70.37 94.85 68.47C94.85 66.53 94.32 65.07 93.25 64.1C92.45 63.27 91.29 62.86 89.78 62.86ZM91.87 71.22C91.35 71.87 90.66 72.19 89.78 72.19C88.9 72.19 88.2 71.87 87.68 71.22C87.16 70.57 86.9 69.65 86.9 68.46C86.9 67.27 87.16 66.35 87.68 65.7C88.2 65.05 88.9 64.73 89.78 64.73C90.66 64.73 91.35 65.05 91.87 65.7C92.39 66.35 92.64 67.27 92.64 68.46C92.64 69.65 92.38 70.57 91.87 71.22Z" fill="#2A2A83"/>
<path d="M89.7899 60.77L90.7199 61.98H92.3899L91.5099 60.86H92.2899L92.3899 60.54C92.5699 60.5 92.7199 60.45 92.8499 60.38C92.9799 60.31 93.0699 60.23 93.1399 60.15C93.2099 60.06 93.2599 59.97 93.2899 59.87C93.3199 59.77 93.3299 59.67 93.3299 59.58C93.3299 59.47 93.3099 59.36 93.2799 59.26C93.2499 59.16 93.2099 59.08 93.1699 59.02C93.0099 58.79 92.8199 58.64 92.5899 58.56C92.3599 58.48 92.1199 58.44 91.8799 58.44C91.7799 58.44 91.6699 58.44 91.5499 58.45C91.4199 58.46 91.3099 58.47 91.1999 58.49L91.2299 59.06L91.6099 59.07C91.7599 59.07 91.8699 59.09 91.9199 59.11C91.9699 59.13 92.0299 59.16 92.0799 59.21C92.1499 59.27 92.1999 59.34 92.2399 59.41C92.2699 59.48 92.2899 59.56 92.2899 59.64C92.2899 59.8 92.2299 59.94 92.1199 60.08C92.0099 60.21 91.7499 60.3 91.3499 60.32L91.3199 60.62L90.7099 59.84H88.8699L87.1799 61.99H88.8499L89.7899 60.77Z" fill="#2A2A83"/>
<path d="M103.03 70.57L98.83 63.18H96.51V73.77H98.57V66.26L102.88 73.77H105.1V63.18H103.03V70.57Z" fill="#2A2A83"/>
<path d="M112.1 69.86H114.55C114.44 70.55 114.15 71.11 113.67 71.53C113.2 71.96 112.59 72.17 111.84 72.17C111.08 72.17 110.41 71.9 109.81 71.36C109.22 70.82 108.92 69.9 108.92 68.6C108.92 67.31 109.19 66.34 109.74 65.7C110.29 65.06 110.99 64.74 111.84 64.74C112.29 64.74 112.69 64.82 113.05 64.98C113.7 65.27 114.11 65.77 114.28 66.5H116.46C116.34 65.48 115.87 64.63 115.05 63.95C114.23 63.27 113.15 62.93 111.8 62.93C110.25 62.93 109 63.45 108.05 64.48C107.11 65.51 106.63 66.89 106.63 68.6C106.63 70.29 107.1 71.63 108.03 72.61C108.93 73.58 110.08 74.07 111.48 74.07C112.33 74.07 113.05 73.89 113.64 73.53C113.98 73.32 114.36 72.97 114.79 72.47L115.01 73.79H116.48V68.11H112.07V69.86H112.1Z" fill="#2A2A83"/>
<path d="M127.07 64.87C127.84 64.87 128.43 65.1 128.82 65.56C129.04 65.82 129.22 66.2 129.36 66.71H131.57C131.54 66.05 131.3 65.39 130.84 64.73C130.02 63.56 128.73 62.98 126.97 62.98C125.65 62.98 124.57 63.42 123.71 64.29C122.73 65.29 122.24 66.72 122.24 68.57C122.24 70.28 122.67 71.63 123.53 72.61C124.39 73.59 125.58 74.08 127.09 74.08C128.31 74.08 129.31 73.72 130.09 73C130.87 72.28 131.35 71.34 131.54 70.18H129.34C129.19 70.73 129.01 71.14 128.79 71.41C128.39 71.92 127.81 72.17 127.05 72.17C126.31 72.17 125.7 71.87 125.22 71.28C124.74 70.69 124.5 69.8 124.5 68.61C124.5 67.42 124.73 66.5 125.18 65.85C125.66 65.19 126.29 64.87 127.07 64.87Z" fill="#2A2A83"/>
<path d="M138.04 60.8L138.98 62.01H140.64L138.96 59.86H137.12L135.43 62.01H137.1L138.04 60.8Z" fill="#2A2A83"/>
<path d="M138.04 62.86C136.53 62.86 135.37 63.27 134.57 64.1C133.5 65.07 132.96 66.53 132.96 68.47C132.96 70.37 133.5 71.83 134.57 72.84C135.37 73.66 136.53 74.08 138.04 74.08C139.55 74.08 140.71 73.67 141.51 72.84C142.58 71.83 143.11 70.37 143.11 68.47C143.11 66.53 142.58 65.07 141.51 64.1C140.71 63.27 139.56 62.86 138.04 62.86ZM140.13 71.22C139.61 71.87 138.92 72.19 138.04 72.19C137.16 72.19 136.46 71.87 135.94 71.22C135.42 70.57 135.16 69.65 135.16 68.46C135.16 67.27 135.42 66.35 135.94 65.7C136.46 65.05 137.16 64.73 138.04 64.73C138.92 64.73 139.61 65.05 140.13 65.7C140.65 66.35 140.9 67.27 140.9 68.46C140.9 69.65 140.64 70.57 140.13 71.22Z" fill="#2A2A83"/>
<path d="M151.3 70.57L147.09 63.18H144.77V73.77H146.83V66.26L151.15 73.77H153.36V63.18H151.3V70.57Z" fill="#2A2A83"/>
<path d="M160.37 69.86H162.82C162.71 70.55 162.42 71.11 161.94 71.53C161.47 71.96 160.86 72.17 160.11 72.17C159.35 72.17 158.68 71.9 158.08 71.36C157.49 70.82 157.19 69.9 157.19 68.6C157.19 67.31 157.46 66.34 158.01 65.7C158.56 65.06 159.26 64.74 160.11 64.74C160.56 64.74 160.96 64.82 161.33 64.98C161.98 65.27 162.39 65.77 162.56 66.5H164.74C164.62 65.48 164.15 64.63 163.33 63.95C162.51 63.27 161.43 62.93 160.08 62.93C158.53 62.93 157.28 63.45 156.33 64.48C155.39 65.51 154.91 66.89 154.91 68.6C154.91 70.29 155.38 71.63 156.31 72.61C157.21 73.58 158.36 74.07 159.76 74.07C160.61 74.07 161.33 73.89 161.92 73.53C162.26 73.32 162.64 72.97 163.07 72.47L163.29 73.79H164.76V68.11H160.35V69.86H160.37Z" fill="#2A2A83"/>
<path d="M170.1 65.06H173.28V73.77H175.51V65.06H178.68V63.18H170.1V65.06Z" fill="#2A2A83"/>
<path d="M183.92 67.79L181.72 63.18H179.11L182.77 69.8V73.77H184.99V69.8L188.53 63.18H186.02L183.92 67.79Z" fill="#2A2A83"/>
<path d="M193.01 65.06H196.19V73.77H198.42V65.06H201.59V63.18H193.01V65.06Z" fill="#2A2A83"/>
<path d="M211.16 72.9C211.12 72.73 211.1 72.4 211.1 71.92V71.21C211.1 70.47 211 69.92 210.8 69.55C210.6 69.19 210.25 68.91 209.76 68.71C210.34 68.51 210.76 68.17 211.02 67.68C211.27 67.19 211.4 66.7 211.4 66.2C211.4 65.78 211.33 65.41 211.2 65.09C211.07 64.77 210.89 64.47 210.67 64.2C210.4 63.87 210.07 63.63 209.68 63.46C209.29 63.29 208.73 63.2 208.01 63.19H202.94V73.78H205.1V69.63H207.26C207.88 69.63 208.3 69.74 208.52 69.97C208.74 70.2 208.86 70.65 208.87 71.32L208.88 72.3C208.88 72.61 208.92 72.92 208.97 73.21C209 73.35 209.05 73.54 209.11 73.78H211.55V73.51C211.36 73.38 211.22 73.17 211.16 72.9ZM208.55 67.69C208.31 67.8 207.96 67.86 207.48 67.86H205.1V65.01H207.54C208 65.01 208.34 65.07 208.56 65.2C208.97 65.42 209.17 65.85 209.17 66.49C209.17 67.09 208.97 67.49 208.55 67.69Z" fill="#2A2A83"/>
<path d="M219.77 69.68C219.77 70.41 219.68 70.94 219.51 71.27C219.24 71.86 218.66 72.16 217.77 72.16C216.87 72.16 216.29 71.86 216.02 71.27C215.85 70.94 215.76 70.4 215.76 69.68V63.18H213.51V69.69C213.51 70.82 213.68 71.69 214.03 72.32C214.69 73.47 215.93 74.04 217.76 74.04C219.59 74.04 220.83 73.47 221.48 72.32C221.83 71.69 222 70.82 222 69.69V63.18H219.75V69.68H219.77Z" fill="#2A2A83"/>
<path d="M228.09 67.79L225.89 63.18H223.28L226.95 69.8V73.77H229.16V69.8L232.71 63.18H230.2L228.09 67.79Z" fill="#2A2A83"/>
<path d="M236.61 60.87L235.52 62.27H237.19L238.13 61.06L239.06 62.27H240.73L239.05 60.12H237.21L236.73 60.73L235.44 58.73H233.16L235.34 60.87H236.61Z" fill="#2A2A83"/>
<path d="M236.2 69.14H241.35V67.3H236.2V65.06H241.81V63.18H234.04V73.77H242.07V71.87H236.2V69.14Z" fill="#2A2A83"/>
<path d="M250.29 70.57L246.08 63.18H243.76V73.77H245.82V66.26L250.13 73.77H252.35V63.18H250.29V70.57Z" fill="#2A2A83"/>
<path d="M257.63 65.06H260.82V73.77H263.05V65.06H266.22V63.18H257.63V65.06Z" fill="#2A2A83"/>
<path d="M270.54 63.18L266.76 73.77H269.08L269.8 71.59H273.7L274.4 73.77H276.8L273.05 63.18H270.54V63.18ZM270.4 69.77L271.78 65.6L273.12 69.77H270.4Z" fill="#2A2A83"/>
<path d="M271.49 60.64C271.64 60.64 271.75 60.66 271.8 60.68C271.85 60.7 271.91 60.73 271.96 60.78C272.03 60.84 272.08 60.91 272.12 60.99C272.15 61.06 272.17 61.14 272.17 61.22C272.17 61.38 272.11 61.52 272 61.66C271.89 61.79 271.63 61.88 271.23 61.9L271.18 62.45H272.17L272.27 62.13C272.45 62.09 272.6 62.04 272.73 61.97C272.86 61.9 272.95 61.82 273.02 61.74C273.09 61.65 273.14 61.56 273.17 61.46C273.2 61.36 273.21 61.26 273.21 61.17C273.21 61.06 273.19 60.95 273.16 60.85C273.13 60.75 273.09 60.67 273.05 60.61C272.89 60.38 272.7 60.23 272.47 60.15C272.24 60.07 272 60.03 271.76 60.03C271.66 60.03 271.55 60.03 271.43 60.04C271.3 60.05 271.19 60.06 271.08 60.08L271.11 60.65L271.49 60.64Z" fill="#2A2A83"/>
<path d="M280.16 63.18H277.96V73.77H280.16V63.18Z" fill="#2A2A83"/>
<path d="M294.36 64.81C293.94 64.23 293.44 63.81 292.86 63.56C292.28 63.31 291.58 63.19 290.76 63.19H286.33V67.2H285.34V69.04H286.33V73.77H290.75C292.55 73.77 293.83 73.02 294.59 71.53C295.06 70.6 295.3 69.5 295.3 68.22C295.3 67.53 295.22 66.9 295.07 66.33C294.92 65.76 294.68 65.26 294.36 64.81ZM292.9 69.72C292.8 70.23 292.62 70.66 292.36 71.03C292.08 71.43 291.72 71.69 291.29 71.81C291.03 71.89 290.6 71.93 290 71.93H288.47V69.04H290.7V67.2H288.47V65.02H290.1C290.93 65.02 291.55 65.16 291.96 65.44C292.68 65.94 293.04 66.92 293.04 68.38C293.05 68.77 293 69.22 292.9 69.72Z" fill="#2A2A83"/>
<path d="M298.98 63.18H296.78V73.77H298.98V63.18Z" fill="#2A2A83"/>
<path d="M303.28 69.14H308.43V67.3H303.28V65.06H308.89V63.18H301.12V73.77H309.15V71.87H303.28V69.14Z" fill="#2A2A83"/>
<path d="M305.17 61L306.11 62.2H307.77L306.09 60.05H304.25L302.56 62.2H304.23L305.17 61Z" fill="#2A2A83"/>
<path d="M306.07 74.42H304.19V76.12H306.07V74.42Z" fill="#2A2A83"/>
<path d="M317.37 70.57L313.16 63.18H310.84V73.77H312.9V66.26L317.21 73.77H319.43V63.18H317.37V70.57Z" fill="#2A2A83"/>
<path d="M335.02 70.67C335.25 70.03 335.36 69.24 335.36 68.3C335.36 66.52 334.82 65.13 333.75 64.14C332.82 63.28 331.67 62.85 330.3 62.85C328.94 62.85 327.8 63.25 326.88 64.06C325.76 65.05 325.2 66.52 325.2 68.45C325.2 70.37 325.75 71.83 326.84 72.82C327.74 73.64 328.88 74.06 330.26 74.06C330.92 74.06 331.49 73.98 331.97 73.82C332.25 73.72 332.59 73.56 332.98 73.32L334.25 74.53L335.4 73.33L334.18 72.18C334.55 71.79 334.83 71.28 335.02 70.67ZM332.99 69.82C332.92 70.08 332.81 70.38 332.64 70.73L331.56 69.72L330.42 70.91L331.49 71.93C331.29 72.02 331.12 72.08 330.99 72.11C330.75 72.17 330.51 72.2 330.26 72.2C329.58 72.2 329 72 328.52 71.59C327.77 70.96 327.4 69.92 327.4 68.47C327.4 67.23 327.66 66.3 328.18 65.68C328.7 65.06 329.4 64.75 330.28 64.75C331.21 64.75 331.92 65.07 332.41 65.72C332.9 66.37 333.14 67.29 333.14 68.47C333.15 68.98 333.09 69.43 332.99 69.82Z" fill="#2A2A83"/>
<path d="M343.31 69.68C343.31 70.41 343.22 70.94 343.05 71.27C342.78 71.86 342.2 72.16 341.31 72.16C340.41 72.16 339.83 71.86 339.56 71.27C339.39 70.94 339.3 70.4 339.3 69.68V63.18H337.05V69.69C337.05 70.82 337.22 71.69 337.57 72.32C338.23 73.47 339.47 74.04 341.3 74.04C343.13 74.04 344.37 73.47 345.02 72.32C345.37 71.69 345.54 70.82 345.54 69.69V63.18H343.29V69.68H343.31Z" fill="#2A2A83"/>
<path d="M352.37 62.86C350.86 62.86 349.7 63.27 348.9 64.1C347.83 65.07 347.29 66.53 347.29 68.47C347.29 70.37 347.83 71.83 348.9 72.84C349.7 73.66 350.86 74.08 352.37 74.08C353.88 74.08 355.04 73.67 355.84 72.84C356.91 71.83 357.44 70.37 357.44 68.47C357.44 66.53 356.91 65.07 355.84 64.1C355.04 63.27 353.89 62.86 352.37 62.86ZM354.46 71.22C353.95 71.87 353.25 72.19 352.37 72.19C351.49 72.19 350.79 71.87 350.27 71.22C349.75 70.57 349.49 69.65 349.49 68.46C349.49 67.27 349.75 66.35 350.27 65.7C350.79 65.05 351.49 64.73 352.37 64.73C353.25 64.73 353.94 65.05 354.46 65.7C354.98 66.35 355.23 67.27 355.23 68.46C355.23 69.65 354.97 70.57 354.46 71.22Z" fill="#2A2A83"/>
<path d="M353.94 60.7L353.41 60.03H351.57L349.88 62.17H351.55L352.49 60.97L353.43 62.17H355.1L354.05 60.84H355.34L357.53 58.69H355.24L353.94 60.7Z" fill="#2A2A83"/>
<path d="M363.49 64.87C364.27 64.87 364.85 65.1 365.24 65.56C365.46 65.82 365.64 66.2 365.78 66.71H368C367.97 66.05 367.72 65.39 367.27 64.73C366.45 63.56 365.16 62.98 363.4 62.98C362.08 62.98 361 63.42 360.14 64.29C359.16 65.29 358.67 66.72 358.67 68.57C358.67 70.28 359.1 71.63 359.96 72.61C360.82 73.59 362.01 74.08 363.52 74.08C364.74 74.08 365.74 73.72 366.52 73C367.3 72.28 367.78 71.34 367.97 70.18H365.77C365.62 70.73 365.44 71.14 365.22 71.41C364.82 71.92 364.24 72.17 363.48 72.17C362.74 72.17 362.13 71.87 361.65 71.28C361.17 70.69 360.93 69.8 360.93 68.61C360.93 67.42 361.16 66.5 361.61 65.85C362.08 65.19 362.7 64.87 363.49 64.87Z" fill="#2A2A83"/>
<path d="M378.79 69.86H381.24C381.13 70.55 380.84 71.11 380.36 71.53C379.89 71.96 379.28 72.17 378.53 72.17C377.77 72.17 377.1 71.9 376.5 71.36C375.91 70.82 375.61 69.9 375.61 68.6C375.61 67.31 375.88 66.34 376.43 65.7C376.98 65.06 377.68 64.74 378.53 64.74C378.98 64.74 379.38 64.82 379.75 64.98C380.4 65.27 380.81 65.77 380.98 66.5H383.16C383.04 65.48 382.57 64.63 381.75 63.95C380.93 63.27 379.85 62.93 378.5 62.93C376.95 62.93 375.7 63.45 374.75 64.48C373.81 65.51 373.33 66.89 373.33 68.6C373.33 70.29 373.8 71.63 374.73 72.61C375.63 73.58 376.78 74.07 378.18 74.07C379.03 74.07 379.75 73.89 380.34 73.53C380.68 73.32 381.06 72.97 381.49 72.47L381.71 73.79H383.18V68.11H378.77V69.86H378.79Z" fill="#2A2A83"/>
<path d="M387.33 63.18H385.13V73.77H387.33V63.18Z" fill="#2A2A83"/>
<path d="M394.94 63.18H392.44L388.66 73.77H390.98L391.7 71.59H395.6L396.3 73.77H398.7L394.94 63.18ZM392.29 69.77L393.67 65.6L395.01 69.77H392.29Z" fill="#2A2A83"/>
<path fill-rule="evenodd" clip-rule="evenodd" d="M61.32 31.04L36.69 36.32L31.41 60.95L26.13 36.32L1.5 31.04L26.13 25.77L31.41 1.13L36.69 25.77L61.32 31.04Z" fill="#000F9F"/>
<path fill-rule="evenodd" clip-rule="evenodd" d="M31.41 48.99L27.9 34.55L13.46 31.04L27.9 27.53L31.41 13.09L34.92 27.53L49.36 31.04L34.92 34.55L31.41 48.99Z" fill="#ED1C24"/>
<path fill-rule="evenodd" clip-rule="evenodd" d="M31.41 0C48.75 0 62.82 14.07 62.82 31.41C62.82 48.75 48.75 62.82 31.41 62.82C14.07 62.82 0 48.75 0 31.41C0 14.07 14.07 0 31.41 0ZM31.41 1.49C14.89 1.49 1.5 14.89 1.5 31.41C1.5 47.93 14.9 61.32 31.41 61.32C47.92 61.32 61.32 47.93 61.32 31.41C61.32 14.89 47.93 1.49 31.41 1.49Z" fill="#000F9F"/>
<path fill-rule="evenodd" clip-rule="evenodd" d="M31.4101 38.52L29.6501 32.8L23.9301 31.04L29.6501 29.29L31.4101 23.56L33.1701 29.29L38.8901 31.04L33.1701 32.8L31.4101 38.52Z" fill="#FFF200"/>
<path d="M75.5001 21.58C75.5001 28.18 75.4801 34.76 75.5001 41.36C80.9601 41.34 86.4301 41.36 91.8901 41.36C91.8901 39.83 91.8901 38.31 91.8901 36.81C88.5701 36.72 85.2701 36.81 81.9401 36.76C81.9401 35.74 81.9401 34.71 81.9401 33.71C84.6301 33.69 87.3101 33.73 90.0001 33.69L90.1101 33.58C90.1601 32.1 90.0901 30.64 90.1301 29.16C87.4401 29.05 84.7601 29.16 82.0701 29.11L81.9601 29C81.9101 28.09 81.9601 27.18 81.9601 26.27C85.1701 26.25 88.3801 26.27 91.5901 26.27C91.7001 24.72 91.6401 23.15 91.6101 21.6C86.2401 21.56 80.8701 21.58 75.5001 21.58Z" fill="white"/>
<path d="M93.7301 21.58C95.9201 28.16 98.1901 34.72 100.4 41.32C102.59 41.39 104.79 41.34 106.98 41.34C109.26 34.76 111.56 28.18 113.79 21.58C111.6 21.56 109.42 21.58 107.26 21.58C106.14 25.93 104.98 30.28 103.87 34.65C103.53 33.76 103.37 32.83 103.1 31.92C102.21 28.48 101.26 25.05 100.39 21.61C98.1501 21.54 95.9401 21.58 93.7301 21.58Z" fill="white"/>
<path d="M116.27 21.58C116.27 28.16 116.27 34.76 116.27 41.34C118.32 41.34 120.34 41.34 122.39 41.34C122.41 37.81 122.34 34.26 122.37 30.73C122.8 31.23 123.12 31.82 123.49 32.37C125.4 35.35 127.34 38.33 129.25 41.34C131.28 41.36 133.3 41.34 135.33 41.34C135.33 34.76 135.33 28.18 135.33 21.58C133.26 21.56 131.21 21.58 129.14 21.58C129.09 25.06 129.14 28.55 129.12 32.05C128.57 31.46 128.25 30.73 127.8 30.07C126 27.25 124.13 24.47 122.4 21.6C120.32 21.56 118.29 21.58 116.27 21.58Z" fill="white"/>
<path d="M75.5 21.58C80.87 21.6 86.24 21.58 91.62 21.6C91.64 23.15 91.69 24.72 91.6 26.27C88.39 26.27 85.18 26.27 81.97 26.27C81.97 27.18 81.92 28.09 81.97 29L82.08 29.11C84.77 29.18 87.45 29.04 90.14 29.16C90.12 30.64 90.16 32.1 90.12 33.58L90 33.7C87.31 33.72 84.63 33.7 81.94 33.72C81.94 34.74 81.94 35.75 81.94 36.77C85.26 36.82 88.56 36.72 91.89 36.82C91.89 38.35 91.89 39.87 91.89 41.37C86.43 41.39 80.96 41.37 75.5 41.37C75.47 34.77 75.5 28.16 75.5 21.58Z" fill="#2A2A83"/>
<path d="M93.7301 21.58C95.9401 21.58 98.1501 21.53 100.35 21.6C101.22 25.04 102.17 28.47 103.06 31.91C103.33 32.82 103.49 33.75 103.83 34.64C104.95 30.29 106.11 25.92 107.22 21.57C109.41 21.57 111.59 21.55 113.75 21.57C111.52 28.17 109.22 34.75 106.94 41.33C104.75 41.33 102.55 41.38 100.36 41.31C98.1901 34.74 95.9201 28.16 93.7301 21.58Z" fill="#2A2A83"/>
<path d="M116.27 21.58C118.3 21.58 120.32 21.56 122.35 21.6C124.1 24.45 125.97 27.25 127.75 30.07C128.21 30.73 128.55 31.46 129.07 32.05C129.09 28.57 129.05 25.08 129.09 21.58C131.16 21.58 133.21 21.56 135.28 21.58C135.28 28.16 135.28 34.74 135.28 41.34C133.25 41.34 131.23 41.34 129.2 41.34C127.29 38.36 125.38 35.35 123.44 32.37C123.08 31.82 122.76 31.23 122.32 30.73C122.3 34.26 122.37 37.81 122.34 41.34C120.29 41.34 118.27 41.34 116.22 41.34C116.27 34.77 116.27 28.16 116.27 21.58Z" fill="#2A2A83"/>
<path d="M143.13 41.41C141.24 41.41 139.33 41.41 137.44 41.41C137.71 39.77 137.96 38.13 138.24 36.49C139.11 31.48 139.99 26.45 140.86 21.44C142.98 21.44 145.12 21.44 147.23 21.44C148.87 25.17 150.49 28.91 151.99 32.3C152.1 31.23 152.22 29.73 152.42 28.23C152.72 25.95 153.06 23.7 153.38 21.42C155.36 21.42 157.32 21.42 159.3 21.42C158.84 23.9 158.39 26.36 157.93 28.84C157.18 33.01 156.4 37.19 155.65 41.38C153.76 41.38 151.85 41.38 149.96 41.38C148.18 37.37 146.41 33.34 144.82 29.72C144.77 30.36 144.75 31.47 144.59 32.57C144.13 35.56 143.63 38.48 143.13 41.41Z" fill="#ED1C24"/>
<path d="M163.85 41.41H157.7C157.75 41 157.75 40.59 157.81 40.18C158.9 33.94 160 27.7 161.11 21.44C164.52 21.44 167.94 21.44 171.35 21.44C172.06 21.44 172.74 21.58 173.38 21.83C175.18 22.49 176.23 23.74 176.48 25.65C176.98 29.63 174.27 33.57 170.31 34.32C168.53 34.66 166.74 34.75 164.8 34.98C164.51 37.11 164.16 39.27 163.85 41.41ZM165.67 30.53C166.99 30.28 168.17 30.19 169.2 29.78C170.16 29.39 170.47 28.41 170.29 27.39C170.09 26.34 169.2 26.27 168.33 26.23C167.69 26.21 167.06 26.23 166.42 26.23C166.17 27.62 165.96 28.87 165.67 30.53Z" fill="#ED1C24"/>
<path d="M180.21 41.41C181.12 36.38 182.01 31.35 182.94 26.2C181.23 26.2 179.62 26.2 177.95 26.2C178.18 24.54 178.41 22.99 178.63 21.44C183.87 21.44 189.1 21.44 194.34 21.44C194.64 21.44 195.16 21.19 195.02 21.9C194.7 23.31 194.41 24.75 194.06 26.23C192.4 26.23 190.78 26.23 189.1 26.23C188.19 31.33 187.28 36.38 186.37 41.41C184.31 41.41 182.26 41.41 180.21 41.41Z" fill="#ED1C24"/>
</g>
<defs>
<clipPath id="clip0">
<rect width="398.69" height="76.12" fill="white"/>
</clipPath>
</defs>
</svg>
