<svg xmlns="http://www.w3.org/2000/svg" viewBox="0 0 84.7 20"><defs><style>.cls-1{fill:#dc143c;}.cls-2{fill:#00003c;}</style></defs><title>Asset 1</title><g id="Layer_2" data-name="Layer 2"><g id="Layer_1-2" data-name="Layer 1"><path class="cls-1" d="M9.5,19l-1.8.6a7.5,7.5,0,0,1-2.2.3l-1.4-.2A3.1,3.1,0,0,1,3,19.2a3,3,0,0,1-.8-1.1,3.9,3.9,0,0,1-.3-1.6V8.3H0V5.6H1.9V1H5.5V5.6h3V8.3h-3v6.9a1.3,1.3,0,0,0,.4,1.1,1.5,1.5,0,0,0,1,.3l1.1-.2.9-.3Z"/><path class="cls-2" d="M11.5,19.7V.5H20a5.5,5.5,0,0,1,2.4.6,6.3,6.3,0,0,1,1.9,1.5,6.9,6.9,0,0,1,1.3,2.1,6.2,6.2,0,0,1,.5,2.3,6.4,6.4,0,0,1-.9,3.4,5.3,5.3,0,0,1-2.5,2.2L27,19.7H22.8l-3.9-6.4H15.2v6.4ZM15.2,10h4.7l1-.2.8-.7a3.3,3.3,0,0,0,.5-1,3.8,3.8,0,0,0,.2-1.2,3.5,3.5,0,0,0-.2-1.2,3.3,3.3,0,0,0-.6-1L20.7,4l-1-.2H15.2Z"/><path class="cls-2" d="M32.5,20a5.4,5.4,0,0,1-1.9-.3,4.6,4.6,0,0,1-1.5-.9,4.4,4.4,0,0,1-1-1.4,4.3,4.3,0,0,1-.4-1.8,3.9,3.9,0,0,1,.4-1.8,4.2,4.2,0,0,1,1.2-1.4,6.1,6.1,0,0,1,1.9-.9,8.3,8.3,0,0,1,2.4-.3l1.8.2,1.6.5v-.8a2.8,2.8,0,0,0-.8-2.2A3.3,3.3,0,0,0,34,7.8a6.3,6.3,0,0,0-2.2.4,10.3,10.3,0,0,0-2.2,1.2L28.5,7.1a10.4,10.4,0,0,1,5.9-1.8,6.9,6.9,0,0,1,4.7,1.5,5.5,5.5,0,0,1,1.7,4.3v4.4a1.3,1.3,0,0,0,.2.8.9.9,0,0,0,.7.3v3.1l-1.6.2a2.4,2.4,0,0,1-1.6-.5,2,2,0,0,1-.7-1.2v-.8a6.3,6.3,0,0,1-2.3,1.9A6.6,6.6,0,0,1,32.5,20Zm1-2.6a4.7,4.7,0,0,0,1.7-.3,3.2,3.2,0,0,0,1.3-.9,1.3,1.3,0,0,0,.6-1V13.5l-1.4-.4H34.3a3.9,3.9,0,0,0-2.3.6,1.9,1.9,0,0,0-.9,1.6,1.9,1.9,0,0,0,.7,1.5A2.6,2.6,0,0,0,33.5,17.3Z"/><path class="cls-2" d="M49.7,20a6.4,6.4,0,0,1-4.8-2.1,7.3,7.3,0,0,1-1.4-2.3,8.1,8.1,0,0,1-.5-2.9,8.4,8.4,0,0,1,.5-2.9,7.5,7.5,0,0,1,1.3-2.3,6,6,0,0,1,2-1.6,5.7,5.7,0,0,1,2.5-.6,5.4,5.4,0,0,1,2.8.8,5.5,5.5,0,0,1,2,2V0h3.6V15.6a1.3,1.3,0,0,0,.2.8.8.8,0,0,0,.6.3v3.1l-1.5.2a2.5,2.5,0,0,1-1.6-.5,1.8,1.8,0,0,1-.7-1.3v-.9a5.1,5.1,0,0,1-2.1,2A6,6,0,0,1,49.7,20Zm.9-3.1,1.1-.2,1-.5.8-.8a3.1,3.1,0,0,0,.6-.9V11.2a4,4,0,0,0-.6-1.1l-.9-.9-1.1-.6-1.1-.2a3.2,3.2,0,0,0-1.5.4,3.5,3.5,0,0,0-1.2,1,4.6,4.6,0,0,0-.8,1.4,4.9,4.9,0,0,0-.3,1.6,4.5,4.5,0,0,0,.3,1.6,4.3,4.3,0,0,0,.8,1.3,3.7,3.7,0,0,0,1.2.9A3.8,3.8,0,0,0,50.7,16.9Z"/><path class="cls-2" d="M64.9,20a5.4,5.4,0,0,1-1.9-.3,4.6,4.6,0,0,1-1.5-.9,4.4,4.4,0,0,1-1-1.4,4.3,4.3,0,0,1-.4-1.8,3.9,3.9,0,0,1,.4-1.8,4.2,4.2,0,0,1,1.2-1.4,6.1,6.1,0,0,1,1.9-.9,8.3,8.3,0,0,1,2.4-.3l1.8.2,1.6.5v-.8a2.8,2.8,0,0,0-.8-2.2,3.3,3.3,0,0,0-2.4-.8,6.3,6.3,0,0,0-2.2.4,10.3,10.3,0,0,0-2.2,1.2L60.8,7.1a10.4,10.4,0,0,1,5.9-1.8,6.9,6.9,0,0,1,4.7,1.5,5.5,5.5,0,0,1,1.7,4.3v4.4a1.3,1.3,0,0,0,.2.8.9.9,0,0,0,.7.3v3.1l-1.6.2a2.4,2.4,0,0,1-1.6-.5,2,2,0,0,1-.7-1.2v-.8a6.3,6.3,0,0,1-2.3,1.9A6.6,6.6,0,0,1,64.9,20Zm1-2.6a4.7,4.7,0,0,0,1.7-.3,3.2,3.2,0,0,0,1.3-.9,1.3,1.3,0,0,0,.6-1V13.5l-1.4-.4H66.7a3.9,3.9,0,0,0-2.3.6,1.9,1.9,0,0,0-.9,1.6,1.9,1.9,0,0,0,.7,1.5A2.6,2.6,0,0,0,65.9,17.3Z"/><path class="cls-2" d="M84.7,8.7a7.1,7.1,0,0,0-2.9.6,3.7,3.7,0,0,0-1.9,1.8v8.6H76.2V5.6h3.3v3a6.4,6.4,0,0,1,.9-1.3l1.1-1,1.2-.7,1.2-.2h.7Z"/></g></g></svg>