<svg width="512" height="512" viewBox="0 0 512 512" fill="none" xmlns="http://www.w3.org/2000/svg">
<g clip-path="url(#clip0)">
<path fill-rule="evenodd" clip-rule="evenodd" d="M73.0402 427.94L69.5467 413.642L55.2124 410.148L69.5467 406.655L73.0402 392.32L76.4977 406.655L90.832 410.148L76.4977 413.642L73.0402 427.94Z" fill="white"/>
<path fill-rule="evenodd" clip-rule="evenodd" d="M7.41925 489.742L5.69049 484.051L0 482.323L5.69049 480.558L7.41925 474.903L9.148 480.558L14.8385 482.323L9.148 484.051L7.41925 489.742Z" fill="white"/>
<path fill-rule="evenodd" clip-rule="evenodd" d="M38.7535 450.918L37.0247 445.263L31.3342 443.498L37.0247 441.77L38.7535 436.079L40.5182 441.77L46.1727 443.498L40.5182 445.263L38.7535 450.918Z" fill="white"/>
<path fill-rule="evenodd" clip-rule="evenodd" d="M109.524 400.244L106.03 385.909L91.696 382.416L106.03 378.958L109.524 364.624L112.981 378.958L127.316 382.416L112.981 385.909L109.524 400.244Z" fill="white"/>
<path fill-rule="evenodd" clip-rule="evenodd" d="M177.198 360.445L152.78 365.703L147.521 390.158L142.299 365.703L117.844 360.445L142.299 355.223L147.521 330.768L152.78 355.223L177.198 360.445Z" fill="white"/>
<path fill-rule="evenodd" clip-rule="evenodd" d="M186.346 362.102L182.852 347.768L168.518 344.31L182.852 340.817L186.346 326.482L189.839 340.817L204.137 344.31L189.839 347.768L186.346 362.102Z" fill="white"/>
<path fill-rule="evenodd" clip-rule="evenodd" d="M225.242 351.693L221.749 337.359L207.414 333.866L221.749 330.408L225.242 316.074L228.7 330.408L243.034 333.866L228.7 337.359L225.242 351.693Z" fill="white"/>
<path fill-rule="evenodd" clip-rule="evenodd" d="M263.491 336.495L261.726 330.841L256.036 329.076L261.726 327.347L263.491 321.657L265.22 327.347L270.91 329.076L265.22 330.841L263.491 336.495Z" fill="white"/>
<path fill-rule="evenodd" clip-rule="evenodd" d="M300.408 337.108L298.679 331.417L292.989 329.688L298.679 327.924L300.408 322.269L302.137 327.924L307.827 329.688L302.137 331.417L300.408 337.108Z" fill="white"/>
<path fill-rule="evenodd" clip-rule="evenodd" d="M66.7735 500.115L63.2799 485.781L48.9817 482.323L63.2799 478.83L66.7735 464.496L70.267 478.83L84.6013 482.323L70.267 485.781L66.7735 500.115Z" fill="white"/>
<path fill-rule="evenodd" clip-rule="evenodd" d="M14.6224 407.266L12.8936 401.576L7.20312 399.847L12.8936 398.118L14.6224 392.428L16.3871 398.118L22.0416 399.847L16.3871 401.576L14.6224 407.266Z" fill="white"/>
<path fill-rule="evenodd" clip-rule="evenodd" d="M97.9274 466.476L94.4339 452.178L80.0996 448.684L94.4339 445.191L97.9274 430.856L101.385 445.191L115.719 448.684L101.385 452.178L97.9274 466.476Z" fill="white"/>
<path fill-rule="evenodd" clip-rule="evenodd" d="M161.171 420.448L136.716 425.706L131.494 450.125L126.271 425.706L101.817 420.448L126.271 415.226L131.494 390.771L136.716 415.226L161.171 420.448Z" fill="white"/>
<path d="M120.904 477.065L96.4497 482.323L120.904 487.545L126.127 512L131.385 487.545L155.804 482.323L131.385 477.065L126.127 452.61L120.904 477.065Z" fill="white"/>
<path fill-rule="evenodd" clip-rule="evenodd" d="M166.861 415.586L163.404 401.288L149.07 397.794L163.404 394.301L166.861 379.966L170.355 394.301L184.689 397.794L170.355 401.288L166.861 415.586Z" fill="white"/>
<path fill-rule="evenodd" clip-rule="evenodd" d="M157.065 471.662L153.572 457.328L139.237 453.87L153.572 450.377L157.065 436.042L160.523 450.377L174.857 453.87L160.523 457.328L157.065 471.662Z" fill="white"/>
<path fill-rule="evenodd" clip-rule="evenodd" d="M185.517 500.115L182.024 485.781L167.689 482.323L182.024 478.83L185.517 464.496L188.975 478.83L203.309 482.323L188.975 485.781L185.517 500.115Z" fill="white"/>
<path fill-rule="evenodd" clip-rule="evenodd" d="M244.872 489.742L243.107 484.051L237.452 482.323L243.107 480.558L244.872 474.903L246.6 480.558L252.291 482.323L246.6 484.051L244.872 489.742Z" fill="white"/>
<path fill-rule="evenodd" clip-rule="evenodd" d="M216.203 466.44L214.438 460.786L208.747 459.021L214.438 457.293L216.203 451.602L217.931 457.293L223.622 459.021L217.931 460.786L216.203 466.44Z" fill="white"/>
<path fill-rule="evenodd" clip-rule="evenodd" d="M189.983 448.577L186.489 434.242L172.155 430.749L186.489 427.291L189.983 412.957L193.44 427.291L207.774 430.749L193.44 434.242L189.983 448.577Z" fill="white"/>
<path fill-rule="evenodd" clip-rule="evenodd" d="M248.473 448.504L246.744 442.814L241.054 441.085L246.744 439.32L248.473 433.666L250.202 439.32L255.892 441.085L250.202 442.814L248.473 448.504Z" fill="white"/>
<path fill-rule="evenodd" clip-rule="evenodd" d="M224.235 420.592L222.47 414.902L216.815 413.173L222.47 411.408L224.235 405.754L225.963 411.408L231.654 413.173L225.963 414.902L224.235 420.592Z" fill="white"/>
<path fill-rule="evenodd" clip-rule="evenodd" d="M203.344 398.586L199.851 384.252L185.517 380.758L199.851 377.301L203.344 362.966L206.802 377.301L221.136 380.758L206.802 384.252L203.344 398.586Z" fill="white"/>
<path fill-rule="evenodd" clip-rule="evenodd" d="M91.7315 357.96L88.2379 343.626L73.9397 340.169L88.2379 336.675L91.7315 322.341L95.225 336.675L109.559 340.169L95.225 343.626L91.7315 357.96Z" fill="white"/>
<path fill-rule="evenodd" clip-rule="evenodd" d="M52.1507 374.492L50.4219 368.802L44.7314 367.037L50.4219 365.308L52.1507 359.618L53.9155 365.308L59.5699 367.037L53.9155 368.802L52.1507 374.492Z" fill="white"/>
<path fill-rule="evenodd" clip-rule="evenodd" d="M36.0523 327.311L34.3235 321.62L28.6331 319.891L34.3235 318.163L36.0523 312.472L37.8171 318.163L43.4715 319.891L37.8171 321.62L36.0523 327.311Z" fill="white"/>
<path fill-rule="evenodd" clip-rule="evenodd" d="M78.73 301.524L76.9653 295.87L71.3108 294.105L76.9653 292.376L78.73 286.686L80.4588 292.376L86.1493 294.105L80.4588 295.87L78.73 301.524Z" fill="white"/>
<path fill-rule="evenodd" clip-rule="evenodd" d="M203.489 304.19L179.034 309.448L173.812 333.867L168.59 309.448L144.135 304.19L168.59 298.967L173.812 274.513L179.034 298.967L203.489 304.19Z" fill="white"/>
<path fill-rule="evenodd" clip-rule="evenodd" d="M239.145 253.37L214.69 258.593L209.468 283.047L204.245 258.593L179.791 253.37L204.245 248.112L209.468 223.693L214.69 248.112L239.145 253.37Z" fill="white"/>
<path fill-rule="evenodd" clip-rule="evenodd" d="M283.048 209.468L258.593 214.69L253.371 239.145L248.148 214.69L223.694 209.468L248.148 204.209L253.371 179.791L258.593 204.209L283.048 209.468Z" fill="white"/>
<path fill-rule="evenodd" clip-rule="evenodd" d="M333.867 173.812L309.412 179.035L304.19 203.489L298.967 179.035L274.513 173.812L298.967 168.59L304.19 144.135L309.412 168.59L333.867 173.812Z" fill="white"/>
<path fill-rule="evenodd" clip-rule="evenodd" d="M390.158 147.521L365.704 152.78L360.445 177.234L355.223 152.78L330.768 147.521L355.223 142.299L360.445 117.844L365.704 142.299L390.158 147.521Z" fill="white"/>
<path fill-rule="evenodd" clip-rule="evenodd" d="M450.125 131.493L425.67 136.716L420.448 161.17L415.226 136.716L390.771 131.493L415.226 126.271L420.448 101.816L425.67 126.271L450.125 131.493Z" fill="white"/>
<path fill-rule="evenodd" clip-rule="evenodd" d="M512 126.127L487.546 131.385L482.323 155.804L477.065 131.385L452.646 126.127L477.065 120.904L482.323 96.4497L487.546 120.904L512 126.127Z" fill="white"/>
<path fill-rule="evenodd" clip-rule="evenodd" d="M122.382 292.304L118.888 278.006L104.59 274.512L118.888 271.019L122.382 256.685L125.875 271.019L140.209 274.512L125.875 278.006L122.382 292.304Z" fill="white"/>
<path fill-rule="evenodd" clip-rule="evenodd" d="M214.834 312.833L211.376 298.499L197.042 295.042L211.376 291.548L214.834 277.214L218.327 291.548L232.662 295.042L218.327 298.499L214.834 312.833Z" fill="white"/>
<path fill-rule="evenodd" clip-rule="evenodd" d="M132.538 337L129.045 322.702L114.71 319.208L129.045 315.715L132.538 301.38L135.996 315.715L150.33 319.208L135.996 322.702L132.538 337Z" fill="white"/>
<path fill-rule="evenodd" clip-rule="evenodd" d="M254.955 309.339L251.462 295.005L237.127 291.512L251.462 288.054L254.955 273.72L258.413 288.054L272.747 291.512L258.413 295.005L254.955 309.339Z" fill="white"/>
<path fill-rule="evenodd" clip-rule="evenodd" d="M166.213 278.798L162.719 264.464L148.421 260.97L162.719 257.513L166.213 243.178L169.706 257.513L184.004 260.97L169.706 264.464L166.213 278.798Z" fill="white"/>
<path fill-rule="evenodd" clip-rule="evenodd" d="M163.979 233.022L160.522 218.688L146.188 215.194L160.522 211.737L163.979 197.402L167.473 211.737L181.807 215.194L167.473 218.688L163.979 233.022Z" fill="white"/>
<path fill-rule="evenodd" clip-rule="evenodd" d="M251.462 269.254L247.969 254.92L233.635 251.463L247.969 247.969L251.462 233.635L254.92 247.969L269.254 251.463L254.92 254.92L251.462 269.254Z" fill="white"/>
<path fill-rule="evenodd" clip-rule="evenodd" d="M291.512 272.747L288.018 258.413L273.72 254.919L288.018 251.462L291.512 237.127L295.005 251.462L309.339 254.919L295.005 258.413L291.512 272.747Z" fill="white"/>
<path fill-rule="evenodd" clip-rule="evenodd" d="M215.194 181.807L211.737 167.473L197.403 163.979L211.737 160.522L215.194 146.188L218.688 160.522L233.022 163.979L218.688 167.473L215.194 181.807Z" fill="white"/>
<path fill-rule="evenodd" clip-rule="evenodd" d="M333.866 243.034L330.408 228.7L316.074 225.242L330.408 221.749L333.866 207.415L337.359 221.749L351.693 225.242L337.359 228.7L333.866 243.034Z" fill="white"/>
<path fill-rule="evenodd" clip-rule="evenodd" d="M295.042 232.662L291.548 218.327L277.214 214.834L291.548 211.376L295.042 197.042L298.499 211.376L312.833 214.834L298.499 218.327L295.042 232.662Z" fill="white"/>
<path fill-rule="evenodd" clip-rule="evenodd" d="M240.153 376.797L238.425 371.143L232.734 369.378L238.425 367.649L240.153 361.958L241.882 367.649L247.573 369.378L241.882 371.143L240.153 376.797Z" fill="white"/>
<path fill-rule="evenodd" clip-rule="evenodd" d="M259.169 408.527L257.44 402.836L251.75 401.108L257.44 399.343L259.169 393.688L260.934 399.343L266.588 401.108L260.934 402.836L259.169 408.527Z" fill="white"/>
<path fill-rule="evenodd" clip-rule="evenodd" d="M276.672 370.999L274.944 365.344L269.253 363.579L274.944 361.851L276.672 356.16L278.401 361.851L284.092 363.579L278.401 365.344L276.672 370.999Z" fill="white"/>
<path fill-rule="evenodd" clip-rule="evenodd" d="M293.421 300.84L291.692 295.149L286.001 293.421L291.692 291.692L293.421 286.001L295.149 291.692L300.84 293.421L295.149 295.149L293.421 300.84Z" fill="white"/>
<path fill-rule="evenodd" clip-rule="evenodd" d="M329.688 307.827L327.96 302.172L322.269 300.408L327.96 298.679L329.688 292.988L331.417 298.679L337.108 300.408L331.417 302.172L329.688 307.827Z" fill="white"/>
<path fill-rule="evenodd" clip-rule="evenodd" d="M363.579 284.092L361.851 278.401L356.16 276.673L361.851 274.944L363.579 269.253L365.308 274.944L370.999 276.673L365.308 278.401L363.579 284.092Z" fill="white"/>
<path fill-rule="evenodd" clip-rule="evenodd" d="M380.758 221.136L377.301 206.802L362.966 203.308L377.301 199.851L380.758 185.517L384.252 199.851L398.586 203.308L384.252 206.802L380.758 221.136Z" fill="white"/>
<path fill-rule="evenodd" clip-rule="evenodd" d="M344.31 204.137L340.817 189.839L326.483 186.345L340.817 182.852L344.31 168.518L347.768 182.852L362.102 186.345L347.768 189.839L344.31 204.137Z" fill="white"/>
<path fill-rule="evenodd" clip-rule="evenodd" d="M329.076 270.874L327.347 265.22L321.657 263.455L327.347 261.726L329.076 256.036L330.805 261.726L336.495 263.455L330.805 265.22L329.076 270.874Z" fill="white"/>
<path fill-rule="evenodd" clip-rule="evenodd" d="M369.377 247.573L367.649 241.882L361.958 240.154L367.649 238.425L369.377 232.734L371.142 238.425L376.797 240.154L371.142 241.882L369.377 247.573Z" fill="white"/>
<path fill-rule="evenodd" clip-rule="evenodd" d="M401.071 266.553L399.342 260.862L393.652 259.134L399.342 257.369L401.071 251.714L402.8 257.369L408.49 259.134L402.8 260.862L401.071 266.553Z" fill="white"/>
<path fill-rule="evenodd" clip-rule="evenodd" d="M71.0595 252.291L69.2947 246.6L63.6042 244.871L69.2947 243.107L71.0595 237.452L72.7883 243.107L78.4788 244.871L72.7883 246.6L71.0595 252.291Z" fill="white"/>
<path fill-rule="evenodd" clip-rule="evenodd" d="M117.591 234.355L115.826 228.665L110.172 226.936L115.826 225.171L117.591 219.517L119.32 225.171L125.01 226.936L119.32 228.665L117.591 234.355Z" fill="white"/>
<path fill-rule="evenodd" clip-rule="evenodd" d="M167.51 174.929L165.745 169.238L160.091 167.51L165.745 165.745L167.51 160.09L169.239 165.745L174.929 167.51L169.239 169.238L167.51 174.929Z" fill="white"/>
<path fill-rule="evenodd" clip-rule="evenodd" d="M209.468 227.296L205.975 212.962L191.677 209.468L205.975 205.975L209.468 191.676L212.962 205.975L227.296 209.468L212.962 212.962L209.468 227.296Z" fill="white"/>
<path fill-rule="evenodd" clip-rule="evenodd" d="M260.97 184.005L257.513 169.707L243.178 166.213L257.513 162.72L260.97 148.385L264.464 162.72L278.798 166.213L264.464 169.707L260.97 184.005Z" fill="white"/>
<path fill-rule="evenodd" clip-rule="evenodd" d="M118.528 184.473L116.799 178.782L111.109 177.054L116.799 175.325L118.528 169.634L120.257 175.325L125.947 177.054L120.257 178.782L118.528 184.473Z" fill="white"/>
<path fill-rule="evenodd" clip-rule="evenodd" d="M177.054 125.947L175.325 120.257L169.635 118.528L175.325 116.799L177.054 111.109L178.783 116.799L184.473 118.528L178.783 120.257L177.054 125.947Z" fill="white"/>
<path fill-rule="evenodd" clip-rule="evenodd" d="M226.936 125.01L225.171 119.32L219.517 117.591L225.171 115.826L226.936 110.172L228.665 115.826L234.355 117.591L228.665 119.32L226.936 125.01Z" fill="white"/>
<path fill-rule="evenodd" clip-rule="evenodd" d="M274.512 140.209L271.018 125.875L256.72 122.382L271.018 118.924L274.512 104.59L278.005 118.924L292.303 122.382L278.005 125.875L274.512 140.209Z" fill="white"/>
<path fill-rule="evenodd" clip-rule="evenodd" d="M319.208 150.33L315.714 135.996L301.416 132.538L315.714 129.045L319.208 114.71L322.701 129.045L336.999 132.538L322.701 135.996L319.208 150.33Z" fill="white"/>
<path fill-rule="evenodd" clip-rule="evenodd" d="M294.105 86.149L292.376 80.4586L286.686 78.7298L292.376 76.965L294.105 71.3105L295.834 76.965L301.524 78.7298L295.834 80.4586L294.105 86.149Z" fill="white"/>
<path fill-rule="evenodd" clip-rule="evenodd" d="M244.872 78.4425L243.143 72.788L237.452 71.0232L243.143 69.2945L244.872 63.604L246.6 69.2945L252.291 71.0232L246.6 72.788L244.872 78.4425Z" fill="white"/>
<path fill-rule="evenodd" clip-rule="evenodd" d="M319.891 43.4713L318.163 37.7808L312.472 36.0521L318.163 34.3233L319.891 28.6328L321.62 34.3233L327.311 36.0521L321.62 37.7808L319.891 43.4713Z" fill="white"/>
<path fill-rule="evenodd" clip-rule="evenodd" d="M340.169 109.56L336.675 95.2253L322.341 91.7317L336.675 88.2382L340.169 73.9399L343.626 88.2382L357.961 91.7317L343.626 95.2253L340.169 109.56Z" fill="white"/>
<path fill-rule="evenodd" clip-rule="evenodd" d="M410.147 90.832L406.654 76.4977L392.355 73.0042L406.654 69.5467L410.147 55.2124L413.641 69.5467L427.939 73.0042L413.641 76.4977L410.147 90.832Z" fill="white"/>
<path fill-rule="evenodd" clip-rule="evenodd" d="M382.416 127.315L378.922 113.017L364.624 109.524L378.922 106.03L382.416 91.6958L385.909 106.03L400.208 109.524L385.909 113.017L382.416 127.315Z" fill="white"/>
<path fill-rule="evenodd" clip-rule="evenodd" d="M448.685 115.719L445.191 101.385L430.893 97.8914L445.191 94.4339L448.685 80.0996L452.178 94.4339L466.476 97.8914L452.178 101.385L448.685 115.719Z" fill="white"/>
<path fill-rule="evenodd" clip-rule="evenodd" d="M482.324 84.601L478.83 70.2668L464.496 66.7732L478.83 63.2797L482.324 48.9814L485.781 63.2797L500.115 66.7732L485.781 70.2668L482.324 84.601Z" fill="white"/>
<path fill-rule="evenodd" clip-rule="evenodd" d="M367.037 59.5699L365.308 53.9155L359.618 52.1507L365.308 50.4219L367.037 44.7314L368.802 50.4219L374.456 52.1507L368.802 53.9155L367.037 59.5699Z" fill="white"/>
<path fill-rule="evenodd" clip-rule="evenodd" d="M443.498 46.1725L441.77 40.518L436.079 38.7532L441.77 37.0245L443.498 31.334L445.227 37.0245L450.918 38.7532L445.227 40.518L443.498 46.1725Z" fill="white"/>
<path fill-rule="evenodd" clip-rule="evenodd" d="M482.323 14.8385L480.558 9.148L474.903 7.41925L480.558 5.69049L482.323 0L484.051 5.69049L489.742 7.41925L484.051 9.148L482.323 14.8385Z" fill="white"/>
<path fill-rule="evenodd" clip-rule="evenodd" d="M399.847 22.0416L398.118 16.3871L392.427 14.6224L398.118 12.8936L399.847 7.20312L401.575 12.8936L407.266 14.6224L401.575 16.3871L399.847 22.0416Z" fill="white"/>
<path fill-rule="evenodd" clip-rule="evenodd" d="M397.793 184.689L394.3 170.355L380.002 166.861L394.3 163.404L397.793 149.069L401.287 163.404L415.585 166.861L401.287 170.355L397.793 184.689Z" fill="white"/>
<path fill-rule="evenodd" clip-rule="evenodd" d="M453.834 174.857L450.377 160.523L436.042 157.065L450.377 153.572L453.834 139.237L457.328 153.572L471.662 157.065L457.328 160.523L453.834 174.857Z" fill="white"/>
<path fill-rule="evenodd" clip-rule="evenodd" d="M430.749 207.774L427.291 193.44L412.957 189.947L427.291 186.489L430.749 172.155L434.242 186.489L448.577 189.947L434.242 193.44L430.749 207.774Z" fill="white"/>
<path fill-rule="evenodd" clip-rule="evenodd" d="M482.324 203.309L478.83 188.975L464.496 185.517L478.83 182.024L482.324 167.689L485.781 182.024L500.115 185.517L485.781 188.975L482.324 203.309Z" fill="white"/>
<path fill-rule="evenodd" clip-rule="evenodd" d="M413.173 231.654L411.408 225.963L405.717 224.235L411.408 222.47L413.173 216.815L414.901 222.47L420.592 224.235L414.901 225.963L413.173 231.654Z" fill="white"/>
<path fill-rule="evenodd" clip-rule="evenodd" d="M441.085 255.892L439.32 250.202L433.666 248.473L439.32 246.744L441.085 241.054L442.814 246.744L448.504 248.473L442.814 250.202L441.085 255.892Z" fill="white"/>
<path fill-rule="evenodd" clip-rule="evenodd" d="M459.021 223.586L457.293 217.931L451.602 216.166L457.293 214.438L459.021 208.747L460.75 214.438L466.44 216.166L460.75 217.931L459.021 223.586Z" fill="white"/>
<path fill-rule="evenodd" clip-rule="evenodd" d="M482.323 252.291L480.558 246.6L474.903 244.871L480.558 243.107L482.323 237.452L484.051 243.107L489.742 244.871L484.051 246.6L482.323 252.291Z" fill="white"/>
</g>
<defs>
<clipPath id="clip0">
<rect width="512" height="512" fill="white"/>
</clipPath>
</defs>
</svg>
