<svg width="130" height="130" viewBox="0 0 130 130" fill="none" xmlns="http://www.w3.org/2000/svg">
<g clip-path="url(#clip0_1_244)">
<mask id="mask0_1_244" style="mask-type:luminance" maskUnits="userSpaceOnUse" x="0" y="0" width="130" height="130">
<path d="M129.538 0.0712891H0V129.609H129.538V0.0712891Z" fill="white"/>
</mask>
<g mask="url(#mask0_1_244)">
<path d="M64.7691 129.61C100.54 129.61 129.538 100.611 129.538 64.8404C129.538 29.0694 100.54 0.0712891 64.7691 0.0712891C28.9981 0.0712891 0 29.0694 0 64.8404C0 100.611 28.9981 129.61 64.7691 129.61Z" fill="#EBF8ED"/>
<path d="M64.9058 39.456C60.2422 39.4291 55.6607 40.6836 51.6614 43.0827C47.6621 45.4818 44.3985 48.9332 42.2268 53.0605C40.0552 57.1877 39.0587 61.8321 39.3463 66.4869C39.6339 71.1418 41.1945 75.6281 43.8578 79.4566L41.6341 92.0886C41.581 92.3974 41.6099 92.7138 41.7175 93.0072C41.8253 93.3014 42.0082 93.5614 42.248 93.7624C42.4878 93.9634 42.7761 94.0976 43.0841 94.1524C43.3921 94.2063 43.709 94.1797 44.0031 94.0728L57.2341 89.2577C60.7299 90.3388 64.4176 90.6544 68.0461 90.1822C71.6746 89.7093 75.1588 88.4606 78.2614 86.5209C81.364 84.5813 84.0122 81.9957 86.0258 78.9403C88.0391 75.8851 89.3708 72.4318 89.9301 68.8155C90.4886 65.1993 90.2619 61.5052 89.2647 57.9845C88.2675 54.4639 86.5236 51.1994 84.1513 48.4134C81.7791 45.6273 78.8345 43.3852 75.5179 41.8394C72.2013 40.2937 68.5905 39.4808 64.9314 39.456H64.9058Z" fill="#33B44A"/>
<path d="M64.5381 107.278V105.123C75.2242 105.184 85.4975 101 93.0997 93.4895C100.701 85.9795 105.01 75.7574 105.078 65.0713H107.233C107.167 76.3313 102.633 87.1041 94.6272 95.0222C86.621 102.94 75.7981 107.355 64.5381 107.295V107.278Z" fill="#33B44A"/>
<path d="M95.3533 34.6839L95.302 34.6326C87.2822 26.5577 76.3896 21.989 65.009 21.9264C53.6283 21.8639 42.6864 26.3126 34.5782 34.299L34.5269 34.3503C30.4879 38.3044 27.2771 43.0235 25.0817 48.232C22.8864 53.4406 21.7506 59.0342 21.7407 64.6865H24.9736C24.9817 59.4639 26.0294 54.2953 28.0558 49.4819C30.0822 44.6685 33.0466 40.3067 36.7762 36.651L36.8361 36.5997C44.3322 29.2141 54.4489 25.0991 64.972 25.1552C75.495 25.2113 85.5674 29.4339 92.9842 36.899L93.0355 36.9589C96.7294 40.655 99.6493 45.0498 101.626 49.8869C103.602 54.7239 104.595 59.9062 104.547 65.1312H107.789C107.837 59.4853 106.763 53.8861 104.628 48.659C102.493 43.4321 99.3405 38.6816 95.3533 34.6839Z" fill="#33B44A"/>
<path d="M32.2262 56.587C32.4486 54.0212 28.6854 51.8318 27.3256 54.0212C26.685 54.906 26.33 55.9653 26.3078 57.0574C26.3288 56.3008 26.2512 55.5446 26.0769 54.8081C25.7087 57.7119 25.5829 60.6413 25.7006 63.566L26.4532 63.6258C26.5045 66.7338 26.7187 69.8369 27.0947 72.9225L27.146 73.3331C27.1913 73.6653 27.3367 73.9757 27.5628 74.2232C27.789 74.4707 28.085 74.6435 28.4118 74.7186C28.5847 74.7443 28.7605 74.7443 28.9335 74.7186C29.8094 74.7053 30.6458 74.3514 31.2653 73.732C31.8848 73.1125 32.2386 72.2761 32.2519 71.4002L32.2262 56.587ZM26.3164 58.2975C26.3591 59.341 26.4789 60.4186 26.4703 61.4962C26.331 60.4447 26.2795 59.3833 26.3164 58.3232V58.2975Z" fill="#253745"/>
<path d="M30.6013 38.6267C31.2599 37.9083 33.2869 40.7991 33.0132 41.3293C27.8514 48.7587 25.2677 57.6755 25.6579 66.7136C25.6579 66.9188 25.7007 67.1326 25.7263 67.3293C25.752 67.5261 25.7263 67.6287 25.7862 67.7741V68.0563C25.7862 68.253 25.8461 68.4754 25.8717 68.6636V68.7918C25.8717 68.9714 25.9231 69.1767 25.9402 69.3221L25.9915 69.6899C26.0342 70.032 26.0685 70.3484 26.1199 70.682L26.1625 70.9471C26.2224 71.3149 26.2737 71.657 26.3507 72.0076L26.4191 72.307H26.1113H25.8632H25.5125L24.9823 72.3668C24.4349 72.4267 23.7507 72.5037 23.4342 72.5122H23.3744C23.202 72.5284 23.0294 72.4832 22.887 72.3846C22.7447 72.2861 22.6417 72.1405 22.5961 71.9734C22.3652 71.5116 15.5145 54.9366 30.6013 38.6267Z" fill="#253745"/>
<path d="M65.0003 20.076C59.1248 20.0309 53.2986 21.1504 47.8583 23.37C42.4179 25.5896 37.4714 28.8652 33.3043 33.0076L34.57 34.2819L36.8536 36.5826L38.0424 37.78C45.2111 30.6932 54.9009 26.7436 64.9811 26.7997C75.0612 26.8558 84.7064 30.9131 91.7954 38.0793L93.0013 36.8819L95.3019 34.6155L96.5848 33.3412C92.459 29.1518 87.543 25.8224 82.1212 23.5454C76.6998 21.2685 70.8806 20.0893 65.0003 20.076Z" fill="#253745"/>
<path d="M68.0792 109.604H64.3503C63.8705 109.604 63.3954 109.509 62.9526 109.325C62.5098 109.14 62.1081 108.869 61.7708 108.527C61.4336 108.186 61.1673 107.781 60.9876 107.336C60.8079 106.891 60.7183 106.415 60.7239 105.935C60.7262 105.458 60.8224 104.986 61.0071 104.545C61.1919 104.106 61.4615 103.706 61.8006 103.37C62.1398 103.034 62.5417 102.768 62.9836 102.588C63.4255 102.407 63.8986 102.316 64.3759 102.317H68.1049C68.5818 102.32 69.0536 102.417 69.4933 102.601C69.933 102.786 70.3318 103.055 70.6671 103.395C71.0023 103.735 71.2674 104.137 71.4471 104.578C71.6268 105.02 71.7174 105.493 71.7141 105.969C71.7152 106.447 71.622 106.92 71.4397 107.362C71.2575 107.804 70.9898 108.205 70.6519 108.542C70.3142 108.88 69.9131 109.148 69.4716 109.331C69.03 109.513 68.5569 109.606 68.0792 109.604Z" fill="#253745"/>
<path d="M68.421 73.4699C66.2401 75.8989 63.2895 77.4811 62.1177 77.4726C61.1256 77.4726 60.4072 76.7371 61.2625 73.5127L63.4434 64.5324C63.6401 63.6173 63.6743 63.241 63.4434 63.241C62.558 63.5581 61.742 64.0431 61.0401 64.6693L60.5441 63.6772C63.1099 61.3338 65.821 59.8199 67.0783 59.8285C68.0704 59.8285 68.2158 61.2055 67.6684 63.3351L65.1881 72.7686C64.9487 73.7949 65.0256 74.1713 65.2908 74.1713C66.2472 73.8289 67.1213 73.2899 67.8566 72.589L68.421 73.4699ZM69.2079 54.4318C69.2171 55.123 68.9524 55.7898 68.4717 56.2865C67.991 56.7832 67.3332 57.0696 66.6421 57.0831C66.3728 57.092 66.1047 57.0418 65.8569 56.9361C65.6089 56.8305 65.3872 56.6718 65.207 56.4713C65.0269 56.2709 64.8929 56.0334 64.8143 55.7757C64.7357 55.5179 64.7144 55.246 64.752 54.9792C64.7463 54.6386 64.8085 54.3004 64.9349 53.9841C65.0613 53.6679 65.2494 53.38 65.4882 53.1372C65.727 52.8944 66.0118 52.7015 66.3259 52.5699C66.64 52.4383 66.9772 52.3705 67.3177 52.3706C67.5778 52.3741 67.8343 52.4316 68.0711 52.5393C68.3079 52.6469 68.5197 52.8025 68.6934 52.9962C68.867 53.1899 68.9985 53.4174 69.0797 53.6645C69.1609 53.9116 69.19 54.1729 69.1651 54.4318H69.2079Z" fill="white"/>
<path d="M28.164 55.3128C27.596 59.8506 27.4215 64.429 27.6423 68.997C27.7021 70.2884 27.8048 71.5628 27.9331 72.8799C27.9404 73.1187 27.8557 73.3513 27.6967 73.5295C27.5375 73.7079 27.3159 73.8182 27.0778 73.8378C26.8369 73.8817 26.5883 73.8318 26.3832 73.6981C26.178 73.5645 26.0317 73.3575 25.9745 73.1193C25.4114 67.2265 25.4515 61.2916 26.0942 55.4068C26.1145 55.2357 26.1861 55.0747 26.2995 54.945L26.4192 54.8082C26.522 54.6902 26.6488 54.5957 26.7912 54.531C26.9335 54.4661 27.0881 54.4326 27.2446 54.4326C27.4009 54.4326 27.5555 54.4661 27.6979 54.531C27.8403 54.5957 27.9671 54.6902 28.0699 54.8082C28.1232 54.8813 28.1612 54.9644 28.1819 55.0526C28.2024 55.1408 28.205 55.2321 28.1896 55.3213L28.164 55.3128Z" fill="#33B44A"/>
<path d="M97.5513 56.587C97.3375 54.0212 101.101 51.8318 102.461 54.0212C103.099 54.891 103.458 55.9356 103.487 57.0147C103.476 56.2692 103.556 55.5253 103.726 54.7995C104.092 57.7036 104.215 60.6329 104.094 63.5574L103.35 63.6173C103.299 66.7252 103.085 69.8284 102.709 72.914L102.657 73.3245C102.612 73.6567 102.467 73.9672 102.241 74.2147C102.014 74.4622 101.718 74.635 101.391 74.7101C101.219 74.7358 101.043 74.7358 100.87 74.7101C99.9957 74.6977 99.1601 74.3515 98.5332 73.7424C97.9071 73.1333 97.5368 72.3074 97.5 71.4344L97.5513 56.587ZM103.47 58.2975C103.47 59.341 103.307 60.4186 103.307 61.4962C103.459 60.4458 103.519 59.3841 103.487 58.3232L103.47 58.2975Z" fill="#253745"/>
<path d="M99.2105 38.6267C98.552 37.9083 96.525 40.7991 96.7987 41.3293C101.971 48.7553 104.57 57.6711 104.197 66.7136C104.197 66.9188 104.197 67.1326 104.128 67.3293C104.06 67.5261 104.128 67.6287 104.06 67.7741V68.0563C104.06 68.253 104 68.4754 103.974 68.6636V68.7918C103.974 68.9714 103.974 69.1767 103.914 69.3221L103.863 69.6899C103.863 70.032 103.786 70.3484 103.726 70.682V70.9471C103.666 71.3149 103.615 71.657 103.538 72.0076L103.47 72.307H103.778H104.026H104.376L104.907 72.3668C105.454 72.4267 106.13 72.5037 106.455 72.5122H106.506C106.68 72.5305 106.854 72.4863 106.999 72.3876C107.142 72.2888 107.247 72.1421 107.293 71.9734C107.421 71.5116 114.272 54.9366 99.2105 38.6267Z" fill="#253745"/>
<path d="M101.614 55.313C102.184 59.8506 102.361 64.429 102.144 68.9972C102.076 70.2886 101.982 71.563 101.845 72.8801C101.839 73.1184 101.924 73.3499 102.083 73.5277C102.242 73.7055 102.462 73.8163 102.7 73.838C102.94 73.8798 103.188 73.829 103.393 73.6957C103.597 73.5624 103.744 73.3565 103.803 73.1195C104.366 67.2267 104.326 61.2918 103.684 55.407C103.658 55.2373 103.587 55.0776 103.478 54.9452L103.359 54.8084C103.255 54.7026 103.133 54.6185 102.997 54.5611C102.861 54.5037 102.715 54.4741 102.567 54.4741C102.419 54.4741 102.273 54.5037 102.137 54.5611C102.002 54.6185 101.879 54.7026 101.776 54.8084C101.675 54.9594 101.633 55.1417 101.657 55.3215L101.614 55.313Z" fill="#33B44A"/>
</g>
</g>
<defs>
<clipPath id="clip0_1_244">
<rect width="130" height="130" fill="white"/>
</clipPath>
</defs>
</svg>
