<svg height="512pt" viewBox="0 0 512 512" width="512pt" xmlns="http://www.w3.org/2000/svg">
  <g fill="#87e8de">
    <path d="m203.886719 422.871094 145.910156-29.132813 6.265625 31.378907-145.910156 29.132812zm0 0"/>
    <path d="m393.71875 349.832031 29.132812-145.914062 31.378907 6.265625-29.132813 145.914062zm0 0"/>
    <path d="m246.507812 96.621094 11.894532-29.707032 151.039062 60.476563-11.894531 29.707031zm0 0"/>
    <path d="m84.117188 177.589844 80.003906-88.636719 23.753906 21.4375-80.003906 88.636719zm0 0"/>
    <path d="m68.179688 274.460938 29.40625-12.621094 58.238281 135.6875-29.40625 12.621094zm0 0"/>
  </g>
  <path d="m512 160c0 35.347656-28.652344 64-64 64s-64-28.652344-64-64 28.652344-64 64-64 64 28.652344 64 64zm0 0"
        fill="#13c2c2"/>
  <path d="m272 64c0 35.347656-28.652344 64-64 64s-64-28.652344-64-64 28.652344-64 64-64 64 28.652344 64 64zm0 0"
        fill="#13c2c2"/>
  <path d="m128 224c0 35.347656-28.652344 64-64 64s-64-28.652344-64-64 28.652344-64 64-64 64 28.652344 64 64zm0 0"
        fill="#13c2c2"/>
  <path d="m224 448c0 35.347656-28.652344 64-64 64s-64-28.652344-64-64 28.652344-64 64-64 64 28.652344 64 64zm0 0"
        fill="#13c2c2"/>
  <path d="m464 400c0 35.347656-28.652344 64-64 64s-64-28.652344-64-64 28.652344-64 64-64 64 28.652344 64 64zm0 0"
        fill="#13c2c2"/>
  <path d="m192 48h32v32h-32zm0 0" fill="#13c2c2"/>
  <path d="m432 144h32v32h-32zm0 0" fill="#13c2c2"/>
  <path d="m384 384h32v32h-32zm0 0" fill="#13c2c2"/>
  <path d="m144 432h32v32h-32zm0 0" fill="#13c2c2"/>
  <path d="m48 208h32v32h-32zm0 0" fill="#13c2c2"/>
</svg>
