<svg width="130" height="131" viewBox="0 0 130 131" fill="none" xmlns="http://www.w3.org/2000/svg">
<g clip-path="url(#clip0_1_272)">
<mask id="mask0_1_272" style="mask-type:luminance" maskUnits="userSpaceOnUse" x="0" y="0" width="130" height="131">
<path d="M129.531 0.589844H0.00758171V130.113H129.531V0.589844Z" fill="white"/>
</mask>
<g mask="url(#mask0_1_272)">
<path d="M64.7691 130.113C100.536 130.113 129.531 101.118 129.531 65.3513C129.531 29.5845 100.536 0.589844 64.7691 0.589844C29.0023 0.589844 0.00758171 29.5845 0.00758171 65.3513C0.00758171 101.118 29.0023 130.113 64.7691 130.113Z" fill="#EBF8ED"/>
<g style="mix-blend-mode:multiply">
<path d="M70.9859 98.8567L77.2628 95.0683C75.4156 94.0421 75.1933 92.443 76.7668 91.4937C77.7395 91.0225 78.8101 90.7882 79.8908 90.8105C80.9714 90.8327 82.0313 91.1106 82.9838 91.622L89.261 87.8422C87.4053 86.816 87.1829 85.208 88.765 84.2588C89.7322 83.8013 90.7934 83.5754 91.8641 83.5992C92.9339 83.6229 93.9841 83.8956 94.9307 84.3956L98.0606 82.5057L91.5101 78.8371L69.7202 91.947L19.3939 64.1026L41.1407 50.9844L34.3678 47.2388L31.2293 49.1287C33.085 50.1549 33.3074 51.754 31.7339 52.7118C30.759 53.1765 29.6889 53.4061 28.6091 53.3823C27.5295 53.3586 26.4704 53.0821 25.5168 52.575L19.24 56.3634C21.0957 57.3896 21.318 58.9887 19.7359 59.9379C18.7626 60.4026 17.6937 60.6322 16.6155 60.6084C15.5372 60.5846 14.4794 60.3081 13.5275 59.8011L7.25059 63.5895L14.6221 67.6686C15.5955 67.2041 16.6643 66.9745 17.7426 66.9983C18.8209 67.022 19.8786 67.2985 20.8306 67.8055C22.6863 68.8316 22.9086 70.4394 21.3351 71.3886L28.7066 75.4677C29.6815 75.0031 30.7517 74.7735 31.8314 74.7973C32.9111 74.821 33.9701 75.0975 34.9236 75.6045C36.7794 76.6307 37.0017 78.23 35.4196 79.1878L42.7655 83.2668C43.7381 82.8003 44.8066 82.5689 45.885 82.5911C46.9635 82.6135 48.0216 82.8888 48.974 83.3951C50.8297 84.4213 51.052 86.0292 49.47 86.9785L56.85 91.0576C57.8235 90.5932 58.8922 90.3632 59.9706 90.3871C61.0489 90.4111 62.1066 90.6873 63.0585 91.1944C64.9142 92.2206 65.1366 93.8198 63.5631 94.7776L70.9859 98.8567Z" fill="#33B44A"/>
</g>
<g style="mix-blend-mode:multiply">
<path d="M98.0854 82.5058L101.232 80.6073C99.5221 79.6581 99.2057 78.2129 100.377 77.2465C100.397 77.2505 100.417 77.2505 100.437 77.2465L100.523 77.1867L100.668 77.0926C101.642 76.6281 102.71 76.3985 103.788 76.4222C104.867 76.446 105.925 76.7225 106.876 77.2294L113.145 73.4496C112.8 73.2921 112.49 73.0673 112.233 72.7882C111.976 72.5093 111.777 72.1816 111.648 71.8248C111.565 71.4366 111.619 71.0315 111.801 70.6788C111.984 70.3262 112.284 70.048 112.649 69.8921C113.62 69.4223 114.689 69.189 115.768 69.2112C116.848 69.2336 117.906 69.5108 118.857 70.0204L125.143 66.2406L117.763 62.1529C116.791 62.6227 115.722 62.8561 114.643 62.8338C113.564 62.8115 112.506 62.5342 111.554 62.0246C109.699 60.9984 109.476 59.3907 111.05 58.4415L103.678 54.3624C102.703 54.827 101.633 55.0567 100.553 55.0329C99.4742 55.0091 98.4146 54.7326 97.4611 54.2255C95.614 53.1993 95.3916 51.6002 96.9651 50.6424L89.5936 46.5633C88.6188 47.0279 87.5489 47.2576 86.4689 47.2338C85.3894 47.21 84.3303 46.9335 83.3769 46.4264C81.5297 45.4002 81.2988 43.8011 82.8809 42.8519L75.5094 38.7642C74.5366 39.2355 73.466 39.4695 72.3854 39.4473C71.3048 39.425 70.2447 39.1469 69.2923 38.6359C67.4366 37.6097 67.2143 36.002 68.7963 35.0528L61.4163 30.9736L55.1394 34.762C56.9951 35.7797 57.2174 37.3874 55.6354 38.3366C54.6238 38.8762 53.4756 39.1053 52.3344 38.9951C51.3279 38.9458 50.3444 38.6774 49.4525 38.2083L43.2269 41.8941C45.0826 42.9203 45.305 44.5194 43.74 45.4687L43.5776 45.5627L43.4835 45.614H43.4065C42.4649 45.9756 41.4572 46.1329 40.4502 46.0754C39.4433 46.0179 38.46 45.7469 37.5658 45.2805L34.4188 47.179L41.1917 50.9246L62.2116 38.2853L112.529 66.138L91.5092 78.8371L98.1282 82.5058" fill="#33B44A"/>
</g>
<path d="M35.8046 64.5558L40.4311 61.7936L45.8186 64.7268L41.2007 67.489L35.8046 64.5558ZM50.8299 64.8465L40.0462 58.9459L30.7934 64.4532L41.577 70.3538L50.8213 64.8465H50.8299ZM58.9112 50.7705L63.5376 48.0084L68.9251 50.9587L64.2987 53.7209L58.9112 50.7705ZM73.9449 51.0442L63.1613 45.1607L53.8828 50.6679L64.6578 56.5685L73.9449 51.0442ZM93.6138 67.0785L88.2177 64.1282L83.5997 66.8818L86.2936 68.3613L88.6025 66.9844L91.2963 68.4553L93.6138 67.0785ZM62.7594 79.2646L67.3858 76.511L72.7733 79.4613L68.1555 82.2149L62.7594 79.2646ZM77.8274 79.5896L67.0438 73.6889L57.7567 79.2047L68.5317 85.1054L77.8274 79.5896ZM44.2879 53.336L46.5968 51.9507L49.2906 53.4301L46.9816 54.8069L44.2879 53.336ZM44.6641 56.1752L46.9816 54.7984L52.3691 57.7487L54.6866 56.3719L57.3804 57.8855L52.754 60.6477L44.6641 56.1752ZM25.7907 64.3591L39.6614 56.0897L55.8326 64.9406L41.9618 73.21L25.7907 64.3591ZM48.8801 50.5739L62.7765 42.3044L78.9476 51.1554L65.0769 59.4248L48.9057 50.5739H48.8801ZM51.9758 73.3982L54.6695 74.8776L50.0517 77.6312L44.6641 74.6809L46.9731 73.2784L49.6668 74.7579L51.9758 73.3725L49.282 71.9016L51.591 70.5248L54.2933 71.9957L51.9758 73.3725V73.3982ZM61.2201 67.8909L63.9224 69.3618L59.296 72.1154L56.6022 70.6445L58.9112 69.2677L56.2174 67.7883L60.8438 65.0347L55.4477 62.0844L57.7567 60.7075L60.459 62.1613L62.7679 60.7845L65.4617 62.2639L60.8438 65.0176L63.5376 66.4884L61.2201 67.8909ZM77.7932 61.0496L80.1021 59.6728L82.7959 61.1437L80.4869 62.5205L77.8274 61.0924L77.7932 61.0496ZM52.7454 79.1107L66.6162 70.8412L82.7873 79.6836L68.9166 87.962L52.7454 79.1107ZM87.029 74.0737L89.7228 75.5532L87.4138 76.93L84.7114 75.4506L87.029 74.0737L84.3266 72.6029L86.6442 71.226L89.338 72.6969L87.029 74.0737ZM90.501 62.7599L93.2204 64.2308L97.8383 61.4772L105.928 65.8984L103.594 67.2923L101.276 68.6777L98.5823 67.1982L100.891 65.8214L98.1974 64.3505L95.8885 65.7273L98.5823 67.1982L96.2733 68.575L98.9671 70.0545L92.0317 74.1336L89.338 72.6627L91.6469 71.2859L88.9446 69.8578L86.6356 71.2432L83.9418 69.7637L79.3239 72.5088L84.7114 75.4506L82.4025 76.8359L77.015 73.8856L79.3239 72.5088L76.6301 71.0294L81.248 68.2757L73.1667 63.8716L68.5403 66.6082L71.2341 68.079L73.5516 66.7022L76.2453 68.1475L71.6189 70.9096L66.2314 67.9593L68.5403 66.5825L65.8551 65.1287L70.4815 62.3751L67.7792 60.8957L72.4056 58.1421L77.8274 61.0924L75.5099 62.4692L80.8974 65.4195L87.7987 61.3062L82.411 58.3558L80.1021 59.7412L77.3998 58.2361L79.7173 56.8593L77.0235 55.3799L81.6414 52.6262L84.3352 54.1057L82.0262 55.4825L87.4224 58.4328L89.7313 57.0474L92.4251 58.5269L90.1161 59.9037L92.8099 61.3831L90.501 62.7599ZM69.7204 91.9471L91.5101 78.837L112.573 66.1378L62.2121 38.2852L41.1409 50.9843L19.3941 64.1025L69.7204 91.9471Z" fill="white"/>
<g style="mix-blend-mode:multiply">
<path d="M84.7113 75.4508L79.3238 72.5005L77.0149 73.8859L82.4024 76.8362L84.7113 75.4508Z" fill="#33B44A"/>
</g>
<g style="mix-blend-mode:multiply">
<path d="M89.7228 75.5532L87.029 74.0737L84.7113 75.4505L87.4138 76.93L89.7228 75.5532Z" fill="#33B44A"/>
</g>
<path d="M57.7567 79.2048L67.001 73.689L77.8274 79.5896L68.5317 85.1054L57.7567 79.2048ZM82.7873 79.6837L66.6162 70.8413L52.7454 79.1107L68.9166 87.9619L82.7873 79.6837Z" fill="#1A1A1A"/>
<path d="M72.7733 79.4957L67.3858 76.5454L62.7594 79.299L68.1555 82.2493L72.7733 79.4957Z" fill="#1A1A1A"/>
<g style="mix-blend-mode:multiply">
<path d="M76.245 68.1734L73.5512 66.7025L71.2423 68.0793L68.54 66.6084L66.231 67.9852L71.6185 70.9356L76.245 68.1734Z" fill="#33B44A"/>
</g>
<g style="mix-blend-mode:multiply">
<path d="M83.5656 66.8901L88.1835 64.1365L93.5796 67.0868L91.2621 68.4636L88.5683 66.9927L86.2594 68.3695L83.5656 66.8901ZM105.902 65.8981L97.8126 61.4769L93.2204 64.2306L90.5266 62.7597L92.8356 61.3829L90.1418 59.9034L92.4507 58.5266L89.7313 57.0301L87.4224 58.4154L82.0263 55.4651L84.3352 54.0883L81.6415 52.6089L77.0236 55.3625L79.7174 56.8419L77.3999 58.2359L80.1022 59.7153L82.4111 58.3299L87.7987 61.2802L80.8633 65.4192L75.4758 62.4689L77.8275 61.0921L72.3972 58.1418L67.7707 60.8954L70.473 62.3749L65.8552 65.1285L68.5489 66.6079L73.1668 63.8714L81.2481 68.2755L76.6302 71.0291L79.324 72.5085L83.9504 69.7464L86.6442 71.2258L88.9446 69.8575L91.6383 71.337L89.3294 72.7138L92.0317 74.1333L98.9671 70.0029L96.2733 68.5235L98.5823 67.1467L95.8885 65.6758L98.1974 64.299L100.917 65.8041L98.6079 67.1809L101.302 68.6603L103.594 67.292L105.902 65.9152" fill="#33B44A"/>
</g>
<g style="mix-blend-mode:multiply">
<path d="M82.7961 61.1862L80.1024 59.7153L77.7849 61.0921L80.4872 62.563L82.7961 61.1862Z" fill="#33B44A"/>
</g>
<g style="mix-blend-mode:multiply">
<path d="M54.6694 74.8777L51.9756 73.3983L49.6667 74.7836L46.9729 73.3042L44.664 74.681L50.0515 77.6313L54.6694 74.8777Z" fill="#33B44A"/>
</g>
<g style="mix-blend-mode:multiply">
<path d="M89.338 72.6972L86.6442 71.2178L84.3264 72.6031L87.029 74.074L89.338 72.6972Z" fill="#33B44A"/>
</g>
<path d="M53.8826 50.6682L63.1269 45.1609L73.9447 51.0445L64.6919 56.5688L53.8826 50.6682ZM78.9132 51.1556L62.7763 42.3047L48.9056 50.5741L65.0767 59.4251L78.9475 51.1556" fill="#1A1A1A"/>
<g style="mix-blend-mode:multiply">
<path d="M49.2902 53.4301L46.5965 51.9507L44.279 53.336L46.9813 54.8069L49.2902 53.4301Z" fill="#33B44A"/>
</g>
<g style="mix-blend-mode:multiply">
<path d="M63.9221 69.3618L61.2198 67.8909L63.5372 66.5056L60.8435 65.0347L56.217 67.7883L58.9108 69.2677L56.6019 70.6445L59.2956 72.1154L63.9221 69.3618Z" fill="#33B44A"/>
</g>
<g style="mix-blend-mode:multiply">
<path d="M65.4619 62.281L62.7681 60.8016L60.4592 62.1784L57.7569 60.7075L55.4479 62.0843L60.844 65.0346L65.4619 62.281Z" fill="#33B44A"/>
</g>
<path d="M68.9334 50.9586L63.546 48.0083L58.9194 50.7705L64.3071 53.7208L68.9334 50.9586Z" fill="#1A1A1A"/>
<path d="M45.8182 64.7443L40.4306 61.7939L35.8042 64.5561L41.2003 67.5064L45.8182 64.7443Z" fill="#1A1A1A"/>
<g style="mix-blend-mode:multiply">
<path d="M57.3801 57.8515L54.6863 56.3806L52.3688 57.7574L46.9813 54.8071L44.6723 56.1839L52.7536 60.6137L57.3801 57.8515Z" fill="#33B44A"/>
</g>
<path d="M30.793 64.4533L40.0373 58.9461L50.8209 64.8467L41.5851 70.354L30.793 64.4533ZM55.8236 64.9408L39.661 56.0898L25.7902 64.3593L41.9614 73.2102L55.8321 64.9408" fill="#1A1A1A"/>
<g style="mix-blend-mode:multiply">
<path d="M54.2934 72.0212L51.5911 70.5503L49.2822 71.9271L51.9759 73.398L54.2934 72.0212Z" fill="#33B44A"/>
</g>
</g>
</g>
<defs>
<clipPath id="clip0_1_272">
<rect width="129.985" height="130.84" fill="white" transform="translate(0.00758171)"/>
</clipPath>
</defs>
</svg>
